<?xml version="1.0" encoding="UTF-8" standalone="no"?>
<!DOCTYPE svg PUBLIC "-//W3C//DTD SVG 1.1//EN"
 "http://www.w3.org/Graphics/SVG/1.1/DTD/svg11.dtd">
<!-- Generated by graphviz version 2.38.0 (20140413.2041)
 -->
<!-- Title: src/control/blrm.c Pages: 1 -->
<svg width="571pt" height="140pt"
 viewBox="0.00 0.00 570.50 140.00" xmlns="http://www.w3.org/2000/svg" xmlns:xlink="http://www.w3.org/1999/xlink">
<g id="graph0" class="graph" transform="scale(1 1) rotate(0) translate(4 136)">
<title>src/control/blrm.c</title>
<polygon fill="white" stroke="none" points="-4,4 -4,-136 566.5,-136 566.5,4 -4,4"/>
<!-- Node0 -->
<g id="node1" class="node"><title>Node0</title>
<polygon fill="#bfbfbf" stroke="black" points="267,-112.5 267,-131.5 359,-131.5 359,-112.5 267,-112.5"/>
<text text-anchor="middle" x="313" y="-119.5" font-family="Helvetica,sans-Serif" font-size="10.00">src/control/blrm.c</text>
</g>
<!-- Node1 -->
<g id="node2" class="node"><title>Node1</title>
<polygon fill="white" stroke="#bfbfbf" points="207,-56.5 207,-75.5 269,-75.5 269,-56.5 207,-56.5"/>
<text text-anchor="middle" x="238" y="-63.5" font-family="Helvetica,sans-Serif" font-size="10.00">common.h</text>
</g>
<!-- Node0&#45;&gt;Node1 -->
<g id="edge1" class="edge"><title>Node0&#45;&gt;Node1</title>
<path fill="none" stroke="midnightblue" d="M300.95,-112.324C289.537,-104.107 272.169,-91.6017 258.565,-81.8069"/>
<polygon fill="midnightblue" stroke="midnightblue" points="260.43,-78.8366 250.269,-75.8339 256.34,-84.5174 260.43,-78.8366"/>
</g>
<!-- Node2 -->
<g id="node3" class="node"><title>Node2</title>
<g id="a_node3"><a xlink:href="starsh_8h.html" target="_top" xlink:title="starsh.h">
<polygon fill="white" stroke="black" points="287,-56.5 287,-75.5 339,-75.5 339,-56.5 287,-56.5"/>
<text text-anchor="middle" x="313" y="-63.5" font-family="Helvetica,sans-Serif" font-size="10.00">starsh.h</text>
</a>
</g>
</g>
<!-- Node0&#45;&gt;Node2 -->
<g id="edge2" class="edge"><title>Node0&#45;&gt;Node2</title>
<path fill="none" stroke="midnightblue" d="M313,-112.083C313,-105.006 313,-94.8611 313,-85.9865"/>
<polygon fill="midnightblue" stroke="midnightblue" points="316.5,-85.751 313,-75.7511 309.5,-85.7511 316.5,-85.751"/>
</g>
<!-- Node6 -->
<g id="node7" class="node"><title>Node6</title>
<g id="a_node7"><a xlink:href="starsh-mpi_8h.html" target="_top" xlink:title="starsh&#45;mpi.h">
<polygon fill="white" stroke="black" points="491.5,-0.5 491.5,-19.5 562.5,-19.5 562.5,-0.5 491.5,-0.5"/>
<text text-anchor="middle" x="527" y="-7.5" font-family="Helvetica,sans-Serif" font-size="10.00">starsh&#45;mpi.h</text>
</a>
</g>
</g>
<!-- Node0&#45;&gt;Node6 -->
<g id="edge9" class="edge"><title>Node0&#45;&gt;Node6</title>
<path fill="none" stroke="midnightblue" d="M329.792,-112.368C367.062,-93.2113 456.895,-47.0355 501.287,-24.2172"/>
<polygon fill="midnightblue" stroke="midnightblue" points="502.992,-27.2759 510.286,-19.5914 499.792,-21.0502 502.992,-27.2759"/>
</g>
<!-- Node3 -->
<g id="node4" class="node"><title>Node3</title>
<polygon fill="white" stroke="#bfbfbf" points="0,-0.5 0,-19.5 68,-19.5 68,-0.5 0,-0.5"/>
<text text-anchor="middle" x="34" y="-7.5" font-family="Helvetica,sans-Serif" font-size="10.00">sys/types.h</text>
</g>
<!-- Node2&#45;&gt;Node3 -->
<g id="edge3" class="edge"><title>Node2&#45;&gt;Node3</title>
<path fill="none" stroke="midnightblue" d="M286.677,-58.0073C283.757,-57.2983 280.82,-56.6142 278,-56 192.442,-37.3648 167.806,-37.2796 78.2981,-20.1987"/>
<polygon fill="midnightblue" stroke="midnightblue" points="78.7311,-16.7179 68.2494,-18.2622 77.4064,-23.5914 78.7311,-16.7179"/>
</g>
<!-- Node4 -->
<g id="node5" class="node"><title>Node4</title>
<polygon fill="white" stroke="#bfbfbf" points="86,-0.5 86,-19.5 138,-19.5 138,-0.5 86,-0.5"/>
<text text-anchor="middle" x="112" y="-7.5" font-family="Helvetica,sans-Serif" font-size="10.00">stdarg.h</text>
</g>
<!-- Node2&#45;&gt;Node4 -->
<g id="edge4" class="edge"><title>Node2&#45;&gt;Node4</title>
<path fill="none" stroke="midnightblue" d="M286.723,-57.9404C251.286,-48.4201 188.032,-31.4265 148.137,-20.7085"/>
<polygon fill="midnightblue" stroke="midnightblue" points="148.849,-17.2758 138.284,-18.0613 147.033,-24.0361 148.849,-17.2758"/>
</g>
<!-- Node5 -->
<g id="node6" class="node"><title>Node5</title>
<g id="a_node6"><a xlink:href="starsh-constants_8h.html" target="_top" xlink:title="starsh&#45;constants.h">
<polygon fill="white" stroke="black" points="156,-0.5 156,-19.5 254,-19.5 254,-0.5 156,-0.5"/>
<text text-anchor="middle" x="205" y="-7.5" font-family="Helvetica,sans-Serif" font-size="10.00">starsh&#45;constants.h</text>
</a>
</g>
</g>
<!-- Node2&#45;&gt;Node5 -->
<g id="edge5" class="edge"><title>Node2&#45;&gt;Node5</title>
<path fill="none" stroke="midnightblue" d="M295.648,-56.324C278.328,-47.6641 251.485,-34.2424 231.498,-24.249"/>
<polygon fill="midnightblue" stroke="midnightblue" points="232.819,-20.9962 222.309,-19.6545 229.688,-27.2572 232.819,-20.9962"/>
</g>
<!-- Node2&#45;&gt;Node6 -->
<g id="edge6" class="edge"><title>Node2&#45;&gt;Node6</title>
<path fill="none" stroke="midnightblue" d="M339.241,-58.3785C375.17,-49.3121 440.146,-32.9164 483.438,-21.9924"/>
<polygon fill="midnightblue" stroke="midnightblue" points="484.296,-25.3857 493.135,-19.5453 482.583,-18.5984 484.296,-25.3857"/>
</g>
<!-- Node7 -->
<g id="node8" class="node"><title>Node7</title>
<g id="a_node8"><a xlink:href="starsh-starpu_8h.html" target="_top" xlink:title="starsh&#45;starpu.h">
<polygon fill="white" stroke="black" points="272,-0.5 272,-19.5 354,-19.5 354,-0.5 272,-0.5"/>
<text text-anchor="middle" x="313" y="-7.5" font-family="Helvetica,sans-Serif" font-size="10.00">starsh&#45;starpu.h</text>
</a>
</g>
</g>
<!-- Node2&#45;&gt;Node7 -->
<g id="edge7" class="edge"><title>Node2&#45;&gt;Node7</title>
<path fill="none" stroke="midnightblue" d="M313,-56.083C313,-49.0059 313,-38.8611 313,-29.9865"/>
<polygon fill="midnightblue" stroke="midnightblue" points="316.5,-29.751 313,-19.7511 309.5,-29.7511 316.5,-29.751"/>
</g>
<!-- Node8 -->
<g id="node9" class="node"><title>Node8</title>
<g id="a_node9"><a xlink:href="starsh-mpi-starpu_8h.html" target="_top" xlink:title="starsh&#45;mpi&#45;starpu.h">
<polygon fill="white" stroke="black" points="372.5,-0.5 372.5,-19.5 473.5,-19.5 473.5,-0.5 372.5,-0.5"/>
<text text-anchor="middle" x="423" y="-7.5" font-family="Helvetica,sans-Serif" font-size="10.00">starsh&#45;mpi&#45;starpu.h</text>
</a>
</g>
</g>
<!-- Node2&#45;&gt;Node8 -->
<g id="edge8" class="edge"><title>Node2&#45;&gt;Node8</title>
<path fill="none" stroke="midnightblue" d="M330.673,-56.324C348.394,-47.6247 375.903,-34.1202 396.288,-24.113"/>
<polygon fill="midnightblue" stroke="midnightblue" points="397.936,-27.2031 405.37,-19.6545 394.851,-20.9195 397.936,-27.2031"/>
</g>
</g>
</svg>
