<?xml version="1.0" encoding="UTF-8" standalone="no"?>
<!DOCTYPE svg PUBLIC "-//W3C//DTD SVG 1.1//EN"
 "http://www.w3.org/Graphics/SVG/1.1/DTD/svg11.dtd">
<!-- Generated by graphviz version 2.38.0 (20140413.2041)
 -->
<!-- Title: src/applications/common.c Pages: 1 -->
<!--zoomable 252 -->
<svg id="main" version="1.1" xmlns="http://www.w3.org/2000/svg" xmlns:xlink="http://www.w3.org/1999/xlink" xml:space="preserve" onload="init(evt)">
<style type="text/css"><![CDATA[
.edge:hover path { stroke: red; }
.edge:hover polygon { stroke: red; fill: red; }
]]></style>
<script type="text/javascript"><![CDATA[
var edges = document.getElementsByTagName('g');
if (edges && edges.length) {
  for (var i=0;i<edges.length;i++) {
    if (edges[i].id.substr(0,4)=='edge') {
      edges[i].setAttribute('class','edge');
    }
  }
}
]]></script>
        <defs>
                <circle id="rim" cx="0" cy="0" r="7"/>
                <circle id="rim2" cx="0" cy="0" r="3.5"/>
                <g id="zoomPlus">
                        <use xlink:href="#rim" fill="#404040">
                                <set attributeName="fill" to="#808080" begin="zoomplus.mouseover" end="zoomplus.mouseout"/>
                        </use>
                        <path d="M-4,0h8M0,-4v8" fill="none" stroke="white" stroke-width="1.5" pointer-events="none"/>
                </g>
                <g id="zoomMin">
                        <use xlink:href="#rim" fill="#404040">
                                <set attributeName="fill" to="#808080" begin="zoomminus.mouseover" end="zoomminus.mouseout"/>
                        </use>
                        <path d="M-4,0h8" fill="none" stroke="white" stroke-width="1.5" pointer-events="none"/>
                </g>
                <g id="dirArrow">
                        <path fill="none" stroke="white" stroke-width="1.5" d="M0,-3.0v7 M-2.5,-0.5L0,-3.0L2.5,-0.5"/>
                </g>
               <g id="resetDef">
                       <use xlink:href="#rim2" fill="#404040">
                               <set attributeName="fill" to="#808080" begin="reset.mouseover" end="reset.mouseout"/>
                       </use>
               </g>
        </defs>

<script type="text/javascript">
var viewWidth = 750;
var viewHeight = 252;
var sectionId = 'dynsection-0';
</script>
<script xlink:href="svgpan.js"/>
<svg id="graph" class="graph">
<g id="viewport">
<title>src/applications/common.c</title>
<polygon fill="white" stroke="none" points="-4,4 -4,-248 745.886,-248 745.886,4 -4,4"/>
<!-- Node0 -->
<g id="node1" class="node"><title>Node0</title>
<polygon fill="#bfbfbf" stroke="black" points="383,-224.5 383,-243.5 517,-243.5 517,-224.5 383,-224.5"/>
<text text-anchor="middle" x="450" y="-231.5" font-family="Helvetica,sans-Serif" font-size="10.00">src/applications/common.c</text>
</g>
<!-- Node1 -->
<g id="node2" class="node"><title>Node1</title>
<polygon fill="white" stroke="#bfbfbf" points="0,-168.5 0,-187.5 62,-187.5 62,-168.5 0,-168.5"/>
<text text-anchor="middle" x="31" y="-175.5" font-family="Helvetica,sans-Serif" font-size="10.00">common.h</text>
</g>
<!-- Node0&#45;&gt;Node1 -->
<g id="edge1" class="edge"><title>Node0&#45;&gt;Node1</title>
<path fill="none" stroke="midnightblue" d="M382.949,-227.147C309.121,-220.228 186.75,-207.364 72.362,-188.084"/>
<polygon fill="midnightblue" stroke="midnightblue" points="72.8281,-184.613 62.382,-186.382 71.6511,-191.514 72.8281,-184.613"/>
</g>
<!-- Node2 -->
<g id="node3" class="node"><title>Node2</title>
<g id="a_node3"><a xlink:href="starsh_8h.html" target="_top" xlink:title="starsh.h">
<polygon fill="white" stroke="black" points="403,-56.5 403,-75.5 455,-75.5 455,-56.5 403,-56.5"/>
<text text-anchor="middle" x="429" y="-63.5" font-family="Helvetica,sans-Serif" font-size="10.00">starsh.h</text>
</a>
</g>
</g>
<!-- Node0&#45;&gt;Node2 -->
<g id="edge2" class="edge"><title>Node0&#45;&gt;Node2</title>
<path fill="none" stroke="midnightblue" d="M517.359,-227.226C618.526,-216.046 791.441,-185.704 728,-112 694.531,-73.1165 537.857,-67.3765 465.634,-66.8361"/>
<polygon fill="midnightblue" stroke="midnightblue" points="465.223,-63.3343 455.207,-66.7902 465.192,-70.3342 465.223,-63.3343"/>
</g>
<!-- Node9 -->
<g id="node10" class="node"><title>Node9</title>
<g id="a_node10"><a xlink:href="starsh-spatial_8h.html" target="_top" xlink:title="starsh&#45;spatial.h">
<polygon fill="white" stroke="black" points="460.5,-168.5 460.5,-187.5 543.5,-187.5 543.5,-168.5 460.5,-168.5"/>
<text text-anchor="middle" x="502" y="-175.5" font-family="Helvetica,sans-Serif" font-size="10.00">starsh&#45;spatial.h</text>
</a>
</g>
</g>
<!-- Node0&#45;&gt;Node9 -->
<g id="edge9" class="edge"><title>Node0&#45;&gt;Node9</title>
<path fill="none" stroke="midnightblue" d="M458.587,-224.083C466.159,-216.22 477.378,-204.569 486.514,-195.081"/>
<polygon fill="midnightblue" stroke="midnightblue" points="489.158,-197.382 493.573,-187.751 484.115,-192.527 489.158,-197.382"/>
</g>
<!-- Node14 -->
<g id="node15" class="node"><title>Node14</title>
<g id="a_node15"><a xlink:href="starsh-electrostatics_8h.html" target="_top" xlink:title="starsh&#45;electrostatics.h">
<polygon fill="white" stroke="black" points="80.5,-168.5 80.5,-187.5 193.5,-187.5 193.5,-168.5 80.5,-168.5"/>
<text text-anchor="middle" x="137" y="-175.5" font-family="Helvetica,sans-Serif" font-size="10.00">starsh&#45;electrostatics.h</text>
</a>
</g>
</g>
<!-- Node0&#45;&gt;Node14 -->
<g id="edge16" class="edge"><title>Node0&#45;&gt;Node14</title>
<path fill="none" stroke="midnightblue" d="M400.404,-224.444C345.001,-214.885 255.357,-199.419 196.295,-189.23"/>
<polygon fill="midnightblue" stroke="midnightblue" points="196.813,-185.768 186.364,-187.516 195.623,-192.666 196.813,-185.768"/>
</g>
<!-- Node15 -->
<g id="node16" class="node"><title>Node15</title>
<g id="a_node16"><a xlink:href="starsh-electrodynamics_8h.html" target="_top" xlink:title="starsh&#45;electrodynamics.h">
<polygon fill="white" stroke="black" points="212,-168.5 212,-187.5 338,-187.5 338,-168.5 212,-168.5"/>
<text text-anchor="middle" x="275" y="-175.5" font-family="Helvetica,sans-Serif" font-size="10.00">starsh&#45;electrodynamics.h</text>
</a>
</g>
</g>
<!-- Node0&#45;&gt;Node15 -->
<g id="edge19" class="edge"><title>Node0&#45;&gt;Node15</title>
<path fill="none" stroke="midnightblue" d="M422.271,-224.444C392.574,-215.28 345.284,-200.688 312.331,-190.519"/>
<polygon fill="midnightblue" stroke="midnightblue" points="313.187,-187.121 302.6,-187.516 311.123,-193.809 313.187,-187.121"/>
</g>
<!-- Node16 -->
<g id="node17" class="node"><title>Node16</title>
<g id="a_node17"><a xlink:href="starsh-minimal_8h.html" target="_top" xlink:title="starsh&#45;minimal.h">
<polygon fill="white" stroke="black" points="529.5,-112.5 529.5,-131.5 618.5,-131.5 618.5,-112.5 529.5,-112.5"/>
<text text-anchor="middle" x="574" y="-119.5" font-family="Helvetica,sans-Serif" font-size="10.00">starsh&#45;minimal.h</text>
</a>
</g>
</g>
<!-- Node0&#45;&gt;Node16 -->
<g id="edge22" class="edge"><title>Node0&#45;&gt;Node16</title>
<path fill="none" stroke="midnightblue" d="M488.675,-224.466C510.286,-217.856 536.172,-206.59 553,-188 564.555,-175.235 569.758,-156.042 572.097,-141.818"/>
<polygon fill="midnightblue" stroke="midnightblue" points="575.595,-142.064 573.426,-131.694 568.654,-141.153 575.595,-142.064"/>
</g>
<!-- Node17 -->
<g id="node18" class="node"><title>Node17</title>
<g id="a_node18"><a xlink:href="starsh-randtlr_8h.html" target="_top" xlink:title="starsh&#45;randtlr.h">
<polygon fill="white" stroke="black" points="637,-112.5 637,-131.5 719,-131.5 719,-112.5 637,-112.5"/>
<text text-anchor="middle" x="678" y="-119.5" font-family="Helvetica,sans-Serif" font-size="10.00">starsh&#45;randtlr.h</text>
</a>
</g>
</g>
<!-- Node0&#45;&gt;Node17 -->
<g id="edge24" class="edge"><title>Node0&#45;&gt;Node17</title>
<path fill="none" stroke="midnightblue" d="M477.773,-224.489C502.925,-216.378 540.721,-203.176 572,-188 602.961,-172.979 636.465,-151.461 657.34,-137.362"/>
<polygon fill="midnightblue" stroke="midnightblue" points="659.442,-140.164 665.728,-131.635 655.496,-134.383 659.442,-140.164"/>
</g>
<!-- Node18 -->
<g id="node19" class="node"><title>Node18</title>
<g id="a_node19"><a xlink:href="starsh-cauchy_8h_source.html" target="_top" xlink:title="starsh&#45;cauchy.h">
<polygon fill="white" stroke="black" points="356,-168.5 356,-187.5 442,-187.5 442,-168.5 356,-168.5"/>
<text text-anchor="middle" x="399" y="-175.5" font-family="Helvetica,sans-Serif" font-size="10.00">starsh&#45;cauchy.h</text>
</a>
</g>
</g>
<!-- Node0&#45;&gt;Node18 -->
<g id="edge26" class="edge"><title>Node0&#45;&gt;Node18</title>
<path fill="none" stroke="midnightblue" d="M441.578,-224.083C434.152,-216.22 423.148,-204.569 414.188,-195.081"/>
<polygon fill="midnightblue" stroke="midnightblue" points="416.676,-192.618 407.265,-187.751 411.587,-197.424 416.676,-192.618"/>
</g>
<!-- Node3 -->
<g id="node4" class="node"><title>Node3</title>
<polygon fill="white" stroke="#bfbfbf" points="173,-0.5 173,-19.5 241,-19.5 241,-0.5 173,-0.5"/>
<text text-anchor="middle" x="207" y="-7.5" font-family="Helvetica,sans-Serif" font-size="10.00">sys/types.h</text>
</g>
<!-- Node2&#45;&gt;Node3 -->
<g id="edge3" class="edge"><title>Node2&#45;&gt;Node3</title>
<path fill="none" stroke="midnightblue" d="M402.662,-58.5934C365.289,-49.5028 296.392,-32.7441 251.135,-21.7355"/>
<polygon fill="midnightblue" stroke="midnightblue" points="251.84,-18.305 241.296,-19.3422 250.185,-25.1067 251.84,-18.305"/>
</g>
<!-- Node4 -->
<g id="node5" class="node"><title>Node4</title>
<polygon fill="white" stroke="#bfbfbf" points="259,-0.5 259,-19.5 311,-19.5 311,-0.5 259,-0.5"/>
<text text-anchor="middle" x="285" y="-7.5" font-family="Helvetica,sans-Serif" font-size="10.00">stdarg.h</text>
</g>
<!-- Node2&#45;&gt;Node4 -->
<g id="edge4" class="edge"><title>Node2&#45;&gt;Node4</title>
<path fill="none" stroke="midnightblue" d="M406.183,-56.4435C382.168,-47.4381 344.171,-33.1891 317.131,-23.049"/>
<polygon fill="midnightblue" stroke="midnightblue" points="318.303,-19.7506 307.71,-19.5164 315.845,-26.3049 318.303,-19.7506"/>
</g>
<!-- Node5 -->
<g id="node6" class="node"><title>Node5</title>
<g id="a_node6"><a xlink:href="starsh-constants_8h.html" target="_top" xlink:title="starsh&#45;constants.h">
<polygon fill="white" stroke="black" points="329,-0.5 329,-19.5 427,-19.5 427,-0.5 329,-0.5"/>
<text text-anchor="middle" x="378" y="-7.5" font-family="Helvetica,sans-Serif" font-size="10.00">starsh&#45;constants.h</text>
</a>
</g>
</g>
<!-- Node2&#45;&gt;Node5 -->
<g id="edge5" class="edge"><title>Node2&#45;&gt;Node5</title>
<path fill="none" stroke="midnightblue" d="M420.578,-56.083C413.152,-48.2195 402.148,-36.5688 393.188,-27.0813"/>
<polygon fill="midnightblue" stroke="midnightblue" points="395.676,-24.618 386.265,-19.7511 390.587,-29.4244 395.676,-24.618"/>
</g>
<!-- Node6 -->
<g id="node7" class="node"><title>Node6</title>
<g id="a_node7"><a xlink:href="starsh-mpi_8h.html" target="_top" xlink:title="starsh&#45;mpi.h">
<polygon fill="white" stroke="black" points="445.5,-0.5 445.5,-19.5 516.5,-19.5 516.5,-0.5 445.5,-0.5"/>
<text text-anchor="middle" x="481" y="-7.5" font-family="Helvetica,sans-Serif" font-size="10.00">starsh&#45;mpi.h</text>
</a>
</g>
</g>
<!-- Node2&#45;&gt;Node6 -->
<g id="edge6" class="edge"><title>Node2&#45;&gt;Node6</title>
<path fill="none" stroke="midnightblue" d="M437.587,-56.083C445.159,-48.2195 456.378,-36.5688 465.514,-27.0813"/>
<polygon fill="midnightblue" stroke="midnightblue" points="468.158,-29.3821 472.573,-19.7511 463.115,-24.5266 468.158,-29.3821"/>
</g>
<!-- Node7 -->
<g id="node8" class="node"><title>Node7</title>
<g id="a_node8"><a xlink:href="starsh-starpu_8h.html" target="_top" xlink:title="starsh&#45;starpu.h">
<polygon fill="white" stroke="black" points="535,-0.5 535,-19.5 617,-19.5 617,-0.5 535,-0.5"/>
<text text-anchor="middle" x="576" y="-7.5" font-family="Helvetica,sans-Serif" font-size="10.00">starsh&#45;starpu.h</text>
</a>
</g>
</g>
<!-- Node2&#45;&gt;Node7 -->
<g id="edge7" class="edge"><title>Node2&#45;&gt;Node7</title>
<path fill="none" stroke="midnightblue" d="M452.293,-56.4435C476.807,-47.4381 515.596,-33.1891 543.2,-23.049"/>
<polygon fill="midnightblue" stroke="midnightblue" points="544.637,-26.25 552.816,-19.5164 542.223,-19.6793 544.637,-26.25"/>
</g>
<!-- Node8 -->
<g id="node9" class="node"><title>Node8</title>
<g id="a_node9"><a xlink:href="starsh-mpi-starpu_8h.html" target="_top" xlink:title="starsh&#45;mpi&#45;starpu.h">
<polygon fill="white" stroke="black" points="635.5,-0.5 635.5,-19.5 736.5,-19.5 736.5,-0.5 635.5,-0.5"/>
<text text-anchor="middle" x="686" y="-7.5" font-family="Helvetica,sans-Serif" font-size="10.00">starsh&#45;mpi&#45;starpu.h</text>
</a>
</g>
</g>
<!-- Node2&#45;&gt;Node8 -->
<g id="edge8" class="edge"><title>Node2&#45;&gt;Node8</title>
<path fill="none" stroke="midnightblue" d="M455.057,-59.525C497.136,-50.6834 580.806,-33.103 635.041,-21.7074"/>
<polygon fill="midnightblue" stroke="midnightblue" points="636.075,-25.0667 645.141,-19.5851 634.635,-18.2163 636.075,-25.0667"/>
</g>
<!-- Node9&#45;&gt;Node2 -->
<g id="edge10" class="edge"><title>Node9&#45;&gt;Node2</title>
<path fill="none" stroke="midnightblue" d="M500.917,-168.344C498.945,-155.226 493.824,-129.943 482,-112 474.113,-100.031 462.138,-89.4836 451.566,-81.6139"/>
<polygon fill="midnightblue" stroke="midnightblue" points="453.323,-78.57 443.136,-75.6609 449.285,-84.2881 453.323,-78.57"/>
</g>
<!-- Node10 -->
<g id="node11" class="node"><title>Node10</title>
<g id="a_node11"><a xlink:href="starsh-particles_8h.html" target="_top" xlink:title="starsh&#45;particles.h">
<polygon fill="white" stroke="black" points="187,-112.5 187,-131.5 279,-131.5 279,-112.5 187,-112.5"/>
<text text-anchor="middle" x="233" y="-119.5" font-family="Helvetica,sans-Serif" font-size="10.00">starsh&#45;particles.h</text>
</a>
</g>
</g>
<!-- Node9&#45;&gt;Node10 -->
<g id="edge11" class="edge"><title>Node9&#45;&gt;Node10</title>
<path fill="none" stroke="midnightblue" d="M460.264,-168.622C413.225,-159.179 336.672,-143.812 285.585,-133.556"/>
<polygon fill="midnightblue" stroke="midnightblue" points="286.217,-130.113 275.724,-131.577 284.839,-136.976 286.217,-130.113"/>
</g>
<!-- Node13 -->
<g id="node14" class="node"><title>Node13</title>
<g id="a_node14"><a xlink:href="starsh-spatial-gsl_8h.html" target="_top" xlink:title="starsh&#45;spatial&#45;gsl.h">
<polygon fill="white" stroke="black" points="373.5,-112.5 373.5,-131.5 472.5,-131.5 472.5,-112.5 373.5,-112.5"/>
<text text-anchor="middle" x="423" y="-119.5" font-family="Helvetica,sans-Serif" font-size="10.00">starsh&#45;spatial&#45;gsl.h</text>
</a>
</g>
</g>
<!-- Node9&#45;&gt;Node13 -->
<g id="edge15" class="edge"><title>Node9&#45;&gt;Node13</title>
<path fill="none" stroke="midnightblue" d="M489.307,-168.324C477.099,-159.979 458.422,-147.212 443.997,-137.352"/>
<polygon fill="midnightblue" stroke="midnightblue" points="445.892,-134.408 435.661,-131.655 441.942,-140.187 445.892,-134.408"/>
</g>
<!-- Node10&#45;&gt;Node2 -->
<g id="edge12" class="edge"><title>Node10&#45;&gt;Node2</title>
<path fill="none" stroke="midnightblue" d="M264.057,-112.444C299.083,-102.793 355.965,-87.122 392.93,-76.9377"/>
<polygon fill="midnightblue" stroke="midnightblue" points="394.082,-80.2508 402.793,-74.2203 392.222,-73.5022 394.082,-80.2508"/>
</g>
<!-- Node11 -->
<g id="node12" class="node"><title>Node11</title>
<polygon fill="white" stroke="#bfbfbf" points="199,-56.5 199,-75.5 245,-75.5 245,-56.5 199,-56.5"/>
<text text-anchor="middle" x="222" y="-63.5" font-family="Helvetica,sans-Serif" font-size="10.00">stdio.h</text>
</g>
<!-- Node10&#45;&gt;Node11 -->
<g id="edge13" class="edge"><title>Node10&#45;&gt;Node11</title>
<path fill="none" stroke="midnightblue" d="M231.184,-112.083C229.726,-104.927 227.629,-94.6353 225.807,-85.6911"/>
<polygon fill="midnightblue" stroke="midnightblue" points="229.208,-84.8512 223.783,-75.7511 222.349,-86.2485 229.208,-84.8512"/>
</g>
<!-- Node12 -->
<g id="node13" class="node"><title>Node12</title>
<polygon fill="white" stroke="#bfbfbf" points="263.5,-56.5 263.5,-75.5 312.5,-75.5 312.5,-56.5 263.5,-56.5"/>
<text text-anchor="middle" x="288" y="-63.5" font-family="Helvetica,sans-Serif" font-size="10.00">stdint.h</text>
</g>
<!-- Node10&#45;&gt;Node12 -->
<g id="edge14" class="edge"><title>Node10&#45;&gt;Node12</title>
<path fill="none" stroke="midnightblue" d="M242.082,-112.083C250.171,-104.141 262.195,-92.3354 271.91,-82.7973"/>
<polygon fill="midnightblue" stroke="midnightblue" points="274.403,-85.2545 279.087,-75.7511 269.499,-80.2595 274.403,-85.2545"/>
</g>
<!-- Node14&#45;&gt;Node2 -->
<g id="edge17" class="edge"><title>Node14&#45;&gt;Node2</title>
<path fill="none" stroke="midnightblue" d="M139.903,-168.188C145.1,-153.894 157.417,-125.863 178,-112 212.466,-88.7864 331.359,-75.4198 392.321,-69.9414"/>
<polygon fill="midnightblue" stroke="midnightblue" points="392.987,-73.3966 402.645,-69.0395 392.378,-66.4232 392.987,-73.3966"/>
</g>
<!-- Node14&#45;&gt;Node10 -->
<g id="edge18" class="edge"><title>Node14&#45;&gt;Node10</title>
<path fill="none" stroke="midnightblue" d="M152.424,-168.324C167.54,-159.822 190.815,-146.729 208.471,-136.797"/>
<polygon fill="midnightblue" stroke="midnightblue" points="210.614,-139.608 217.614,-131.655 207.183,-133.507 210.614,-139.608"/>
</g>
<!-- Node15&#45;&gt;Node2 -->
<g id="edge20" class="edge"><title>Node15&#45;&gt;Node2</title>
<path fill="none" stroke="midnightblue" d="M285.229,-168.451C300.651,-155.687 330.935,-131.104 358,-112 373.649,-100.954 391.914,-89.4064 406,-80.7745"/>
<polygon fill="midnightblue" stroke="midnightblue" points="407.855,-83.7425 414.583,-75.5577 404.22,-77.7606 407.855,-83.7425"/>
</g>
<!-- Node15&#45;&gt;Node10 -->
<g id="edge21" class="edge"><title>Node15&#45;&gt;Node10</title>
<path fill="none" stroke="midnightblue" d="M268.065,-168.083C262.071,-160.377 253.248,-149.033 245.952,-139.653"/>
<polygon fill="midnightblue" stroke="midnightblue" points="248.709,-137.496 239.806,-131.751 243.183,-141.793 248.709,-137.496"/>
</g>
<!-- Node16&#45;&gt;Node2 -->
<g id="edge23" class="edge"><title>Node16&#45;&gt;Node2</title>
<path fill="none" stroke="midnightblue" d="M551.024,-112.444C526.843,-103.438 488.582,-89.1891 461.354,-79.049"/>
<polygon fill="midnightblue" stroke="midnightblue" points="462.461,-75.7265 451.868,-75.5164 460.018,-82.2864 462.461,-75.7265"/>
</g>
<!-- Node17&#45;&gt;Node2 -->
<g id="edge25" class="edge"><title>Node17&#45;&gt;Node2</title>
<path fill="none" stroke="midnightblue" d="M638.545,-112.444C590.864,-102.103 511.305,-84.8492 465.154,-74.8407"/>
<polygon fill="midnightblue" stroke="midnightblue" points="465.8,-71.3993 455.285,-72.7003 464.316,-78.2403 465.8,-71.3993"/>
</g>
<!-- Node18&#45;&gt;Node2 -->
<g id="edge27" class="edge"><title>Node18&#45;&gt;Node2</title>
<path fill="none" stroke="midnightblue" d="M388.545,-168.177C375.071,-155.684 354.552,-132.118 365,-112 372.153,-98.2262 385.671,-87.783 398.447,-80.4413"/>
<polygon fill="midnightblue" stroke="midnightblue" points="400.317,-83.412 407.517,-75.6403 397.042,-77.2252 400.317,-83.412"/>
</g>
<!-- Node18&#45;&gt;Node10 -->
<g id="edge28" class="edge"><title>Node18&#45;&gt;Node10</title>
<path fill="none" stroke="midnightblue" d="M372.697,-168.444C344.649,-159.32 300.056,-144.813 268.816,-134.651"/>
<polygon fill="midnightblue" stroke="midnightblue" points="269.772,-131.282 259.18,-131.516 267.607,-137.938 269.772,-131.282"/>
</g>
</g>
</svg>
        <g id="navigator" transform="translate(0 0)" fill="#404254">
                <rect fill="#f2f5e9" fill-opacity="0.5" stroke="#606060" stroke-width=".5" x="0" y="0" width="60" height="60"/>
                <use id="zoomplus" xlink:href="#zoomPlus" x="17" y="9" onmousedown="handleZoom(evt,'in')"/>
                <use id="zoomminus" xlink:href="#zoomMin" x="42" y="9" onmousedown="handleZoom(evt,'out')"/>
                <use id="reset" xlink:href="#resetDef" x="30" y="36" onmousedown="handleReset()"/>
                <g id="arrowUp" xlink:href="#dirArrow" transform="translate(30 24)" onmousedown="handlePan(0,-1)">
                  <use xlink:href="#rim" fill="#404040">
                        <set attributeName="fill" to="#808080" begin="arrowUp.mouseover" end="arrowUp.mouseout"/>
                  </use>
                  <path fill="none" stroke="white" stroke-width="1.5" d="M0,-3.0v7 M-2.5,-0.5L0,-3.0L2.5,-0.5"/>
                </g>
                <g id="arrowRight" xlink:href="#dirArrow" transform="rotate(90) translate(36 -43)" onmousedown="handlePan(1,0)">
                  <use xlink:href="#rim" fill="#404040">
                        <set attributeName="fill" to="#808080" begin="arrowRight.mouseover" end="arrowRight.mouseout"/>
                  </use>
                  <path fill="none" stroke="white" stroke-width="1.5" d="M0,-3.0v7 M-2.5,-0.5L0,-3.0L2.5,-0.5"/>
                </g>
                <g id="arrowDown" xlink:href="#dirArrow" transform="rotate(180) translate(-30 -48)" onmousedown="handlePan(0,1)">
                  <use xlink:href="#rim" fill="#404040">
                        <set attributeName="fill" to="#808080" begin="arrowDown.mouseover" end="arrowDown.mouseout"/>
                  </use>
                  <path fill="none" stroke="white" stroke-width="1.5" d="M0,-3.0v7 M-2.5,-0.5L0,-3.0L2.5,-0.5"/>
                </g>
                <g id="arrowLeft" xlink:href="#dirArrow" transform="rotate(270) translate(-36 17)" onmousedown="handlePan(-1,0)">
                  <use xlink:href="#rim" fill="#404040">
                        <set attributeName="fill" to="#808080" begin="arrowLeft.mouseover" end="arrowLeft.mouseout"/>
                  </use>
                  <path fill="none" stroke="white" stroke-width="1.5" d="M0,-3.0v7 M-2.5,-0.5L0,-3.0L2.5,-0.5"/>
                </g>
        </g>
        <svg viewBox="0 0 15 15" width="100%" height="30px" preserveAspectRatio="xMaxYMin meet">
         <g id="arrow_out" transform="scale(0.3 0.3)">
          <a xlink:href="common_8c__incl_org.svg" target="_base">
           <rect id="button" ry="5" rx="5" y="6" x="6" height="38" width="38"
                fill="#f2f5e9" fill-opacity="0.5" stroke="#606060" stroke-width="1.0"/>
           <path id="arrow"
             d="M 11.500037,31.436501 C 11.940474,20.09759 22.043105,11.32322 32.158766,21.979434 L 37.068811,17.246167 C 37.068811,17.246167 37.088388,32 37.088388,32 L 22.160133,31.978069 C 22.160133,31.978069 26.997745,27.140456 26.997745,27.140456 C 18.528582,18.264221 13.291696,25.230495 11.500037,31.436501 z"
             style="fill:#404040;"/>
          </a>
         </g>
        </svg>
</svg>
