<?xml version="1.0" encoding="UTF-8" standalone="no"?>
<!DOCTYPE svg PUBLIC "-//W3C//DTD SVG 1.1//EN"
 "http://www.w3.org/Graphics/SVG/1.1/DTD/svg11.dtd">
<!-- Generated by graphviz version 2.38.0 (20140413.2041)
 -->
<!-- Title: src/backends/starpu_kblas3_spatial/blrm Pages: 1 -->
<svg width="135pt" height="151pt"
 viewBox="0.00 0.00 135.00 151.00" xmlns="http://www.w3.org/2000/svg" xmlns:xlink="http://www.w3.org/1999/xlink">
<g id="graph0" class="graph" transform="scale(1 1) rotate(0) translate(4 147)">
<title>src/backends/starpu_kblas3_spatial/blrm</title>
<polygon fill="white" stroke="none" points="-4,4 -4,-147 131,-147 131,4 -4,4"/>
<g id="clust1" class="cluster"><title>clusterdir_aca11d8a69ece6d69f971af7e217ac4d</title>
<g id="a_clust1"><a xlink:href="dir_aca11d8a69ece6d69f971af7e217ac4d.html" target="_top" xlink:title="starpu_kblas3_spatial">
<polygon fill="#ddddee" stroke="black" points="8,-64 8,-135 119,-135 119,-64 8,-64"/>
<text text-anchor="middle" x="63.5" y="-123" font-family="Helvetica,sans-Serif" font-size="10.00">starpu_kblas3_spatial</text>
</a>
</g>
</g>
<!-- dir_beab235eefcf13312be78c04a4ab0207 -->
<g id="node1" class="node"><title>dir_beab235eefcf13312be78c04a4ab0207</title>
<g id="a_node1"><a xlink:href="dir_beab235eefcf13312be78c04a4ab0207.html" target="_top" xlink:title="blrm">
<polygon fill="#eeeeff" stroke="black" points="90,-108 36,-108 36,-72 90,-72 90,-108"/>
<text text-anchor="middle" x="63" y="-87.5" font-family="Helvetica,sans-Serif" font-size="10.00">blrm</text>
</a>
</g>
</g>
<!-- dir_d44c64559bbebec7f509842c48db8b23 -->
<g id="node2" class="node"><title>dir_d44c64559bbebec7f509842c48db8b23</title>
<g id="a_node2"><a xlink:href="dir_d44c64559bbebec7f509842c48db8b23.html" target="_top" xlink:title="include">
<polygon fill="none" stroke="black" points="90,-36 36,-36 36,-0 90,-0 90,-36"/>
<text text-anchor="middle" x="63" y="-15.5" font-family="Helvetica,sans-Serif" font-size="10.00">include</text>
</a>
</g>
</g>
<!-- dir_beab235eefcf13312be78c04a4ab0207&#45;&gt;dir_d44c64559bbebec7f509842c48db8b23 -->
<g id="edge1" class="edge"><title>dir_beab235eefcf13312be78c04a4ab0207&#45;&gt;dir_d44c64559bbebec7f509842c48db8b23</title>
<path fill="none" stroke="black" d="M63,-71.6966C63,-63.9827 63,-54.7125 63,-46.1124"/>
<polygon fill="black" stroke="black" points="66.5001,-46.1043 63,-36.1043 59.5001,-46.1044 66.5001,-46.1043"/>
<g id="a_edge1&#45;headlabel"><a xlink:href="dir_000032_000006.html" target="_top" xlink:title="2">
<text text-anchor="middle" x="69.3393" y="-47.199" font-family="Helvetica,sans-Serif" font-size="10.00">2</text>
</a>
</g>
</g>
</g>
</svg>
