<?xml version="1.0" encoding="UTF-8" standalone="no"?>
<!DOCTYPE svg PUBLIC "-//W3C//DTD SVG 1.1//EN"
 "http://www.w3.org/Graphics/SVG/1.1/DTD/svg11.dtd">
<!-- Generated by graphviz version 2.38.0 (20140413.2041)
 -->
<!-- Title: src/backends Pages: 1 -->
<svg width="496pt" height="159pt"
 viewBox="0.00 0.00 496.00 159.00" xmlns="http://www.w3.org/2000/svg" xmlns:xlink="http://www.w3.org/1999/xlink">
<g id="graph0" class="graph" transform="scale(1 1) rotate(0) translate(4 155)">
<title>src/backends</title>
<polygon fill="white" stroke="none" points="-4,4 -4,-155 492,-155 492,4 -4,4"/>
<g id="clust1" class="cluster"><title>clusterdir_68267d1309a1af8e8297ef4c3efbcdba</title>
<g id="a_clust1"><a xlink:href="dir_68267d1309a1af8e8297ef4c3efbcdba.html" target="_top" xlink:title="src">
<polygon fill="#ddddee" stroke="black" points="8,-56 8,-143 480,-143 480,-56 8,-56"/>
<text text-anchor="middle" x="244" y="-131" font-family="Helvetica,sans-Serif" font-size="10.00">src</text>
</a>
</g>
</g>
<g id="clust2" class="cluster"><title>clusterdir_0f3cdec46afbc61a1ded8e1687c9c9a0</title>
<g id="a_clust2"><a xlink:href="dir_0f3cdec46afbc61a1ded8e1687c9c9a0.html" target="_top">
<polygon fill="#eeeeff" stroke="black" points="16,-64 16,-116 472,-116 472,-64 16,-64"/>
</a>
</g>
</g>
<!-- dir_0f3cdec46afbc61a1ded8e1687c9c9a0 -->
<g id="node1" class="node"><title>dir_0f3cdec46afbc61a1ded8e1687c9c9a0</title>
<text text-anchor="middle" x="434" y="-87.5" font-family="Helvetica,sans-Serif" font-size="10.00">backends</text>
</g>
<!-- dir_08cbc4d3ffd47b4ea173f9694a28bcf3 -->
<g id="node2" class="node"><title>dir_08cbc4d3ffd47b4ea173f9694a28bcf3</title>
<g id="a_node2"><a xlink:href="dir_08cbc4d3ffd47b4ea173f9694a28bcf3.html" target="_top" xlink:title="mpi">
<polygon fill="white" stroke="red" points="386,-108 332,-108 332,-72 386,-72 386,-108"/>
<text text-anchor="middle" x="359" y="-87.5" font-family="Helvetica,sans-Serif" font-size="10.00">mpi</text>
</a>
</g>
</g>
<!-- dir_d44c64559bbebec7f509842c48db8b23 -->
<g id="node7" class="node"><title>dir_d44c64559bbebec7f509842c48db8b23</title>
<g id="a_node7"><a xlink:href="dir_d44c64559bbebec7f509842c48db8b23.html" target="_top" xlink:title="include">
<polygon fill="none" stroke="black" points="230,-36 176,-36 176,-0 230,-0 230,-36"/>
<text text-anchor="middle" x="203" y="-15.5" font-family="Helvetica,sans-Serif" font-size="10.00">include</text>
</a>
</g>
</g>
<!-- dir_08cbc4d3ffd47b4ea173f9694a28bcf3&#45;&gt;dir_d44c64559bbebec7f509842c48db8b23 -->
<g id="edge4" class="edge"><title>dir_08cbc4d3ffd47b4ea173f9694a28bcf3&#45;&gt;dir_d44c64559bbebec7f509842c48db8b23</title>
<path fill="none" stroke="black" d="M343.382,-71.8697C337.458,-66.1744 330.356,-60.2166 323,-56 297.183,-41.2002 264.78,-31.6637 240.155,-25.9854"/>
<polygon fill="black" stroke="black" points="240.638,-22.508 230.12,-23.7839 239.138,-29.3454 240.638,-22.508"/>
<g id="a_edge4&#45;headlabel"><a xlink:href="dir_000014_000006.html" target="_top" xlink:title="12">
<text text-anchor="middle" x="244.757" y="-18.0048" font-family="Helvetica,sans-Serif" font-size="10.00">12</text>
</a>
</g>
</g>
<!-- dir_126584b8569dc8340f54f452f85730bc -->
<g id="node3" class="node"><title>dir_126584b8569dc8340f54f452f85730bc</title>
<g id="a_node3"><a xlink:href="dir_126584b8569dc8340f54f452f85730bc.html" target="_top" xlink:title="mpi_starpu">
<polygon fill="white" stroke="red" points="313.5,-108 248.5,-108 248.5,-72 313.5,-72 313.5,-108"/>
<text text-anchor="middle" x="281" y="-87.5" font-family="Helvetica,sans-Serif" font-size="10.00">mpi_starpu</text>
</a>
</g>
</g>
<!-- dir_126584b8569dc8340f54f452f85730bc&#45;&gt;dir_d44c64559bbebec7f509842c48db8b23 -->
<g id="edge3" class="edge"><title>dir_126584b8569dc8340f54f452f85730bc&#45;&gt;dir_d44c64559bbebec7f509842c48db8b23</title>
<path fill="none" stroke="black" d="M261.719,-71.6966C252.085,-63.0503 240.271,-52.4486 229.773,-43.027"/>
<polygon fill="black" stroke="black" points="231.839,-40.1786 222.059,-36.1043 227.164,-45.3883 231.839,-40.1786"/>
<g id="a_edge3&#45;headlabel"><a xlink:href="dir_000020_000006.html" target="_top" xlink:title="6">
<text text-anchor="middle" x="236.411" y="-37.9664" font-family="Helvetica,sans-Serif" font-size="10.00">6</text>
</a>
</g>
</g>
<!-- dir_a97914dcec9cee7b3899c36818db47ba -->
<g id="node4" class="node"><title>dir_a97914dcec9cee7b3899c36818db47ba</title>
<g id="a_node4"><a xlink:href="dir_a97914dcec9cee7b3899c36818db47ba.html" target="_top" xlink:title="openmp">
<polygon fill="white" stroke="red" points="230,-108 176,-108 176,-72 230,-72 230,-108"/>
<text text-anchor="middle" x="203" y="-87.5" font-family="Helvetica,sans-Serif" font-size="10.00">openmp</text>
</a>
</g>
</g>
<!-- dir_a97914dcec9cee7b3899c36818db47ba&#45;&gt;dir_d44c64559bbebec7f509842c48db8b23 -->
<g id="edge2" class="edge"><title>dir_a97914dcec9cee7b3899c36818db47ba&#45;&gt;dir_d44c64559bbebec7f509842c48db8b23</title>
<path fill="none" stroke="black" d="M203,-71.6966C203,-63.9827 203,-54.7125 203,-46.1124"/>
<polygon fill="black" stroke="black" points="206.5,-46.1043 203,-36.1043 199.5,-46.1044 206.5,-46.1043"/>
<g id="a_edge2&#45;headlabel"><a xlink:href="dir_000012_000006.html" target="_top" xlink:title="5">
<text text-anchor="middle" x="209.339" y="-47.199" font-family="Helvetica,sans-Serif" font-size="10.00">5</text>
</a>
</g>
</g>
<!-- dir_bb88fcc0f3ee6cca06f291d2f01ccf2c -->
<g id="node5" class="node"><title>dir_bb88fcc0f3ee6cca06f291d2f01ccf2c</title>
<g id="a_node5"><a xlink:href="dir_bb88fcc0f3ee6cca06f291d2f01ccf2c.html" target="_top" xlink:title="sequential">
<polygon fill="white" stroke="red" points="157.5,-108 96.5,-108 96.5,-72 157.5,-72 157.5,-108"/>
<text text-anchor="middle" x="127" y="-87.5" font-family="Helvetica,sans-Serif" font-size="10.00">sequential</text>
</a>
</g>
</g>
<!-- dir_bb88fcc0f3ee6cca06f291d2f01ccf2c&#45;&gt;dir_d44c64559bbebec7f509842c48db8b23 -->
<g id="edge1" class="edge"><title>dir_bb88fcc0f3ee6cca06f291d2f01ccf2c&#45;&gt;dir_d44c64559bbebec7f509842c48db8b23</title>
<path fill="none" stroke="black" d="M145.787,-71.6966C155.174,-63.0503 166.684,-52.4486 176.913,-43.027"/>
<polygon fill="black" stroke="black" points="179.445,-45.4535 184.43,-36.1043 174.703,-40.3047 179.445,-45.4535"/>
<g id="a_edge1&#45;headlabel"><a xlink:href="dir_000010_000006.html" target="_top" xlink:title="11">
<text text-anchor="middle" x="178.725" y="-47.4772" font-family="Helvetica,sans-Serif" font-size="10.00">11</text>
</a>
</g>
</g>
<!-- dir_860a687b11cedb2cf59e8218cf89a812 -->
<g id="node6" class="node"><title>dir_860a687b11cedb2cf59e8218cf89a812</title>
<g id="a_node6"><a xlink:href="dir_860a687b11cedb2cf59e8218cf89a812.html" target="_top" xlink:title="starpu">
<polygon fill="white" stroke="red" points="78,-108 24,-108 24,-72 78,-72 78,-108"/>
<text text-anchor="middle" x="51" y="-87.5" font-family="Helvetica,sans-Serif" font-size="10.00">starpu</text>
</a>
</g>
</g>
<!-- dir_860a687b11cedb2cf59e8218cf89a812&#45;&gt;dir_d44c64559bbebec7f509842c48db8b23 -->
<g id="edge5" class="edge"><title>dir_860a687b11cedb2cf59e8218cf89a812&#45;&gt;dir_d44c64559bbebec7f509842c48db8b23</title>
<path fill="none" stroke="black" d="M67.1513,-71.935C73.2496,-66.2459 80.5295,-60.2753 88,-56 112.261,-42.1158 142.43,-32.6598 165.78,-26.7844"/>
<polygon fill="black" stroke="black" points="166.753,-30.1503 175.657,-24.4085 165.116,-23.3444 166.753,-30.1503"/>
<g id="a_edge5&#45;headlabel"><a xlink:href="dir_000017_000006.html" target="_top" xlink:title="18">
<text text-anchor="middle" x="163.922" y="-31.2514" font-family="Helvetica,sans-Serif" font-size="10.00">18</text>
</a>
</g>
</g>
</g>
</svg>
