<?xml version="1.0" encoding="UTF-8" standalone="no"?>
<!DOCTYPE svg PUBLIC "-//W3C//DTD SVG 1.1//EN"
 "http://www.w3.org/Graphics/SVG/1.1/DTD/svg11.dtd">
<!-- Generated by graphviz version 2.38.0 (20140413.2041)
 -->
<!-- Title: src/backends/starpu_kblas3_spatial Pages: 1 -->
<svg width="311pt" height="159pt"
 viewBox="0.00 0.00 311.00 159.00" xmlns="http://www.w3.org/2000/svg" xmlns:xlink="http://www.w3.org/1999/xlink">
<g id="graph0" class="graph" transform="scale(1 1) rotate(0) translate(4 155)">
<title>src/backends/starpu_kblas3_spatial</title>
<polygon fill="white" stroke="none" points="-4,4 -4,-155 307,-155 307,4 -4,4"/>
<g id="clust1" class="cluster"><title>clusterdir_0f3cdec46afbc61a1ded8e1687c9c9a0</title>
<g id="a_clust1"><a xlink:href="dir_0f3cdec46afbc61a1ded8e1687c9c9a0.html" target="_top" xlink:title="backends">
<polygon fill="#ddddee" stroke="black" points="8,-56 8,-143 295,-143 295,-56 8,-56"/>
<text text-anchor="middle" x="151.5" y="-131" font-family="Helvetica,sans-Serif" font-size="10.00">backends</text>
</a>
</g>
</g>
<g id="clust2" class="cluster"><title>clusterdir_aca11d8a69ece6d69f971af7e217ac4d</title>
<g id="a_clust2"><a xlink:href="dir_aca11d8a69ece6d69f971af7e217ac4d.html" target="_top">
<polygon fill="#eeeeff" stroke="black" points="16,-64 16,-116 287,-116 287,-64 16,-64"/>
</a>
</g>
</g>
<!-- dir_aca11d8a69ece6d69f971af7e217ac4d -->
<g id="node1" class="node"><title>dir_aca11d8a69ece6d69f971af7e217ac4d</title>
<text text-anchor="middle" x="224" y="-87.5" font-family="Helvetica,sans-Serif" font-size="10.00">starpu_kblas3_spatial</text>
</g>
<!-- dir_beab235eefcf13312be78c04a4ab0207 -->
<g id="node2" class="node"><title>dir_beab235eefcf13312be78c04a4ab0207</title>
<g id="a_node2"><a xlink:href="dir_beab235eefcf13312be78c04a4ab0207.html" target="_top" xlink:title="blrm">
<polygon fill="white" stroke="black" points="150,-108 96,-108 96,-72 150,-72 150,-108"/>
<text text-anchor="middle" x="123" y="-87.5" font-family="Helvetica,sans-Serif" font-size="10.00">blrm</text>
</a>
</g>
</g>
<!-- dir_d44c64559bbebec7f509842c48db8b23 -->
<g id="node4" class="node"><title>dir_d44c64559bbebec7f509842c48db8b23</title>
<g id="a_node4"><a xlink:href="dir_d44c64559bbebec7f509842c48db8b23.html" target="_top" xlink:title="include">
<polygon fill="none" stroke="black" points="150,-36 96,-36 96,-0 150,-0 150,-36"/>
<text text-anchor="middle" x="123" y="-15.5" font-family="Helvetica,sans-Serif" font-size="10.00">include</text>
</a>
</g>
</g>
<!-- dir_beab235eefcf13312be78c04a4ab0207&#45;&gt;dir_d44c64559bbebec7f509842c48db8b23 -->
<g id="edge1" class="edge"><title>dir_beab235eefcf13312be78c04a4ab0207&#45;&gt;dir_d44c64559bbebec7f509842c48db8b23</title>
<path fill="none" stroke="black" d="M123,-71.6966C123,-63.9827 123,-54.7125 123,-46.1124"/>
<polygon fill="black" stroke="black" points="126.5,-46.1043 123,-36.1043 119.5,-46.1044 126.5,-46.1043"/>
<g id="a_edge1&#45;headlabel"><a xlink:href="dir_000032_000006.html" target="_top" xlink:title="2">
<text text-anchor="middle" x="129.339" y="-47.199" font-family="Helvetica,sans-Serif" font-size="10.00">2</text>
</a>
</g>
</g>
<!-- dir_f62acfe3b69e808ec490fcc20168fc3e -->
<g id="node3" class="node"><title>dir_f62acfe3b69e808ec490fcc20168fc3e</title>
<g id="a_node3"><a xlink:href="dir_f62acfe3b69e808ec490fcc20168fc3e.html" target="_top" xlink:title="dense">
<polygon fill="white" stroke="black" points="78,-108 24,-108 24,-72 78,-72 78,-108"/>
<text text-anchor="middle" x="51" y="-87.5" font-family="Helvetica,sans-Serif" font-size="10.00">dense</text>
</a>
</g>
</g>
</g>
</svg>
