<?xml version="1.0" encoding="UTF-8" standalone="no"?>
<!DOCTYPE svg PUBLIC "-//W3C//DTD SVG 1.1//EN"
 "http://www.w3.org/Graphics/SVG/1.1/DTD/svg11.dtd">
<!-- Generated by graphviz version 2.38.0 (20140413.2041)
 -->
<!-- Title: src Pages: 1 -->
<svg width="410pt" height="132pt"
 viewBox="0.00 0.00 410.00 132.00" xmlns="http://www.w3.org/2000/svg" xmlns:xlink="http://www.w3.org/1999/xlink">
<g id="graph0" class="graph" transform="scale(1 1) rotate(0) translate(4 128)">
<title>src</title>
<polygon fill="white" stroke="none" points="-4,4 -4,-128 406,-128 406,4 -4,4"/>
<g id="clust1" class="cluster"><title>clusterdir_68267d1309a1af8e8297ef4c3efbcdba</title>
<g id="a_clust1"><a xlink:href="dir_68267d1309a1af8e8297ef4c3efbcdba.html" target="_top">
<polygon fill="#eeeeff" stroke="black" points="8,-64 8,-116 394,-116 394,-64 8,-64"/>
</a>
</g>
</g>
<!-- dir_68267d1309a1af8e8297ef4c3efbcdba -->
<g id="node1" class="node"><title>dir_68267d1309a1af8e8297ef4c3efbcdba</title>
<text text-anchor="middle" x="359" y="-87.5" font-family="Helvetica,sans-Serif" font-size="10.00">src</text>
</g>
<!-- dir_5300cae3a1557603f8e561b18f8f3907 -->
<g id="node2" class="node"><title>dir_5300cae3a1557603f8e561b18f8f3907</title>
<g id="a_node2"><a xlink:href="dir_5300cae3a1557603f8e561b18f8f3907.html" target="_top" xlink:title="applications">
<polygon fill="white" stroke="black" points="314,-108 246,-108 246,-72 314,-72 314,-108"/>
<text text-anchor="middle" x="280" y="-87.5" font-family="Helvetica,sans-Serif" font-size="10.00">applications</text>
</a>
</g>
</g>
<!-- dir_d44c64559bbebec7f509842c48db8b23 -->
<g id="node6" class="node"><title>dir_d44c64559bbebec7f509842c48db8b23</title>
<g id="a_node6"><a xlink:href="dir_d44c64559bbebec7f509842c48db8b23.html" target="_top" xlink:title="include">
<polygon fill="none" stroke="black" points="187,-36 133,-36 133,-0 187,-0 187,-36"/>
<text text-anchor="middle" x="160" y="-15.5" font-family="Helvetica,sans-Serif" font-size="10.00">include</text>
</a>
</g>
</g>
<!-- dir_5300cae3a1557603f8e561b18f8f3907&#45;&gt;dir_d44c64559bbebec7f509842c48db8b23 -->
<g id="edge2" class="edge"><title>dir_5300cae3a1557603f8e561b18f8f3907&#45;&gt;dir_d44c64559bbebec7f509842c48db8b23</title>
<path fill="none" stroke="black" d="M250.645,-71.8761C234.1,-62.2252 213.307,-50.0956 195.81,-39.8891"/>
<polygon fill="black" stroke="black" points="197.402,-36.7658 187,-34.7503 193.875,-42.8123 197.402,-36.7658"/>
<g id="a_edge2&#45;headlabel"><a xlink:href="dir_000008_000006.html" target="_top" xlink:title="19">
<text text-anchor="middle" x="201.937" y="-33.6245" font-family="Helvetica,sans-Serif" font-size="10.00">19</text>
</a>
</g>
</g>
<!-- dir_0f3cdec46afbc61a1ded8e1687c9c9a0 -->
<g id="node3" class="node"><title>dir_0f3cdec46afbc61a1ded8e1687c9c9a0</title>
<g id="a_node3"><a xlink:href="dir_0f3cdec46afbc61a1ded8e1687c9c9a0.html" target="_top" xlink:title="backends">
<polygon fill="white" stroke="red" points="227.5,-108 168.5,-108 168.5,-72 227.5,-72 227.5,-108"/>
<text text-anchor="middle" x="198" y="-87.5" font-family="Helvetica,sans-Serif" font-size="10.00">backends</text>
</a>
</g>
</g>
<!-- dir_0f3cdec46afbc61a1ded8e1687c9c9a0&#45;&gt;dir_d44c64559bbebec7f509842c48db8b23 -->
<g id="edge3" class="edge"><title>dir_0f3cdec46afbc61a1ded8e1687c9c9a0&#45;&gt;dir_d44c64559bbebec7f509842c48db8b23</title>
<path fill="none" stroke="black" d="M188.607,-71.6966C184.235,-63.6436 178.943,-53.8945 174.105,-44.9824"/>
<polygon fill="black" stroke="black" points="177.132,-43.223 169.285,-36.1043 170.98,-46.5627 177.132,-43.223"/>
<g id="a_edge3&#45;headlabel"><a xlink:href="dir_000009_000006.html" target="_top" xlink:title="52">
<text text-anchor="middle" x="181.342" y="-42.5276" font-family="Helvetica,sans-Serif" font-size="10.00">52</text>
</a>
</g>
</g>
<!-- dir_b81b067251166617f9d0a8c0cfc3a4a9 -->
<g id="node4" class="node"><title>dir_b81b067251166617f9d0a8c0cfc3a4a9</title>
<g id="a_node4"><a xlink:href="dir_b81b067251166617f9d0a8c0cfc3a4a9.html" target="_top" xlink:title="control">
<polygon fill="white" stroke="black" points="150,-108 96,-108 96,-72 150,-72 150,-108"/>
<text text-anchor="middle" x="123" y="-87.5" font-family="Helvetica,sans-Serif" font-size="10.00">control</text>
</a>
</g>
</g>
<!-- dir_b81b067251166617f9d0a8c0cfc3a4a9&#45;&gt;dir_d44c64559bbebec7f509842c48db8b23 -->
<g id="edge4" class="edge"><title>dir_b81b067251166617f9d0a8c0cfc3a4a9&#45;&gt;dir_d44c64559bbebec7f509842c48db8b23</title>
<path fill="none" stroke="black" d="M132.146,-71.6966C136.403,-63.6436 141.556,-53.8945 146.266,-44.9824"/>
<polygon fill="black" stroke="black" points="149.38,-46.5809 150.959,-36.1043 143.192,-43.3097 149.38,-46.5809"/>
<g id="a_edge4&#45;headlabel"><a xlink:href="dir_000022_000006.html" target="_top" xlink:title="11">
<text text-anchor="middle" x="150.211" y="-48.5857" font-family="Helvetica,sans-Serif" font-size="10.00">11</text>
</a>
</g>
</g>
<!-- dir_d4b8b22fe2905086863c8387e89be441 -->
<g id="node5" class="node"><title>dir_d4b8b22fe2905086863c8387e89be441</title>
<g id="a_node5"><a xlink:href="dir_d4b8b22fe2905086863c8387e89be441.html" target="_top" xlink:title="itersolvers">
<polygon fill="white" stroke="black" points="78,-108 16,-108 16,-72 78,-72 78,-108"/>
<text text-anchor="middle" x="47" y="-87.5" font-family="Helvetica,sans-Serif" font-size="10.00">itersolvers</text>
</a>
</g>
</g>
<!-- dir_d4b8b22fe2905086863c8387e89be441&#45;&gt;dir_d44c64559bbebec7f509842c48db8b23 -->
<g id="edge1" class="edge"><title>dir_d4b8b22fe2905086863c8387e89be441&#45;&gt;dir_d44c64559bbebec7f509842c48db8b23</title>
<path fill="none" stroke="black" d="M74.5285,-71.7637C78.7043,-69.158 82.9645,-66.5049 87,-64 99.096,-56.4919 112.341,-48.3141 124.189,-41.0145"/>
<polygon fill="black" stroke="black" points="126.255,-43.8529 132.935,-35.6293 122.584,-37.8923 126.255,-43.8529"/>
<g id="a_edge1&#45;headlabel"><a xlink:href="dir_000023_000006.html" target="_top" xlink:title="2">
<text text-anchor="middle" x="124.682" y="-45.6553" font-family="Helvetica,sans-Serif" font-size="10.00">2</text>
</a>
</g>
</g>
</g>
</svg>
