<?xml version="1.0" encoding="UTF-8" standalone="no"?>
<!DOCTYPE svg PUBLIC "-//W3C//DTD SVG 1.1//EN"
 "http://www.w3.org/Graphics/SVG/1.1/DTD/svg11.dtd">
<!-- Generated by graphviz version 2.38.0 (20140413.2041)
 -->
<!-- Title: build/src Pages: 1 -->
<svg width="196pt" height="159pt"
 viewBox="0.00 0.00 196.00 159.00" xmlns="http://www.w3.org/2000/svg" xmlns:xlink="http://www.w3.org/1999/xlink">
<g id="graph0" class="graph" transform="scale(1 1) rotate(0) translate(4 155)">
<title>build/src</title>
<polygon fill="white" stroke="none" points="-4,4 -4,-155 192,-155 192,4 -4,4"/>
<g id="clust1" class="cluster"><title>clusterdir_4fef79e7177ba769987a8da36c892c5f</title>
<g id="a_clust1"><a xlink:href="dir_4fef79e7177ba769987a8da36c892c5f.html" target="_top" xlink:title="build">
<polygon fill="#ddddee" stroke="black" points="8,-56 8,-143 180,-143 180,-56 8,-56"/>
<text text-anchor="middle" x="94" y="-131" font-family="Helvetica,sans-Serif" font-size="10.00">build</text>
</a>
</g>
</g>
<g id="clust2" class="cluster"><title>clusterdir_4e7c8c4fc0d923782da8a23d70a9725b</title>
<g id="a_clust2"><a xlink:href="dir_4e7c8c4fc0d923782da8a23d70a9725b.html" target="_top">
<polygon fill="#eeeeff" stroke="black" points="16,-64 16,-116 172,-116 172,-64 16,-64"/>
</a>
</g>
</g>
<!-- dir_4e7c8c4fc0d923782da8a23d70a9725b -->
<g id="node1" class="node"><title>dir_4e7c8c4fc0d923782da8a23d70a9725b</title>
<text text-anchor="middle" x="137" y="-87.5" font-family="Helvetica,sans-Serif" font-size="10.00">src</text>
</g>
<!-- dir_1e95100a5bfe7246d9102fe2477f1677 -->
<g id="node2" class="node"><title>dir_1e95100a5bfe7246d9102fe2477f1677</title>
<g id="a_node2"><a xlink:href="dir_1e95100a5bfe7246d9102fe2477f1677.html" target="_top" xlink:title="applications">
<polygon fill="white" stroke="red" points="92,-108 24,-108 24,-72 92,-72 92,-108"/>
<text text-anchor="middle" x="58" y="-87.5" font-family="Helvetica,sans-Serif" font-size="10.00">applications</text>
</a>
</g>
</g>
<!-- dir_d44c64559bbebec7f509842c48db8b23 -->
<g id="node3" class="node"><title>dir_d44c64559bbebec7f509842c48db8b23</title>
<g id="a_node3"><a xlink:href="dir_d44c64559bbebec7f509842c48db8b23.html" target="_top" xlink:title="include">
<polygon fill="none" stroke="black" points="85,-36 31,-36 31,-0 85,-0 85,-36"/>
<text text-anchor="middle" x="58" y="-15.5" font-family="Helvetica,sans-Serif" font-size="10.00">include</text>
</a>
</g>
</g>
<!-- dir_1e95100a5bfe7246d9102fe2477f1677&#45;&gt;dir_d44c64559bbebec7f509842c48db8b23 -->
<g id="edge1" class="edge"><title>dir_1e95100a5bfe7246d9102fe2477f1677&#45;&gt;dir_d44c64559bbebec7f509842c48db8b23</title>
<path fill="none" stroke="black" d="M58,-71.6966C58,-63.9827 58,-54.7125 58,-46.1124"/>
<polygon fill="black" stroke="black" points="61.5001,-46.1043 58,-36.1043 54.5001,-46.1044 61.5001,-46.1043"/>
<g id="a_edge1&#45;headlabel"><a xlink:href="dir_000002_000006.html" target="_top" xlink:title="70">
<text text-anchor="middle" x="64.3393" y="-47.199" font-family="Helvetica,sans-Serif" font-size="10.00">70</text>
</a>
</g>
</g>
</g>
</svg>
