<?xml version="1.0" encoding="UTF-8" standalone="no"?>
<!DOCTYPE svg PUBLIC "-//W3C//DTD SVG 1.1//EN"
 "http://www.w3.org/Graphics/SVG/1.1/DTD/svg11.dtd">
<!-- Generated by graphviz version 2.38.0 (20140413.2041)
 -->
<!-- Title: src/applications/mesh_deformation Pages: 1 -->
<svg width="136pt" height="151pt"
 viewBox="0.00 0.00 136.00 151.00" xmlns="http://www.w3.org/2000/svg" xmlns:xlink="http://www.w3.org/1999/xlink">
<g id="graph0" class="graph" transform="scale(1 1) rotate(0) translate(4 147)">
<title>src/applications/mesh_deformation</title>
<polygon fill="white" stroke="none" points="-4,4 -4,-147 132,-147 132,4 -4,4"/>
<g id="clust1" class="cluster"><title>clusterdir_5300cae3a1557603f8e561b18f8f3907</title>
<g id="a_clust1"><a xlink:href="dir_5300cae3a1557603f8e561b18f8f3907.html" target="_top" xlink:title="applications">
<polygon fill="#ddddee" stroke="black" points="8,-64 8,-135 120,-135 120,-64 8,-64"/>
<text text-anchor="middle" x="64" y="-123" font-family="Helvetica,sans-Serif" font-size="10.00">applications</text>
</a>
</g>
</g>
<!-- dir_abf0b4d46c926b2747e8979154cfe386 -->
<g id="node1" class="node"><title>dir_abf0b4d46c926b2747e8979154cfe386</title>
<g id="a_node1"><a xlink:href="dir_abf0b4d46c926b2747e8979154cfe386.html" target="_top" xlink:title="mesh_deformation">
<polygon fill="#eeeeff" stroke="black" points="112.5,-108 15.5,-108 15.5,-72 112.5,-72 112.5,-108"/>
<text text-anchor="middle" x="64" y="-87.5" font-family="Helvetica,sans-Serif" font-size="10.00">mesh_deformation</text>
</a>
</g>
</g>
<!-- dir_d44c64559bbebec7f509842c48db8b23 -->
<g id="node2" class="node"><title>dir_d44c64559bbebec7f509842c48db8b23</title>
<g id="a_node2"><a xlink:href="dir_d44c64559bbebec7f509842c48db8b23.html" target="_top" xlink:title="include">
<polygon fill="none" stroke="black" points="91,-36 37,-36 37,-0 91,-0 91,-36"/>
<text text-anchor="middle" x="64" y="-15.5" font-family="Helvetica,sans-Serif" font-size="10.00">include</text>
</a>
</g>
</g>
<!-- dir_abf0b4d46c926b2747e8979154cfe386&#45;&gt;dir_d44c64559bbebec7f509842c48db8b23 -->
<g id="edge1" class="edge"><title>dir_abf0b4d46c926b2747e8979154cfe386&#45;&gt;dir_d44c64559bbebec7f509842c48db8b23</title>
<path fill="none" stroke="black" d="M64,-71.6966C64,-63.9827 64,-54.7125 64,-46.1124"/>
<polygon fill="black" stroke="black" points="67.5001,-46.1043 64,-36.1043 60.5001,-46.1044 67.5001,-46.1043"/>
<g id="a_edge1&#45;headlabel"><a xlink:href="dir_000011_000006.html" target="_top" xlink:title="8">
<text text-anchor="middle" x="70.3393" y="-47.199" font-family="Helvetica,sans-Serif" font-size="10.00">8</text>
</a>
</g>
</g>
</g>
</svg>
