<?xml version="1.0" encoding="UTF-8" standalone="no"?>
<!DOCTYPE svg PUBLIC "-//W3C//DTD SVG 1.1//EN"
 "http://www.w3.org/Graphics/SVG/1.1/DTD/svg11.dtd">
<!-- Generated by graphviz version 2.38.0 (20140413.2041)
 -->
<!-- Title: src/applications/acoustic Pages: 1 -->
<svg width="212pt" height="159pt"
 viewBox="0.00 0.00 212.00 159.00" xmlns="http://www.w3.org/2000/svg" xmlns:xlink="http://www.w3.org/1999/xlink">
<g id="graph0" class="graph" transform="scale(1 1) rotate(0) translate(4 155)">
<title>src/applications/acoustic</title>
<polygon fill="white" stroke="none" points="-4,4 -4,-155 208,-155 208,4 -4,4"/>
<g id="clust1" class="cluster"><title>clusterdir_5300cae3a1557603f8e561b18f8f3907</title>
<g id="a_clust1"><a xlink:href="dir_5300cae3a1557603f8e561b18f8f3907.html" target="_top" xlink:title="applications">
<polygon fill="#ddddee" stroke="black" points="8,-56 8,-143 196,-143 196,-56 8,-56"/>
<text text-anchor="middle" x="102" y="-131" font-family="Helvetica,sans-Serif" font-size="10.00">applications</text>
</a>
</g>
</g>
<g id="clust2" class="cluster"><title>clusterdir_1b37c2a74cd16e2f4a420153fa72ee54</title>
<g id="a_clust2"><a xlink:href="dir_1b37c2a74cd16e2f4a420153fa72ee54.html" target="_top">
<polygon fill="#eeeeff" stroke="black" points="16,-64 16,-116 188,-116 188,-64 16,-64"/>
</a>
</g>
</g>
<!-- dir_1b37c2a74cd16e2f4a420153fa72ee54 -->
<g id="node1" class="node"><title>dir_1b37c2a74cd16e2f4a420153fa72ee54</title>
<text text-anchor="middle" x="153" y="-87.5" font-family="Helvetica,sans-Serif" font-size="10.00">acoustic</text>
</g>
<!-- dir_d44c64559bbebec7f509842c48db8b23 -->
<g id="node3" class="node"><title>dir_d44c64559bbebec7f509842c48db8b23</title>
<g id="a_node3"><a xlink:href="dir_d44c64559bbebec7f509842c48db8b23.html" target="_top" xlink:title="include">
<polygon fill="none" stroke="black" points="180,-36 126,-36 126,-0 180,-0 180,-36"/>
<text text-anchor="middle" x="153" y="-15.5" font-family="Helvetica,sans-Serif" font-size="10.00">include</text>
</a>
</g>
</g>
<!-- dir_1b37c2a74cd16e2f4a420153fa72ee54&#45;&gt;dir_d44c64559bbebec7f509842c48db8b23 -->
<g id="edge1" class="edge"><title>dir_1b37c2a74cd16e2f4a420153fa72ee54&#45;&gt;dir_d44c64559bbebec7f509842c48db8b23</title>
<path fill="none" stroke="black" d="M153,-71.6966C153,-63.9827 153,-54.7125 153,-46.1124"/>
<polygon fill="black" stroke="black" points="156.5,-46.1043 153,-36.1043 149.5,-46.1044 156.5,-46.1043"/>
<g id="a_edge1&#45;headlabel"><a xlink:href="dir_000009_000006.html" target="_top" xlink:title="4">
<text text-anchor="middle" x="159.339" y="-47.199" font-family="Helvetica,sans-Serif" font-size="10.00">4</text>
</a>
</g>
</g>
<!-- dir_e7cb8f06dc000e57682931a1f278cd99 -->
<g id="node2" class="node"><title>dir_e7cb8f06dc000e57682931a1f278cd99</title>
<g id="a_node2"><a xlink:href="dir_e7cb8f06dc000e57682931a1f278cd99.html" target="_top" xlink:title="acoustic&#45;kernel">
<polygon fill="white" stroke="black" points="107.5,-108 24.5,-108 24.5,-72 107.5,-72 107.5,-108"/>
<text text-anchor="middle" x="66" y="-87.5" font-family="Helvetica,sans-Serif" font-size="10.00">acoustic&#45;kernel</text>
</a>
</g>
</g>
</g>
</svg>
