<?xml version="1.0" encoding="UTF-8" standalone="no"?>
<!DOCTYPE svg PUBLIC "-//W3C//DTD SVG 1.1//EN"
 "http://www.w3.org/Graphics/SVG/1.1/DTD/svg11.dtd">
<!-- Generated by graphviz version 2.38.0 (20140413.2041)
 -->
<!-- Title: src/backends Pages: 1 -->
<svg width="1274pt" height="159pt"
 viewBox="0.00 0.00 1274.00 159.00" xmlns="http://www.w3.org/2000/svg" xmlns:xlink="http://www.w3.org/1999/xlink">
<g id="graph0" class="graph" transform="scale(1 1) rotate(0) translate(4 155)">
<title>src/backends</title>
<polygon fill="white" stroke="none" points="-4,4 -4,-155 1270,-155 1270,4 -4,4"/>
<g id="clust1" class="cluster"><title>clusterdir_68267d1309a1af8e8297ef4c3efbcdba</title>
<g id="a_clust1"><a xlink:href="dir_68267d1309a1af8e8297ef4c3efbcdba.html" target="_top" xlink:title="src">
<polygon fill="#ddddee" stroke="black" points="8,-56 8,-143 1258,-143 1258,-56 8,-56"/>
<text text-anchor="middle" x="633" y="-131" font-family="Helvetica,sans-Serif" font-size="10.00">src</text>
</a>
</g>
</g>
<g id="clust2" class="cluster"><title>clusterdir_0f3cdec46afbc61a1ded8e1687c9c9a0</title>
<g id="a_clust2"><a xlink:href="dir_0f3cdec46afbc61a1ded8e1687c9c9a0.html" target="_top">
<polygon fill="#eeeeff" stroke="black" points="16,-64 16,-116 1250,-116 1250,-64 16,-64"/>
</a>
</g>
</g>
<!-- dir_0f3cdec46afbc61a1ded8e1687c9c9a0 -->
<g id="node1" class="node"><title>dir_0f3cdec46afbc61a1ded8e1687c9c9a0</title>
<text text-anchor="middle" x="1212" y="-87.5" font-family="Helvetica,sans-Serif" font-size="10.00">backends</text>
</g>
<!-- dir_08cbc4d3ffd47b4ea173f9694a28bcf3 -->
<g id="node2" class="node"><title>dir_08cbc4d3ffd47b4ea173f9694a28bcf3</title>
<g id="a_node2"><a xlink:href="dir_08cbc4d3ffd47b4ea173f9694a28bcf3.html" target="_top" xlink:title="mpi">
<polygon fill="white" stroke="red" points="1164,-108 1110,-108 1110,-72 1164,-72 1164,-108"/>
<text text-anchor="middle" x="1137" y="-87.5" font-family="Helvetica,sans-Serif" font-size="10.00">mpi</text>
</a>
</g>
</g>
<!-- dir_d44c64559bbebec7f509842c48db8b23 -->
<g id="node14" class="node"><title>dir_d44c64559bbebec7f509842c48db8b23</title>
<g id="a_node14"><a xlink:href="dir_d44c64559bbebec7f509842c48db8b23.html" target="_top" xlink:title="include">
<polygon fill="none" stroke="black" points="594,-36 540,-36 540,-0 594,-0 594,-36"/>
<text text-anchor="middle" x="567" y="-15.5" font-family="Helvetica,sans-Serif" font-size="10.00">include</text>
</a>
</g>
</g>
<!-- dir_08cbc4d3ffd47b4ea173f9694a28bcf3&#45;&gt;dir_d44c64559bbebec7f509842c48db8b23 -->
<g id="edge8" class="edge"><title>dir_08cbc4d3ffd47b4ea173f9694a28bcf3&#45;&gt;dir_d44c64559bbebec7f509842c48db8b23</title>
<path fill="none" stroke="black" d="M1122.91,-71.94C1116.85,-65.813 1109.26,-59.5458 1101,-56 1011.53,-17.5842 710.726,-17.2683 604.52,-18.4182"/>
<polygon fill="black" stroke="black" points="604.24,-14.9212 594.283,-18.5404 604.324,-21.9207 604.24,-14.9212"/>
<g id="a_edge8&#45;headlabel"><a xlink:href="dir_000017_000006.html" target="_top" xlink:title="12">
<text text-anchor="middle" x="607.801" y="-9.53935" font-family="Helvetica,sans-Serif" font-size="10.00">12</text>
</a>
</g>
</g>
<!-- dir_126584b8569dc8340f54f452f85730bc -->
<g id="node3" class="node"><title>dir_126584b8569dc8340f54f452f85730bc</title>
<g id="a_node3"><a xlink:href="dir_126584b8569dc8340f54f452f85730bc.html" target="_top" xlink:title="mpi_starpu">
<polygon fill="white" stroke="red" points="1091.5,-108 1026.5,-108 1026.5,-72 1091.5,-72 1091.5,-108"/>
<text text-anchor="middle" x="1059" y="-87.5" font-family="Helvetica,sans-Serif" font-size="10.00">mpi_starpu</text>
</a>
</g>
</g>
<!-- dir_126584b8569dc8340f54f452f85730bc&#45;&gt;dir_d44c64559bbebec7f509842c48db8b23 -->
<g id="edge7" class="edge"><title>dir_126584b8569dc8340f54f452f85730bc&#45;&gt;dir_d44c64559bbebec7f509842c48db8b23</title>
<path fill="none" stroke="black" d="M1042.53,-71.9862C1035.57,-65.8655 1027,-59.5906 1018,-56 943.089,-26.0986 698.196,-20.3606 604.198,-19.2605"/>
<polygon fill="black" stroke="black" points="604.058,-15.7589 594.021,-19.1529 603.984,-22.7585 604.058,-15.7589"/>
<g id="a_edge7&#45;headlabel"><a xlink:href="dir_000023_000006.html" target="_top" xlink:title="6">
<text text-anchor="middle" x="607.682" y="-10.4577" font-family="Helvetica,sans-Serif" font-size="10.00">6</text>
</a>
</g>
</g>
<!-- dir_9538ec387a7e9df09f8396be928661a5 -->
<g id="node4" class="node"><title>dir_9538ec387a7e9df09f8396be928661a5</title>
<g id="a_node4"><a xlink:href="dir_9538ec387a7e9df09f8396be928661a5.html" target="_top" xlink:title="mpi_starpu_kblas">
<polygon fill="white" stroke="red" points="1008.5,-108 915.5,-108 915.5,-72 1008.5,-72 1008.5,-108"/>
<text text-anchor="middle" x="962" y="-87.5" font-family="Helvetica,sans-Serif" font-size="10.00">mpi_starpu_kblas</text>
</a>
</g>
</g>
<!-- dir_9538ec387a7e9df09f8396be928661a5&#45;&gt;dir_d44c64559bbebec7f509842c48db8b23 -->
<g id="edge4" class="edge"><title>dir_9538ec387a7e9df09f8396be928661a5&#45;&gt;dir_d44c64559bbebec7f509842c48db8b23</title>
<path fill="none" stroke="black" d="M938.735,-71.9905C929.326,-65.9481 918.082,-59.7269 907,-56 851.636,-37.3819 680.549,-25.5271 604.315,-21.0367"/>
<polygon fill="black" stroke="black" points="604.395,-17.5356 594.21,-20.4521 603.991,-24.5239 604.395,-17.5356"/>
<g id="a_edge4&#45;headlabel"><a xlink:href="dir_000036_000006.html" target="_top" xlink:title="1">
<text text-anchor="middle" x="608.148" y="-12.4086" font-family="Helvetica,sans-Serif" font-size="10.00">1</text>
</a>
</g>
</g>
<!-- dir_4e01948d6b67572ab9d09be14a826e72 -->
<g id="node5" class="node"><title>dir_4e01948d6b67572ab9d09be14a826e72</title>
<g id="a_node5"><a xlink:href="dir_4e01948d6b67572ab9d09be14a826e72.html" target="_top" xlink:title="mpi_starpu_kblas2">
<polygon fill="white" stroke="red" points="898,-108 800,-108 800,-72 898,-72 898,-108"/>
<text text-anchor="middle" x="849" y="-87.5" font-family="Helvetica,sans-Serif" font-size="10.00">mpi_starpu_kblas2</text>
</a>
</g>
</g>
<!-- dir_4e01948d6b67572ab9d09be14a826e72&#45;&gt;dir_d44c64559bbebec7f509842c48db8b23 -->
<g id="edge6" class="edge"><title>dir_4e01948d6b67572ab9d09be14a826e72&#45;&gt;dir_d44c64559bbebec7f509842c48db8b23</title>
<path fill="none" stroke="black" d="M823.665,-71.9977C813.834,-66.1054 802.248,-59.985 791,-56 727.884,-33.6385 649.894,-24.6617 604.565,-21.1526"/>
<polygon fill="black" stroke="black" points="604.544,-17.642 594.317,-20.41 604.038,-24.6237 604.544,-17.642"/>
<g id="a_edge6&#45;headlabel"><a xlink:href="dir_000038_000006.html" target="_top" xlink:title="1">
<text text-anchor="middle" x="608.335" y="-12.5699" font-family="Helvetica,sans-Serif" font-size="10.00">1</text>
</a>
</g>
</g>
<!-- dir_d5fd893afb0844c521536b988c70657c -->
<g id="node6" class="node"><title>dir_d5fd893afb0844c521536b988c70657c</title>
<g id="a_node6"><a xlink:href="dir_d5fd893afb0844c521536b988c70657c.html" target="_top" xlink:title="mpi_starpu_kblas3_spatial">
<polygon fill="white" stroke="red" points="782,-108 650,-108 650,-72 782,-72 782,-108"/>
<text text-anchor="middle" x="716" y="-87.5" font-family="Helvetica,sans-Serif" font-size="10.00">mpi_starpu_kblas3_spatial</text>
</a>
</g>
</g>
<!-- dir_d5fd893afb0844c521536b988c70657c&#45;&gt;dir_d44c64559bbebec7f509842c48db8b23 -->
<g id="edge11" class="edge"><title>dir_d5fd893afb0844c521536b988c70657c&#45;&gt;dir_d44c64559bbebec7f509842c48db8b23</title>
<path fill="none" stroke="black" d="M679.55,-71.8761C656.38,-60.9904 626.496,-46.9511 603.345,-36.0749"/>
<polygon fill="black" stroke="black" points="604.734,-32.8605 594.195,-31.7761 601.758,-39.1961 604.734,-32.8605"/>
<g id="a_edge11&#45;headlabel"><a xlink:href="dir_000040_000006.html" target="_top" xlink:title="2">
<text text-anchor="middle" x="609.195" y="-29.3191" font-family="Helvetica,sans-Serif" font-size="10.00">2</text>
</a>
</g>
</g>
<!-- dir_a97914dcec9cee7b3899c36818db47ba -->
<g id="node7" class="node"><title>dir_a97914dcec9cee7b3899c36818db47ba</title>
<g id="a_node7"><a xlink:href="dir_a97914dcec9cee7b3899c36818db47ba.html" target="_top" xlink:title="openmp">
<polygon fill="white" stroke="red" points="632,-108 578,-108 578,-72 632,-72 632,-108"/>
<text text-anchor="middle" x="605" y="-87.5" font-family="Helvetica,sans-Serif" font-size="10.00">openmp</text>
</a>
</g>
</g>
<!-- dir_a97914dcec9cee7b3899c36818db47ba&#45;&gt;dir_d44c64559bbebec7f509842c48db8b23 -->
<g id="edge5" class="edge"><title>dir_a97914dcec9cee7b3899c36818db47ba&#45;&gt;dir_d44c64559bbebec7f509842c48db8b23</title>
<path fill="none" stroke="black" d="M595.607,-71.6966C591.235,-63.6436 585.943,-53.8945 581.105,-44.9824"/>
<polygon fill="black" stroke="black" points="584.132,-43.223 576.285,-36.1043 577.98,-46.5627 584.132,-43.223"/>
<g id="a_edge5&#45;headlabel"><a xlink:href="dir_000015_000006.html" target="_top" xlink:title="5">
<text text-anchor="middle" x="588.342" y="-42.5276" font-family="Helvetica,sans-Serif" font-size="10.00">5</text>
</a>
</g>
</g>
<!-- dir_bb88fcc0f3ee6cca06f291d2f01ccf2c -->
<g id="node8" class="node"><title>dir_bb88fcc0f3ee6cca06f291d2f01ccf2c</title>
<g id="a_node8"><a xlink:href="dir_bb88fcc0f3ee6cca06f291d2f01ccf2c.html" target="_top" xlink:title="sequential">
<polygon fill="white" stroke="red" points="559.5,-108 498.5,-108 498.5,-72 559.5,-72 559.5,-108"/>
<text text-anchor="middle" x="529" y="-87.5" font-family="Helvetica,sans-Serif" font-size="10.00">sequential</text>
</a>
</g>
</g>
<!-- dir_bb88fcc0f3ee6cca06f291d2f01ccf2c&#45;&gt;dir_d44c64559bbebec7f509842c48db8b23 -->
<g id="edge3" class="edge"><title>dir_bb88fcc0f3ee6cca06f291d2f01ccf2c&#45;&gt;dir_d44c64559bbebec7f509842c48db8b23</title>
<path fill="none" stroke="black" d="M538.393,-71.6966C542.765,-63.6436 548.057,-53.8945 552.895,-44.9824"/>
<polygon fill="black" stroke="black" points="556.02,-46.5627 557.715,-36.1043 549.868,-43.223 556.02,-46.5627"/>
<g id="a_edge3&#45;headlabel"><a xlink:href="dir_000013_000006.html" target="_top" xlink:title="12">
<text text-anchor="middle" x="556.8" y="-48.5764" font-family="Helvetica,sans-Serif" font-size="10.00">12</text>
</a>
</g>
</g>
<!-- dir_860a687b11cedb2cf59e8218cf89a812 -->
<g id="node9" class="node"><title>dir_860a687b11cedb2cf59e8218cf89a812</title>
<g id="a_node9"><a xlink:href="dir_860a687b11cedb2cf59e8218cf89a812.html" target="_top" xlink:title="starpu">
<polygon fill="white" stroke="red" points="480,-108 426,-108 426,-72 480,-72 480,-108"/>
<text text-anchor="middle" x="453" y="-87.5" font-family="Helvetica,sans-Serif" font-size="10.00">starpu</text>
</a>
</g>
</g>
<!-- dir_860a687b11cedb2cf59e8218cf89a812&#45;&gt;dir_d44c64559bbebec7f509842c48db8b23 -->
<g id="edge10" class="edge"><title>dir_860a687b11cedb2cf59e8218cf89a812&#45;&gt;dir_d44c64559bbebec7f509842c48db8b23</title>
<path fill="none" stroke="black" d="M470.237,-71.8137C476.204,-66.3711 483.125,-60.5844 490,-56 502.61,-47.5909 517.423,-39.9992 530.671,-33.9125"/>
<polygon fill="black" stroke="black" points="532.28,-37.027 539.986,-29.7562 529.428,-30.6344 532.28,-37.027"/>
<g id="a_edge10&#45;headlabel"><a xlink:href="dir_000020_000006.html" target="_top" xlink:title="18">
<text text-anchor="middle" x="530.154" y="-38.5845" font-family="Helvetica,sans-Serif" font-size="10.00">18</text>
</a>
</g>
</g>
<!-- dir_370fdc9ff05a04107fabc1dd8e04cad2 -->
<g id="node10" class="node"><title>dir_370fdc9ff05a04107fabc1dd8e04cad2</title>
<g id="a_node10"><a xlink:href="dir_370fdc9ff05a04107fabc1dd8e04cad2.html" target="_top" xlink:title="starpu_cuda">
<polygon fill="white" stroke="red" points="408,-108 338,-108 338,-72 408,-72 408,-108"/>
<text text-anchor="middle" x="373" y="-87.5" font-family="Helvetica,sans-Serif" font-size="10.00">starpu_cuda</text>
</a>
</g>
</g>
<!-- dir_370fdc9ff05a04107fabc1dd8e04cad2&#45;&gt;dir_d44c64559bbebec7f509842c48db8b23 -->
<g id="edge1" class="edge"><title>dir_370fdc9ff05a04107fabc1dd8e04cad2&#45;&gt;dir_d44c64559bbebec7f509842c48db8b23</title>
<path fill="none" stroke="black" d="M392.492,-71.7288C399.77,-66.0203 408.372,-60.0902 417,-56 453.365,-38.7614 498.629,-29.02 529.869,-23.9092"/>
<polygon fill="black" stroke="black" points="530.55,-27.3455 539.893,-22.3494 529.474,-20.4287 530.55,-27.3455"/>
<g id="a_edge1&#45;headlabel"><a xlink:href="dir_000033_000006.html" target="_top" xlink:title="3">
<text text-anchor="middle" x="527.435" y="-28.2036" font-family="Helvetica,sans-Serif" font-size="10.00">3</text>
</a>
</g>
</g>
<!-- dir_61800706ed8c20d21548d64388636d20 -->
<g id="node11" class="node"><title>dir_61800706ed8c20d21548d64388636d20</title>
<g id="a_node11"><a xlink:href="dir_61800706ed8c20d21548d64388636d20.html" target="_top" xlink:title="starpu_kblas">
<polygon fill="white" stroke="red" points="320,-108 248,-108 248,-72 320,-72 320,-108"/>
<text text-anchor="middle" x="284" y="-87.5" font-family="Helvetica,sans-Serif" font-size="10.00">starpu_kblas</text>
</a>
</g>
</g>
<!-- dir_61800706ed8c20d21548d64388636d20&#45;&gt;dir_d44c64559bbebec7f509842c48db8b23 -->
<g id="edge12" class="edge"><title>dir_61800706ed8c20d21548d64388636d20&#45;&gt;dir_d44c64559bbebec7f509842c48db8b23</title>
<path fill="none" stroke="black" d="M302.912,-71.9994C310.523,-66.0337 319.694,-59.8631 329,-56 395.962,-28.2015 481.395,-21.0856 529.561,-19.3878"/>
<polygon fill="black" stroke="black" points="529.932,-22.8786 539.826,-19.089 529.728,-15.8816 529.932,-22.8786"/>
<g id="a_edge12&#45;headlabel"><a xlink:href="dir_000025_000006.html" target="_top" xlink:title="3">
<text text-anchor="middle" x="526.421" y="-23.3212" font-family="Helvetica,sans-Serif" font-size="10.00">3</text>
</a>
</g>
</g>
<!-- dir_49ae27f63d77f20c327eee115e3448ae -->
<g id="node12" class="node"><title>dir_49ae27f63d77f20c327eee115e3448ae</title>
<g id="a_node12"><a xlink:href="dir_49ae27f63d77f20c327eee115e3448ae.html" target="_top" xlink:title="starpu_kblas2">
<polygon fill="white" stroke="red" points="229.5,-108 152.5,-108 152.5,-72 229.5,-72 229.5,-108"/>
<text text-anchor="middle" x="191" y="-87.5" font-family="Helvetica,sans-Serif" font-size="10.00">starpu_kblas2</text>
</a>
</g>
</g>
<!-- dir_49ae27f63d77f20c327eee115e3448ae&#45;&gt;dir_d44c64559bbebec7f509842c48db8b23 -->
<g id="edge2" class="edge"><title>dir_49ae27f63d77f20c327eee115e3448ae&#45;&gt;dir_d44c64559bbebec7f509842c48db8b23</title>
<path fill="none" stroke="black" d="M211.25,-71.8042C219.378,-65.8145 229.147,-59.6785 239,-56 291.449,-36.4191 454.909,-25.1741 529.369,-20.9471"/>
<polygon fill="black" stroke="black" points="529.895,-24.4234 539.686,-20.3742 529.507,-17.4342 529.895,-24.4234"/>
<g id="a_edge2&#45;headlabel"><a xlink:href="dir_000028_000006.html" target="_top" xlink:title="3">
<text text-anchor="middle" x="526.463" y="-24.9575" font-family="Helvetica,sans-Serif" font-size="10.00">3</text>
</a>
</g>
</g>
<!-- dir_aca11d8a69ece6d69f971af7e217ac4d -->
<g id="node13" class="node"><title>dir_aca11d8a69ece6d69f971af7e217ac4d</title>
<g id="a_node13"><a xlink:href="dir_aca11d8a69ece6d69f971af7e217ac4d.html" target="_top" xlink:title="starpu_kblas3_spatial">
<polygon fill="white" stroke="red" points="134.5,-108 23.5,-108 23.5,-72 134.5,-72 134.5,-108"/>
<text text-anchor="middle" x="79" y="-87.5" font-family="Helvetica,sans-Serif" font-size="10.00">starpu_kblas3_spatial</text>
</a>
</g>
</g>
<!-- dir_aca11d8a69ece6d69f971af7e217ac4d&#45;&gt;dir_d44c64559bbebec7f509842c48db8b23 -->
<g id="edge9" class="edge"><title>dir_aca11d8a69ece6d69f971af7e217ac4d&#45;&gt;dir_d44c64559bbebec7f509842c48db8b23</title>
<path fill="none" stroke="black" d="M106.83,-71.9138C117.993,-65.8614 131.224,-59.6534 144,-56 216.025,-35.4047 440.296,-24.1904 529.681,-20.4426"/>
<polygon fill="black" stroke="black" points="530.046,-23.9307 539.894,-20.0225 529.758,-16.9366 530.046,-23.9307"/>
<g id="a_edge9&#45;headlabel"><a xlink:href="dir_000031_000006.html" target="_top" xlink:title="2">
<text text-anchor="middle" x="526.571" y="-24.4152" font-family="Helvetica,sans-Serif" font-size="10.00">2</text>
</a>
</g>
</g>
</g>
</svg>
