<?xml version="1.0" encoding="UTF-8" standalone="no"?>
<!DOCTYPE svg PUBLIC "-//W3C//DTD SVG 1.1//EN"
 "http://www.w3.org/Graphics/SVG/1.1/DTD/svg11.dtd">
<!-- Generated by graphviz version 2.38.0 (20140413.2041)
 -->
<!-- Title: src/backends/mpi_starpu_kblas/blrm Pages: 1 -->
<svg width="117pt" height="151pt"
 viewBox="0.00 0.00 117.00 151.00" xmlns="http://www.w3.org/2000/svg" xmlns:xlink="http://www.w3.org/1999/xlink">
<g id="graph0" class="graph" transform="scale(1 1) rotate(0) translate(4 147)">
<title>src/backends/mpi_starpu_kblas/blrm</title>
<polygon fill="white" stroke="none" points="-4,4 -4,-147 113,-147 113,4 -4,4"/>
<g id="clust1" class="cluster"><title>clusterdir_9538ec387a7e9df09f8396be928661a5</title>
<g id="a_clust1"><a xlink:href="dir_9538ec387a7e9df09f8396be928661a5.html" target="_top" xlink:title="mpi_starpu_kblas">
<polygon fill="#ddddee" stroke="black" points="8,-64 8,-135 101,-135 101,-64 8,-64"/>
<text text-anchor="middle" x="54.5" y="-123" font-family="Helvetica,sans-Serif" font-size="10.00">mpi_starpu_kblas</text>
</a>
</g>
</g>
<!-- dir_0929973de81b1f77a9c3b850168962d4 -->
<g id="node1" class="node"><title>dir_0929973de81b1f77a9c3b850168962d4</title>
<g id="a_node1"><a xlink:href="dir_0929973de81b1f77a9c3b850168962d4.html" target="_top" xlink:title="blrm">
<polygon fill="#eeeeff" stroke="black" points="81,-108 27,-108 27,-72 81,-72 81,-108"/>
<text text-anchor="middle" x="54" y="-87.5" font-family="Helvetica,sans-Serif" font-size="10.00">blrm</text>
</a>
</g>
</g>
<!-- dir_d44c64559bbebec7f509842c48db8b23 -->
<g id="node2" class="node"><title>dir_d44c64559bbebec7f509842c48db8b23</title>
<g id="a_node2"><a xlink:href="dir_d44c64559bbebec7f509842c48db8b23.html" target="_top" xlink:title="include">
<polygon fill="none" stroke="black" points="81,-36 27,-36 27,-0 81,-0 81,-36"/>
<text text-anchor="middle" x="54" y="-15.5" font-family="Helvetica,sans-Serif" font-size="10.00">include</text>
</a>
</g>
</g>
<!-- dir_0929973de81b1f77a9c3b850168962d4&#45;&gt;dir_d44c64559bbebec7f509842c48db8b23 -->
<g id="edge1" class="edge"><title>dir_0929973de81b1f77a9c3b850168962d4&#45;&gt;dir_d44c64559bbebec7f509842c48db8b23</title>
<path fill="none" stroke="black" d="M54,-71.6966C54,-63.9827 54,-54.7125 54,-46.1124"/>
<polygon fill="black" stroke="black" points="57.5001,-46.1043 54,-36.1043 50.5001,-46.1044 57.5001,-46.1043"/>
<g id="a_edge1&#45;headlabel"><a xlink:href="dir_000037_000006.html" target="_top" xlink:title="1">
<text text-anchor="middle" x="60.3393" y="-47.199" font-family="Helvetica,sans-Serif" font-size="10.00">1</text>
</a>
</g>
</g>
</g>
</svg>
