<?xml version="1.0" encoding="UTF-8" standalone="no"?>
<!DOCTYPE svg PUBLIC "-//W3C//DTD SVG 1.1//EN"
 "http://www.w3.org/Graphics/SVG/1.1/DTD/svg11.dtd">
<!-- Generated by graphviz version 2.38.0 (20140413.2041)
 -->
<!-- Title: src/backends/mpi_starpu_kblas2 Pages: 1 -->
<svg width="226pt" height="159pt"
 viewBox="0.00 0.00 226.00 159.00" xmlns="http://www.w3.org/2000/svg" xmlns:xlink="http://www.w3.org/1999/xlink">
<g id="graph0" class="graph" transform="scale(1 1) rotate(0) translate(4 155)">
<title>src/backends/mpi_starpu_kblas2</title>
<polygon fill="white" stroke="none" points="-4,4 -4,-155 222,-155 222,4 -4,4"/>
<g id="clust1" class="cluster"><title>clusterdir_0f3cdec46afbc61a1ded8e1687c9c9a0</title>
<g id="a_clust1"><a xlink:href="dir_0f3cdec46afbc61a1ded8e1687c9c9a0.html" target="_top" xlink:title="backends">
<polygon fill="#ddddee" stroke="black" points="8,-56 8,-143 210,-143 210,-56 8,-56"/>
<text text-anchor="middle" x="109" y="-131" font-family="Helvetica,sans-Serif" font-size="10.00">backends</text>
</a>
</g>
</g>
<g id="clust2" class="cluster"><title>clusterdir_4e01948d6b67572ab9d09be14a826e72</title>
<g id="a_clust2"><a xlink:href="dir_4e01948d6b67572ab9d09be14a826e72.html" target="_top">
<polygon fill="#eeeeff" stroke="black" points="16,-64 16,-116 202,-116 202,-64 16,-64"/>
</a>
</g>
</g>
<!-- dir_4e01948d6b67572ab9d09be14a826e72 -->
<g id="node1" class="node"><title>dir_4e01948d6b67572ab9d09be14a826e72</title>
<text text-anchor="middle" x="145" y="-87.5" font-family="Helvetica,sans-Serif" font-size="10.00">mpi_starpu_kblas2</text>
</g>
<!-- dir_75c32ffa637c3808320ebf6517796528 -->
<g id="node2" class="node"><title>dir_75c32ffa637c3808320ebf6517796528</title>
<g id="a_node2"><a xlink:href="dir_75c32ffa637c3808320ebf6517796528.html" target="_top" xlink:title="blrm">
<polygon fill="white" stroke="black" points="78,-108 24,-108 24,-72 78,-72 78,-108"/>
<text text-anchor="middle" x="51" y="-87.5" font-family="Helvetica,sans-Serif" font-size="10.00">blrm</text>
</a>
</g>
</g>
<!-- dir_d44c64559bbebec7f509842c48db8b23 -->
<g id="node3" class="node"><title>dir_d44c64559bbebec7f509842c48db8b23</title>
<g id="a_node3"><a xlink:href="dir_d44c64559bbebec7f509842c48db8b23.html" target="_top" xlink:title="include">
<polygon fill="none" stroke="black" points="78,-36 24,-36 24,-0 78,-0 78,-36"/>
<text text-anchor="middle" x="51" y="-15.5" font-family="Helvetica,sans-Serif" font-size="10.00">include</text>
</a>
</g>
</g>
<!-- dir_75c32ffa637c3808320ebf6517796528&#45;&gt;dir_d44c64559bbebec7f509842c48db8b23 -->
<g id="edge1" class="edge"><title>dir_75c32ffa637c3808320ebf6517796528&#45;&gt;dir_d44c64559bbebec7f509842c48db8b23</title>
<path fill="none" stroke="black" d="M51,-71.6966C51,-63.9827 51,-54.7125 51,-46.1124"/>
<polygon fill="black" stroke="black" points="54.5001,-46.1043 51,-36.1043 47.5001,-46.1044 54.5001,-46.1043"/>
<g id="a_edge1&#45;headlabel"><a xlink:href="dir_000039_000006.html" target="_top" xlink:title="1">
<text text-anchor="middle" x="57.3393" y="-47.199" font-family="Helvetica,sans-Serif" font-size="10.00">1</text>
</a>
</g>
</g>
</g>
</svg>
