<?xml version="1.0" encoding="UTF-8" standalone="no"?>
<!DOCTYPE svg PUBLIC "-//W3C//DTD SVG 1.1//EN"
 "http://www.w3.org/Graphics/SVG/1.1/DTD/svg11.dtd">
<!-- Generated by graphviz version 2.38.0 (20140413.2041)
 -->
<!-- Title: src/applications Pages: 1 -->
<svg width="311pt" height="159pt"
 viewBox="0.00 0.00 311.00 159.00" xmlns="http://www.w3.org/2000/svg" xmlns:xlink="http://www.w3.org/1999/xlink">
<g id="graph0" class="graph" transform="scale(1 1) rotate(0) translate(4 155)">
<title>src/applications</title>
<polygon fill="white" stroke="none" points="-4,4 -4,-155 307,-155 307,4 -4,4"/>
<g id="clust1" class="cluster"><title>clusterdir_68267d1309a1af8e8297ef4c3efbcdba</title>
<g id="a_clust1"><a xlink:href="dir_68267d1309a1af8e8297ef4c3efbcdba.html" target="_top" xlink:title="src">
<polygon fill="#ddddee" stroke="black" points="8,-56 8,-143 295,-143 295,-56 8,-56"/>
<text text-anchor="middle" x="151.5" y="-131" font-family="Helvetica,sans-Serif" font-size="10.00">src</text>
</a>
</g>
</g>
<g id="clust2" class="cluster"><title>clusterdir_5300cae3a1557603f8e561b18f8f3907</title>
<g id="a_clust2"><a xlink:href="dir_5300cae3a1557603f8e561b18f8f3907.html" target="_top">
<polygon fill="#eeeeff" stroke="black" points="16,-64 16,-116 287,-116 287,-64 16,-64"/>
</a>
</g>
</g>
<!-- dir_5300cae3a1557603f8e561b18f8f3907 -->
<g id="node1" class="node"><title>dir_5300cae3a1557603f8e561b18f8f3907</title>
<text text-anchor="middle" x="245" y="-87.5" font-family="Helvetica,sans-Serif" font-size="10.00">applications</text>
</g>
<!-- dir_1b37c2a74cd16e2f4a420153fa72ee54 -->
<g id="node2" class="node"><title>dir_1b37c2a74cd16e2f4a420153fa72ee54</title>
<g id="a_node2"><a xlink:href="dir_1b37c2a74cd16e2f4a420153fa72ee54.html" target="_top" xlink:title="acoustic">
<polygon fill="white" stroke="red" points="193,-108 139,-108 139,-72 193,-72 193,-108"/>
<text text-anchor="middle" x="166" y="-87.5" font-family="Helvetica,sans-Serif" font-size="10.00">acoustic</text>
</a>
</g>
</g>
<!-- dir_d44c64559bbebec7f509842c48db8b23 -->
<g id="node4" class="node"><title>dir_d44c64559bbebec7f509842c48db8b23</title>
<g id="a_node4"><a xlink:href="dir_d44c64559bbebec7f509842c48db8b23.html" target="_top" xlink:title="include">
<polygon fill="none" stroke="black" points="146,-36 92,-36 92,-0 146,-0 146,-36"/>
<text text-anchor="middle" x="119" y="-15.5" font-family="Helvetica,sans-Serif" font-size="10.00">include</text>
</a>
</g>
</g>
<!-- dir_1b37c2a74cd16e2f4a420153fa72ee54&#45;&gt;dir_d44c64559bbebec7f509842c48db8b23 -->
<g id="edge1" class="edge"><title>dir_1b37c2a74cd16e2f4a420153fa72ee54&#45;&gt;dir_d44c64559bbebec7f509842c48db8b23</title>
<path fill="none" stroke="black" d="M154.382,-71.6966C148.861,-63.4741 142.153,-53.4832 136.068,-44.4207"/>
<polygon fill="black" stroke="black" points="138.965,-42.4555 130.484,-36.1043 133.153,-46.3576 138.965,-42.4555"/>
<g id="a_edge1&#45;headlabel"><a xlink:href="dir_000009_000006.html" target="_top" xlink:title="4">
<text text-anchor="middle" x="143.325" y="-41.3571" font-family="Helvetica,sans-Serif" font-size="10.00">4</text>
</a>
</g>
</g>
<!-- dir_abf0b4d46c926b2747e8979154cfe386 -->
<g id="node3" class="node"><title>dir_abf0b4d46c926b2747e8979154cfe386</title>
<g id="a_node3"><a xlink:href="dir_abf0b4d46c926b2747e8979154cfe386.html" target="_top" xlink:title="mesh_deformation">
<polygon fill="white" stroke="black" points="120.5,-108 23.5,-108 23.5,-72 120.5,-72 120.5,-108"/>
<text text-anchor="middle" x="72" y="-87.5" font-family="Helvetica,sans-Serif" font-size="10.00">mesh_deformation</text>
</a>
</g>
</g>
<!-- dir_abf0b4d46c926b2747e8979154cfe386&#45;&gt;dir_d44c64559bbebec7f509842c48db8b23 -->
<g id="edge2" class="edge"><title>dir_abf0b4d46c926b2747e8979154cfe386&#45;&gt;dir_d44c64559bbebec7f509842c48db8b23</title>
<path fill="none" stroke="black" d="M83.618,-71.6966C89.1388,-63.4741 95.847,-53.4832 101.932,-44.4207"/>
<polygon fill="black" stroke="black" points="104.847,-46.3576 107.516,-36.1043 99.0355,-42.4555 104.847,-46.3576"/>
<g id="a_edge2&#45;headlabel"><a xlink:href="dir_000011_000006.html" target="_top" xlink:title="8">
<text text-anchor="middle" x="105.201" y="-48.4246" font-family="Helvetica,sans-Serif" font-size="10.00">8</text>
</a>
</g>
</g>
</g>
</svg>
