<?xml version="1.0" encoding="UTF-8" standalone="no"?>
<!DOCTYPE svg PUBLIC "-//W3C//DTD SVG 1.1//EN"
 "http://www.w3.org/Graphics/SVG/1.1/DTD/svg11.dtd">
<!-- Generated by graphviz version 2.38.0 (20140413.2041)
 -->
<!-- Title: build/src/applications Pages: 1 -->
<svg width="395pt" height="159pt"
 viewBox="0.00 0.00 395.00 159.00" xmlns="http://www.w3.org/2000/svg" xmlns:xlink="http://www.w3.org/1999/xlink">
<g id="graph0" class="graph" transform="scale(1 1) rotate(0) translate(4 155)">
<title>build/src/applications</title>
<polygon fill="white" stroke="none" points="-4,4 -4,-155 391,-155 391,4 -4,4"/>
<g id="clust1" class="cluster"><title>clusterdir_4e7c8c4fc0d923782da8a23d70a9725b</title>
<g id="a_clust1"><a xlink:href="dir_4e7c8c4fc0d923782da8a23d70a9725b.html" target="_top" xlink:title="src">
<polygon fill="#ddddee" stroke="black" points="8,-56 8,-143 379,-143 379,-56 8,-56"/>
<text text-anchor="middle" x="193.5" y="-131" font-family="Helvetica,sans-Serif" font-size="10.00">src</text>
</a>
</g>
</g>
<g id="clust2" class="cluster"><title>clusterdir_1e95100a5bfe7246d9102fe2477f1677</title>
<g id="a_clust2"><a xlink:href="dir_1e95100a5bfe7246d9102fe2477f1677.html" target="_top">
<polygon fill="#eeeeff" stroke="black" points="16,-64 16,-116 371,-116 371,-64 16,-64"/>
</a>
</g>
</g>
<!-- dir_1e95100a5bfe7246d9102fe2477f1677 -->
<g id="node1" class="node"><title>dir_1e95100a5bfe7246d9102fe2477f1677</title>
<text text-anchor="middle" x="329" y="-87.5" font-family="Helvetica,sans-Serif" font-size="10.00">applications</text>
</g>
<!-- dir_e73e7b4ff1be8a2b0f7fbd82e0d00dca -->
<g id="node2" class="node"><title>dir_e73e7b4ff1be8a2b0f7fbd82e0d00dca</title>
<g id="a_node2"><a xlink:href="dir_e73e7b4ff1be8a2b0f7fbd82e0d00dca.html" target="_top" xlink:title="electrodynamics">
<polygon fill="white" stroke="black" points="277,-108 189,-108 189,-72 277,-72 277,-108"/>
<text text-anchor="middle" x="233" y="-87.5" font-family="Helvetica,sans-Serif" font-size="10.00">electrodynamics</text>
</a>
</g>
</g>
<!-- dir_d44c64559bbebec7f509842c48db8b23 -->
<g id="node5" class="node"><title>dir_d44c64559bbebec7f509842c48db8b23</title>
<g id="a_node5"><a xlink:href="dir_d44c64559bbebec7f509842c48db8b23.html" target="_top" xlink:title="include">
<polygon fill="none" stroke="black" points="161,-36 107,-36 107,-0 161,-0 161,-36"/>
<text text-anchor="middle" x="134" y="-15.5" font-family="Helvetica,sans-Serif" font-size="10.00">include</text>
</a>
</g>
</g>
<!-- dir_e73e7b4ff1be8a2b0f7fbd82e0d00dca&#45;&gt;dir_d44c64559bbebec7f509842c48db8b23 -->
<g id="edge2" class="edge"><title>dir_e73e7b4ff1be8a2b0f7fbd82e0d00dca&#45;&gt;dir_d44c64559bbebec7f509842c48db8b23</title>
<path fill="none" stroke="black" d="M208.782,-71.8761C196.077,-62.8931 180.336,-51.7625 166.577,-42.0341"/>
<polygon fill="black" stroke="black" points="168.497,-39.1053 158.311,-36.1898 164.456,-44.8209 168.497,-39.1053"/>
<g id="a_edge2&#45;headlabel"><a xlink:href="dir_000003_000006.html" target="_top" xlink:title="20">
<text text-anchor="middle" x="173.071" y="-36.3623" font-family="Helvetica,sans-Serif" font-size="10.00">20</text>
</a>
</g>
</g>
<!-- dir_48a4d32a4816b09e17063700c3c5091f -->
<g id="node3" class="node"><title>dir_48a4d32a4816b09e17063700c3c5091f</title>
<g id="a_node3"><a xlink:href="dir_48a4d32a4816b09e17063700c3c5091f.html" target="_top" xlink:title="electrostatics">
<polygon fill="white" stroke="black" points="171.5,-108 96.5,-108 96.5,-72 171.5,-72 171.5,-108"/>
<text text-anchor="middle" x="134" y="-87.5" font-family="Helvetica,sans-Serif" font-size="10.00">electrostatics</text>
</a>
</g>
</g>
<!-- dir_48a4d32a4816b09e17063700c3c5091f&#45;&gt;dir_d44c64559bbebec7f509842c48db8b23 -->
<g id="edge3" class="edge"><title>dir_48a4d32a4816b09e17063700c3c5091f&#45;&gt;dir_d44c64559bbebec7f509842c48db8b23</title>
<path fill="none" stroke="black" d="M134,-71.6966C134,-63.9827 134,-54.7125 134,-46.1124"/>
<polygon fill="black" stroke="black" points="137.5,-46.1043 134,-36.1043 130.5,-46.1044 137.5,-46.1043"/>
<g id="a_edge3&#45;headlabel"><a xlink:href="dir_000004_000006.html" target="_top" xlink:title="10">
<text text-anchor="middle" x="140.339" y="-47.199" font-family="Helvetica,sans-Serif" font-size="10.00">10</text>
</a>
</g>
</g>
<!-- dir_7b3404eee51965993b229650c30b2724 -->
<g id="node4" class="node"><title>dir_7b3404eee51965993b229650c30b2724</title>
<g id="a_node4"><a xlink:href="dir_7b3404eee51965993b229650c30b2724.html" target="_top" xlink:title="spatial">
<polygon fill="white" stroke="black" points="78,-108 24,-108 24,-72 78,-72 78,-108"/>
<text text-anchor="middle" x="51" y="-87.5" font-family="Helvetica,sans-Serif" font-size="10.00">spatial</text>
</a>
</g>
</g>
<!-- dir_7b3404eee51965993b229650c30b2724&#45;&gt;dir_d44c64559bbebec7f509842c48db8b23 -->
<g id="edge1" class="edge"><title>dir_7b3404eee51965993b229650c30b2724&#45;&gt;dir_d44c64559bbebec7f509842c48db8b23</title>
<path fill="none" stroke="black" d="M70.0405,-71.6846C75.7615,-66.5726 82.0893,-61.0074 88,-56 93.254,-51.5489 98.9187,-46.8856 104.417,-42.4281"/>
<polygon fill="black" stroke="black" points="106.691,-45.0907 112.285,-36.0933 102.301,-39.6382 106.691,-45.0907"/>
<g id="a_edge1&#45;headlabel"><a xlink:href="dir_000005_000006.html" target="_top" xlink:title="40">
<text text-anchor="middle" x="105.671" y="-47.0565" font-family="Helvetica,sans-Serif" font-size="10.00">40</text>
</a>
</g>
</g>
</g>
</svg>
