<?xml version="1.0" encoding="UTF-8" standalone="no"?>
<!DOCTYPE svg PUBLIC "-//W3C//DTD SVG 1.1//EN"
 "http://www.w3.org/Graphics/SVG/1.1/DTD/svg11.dtd">
<!-- Generated by graphviz version 2.38.0 (20140413.2041)
 -->
<!-- Title: src/backends/starpu_kblas2 Pages: 1 -->
<svg width="278pt" height="159pt"
 viewBox="0.00 0.00 278.00 159.00" xmlns="http://www.w3.org/2000/svg" xmlns:xlink="http://www.w3.org/1999/xlink">
<g id="graph0" class="graph" transform="scale(1 1) rotate(0) translate(4 155)">
<title>src/backends/starpu_kblas2</title>
<polygon fill="white" stroke="none" points="-4,4 -4,-155 274,-155 274,4 -4,4"/>
<g id="clust1" class="cluster"><title>clusterdir_0f3cdec46afbc61a1ded8e1687c9c9a0</title>
<g id="a_clust1"><a xlink:href="dir_0f3cdec46afbc61a1ded8e1687c9c9a0.html" target="_top" xlink:title="backends">
<polygon fill="#ddddee" stroke="black" points="8,-56 8,-143 262,-143 262,-56 8,-56"/>
<text text-anchor="middle" x="135" y="-131" font-family="Helvetica,sans-Serif" font-size="10.00">backends</text>
</a>
</g>
</g>
<g id="clust2" class="cluster"><title>clusterdir_49ae27f63d77f20c327eee115e3448ae</title>
<g id="a_clust2"><a xlink:href="dir_49ae27f63d77f20c327eee115e3448ae.html" target="_top">
<polygon fill="#eeeeff" stroke="black" points="16,-64 16,-116 254,-116 254,-64 16,-64"/>
</a>
</g>
</g>
<!-- dir_49ae27f63d77f20c327eee115e3448ae -->
<g id="node1" class="node"><title>dir_49ae27f63d77f20c327eee115e3448ae</title>
<text text-anchor="middle" x="207" y="-87.5" font-family="Helvetica,sans-Serif" font-size="10.00">starpu_kblas2</text>
</g>
<!-- dir_64936aff45c39bb8eb110f1e9da4f5fb -->
<g id="node2" class="node"><title>dir_64936aff45c39bb8eb110f1e9da4f5fb</title>
<g id="a_node2"><a xlink:href="dir_64936aff45c39bb8eb110f1e9da4f5fb.html" target="_top" xlink:title="blrm">
<polygon fill="white" stroke="black" points="150,-108 96,-108 96,-72 150,-72 150,-108"/>
<text text-anchor="middle" x="123" y="-87.5" font-family="Helvetica,sans-Serif" font-size="10.00">blrm</text>
</a>
</g>
</g>
<!-- dir_d44c64559bbebec7f509842c48db8b23 -->
<g id="node4" class="node"><title>dir_d44c64559bbebec7f509842c48db8b23</title>
<g id="a_node4"><a xlink:href="dir_d44c64559bbebec7f509842c48db8b23.html" target="_top" xlink:title="include">
<polygon fill="none" stroke="black" points="114,-36 60,-36 60,-0 114,-0 114,-36"/>
<text text-anchor="middle" x="87" y="-15.5" font-family="Helvetica,sans-Serif" font-size="10.00">include</text>
</a>
</g>
</g>
<!-- dir_64936aff45c39bb8eb110f1e9da4f5fb&#45;&gt;dir_d44c64559bbebec7f509842c48db8b23 -->
<g id="edge1" class="edge"><title>dir_64936aff45c39bb8eb110f1e9da4f5fb&#45;&gt;dir_d44c64559bbebec7f509842c48db8b23</title>
<path fill="none" stroke="black" d="M114.101,-71.6966C110.003,-63.7284 105.051,-54.0995 100.507,-45.2641"/>
<polygon fill="black" stroke="black" points="103.483,-43.3965 95.7965,-36.1043 97.2575,-46.598 103.483,-43.3965"/>
<g id="a_edge1&#45;headlabel"><a xlink:href="dir_000030_000006.html" target="_top" xlink:title="1">
<text text-anchor="middle" x="107.651" y="-42.7946" font-family="Helvetica,sans-Serif" font-size="10.00">1</text>
</a>
</g>
</g>
<!-- dir_9e4198cb78ec5de749303259c146a28c -->
<g id="node3" class="node"><title>dir_9e4198cb78ec5de749303259c146a28c</title>
<g id="a_node3"><a xlink:href="dir_9e4198cb78ec5de749303259c146a28c.html" target="_top" xlink:title="dense">
<polygon fill="white" stroke="black" points="78,-108 24,-108 24,-72 78,-72 78,-108"/>
<text text-anchor="middle" x="51" y="-87.5" font-family="Helvetica,sans-Serif" font-size="10.00">dense</text>
</a>
</g>
</g>
<!-- dir_9e4198cb78ec5de749303259c146a28c&#45;&gt;dir_d44c64559bbebec7f509842c48db8b23 -->
<g id="edge2" class="edge"><title>dir_9e4198cb78ec5de749303259c146a28c&#45;&gt;dir_d44c64559bbebec7f509842c48db8b23</title>
<path fill="none" stroke="black" d="M59.8989,-71.6966C63.9968,-63.7284 68.9488,-54.0995 73.4927,-45.2641"/>
<polygon fill="black" stroke="black" points="76.7425,-46.598 78.2035,-36.1043 70.5174,-43.3965 76.7425,-46.598"/>
<g id="a_edge2&#45;headlabel"><a xlink:href="dir_000029_000006.html" target="_top" xlink:title="2">
<text text-anchor="middle" x="77.6235" y="-48.5931" font-family="Helvetica,sans-Serif" font-size="10.00">2</text>
</a>
</g>
</g>
</g>
</svg>
