<?xml version="1.0" encoding="UTF-8" standalone="no"?>
<!DOCTYPE svg PUBLIC "-//W3C//DTD SVG 1.1//EN"
 "http://www.w3.org/Graphics/SVG/1.1/DTD/svg11.dtd">
<!-- Generated by graphviz version 2.38.0 (20140413.2041)
 -->
<!-- Title: src/backends/starpu_kblas2/dense Pages: 1 -->
<svg width="101pt" height="151pt"
 viewBox="0.00 0.00 101.00 151.00" xmlns="http://www.w3.org/2000/svg" xmlns:xlink="http://www.w3.org/1999/xlink">
<g id="graph0" class="graph" transform="scale(1 1) rotate(0) translate(4 147)">
<title>src/backends/starpu_kblas2/dense</title>
<polygon fill="white" stroke="none" points="-4,4 -4,-147 97,-147 97,4 -4,4"/>
<g id="clust1" class="cluster"><title>clusterdir_49ae27f63d77f20c327eee115e3448ae</title>
<g id="a_clust1"><a xlink:href="dir_49ae27f63d77f20c327eee115e3448ae.html" target="_top" xlink:title="starpu_kblas2">
<polygon fill="#ddddee" stroke="black" points="8,-64 8,-135 85,-135 85,-64 8,-64"/>
<text text-anchor="middle" x="46.5" y="-123" font-family="Helvetica,sans-Serif" font-size="10.00">starpu_kblas2</text>
</a>
</g>
</g>
<!-- dir_9e4198cb78ec5de749303259c146a28c -->
<g id="node1" class="node"><title>dir_9e4198cb78ec5de749303259c146a28c</title>
<g id="a_node1"><a xlink:href="dir_9e4198cb78ec5de749303259c146a28c.html" target="_top" xlink:title="dense">
<polygon fill="#eeeeff" stroke="black" points="73,-108 19,-108 19,-72 73,-72 73,-108"/>
<text text-anchor="middle" x="46" y="-87.5" font-family="Helvetica,sans-Serif" font-size="10.00">dense</text>
</a>
</g>
</g>
<!-- dir_d44c64559bbebec7f509842c48db8b23 -->
<g id="node2" class="node"><title>dir_d44c64559bbebec7f509842c48db8b23</title>
<g id="a_node2"><a xlink:href="dir_d44c64559bbebec7f509842c48db8b23.html" target="_top" xlink:title="include">
<polygon fill="none" stroke="black" points="73,-36 19,-36 19,-0 73,-0 73,-36"/>
<text text-anchor="middle" x="46" y="-15.5" font-family="Helvetica,sans-Serif" font-size="10.00">include</text>
</a>
</g>
</g>
<!-- dir_9e4198cb78ec5de749303259c146a28c&#45;&gt;dir_d44c64559bbebec7f509842c48db8b23 -->
<g id="edge1" class="edge"><title>dir_9e4198cb78ec5de749303259c146a28c&#45;&gt;dir_d44c64559bbebec7f509842c48db8b23</title>
<path fill="none" stroke="black" d="M46,-71.6966C46,-63.9827 46,-54.7125 46,-46.1124"/>
<polygon fill="black" stroke="black" points="49.5001,-46.1043 46,-36.1043 42.5001,-46.1044 49.5001,-46.1043"/>
<g id="a_edge1&#45;headlabel"><a xlink:href="dir_000029_000006.html" target="_top" xlink:title="2">
<text text-anchor="middle" x="52.3393" y="-47.199" font-family="Helvetica,sans-Serif" font-size="10.00">2</text>
</a>
</g>
</g>
</g>
</svg>
