<?xml version="1.0" encoding="UTF-8" standalone="no"?>
<!DOCTYPE svg PUBLIC "-//W3C//DTD SVG 1.1//EN"
 "http://www.w3.org/Graphics/SVG/1.1/DTD/svg11.dtd">
<!-- Generated by graphviz version 2.38.0 (20140413.2041)
 -->
<!-- Title: Spatial statistics problem Pages: 1 -->
<svg width="289pt" height="39pt"
 viewBox="0.00 0.00 289.00 39.00" xmlns="http://www.w3.org/2000/svg" xmlns:xlink="http://www.w3.org/1999/xlink">
<g id="graph0" class="graph" transform="scale(1 1) rotate(0) translate(4 35)">
<title>Spatial statistics problem</title>
<polygon fill="white" stroke="none" points="-4,4 -4,-35 285,-35 285,4 -4,4"/>
<!-- Node0 -->
<g id="node1" class="node"><title>Node0</title>
<polygon fill="#bfbfbf" stroke="black" points="106,-0.5 106,-30.5 195,-30.5 195,-0.5 106,-0.5"/>
<text text-anchor="start" x="114" y="-18.5" font-family="Helvetica,sans-Serif" font-size="10.00">Spatial statistics</text>
<text text-anchor="middle" x="150.5" y="-7.5" font-family="Helvetica,sans-Serif" font-size="10.00"> problem</text>
</g>
<!-- Node2 -->
<g id="node3" class="node"><title>Node2</title>
<g id="a_node3"><a xlink:href="group__app-spatial-kernels.html" target="_top" xlink:title="Set of kernels for spatial statistics problems. ">
<polygon fill="white" stroke="black" points="231,-6 231,-25 281,-25 281,-6 231,-6"/>
<text text-anchor="middle" x="256" y="-13" font-family="Helvetica,sans-Serif" font-size="10.00">Kernels</text>
</a>
</g>
</g>
<!-- Node0&#45;&gt;Node2 -->
<g id="edge2" class="edge"><title>Node0&#45;&gt;Node2</title>
<path fill="none" stroke="black" d="M205.236,-15.5C214.242,-15.5 223.167,-15.5 230.918,-15.5"/>
<polygon fill="black" stroke="black" points="205.093,-12.0001 195.093,-15.5 205.093,-19.0001 205.093,-12.0001"/>
</g>
<!-- Node1 -->
<g id="node2" class="node"><title>Node1</title>
<g id="a_node2"><a xlink:href="group__applications.html" target="_top" xlink:title="Set of applications. ">
<polygon fill="white" stroke="black" points="0,-6 0,-25 70,-25 70,-6 0,-6"/>
<text text-anchor="middle" x="35" y="-13" font-family="Helvetica,sans-Serif" font-size="10.00">Applications</text>
</a>
</g>
</g>
<!-- Node1&#45;&gt;Node0 -->
<g id="edge1" class="edge"><title>Node1&#45;&gt;Node0</title>
<path fill="none" stroke="black" d="M80.0955,-15.5C88.5318,-15.5 97.3611,-15.5 105.785,-15.5"/>
<polygon fill="black" stroke="black" points="80.0538,-12.0001 70.0537,-15.5 80.0537,-19.0001 80.0538,-12.0001"/>
</g>
</g>
</svg>
