<?xml version="1.0" encoding="UTF-8" standalone="no"?>
<!DOCTYPE svg PUBLIC "-//W3C//DTD SVG 1.1//EN"
 "http://www.w3.org/Graphics/SVG/1.1/DTD/svg11.dtd">
<!-- Generated by graphviz version 2.38.0 (20140413.2041)
 -->
<!-- Title: Electrodynamics problem Pages: 1 -->
<svg width="327pt" height="28pt"
 viewBox="0.00 0.00 327.00 28.00" xmlns="http://www.w3.org/2000/svg" xmlns:xlink="http://www.w3.org/1999/xlink">
<g id="graph0" class="graph" transform="scale(1 1) rotate(0) translate(4 24)">
<title>Electrodynamics problem</title>
<polygon fill="white" stroke="none" points="-4,4 -4,-24 323,-24 323,4 -4,4"/>
<!-- Node0 -->
<g id="node1" class="node"><title>Node0</title>
<polygon fill="#bfbfbf" stroke="black" points="106,-0.5 106,-19.5 233,-19.5 233,-0.5 106,-0.5"/>
<text text-anchor="middle" x="169.5" y="-7.5" font-family="Helvetica,sans-Serif" font-size="10.00">Electrodynamics problem</text>
</g>
<!-- Node2 -->
<g id="node2" class="node"><title>Node2</title>
<g id="a_node2"><a xlink:href="group__app-electrodynamics-kernels.html" target="_top" xlink:title="Set of kernels for electrodynamics problems. ">
<polygon fill="white" stroke="black" points="269,-0.5 269,-19.5 319,-19.5 319,-0.5 269,-0.5"/>
<text text-anchor="middle" x="294" y="-7.5" font-family="Helvetica,sans-Serif" font-size="10.00">Kernels</text>
</a>
</g>
</g>
<!-- Node0&#45;&gt;Node2 -->
<g id="edge2" class="edge"><title>Node0&#45;&gt;Node2</title>
<path fill="none" stroke="black" d="M243.259,-10C252.451,-10 261.284,-10 268.889,-10"/>
<polygon fill="black" stroke="black" points="243.185,-6.5001 233.185,-10 243.185,-13.5001 243.185,-6.5001"/>
</g>
<!-- Node1 -->
<g id="node3" class="node"><title>Node1</title>
<g id="a_node3"><a xlink:href="group__applications.html" target="_top" xlink:title="Set of applications. ">
<polygon fill="white" stroke="black" points="0,-0.5 0,-19.5 70,-19.5 70,-0.5 0,-0.5"/>
<text text-anchor="middle" x="35" y="-7.5" font-family="Helvetica,sans-Serif" font-size="10.00">Applications</text>
</a>
</g>
</g>
<!-- Node1&#45;&gt;Node0 -->
<g id="edge1" class="edge"><title>Node1&#45;&gt;Node0</title>
<path fill="none" stroke="black" d="M80.2522,-10C88.502,-10 97.2652,-10 105.944,-10"/>
<polygon fill="black" stroke="black" points="80.1221,-6.5001 70.122,-10 80.122,-13.5001 80.1221,-6.5001"/>
</g>
</g>
</svg>
