<?xml version="1.0" encoding="UTF-8" standalone="no"?>
<!DOCTYPE svg PUBLIC "-//W3C//DTD SVG 1.1//EN"
 "http://www.w3.org/Graphics/SVG/1.1/DTD/svg11.dtd">
<!-- Generated by graphviz version 2.38.0 (20140413.2041)
 -->
<!-- Title: H&#45;matrix Pages: 1 -->
<svg width="214pt" height="104pt"
 viewBox="0.00 0.00 214.00 104.00" xmlns="http://www.w3.org/2000/svg" xmlns:xlink="http://www.w3.org/1999/xlink">
<g id="graph0" class="graph" transform="scale(1 1) rotate(0) translate(4 100)">
<title>H&#45;matrix</title>
<polygon fill="white" stroke="none" points="-4,4 -4,-100 210,-100 210,4 -4,4"/>
<!-- Node2 -->
<g id="node1" class="node"><title>Node2</title>
<g id="a_node1"><a xlink:href="group__matmul.html" target="_top" xlink:title="H&#45;by&#45;dense matrix multiplication. ">
<polygon fill="white" stroke="black" points="124.5,-76.5 124.5,-95.5 171.5,-95.5 171.5,-76.5 124.5,-76.5"/>
<text text-anchor="middle" x="148" y="-83.5" font-family="Helvetica,sans-Serif" font-size="10.00">GEMM</text>
</a>
</g>
</g>
<!-- Node0 -->
<g id="node2" class="node"><title>Node0</title>
<polygon fill="#bfbfbf" stroke="black" points="0,-38.5 0,-57.5 54,-57.5 54,-38.5 0,-38.5"/>
<text text-anchor="middle" x="27" y="-45.5" font-family="Helvetica,sans-Serif" font-size="10.00">H&#45;matrix</text>
</g>
<!-- Node0&#45;&gt;Node2 -->
<g id="edge2" class="edge"><title>Node0&#45;&gt;Node2</title>
<path fill="none" stroke="black" d="M63.6516,-59.3845C83.2697,-65.6492 107.033,-73.2374 124.158,-78.7059"/>
<polygon fill="black" stroke="black" points="64.7059,-56.0471 54.1151,-56.3393 62.5765,-62.7154 64.7059,-56.0471"/>
</g>
<!-- Node3 -->
<g id="node3" class="node"><title>Node3</title>
<g id="a_node3"><a xlink:href="group__approximation__error.html" target="_top" xlink:title="Routines to measure error of approximation. ">
<polygon fill="white" stroke="black" points="91.5,-38.5 91.5,-57.5 204.5,-57.5 204.5,-38.5 91.5,-38.5"/>
<text text-anchor="middle" x="148" y="-45.5" font-family="Helvetica,sans-Serif" font-size="10.00">Error of approximation</text>
</a>
</g>
</g>
<!-- Node0&#45;&gt;Node3 -->
<g id="edge3" class="edge"><title>Node0&#45;&gt;Node3</title>
<path fill="none" stroke="black" d="M64.3895,-48C72.8644,-48 82.08,-48 91.1803,-48"/>
<polygon fill="black" stroke="black" points="64.1151,-44.5001 54.1151,-48 64.115,-51.5001 64.1151,-44.5001"/>
</g>
<!-- Node1 -->
<g id="node4" class="node"><title>Node1</title>
<g id="a_node4"><a xlink:href="group__approximations.html" target="_top" xlink:title="Approximation schemes for dense matrices. ">
<polygon fill="white" stroke="black" points="90,-0.5 90,-19.5 206,-19.5 206,-0.5 90,-0.5"/>
<text text-anchor="middle" x="148" y="-7.5" font-family="Helvetica,sans-Serif" font-size="10.00">Approximation routines</text>
</a>
</g>
</g>
<!-- Node0&#45;&gt;Node1 -->
<g id="edge1" class="edge"><title>Node0&#45;&gt;Node1</title>
<path fill="none" stroke="black" d="M63.7412,-36.5869C80.7924,-31.1419 100.958,-24.7024 117.173,-19.5246"/>
<polygon fill="black" stroke="black" points="62.5765,-33.2846 54.1151,-39.6607 64.7059,-39.9529 62.5765,-33.2846"/>
</g>
</g>
</svg>
