<?xml version="1.0" encoding="UTF-8" standalone="no"?>
<!DOCTYPE svg PUBLIC "-//W3C//DTD SVG 1.1//EN"
 "http://www.w3.org/Graphics/SVG/1.1/DTD/svg11.dtd">
<!-- Generated by graphviz version 2.38.0 (20140413.2041)
 -->
<!-- Title: Applications Pages: 1 -->
<svg width="241pt" height="268pt"
 viewBox="0.00 0.00 241.00 268.00" xmlns="http://www.w3.org/2000/svg" xmlns:xlink="http://www.w3.org/1999/xlink">
<g id="graph0" class="graph" transform="scale(1 1) rotate(0) translate(4 264)">
<title>Applications</title>
<polygon fill="white" stroke="none" points="-4,4 -4,-264 237,-264 237,4 -4,4"/>
<!-- Node3 -->
<g id="node1" class="node"><title>Node3</title>
<g id="a_node1"><a xlink:href="group__app-electrodynamics.html" target="_top" xlink:title="Template for electrodynamics problems. ">
<polygon fill="white" stroke="black" points="106,-240.5 106,-259.5 233,-259.5 233,-240.5 106,-240.5"/>
<text text-anchor="middle" x="169.5" y="-247.5" font-family="Helvetica,sans-Serif" font-size="10.00">Electrodynamics problem</text>
</a>
</g>
</g>
<!-- Node5 -->
<g id="node2" class="node"><title>Node5</title>
<g id="a_node2"><a xlink:href="group__app-mindata.html" target="_top" xlink:title="Minimal working example. ">
<polygon fill="white" stroke="black" points="106,-202.5 106,-221.5 233,-221.5 233,-202.5 106,-202.5"/>
<text text-anchor="middle" x="169.5" y="-209.5" font-family="Helvetica,sans-Serif" font-size="10.00">Minimal working example</text>
</a>
</g>
</g>
<!-- Node1 -->
<g id="node3" class="node"><title>Node1</title>
<g id="a_node3"><a xlink:href="group__app-spatial.html" target="_top" xlink:title="Template for spatial statistics problems. ">
<polygon fill="white" stroke="black" points="125,-153 125,-183 214,-183 214,-153 125,-153"/>
<text text-anchor="start" x="133" y="-171" font-family="Helvetica,sans-Serif" font-size="10.00">Spatial statistics</text>
<text text-anchor="middle" x="169.5" y="-160" font-family="Helvetica,sans-Serif" font-size="10.00"> problem</text>
</a>
</g>
</g>
<!-- Node2 -->
<g id="node4" class="node"><title>Node2</title>
<g id="a_node4"><a xlink:href="group__app-electrostatics.html" target="_top" xlink:title="Template for electrostatics problems. ">
<polygon fill="white" stroke="black" points="112.5,-114.5 112.5,-133.5 226.5,-133.5 226.5,-114.5 112.5,-114.5"/>
<text text-anchor="middle" x="169.5" y="-121.5" font-family="Helvetica,sans-Serif" font-size="10.00">Electrostatics problem</text>
</a>
</g>
</g>
<!-- Node0 -->
<g id="node5" class="node"><title>Node0</title>
<polygon fill="#bfbfbf" stroke="black" points="0,-114.5 0,-133.5 70,-133.5 70,-114.5 0,-114.5"/>
<text text-anchor="middle" x="35" y="-121.5" font-family="Helvetica,sans-Serif" font-size="10.00">Applications</text>
</g>
<!-- Node0&#45;&gt;Node3 -->
<g id="edge3" class="edge"><title>Node0&#45;&gt;Node3</title>
<path fill="none" stroke="black" d="M43.5502,-143.04C54.0226,-167.034 75.2108,-207.918 106,-231 111.172,-234.878 117.14,-237.97 123.292,-240.436"/>
<polygon fill="black" stroke="black" points="46.6946,-141.487 39.6087,-133.611 40.236,-144.187 46.6946,-141.487"/>
</g>
<!-- Node0&#45;&gt;Node5 -->
<g id="edge5" class="edge"><title>Node0&#45;&gt;Node5</title>
<path fill="none" stroke="black" d="M49.837,-141.867C62.7893,-157.45 83.4795,-179.602 106,-193 112.433,-196.827 119.703,-199.943 126.951,-202.462"/>
<polygon fill="black" stroke="black" points="52.4786,-139.567 43.4749,-133.983 47.031,-143.963 52.4786,-139.567"/>
</g>
<!-- Node0&#45;&gt;Node1 -->
<g id="edge1" class="edge"><title>Node0&#45;&gt;Node1</title>
<path fill="none" stroke="black" d="M74.6889,-136.848C90.44,-142.078 108.721,-148.149 124.938,-153.534"/>
<polygon fill="black" stroke="black" points="75.344,-133.377 64.7505,-133.547 73.1379,-140.021 75.344,-133.377"/>
</g>
<!-- Node0&#45;&gt;Node2 -->
<g id="edge2" class="edge"><title>Node0&#45;&gt;Node2</title>
<path fill="none" stroke="black" d="M80.1407,-124C90.4731,-124 101.616,-124 112.392,-124"/>
<polygon fill="black" stroke="black" points="80.1221,-120.5 70.122,-124 80.122,-127.5 80.1221,-120.5"/>
</g>
<!-- Node6 -->
<g id="node6" class="node"><title>Node6</title>
<g id="a_node6"><a xlink:href="group__app-particles.html" target="_top" xlink:title="Template for particle&#45;to&#45;particle interactions. ">
<polygon fill="white" stroke="black" points="145.5,-76.5 145.5,-95.5 193.5,-95.5 193.5,-76.5 145.5,-76.5"/>
<text text-anchor="middle" x="169.5" y="-83.5" font-family="Helvetica,sans-Serif" font-size="10.00">N&#45;body</text>
</a>
</g>
</g>
<!-- Node0&#45;&gt;Node6 -->
<g id="edge6" class="edge"><title>Node0&#45;&gt;Node6</title>
<path fill="none" stroke="black" d="M79.1962,-111.612C101.119,-105.324 126.889,-97.9336 145.098,-92.7116"/>
<polygon fill="black" stroke="black" points="78.0829,-108.29 69.4353,-114.411 80.0127,-115.019 78.0829,-108.29"/>
</g>
<!-- Node4 -->
<g id="node7" class="node"><title>Node4</title>
<g id="a_node7"><a xlink:href="group__app-randtlr.html" target="_top" xlink:title="Synthetic random TLR matrix routines. ">
<polygon fill="white" stroke="black" points="117,-38.5 117,-57.5 222,-57.5 222,-38.5 117,-38.5"/>
<text text-anchor="middle" x="169.5" y="-45.5" font-family="Helvetica,sans-Serif" font-size="10.00">Random TLR matrix</text>
</a>
</g>
</g>
<!-- Node0&#45;&gt;Node4 -->
<g id="edge4" class="edge"><title>Node0&#45;&gt;Node4</title>
<path fill="none" stroke="black" d="M53.0069,-106.931C66.3957,-94.3374 86.0667,-77.6132 106,-67 113.007,-63.269 120.856,-60.1579 128.561,-57.6065"/>
<polygon fill="black" stroke="black" points="50.2974,-104.682 45.5362,-114.147 55.1605,-109.717 50.2974,-104.682"/>
</g>
<!-- Node7 -->
<g id="node8" class="node"><title>Node7</title>
<g id="a_node8"><a xlink:href="group__app-cauchy.html" target="_top" xlink:title="Cauchy example. ">
<polygon fill="white" stroke="black" points="124.5,-0.5 124.5,-19.5 214.5,-19.5 214.5,-0.5 124.5,-0.5"/>
<text text-anchor="middle" x="169.5" y="-7.5" font-family="Helvetica,sans-Serif" font-size="10.00">Cauchy example</text>
</a>
</g>
</g>
<!-- Node0&#45;&gt;Node7 -->
<g id="edge7" class="edge"><title>Node0&#45;&gt;Node7</title>
<path fill="none" stroke="black" d="M45.0967,-105.215C56.4465,-83.7143 77.8404,-48.9104 106,-29 111.556,-25.0715 117.941,-21.9409 124.461,-19.4498"/>
<polygon fill="black" stroke="black" points="41.8815,-103.817 40.4731,-114.317 48.1225,-106.987 41.8815,-103.817"/>
</g>
</g>
</svg>
