<?xml version="1.0" encoding="UTF-8" standalone="no"?>
<!DOCTYPE svg PUBLIC "-//W3C//DTD SVG 1.1//EN"
 "http://www.w3.org/Graphics/SVG/1.1/DTD/svg11.dtd">
<!-- Generated by graphviz version 2.38.0 (20140413.2041)
 -->
<!-- Title: Applications Pages: 1 -->
<svg width="241pt" height="344pt"
 viewBox="0.00 0.00 241.00 344.00" xmlns="http://www.w3.org/2000/svg" xmlns:xlink="http://www.w3.org/1999/xlink">
<g id="graph0" class="graph" transform="scale(1 1) rotate(0) translate(4 340)">
<title>Applications</title>
<polygon fill="white" stroke="none" points="-4,4 -4,-340 237,-340 237,4 -4,4"/>
<!-- Node2 -->
<g id="node1" class="node"><title>Node2</title>
<g id="a_node1"><a xlink:href="group__mesh.html" target="_top" xlink:title="Template for mesh deformation problems. ">
<polygon fill="white" stroke="black" points="117,-316.5 117,-335.5 222,-335.5 222,-316.5 117,-316.5"/>
<text text-anchor="middle" x="169.5" y="-323.5" font-family="Helvetica,sans-Serif" font-size="10.00">deformation problem</text>
</a>
</g>
</g>
<!-- Node4 -->
<g id="node2" class="node"><title>Node4</title>
<g id="a_node2"><a xlink:href="group__app-electrodynamics.html" target="_top" xlink:title="Template for electrodynamics problems. ">
<polygon fill="white" stroke="black" points="106,-278.5 106,-297.5 233,-297.5 233,-278.5 106,-278.5"/>
<text text-anchor="middle" x="169.5" y="-285.5" font-family="Helvetica,sans-Serif" font-size="10.00">Electrodynamics problem</text>
</a>
</g>
</g>
<!-- Node6 -->
<g id="node3" class="node"><title>Node6</title>
<g id="a_node3"><a xlink:href="group__app-mindata.html" target="_top" xlink:title="Minimal working example. ">
<polygon fill="white" stroke="black" points="106,-240.5 106,-259.5 233,-259.5 233,-240.5 106,-240.5"/>
<text text-anchor="middle" x="169.5" y="-247.5" font-family="Helvetica,sans-Serif" font-size="10.00">Minimal working example</text>
</a>
</g>
</g>
<!-- Node9 -->
<g id="node4" class="node"><title>Node9</title>
<g id="a_node4"><a xlink:href="group__acoustics.html" target="_top" xlink:title="Template for acoustics scattering problems. ">
<polygon fill="white" stroke="black" points="121,-202.5 121,-221.5 218,-221.5 218,-202.5 121,-202.5"/>
<text text-anchor="middle" x="169.5" y="-209.5" font-family="Helvetica,sans-Serif" font-size="10.00">scattering problem</text>
</a>
</g>
</g>
<!-- Node1 -->
<g id="node5" class="node"><title>Node1</title>
<g id="a_node5"><a xlink:href="group__app-spatial.html" target="_top" xlink:title="Template for spatial statistics problems. ">
<polygon fill="white" stroke="black" points="125,-153 125,-183 214,-183 214,-153 125,-153"/>
<text text-anchor="start" x="133" y="-171" font-family="Helvetica,sans-Serif" font-size="10.00">Spatial statistics</text>
<text text-anchor="middle" x="169.5" y="-160" font-family="Helvetica,sans-Serif" font-size="10.00"> problem</text>
</a>
</g>
</g>
<!-- Node3 -->
<g id="node6" class="node"><title>Node3</title>
<g id="a_node6"><a xlink:href="group__app-electrostatics.html" target="_top" xlink:title="Template for electrostatics problems. ">
<polygon fill="white" stroke="black" points="112.5,-114.5 112.5,-133.5 226.5,-133.5 226.5,-114.5 112.5,-114.5"/>
<text text-anchor="middle" x="169.5" y="-121.5" font-family="Helvetica,sans-Serif" font-size="10.00">Electrostatics problem</text>
</a>
</g>
</g>
<!-- Node0 -->
<g id="node7" class="node"><title>Node0</title>
<polygon fill="#bfbfbf" stroke="black" points="0,-158.5 0,-177.5 70,-177.5 70,-158.5 0,-158.5"/>
<text text-anchor="middle" x="35" y="-165.5" font-family="Helvetica,sans-Serif" font-size="10.00">Applications</text>
</g>
<!-- Node0&#45;&gt;Node2 -->
<g id="edge2" class="edge"><title>Node0&#45;&gt;Node2</title>
<path fill="none" stroke="black" d="M40.5404,-187.463C48.5566,-217.517 68.0757,-275.076 106,-307 110.598,-310.871 115.972,-313.953 121.602,-316.408"/>
<polygon fill="black" stroke="black" points="43.927,-186.579 38.0947,-177.734 37.1382,-188.286 43.927,-186.579"/>
</g>
<!-- Node0&#45;&gt;Node4 -->
<g id="edge4" class="edge"><title>Node0&#45;&gt;Node4</title>
<path fill="none" stroke="black" d="M44.3082,-186.968C55.2317,-209.737 76.5485,-247.53 106,-269 111.315,-272.875 117.43,-275.969 123.71,-278.438"/>
<polygon fill="black" stroke="black" points="47.3911,-185.295 40.0287,-177.676 41.0331,-188.223 47.3911,-185.295"/>
</g>
<!-- Node0&#45;&gt;Node6 -->
<g id="edge6" class="edge"><title>Node0&#45;&gt;Node6</title>
<path fill="none" stroke="black" d="M50.9574,-185.125C64.1545,-199.263 84.577,-218.905 106,-231 112.716,-234.791 120.273,-237.909 127.752,-240.444"/>
<polygon fill="black" stroke="black" points="53.3815,-182.588 44.0692,-177.535 48.1979,-187.292 53.3815,-182.588"/>
</g>
<!-- Node0&#45;&gt;Node9 -->
<g id="edge9" class="edge"><title>Node0&#45;&gt;Node9</title>
<path fill="none" stroke="black" d="M71.5419,-181.065C82.5492,-185.011 94.7423,-189.281 106,-193 115.692,-196.202 126.294,-199.501 135.968,-202.433"/>
<polygon fill="black" stroke="black" points="72.4218,-177.662 61.8275,-177.558 70.0444,-184.246 72.4218,-177.662"/>
</g>
<!-- Node0&#45;&gt;Node1 -->
<g id="edge1" class="edge"><title>Node0&#45;&gt;Node1</title>
<path fill="none" stroke="black" d="M80.283,-168C94.6785,-168 110.634,-168 124.974,-168"/>
<polygon fill="black" stroke="black" points="80.1221,-164.5 70.122,-168 80.122,-171.5 80.1221,-164.5"/>
</g>
<!-- Node0&#45;&gt;Node3 -->
<g id="edge3" class="edge"><title>Node0&#45;&gt;Node3</title>
<path fill="none" stroke="black" d="M73.3161,-155.047C83.8682,-151.427 95.3722,-147.522 106,-144 116.49,-140.524 128.004,-136.81 138.259,-133.539"/>
<polygon fill="black" stroke="black" points="71.8671,-151.844 63.5505,-158.408 74.1452,-158.463 71.8671,-151.844"/>
</g>
<!-- Node7 -->
<g id="node8" class="node"><title>Node7</title>
<g id="a_node8"><a xlink:href="group__app-particles.html" target="_top" xlink:title="Template for particle&#45;to&#45;particle interactions. ">
<polygon fill="white" stroke="black" points="145.5,-76.5 145.5,-95.5 193.5,-95.5 193.5,-76.5 145.5,-76.5"/>
<text text-anchor="middle" x="169.5" y="-83.5" font-family="Helvetica,sans-Serif" font-size="10.00">N&#45;body</text>
</a>
</g>
</g>
<!-- Node0&#45;&gt;Node7 -->
<g id="edge7" class="edge"><title>Node0&#45;&gt;Node7</title>
<path fill="none" stroke="black" d="M50.9574,-150.875C64.1545,-136.737 84.577,-117.095 106,-105 118.147,-98.1419 133.05,-93.4879 145.256,-90.5031"/>
<polygon fill="black" stroke="black" points="48.1979,-148.708 44.0692,-158.465 53.3815,-153.412 48.1979,-148.708"/>
</g>
<!-- Node5 -->
<g id="node9" class="node"><title>Node5</title>
<g id="a_node9"><a xlink:href="group__app-randtlr.html" target="_top" xlink:title="Synthetic random TLR matrix routines. ">
<polygon fill="white" stroke="black" points="117,-38.5 117,-57.5 222,-57.5 222,-38.5 117,-38.5"/>
<text text-anchor="middle" x="169.5" y="-45.5" font-family="Helvetica,sans-Serif" font-size="10.00">Random TLR matrix</text>
</a>
</g>
</g>
<!-- Node0&#45;&gt;Node5 -->
<g id="edge5" class="edge"><title>Node0&#45;&gt;Node5</title>
<path fill="none" stroke="black" d="M44.3082,-149.032C55.2317,-126.263 76.5485,-88.4704 106,-67 111.315,-63.1251 117.43,-60.0307 123.71,-57.5621"/>
<polygon fill="black" stroke="black" points="41.0331,-147.777 40.0287,-158.324 47.3911,-150.705 41.0331,-147.777"/>
</g>
<!-- Node8 -->
<g id="node10" class="node"><title>Node8</title>
<g id="a_node10"><a xlink:href="group__app-cauchy.html" target="_top" xlink:title="Cauchy example. ">
<polygon fill="white" stroke="black" points="124.5,-0.5 124.5,-19.5 214.5,-19.5 214.5,-0.5 124.5,-0.5"/>
<text text-anchor="middle" x="169.5" y="-7.5" font-family="Helvetica,sans-Serif" font-size="10.00">Cauchy example</text>
</a>
</g>
</g>
<!-- Node0&#45;&gt;Node8 -->
<g id="edge8" class="edge"><title>Node0&#45;&gt;Node8</title>
<path fill="none" stroke="black" d="M40.5404,-148.537C48.5566,-118.483 68.0757,-60.9237 106,-29 111.379,-24.4719 117.819,-21.0226 124.49,-18.3952"/>
<polygon fill="black" stroke="black" points="37.1382,-147.714 38.0947,-158.266 43.927,-149.421 37.1382,-147.714"/>
</g>
</g>
</svg>
