<?xml version="1.0" encoding="UTF-8" standalone="no"?>
<!DOCTYPE svg PUBLIC "-//W3C//DTD SVG 1.1//EN"
 "http://www.w3.org/Graphics/SVG/1.1/DTD/svg11.dtd">
<!-- Generated by graphviz version 2.38.0 (20140413.2041)
 -->
<!-- Title: build/src/applications/spatial/kernel_sqrexp_1d.c Pages: 1 -->
<svg width="572pt" height="263pt"
 viewBox="0.00 0.00 571.50 263.00" xmlns="http://www.w3.org/2000/svg" xmlns:xlink="http://www.w3.org/1999/xlink">
<g id="graph0" class="graph" transform="scale(1 1) rotate(0) translate(4 259)">
<title>build/src/applications/spatial/kernel_sqrexp_1d.c</title>
<polygon fill="white" stroke="none" points="-4,4 -4,-259 567.5,-259 567.5,4 -4,4"/>
<!-- Node0 -->
<g id="node1" class="node"><title>Node0</title>
<polygon fill="#bfbfbf" stroke="black" points="150,-224.5 150,-254.5 286,-254.5 286,-224.5 150,-224.5"/>
<text text-anchor="start" x="158" y="-242.5" font-family="Helvetica,sans-Serif" font-size="10.00">build/src/applications</text>
<text text-anchor="middle" x="218" y="-231.5" font-family="Helvetica,sans-Serif" font-size="10.00">/spatial/kernel_sqrexp_1d.c</text>
</g>
<!-- Node1 -->
<g id="node2" class="node"><title>Node1</title>
<polygon fill="white" stroke="#bfbfbf" points="128,-168.5 128,-187.5 190,-187.5 190,-168.5 128,-168.5"/>
<text text-anchor="middle" x="159" y="-175.5" font-family="Helvetica,sans-Serif" font-size="10.00">common.h</text>
</g>
<!-- Node0&#45;&gt;Node1 -->
<g id="edge1" class="edge"><title>Node0&#45;&gt;Node1</title>
<path fill="none" stroke="midnightblue" d="M204.018,-224.399C195.268,-215.575 183.971,-204.183 174.883,-195.018"/>
<polygon fill="midnightblue" stroke="midnightblue" points="177.112,-192.294 167.585,-187.658 172.141,-197.223 177.112,-192.294"/>
</g>
<!-- Node2 -->
<g id="node3" class="node"><title>Node2</title>
<g id="a_node3"><a xlink:href="starsh_8h.html" target="_top" xlink:title="starsh.h">
<polygon fill="white" stroke="black" points="230,-56.5 230,-75.5 282,-75.5 282,-56.5 230,-56.5"/>
<text text-anchor="middle" x="256" y="-63.5" font-family="Helvetica,sans-Serif" font-size="10.00">starsh.h</text>
</a>
</g>
</g>
<!-- Node0&#45;&gt;Node2 -->
<g id="edge2" class="edge"><title>Node0&#45;&gt;Node2</title>
<path fill="none" stroke="midnightblue" d="M221.11,-224.465C227.926,-193.704 244.184,-120.329 251.856,-85.7003"/>
<polygon fill="midnightblue" stroke="midnightblue" points="255.357,-86.0801 254.103,-75.5597 248.523,-84.5658 255.357,-86.0801"/>
</g>
<!-- Node9 -->
<g id="node10" class="node"><title>Node9</title>
<g id="a_node10"><a xlink:href="starsh-spatial_8h.html" target="_top" xlink:title="starsh&#45;spatial.h">
<polygon fill="white" stroke="black" points="267.5,-168.5 267.5,-187.5 350.5,-187.5 350.5,-168.5 267.5,-168.5"/>
<text text-anchor="middle" x="309" y="-175.5" font-family="Helvetica,sans-Serif" font-size="10.00">starsh&#45;spatial.h</text>
</a>
</g>
</g>
<!-- Node0&#45;&gt;Node9 -->
<g id="edge9" class="edge"><title>Node0&#45;&gt;Node9</title>
<path fill="none" stroke="midnightblue" d="M239.566,-224.399C253.88,-215.04 272.612,-202.792 287.011,-193.377"/>
<polygon fill="midnightblue" stroke="midnightblue" points="289.304,-196.06 295.759,-187.658 285.474,-190.201 289.304,-196.06"/>
</g>
<!-- Node3 -->
<g id="node4" class="node"><title>Node3</title>
<polygon fill="white" stroke="#bfbfbf" points="0,-0.5 0,-19.5 68,-19.5 68,-0.5 0,-0.5"/>
<text text-anchor="middle" x="34" y="-7.5" font-family="Helvetica,sans-Serif" font-size="10.00">sys/types.h</text>
</g>
<!-- Node2&#45;&gt;Node3 -->
<g id="edge3" class="edge"><title>Node2&#45;&gt;Node3</title>
<path fill="none" stroke="midnightblue" d="M229.662,-58.5934C192.289,-49.5028 123.392,-32.7441 78.1348,-21.7355"/>
<polygon fill="midnightblue" stroke="midnightblue" points="78.8397,-18.305 68.2958,-19.3422 77.1852,-25.1067 78.8397,-18.305"/>
</g>
<!-- Node4 -->
<g id="node5" class="node"><title>Node4</title>
<polygon fill="white" stroke="#bfbfbf" points="86,-0.5 86,-19.5 138,-19.5 138,-0.5 86,-0.5"/>
<text text-anchor="middle" x="112" y="-7.5" font-family="Helvetica,sans-Serif" font-size="10.00">stdarg.h</text>
</g>
<!-- Node2&#45;&gt;Node4 -->
<g id="edge4" class="edge"><title>Node2&#45;&gt;Node4</title>
<path fill="none" stroke="midnightblue" d="M233.183,-56.4435C209.168,-47.4381 171.171,-33.1891 144.131,-23.049"/>
<polygon fill="midnightblue" stroke="midnightblue" points="145.303,-19.7506 134.71,-19.5164 142.845,-26.3049 145.303,-19.7506"/>
</g>
<!-- Node5 -->
<g id="node6" class="node"><title>Node5</title>
<g id="a_node6"><a xlink:href="starsh-constants_8h.html" target="_top" xlink:title="starsh&#45;constants.h">
<polygon fill="white" stroke="black" points="156,-0.5 156,-19.5 254,-19.5 254,-0.5 156,-0.5"/>
<text text-anchor="middle" x="205" y="-7.5" font-family="Helvetica,sans-Serif" font-size="10.00">starsh&#45;constants.h</text>
</a>
</g>
</g>
<!-- Node2&#45;&gt;Node5 -->
<g id="edge5" class="edge"><title>Node2&#45;&gt;Node5</title>
<path fill="none" stroke="midnightblue" d="M247.578,-56.083C240.152,-48.2195 229.148,-36.5688 220.188,-27.0813"/>
<polygon fill="midnightblue" stroke="midnightblue" points="222.676,-24.618 213.265,-19.7511 217.587,-29.4244 222.676,-24.618"/>
</g>
<!-- Node6 -->
<g id="node7" class="node"><title>Node6</title>
<g id="a_node7"><a xlink:href="starsh-mpi_8h.html" target="_top" xlink:title="starsh&#45;mpi.h">
<polygon fill="white" stroke="black" points="272.5,-0.5 272.5,-19.5 343.5,-19.5 343.5,-0.5 272.5,-0.5"/>
<text text-anchor="middle" x="308" y="-7.5" font-family="Helvetica,sans-Serif" font-size="10.00">starsh&#45;mpi.h</text>
</a>
</g>
</g>
<!-- Node2&#45;&gt;Node6 -->
<g id="edge6" class="edge"><title>Node2&#45;&gt;Node6</title>
<path fill="none" stroke="midnightblue" d="M264.587,-56.083C272.159,-48.2195 283.378,-36.5688 292.514,-27.0813"/>
<polygon fill="midnightblue" stroke="midnightblue" points="295.158,-29.3821 299.573,-19.7511 290.115,-24.5266 295.158,-29.3821"/>
</g>
<!-- Node7 -->
<g id="node8" class="node"><title>Node7</title>
<g id="a_node8"><a xlink:href="starsh-starpu_8h.html" target="_top" xlink:title="starsh&#45;starpu.h">
<polygon fill="white" stroke="black" points="362,-0.5 362,-19.5 444,-19.5 444,-0.5 362,-0.5"/>
<text text-anchor="middle" x="403" y="-7.5" font-family="Helvetica,sans-Serif" font-size="10.00">starsh&#45;starpu.h</text>
</a>
</g>
</g>
<!-- Node2&#45;&gt;Node7 -->
<g id="edge7" class="edge"><title>Node2&#45;&gt;Node7</title>
<path fill="none" stroke="midnightblue" d="M279.293,-56.4435C303.807,-47.4381 342.596,-33.1891 370.2,-23.049"/>
<polygon fill="midnightblue" stroke="midnightblue" points="371.637,-26.25 379.816,-19.5164 369.223,-19.6793 371.637,-26.25"/>
</g>
<!-- Node8 -->
<g id="node9" class="node"><title>Node8</title>
<g id="a_node9"><a xlink:href="starsh-mpi-starpu_8h.html" target="_top" xlink:title="starsh&#45;mpi&#45;starpu.h">
<polygon fill="white" stroke="black" points="462.5,-0.5 462.5,-19.5 563.5,-19.5 563.5,-0.5 462.5,-0.5"/>
<text text-anchor="middle" x="513" y="-7.5" font-family="Helvetica,sans-Serif" font-size="10.00">starsh&#45;mpi&#45;starpu.h</text>
</a>
</g>
</g>
<!-- Node2&#45;&gt;Node8 -->
<g id="edge8" class="edge"><title>Node2&#45;&gt;Node8</title>
<path fill="none" stroke="midnightblue" d="M282.142,-58.7001C286.11,-57.7752 290.16,-56.8489 294,-56 350.258,-43.561 414.904,-30.4177 459.298,-21.5691"/>
<polygon fill="midnightblue" stroke="midnightblue" points="460.164,-24.9653 469.289,-19.5818 458.799,-18.0998 460.164,-24.9653"/>
</g>
<!-- Node9&#45;&gt;Node2 -->
<g id="edge10" class="edge"><title>Node9&#45;&gt;Node2</title>
<path fill="none" stroke="midnightblue" d="M300.921,-168.343C293.27,-159.725 281.947,-145.823 275,-132 267.576,-117.228 262.575,-99.071 259.575,-85.7057"/>
<polygon fill="midnightblue" stroke="midnightblue" points="262.975,-84.8657 257.517,-75.7853 256.121,-86.2878 262.975,-84.8657"/>
</g>
<!-- Node10 -->
<g id="node11" class="node"><title>Node10</title>
<g id="a_node11"><a xlink:href="starsh-particles_8h.html" target="_top" xlink:title="starsh&#45;particles.h">
<polygon fill="white" stroke="black" points="284,-112.5 284,-131.5 376,-131.5 376,-112.5 284,-112.5"/>
<text text-anchor="middle" x="330" y="-119.5" font-family="Helvetica,sans-Serif" font-size="10.00">starsh&#45;particles.h</text>
</a>
</g>
</g>
<!-- Node9&#45;&gt;Node10 -->
<g id="edge11" class="edge"><title>Node9&#45;&gt;Node10</title>
<path fill="none" stroke="midnightblue" d="M312.468,-168.083C315.312,-160.77 319.429,-150.181 322.96,-141.103"/>
<polygon fill="midnightblue" stroke="midnightblue" points="326.234,-142.34 326.597,-131.751 319.71,-139.803 326.234,-142.34"/>
</g>
<!-- Node13 -->
<g id="node14" class="node"><title>Node13</title>
<g id="a_node14"><a xlink:href="starsh-spatial-gsl_8h.html" target="_top" xlink:title="starsh&#45;spatial&#45;gsl.h">
<polygon fill="white" stroke="black" points="394.5,-112.5 394.5,-131.5 493.5,-131.5 493.5,-112.5 394.5,-112.5"/>
<text text-anchor="middle" x="444" y="-119.5" font-family="Helvetica,sans-Serif" font-size="10.00">starsh&#45;spatial&#45;gsl.h</text>
</a>
</g>
</g>
<!-- Node9&#45;&gt;Node13 -->
<g id="edge15" class="edge"><title>Node9&#45;&gt;Node13</title>
<path fill="none" stroke="midnightblue" d="M330.391,-168.444C352.707,-159.517 387.903,-145.439 413.208,-135.317"/>
<polygon fill="midnightblue" stroke="midnightblue" points="414.724,-138.48 422.709,-131.516 412.124,-131.981 414.724,-138.48"/>
</g>
<!-- Node10&#45;&gt;Node2 -->
<g id="edge12" class="edge"><title>Node10&#45;&gt;Node2</title>
<path fill="none" stroke="midnightblue" d="M318.111,-112.324C306.85,-104.107 289.713,-91.6017 276.291,-81.8069"/>
<polygon fill="midnightblue" stroke="midnightblue" points="278.247,-78.9014 268.106,-75.8339 274.12,-84.5559 278.247,-78.9014"/>
</g>
<!-- Node11 -->
<g id="node12" class="node"><title>Node11</title>
<polygon fill="white" stroke="#bfbfbf" points="303,-56.5 303,-75.5 349,-75.5 349,-56.5 303,-56.5"/>
<text text-anchor="middle" x="326" y="-63.5" font-family="Helvetica,sans-Serif" font-size="10.00">stdio.h</text>
</g>
<!-- Node10&#45;&gt;Node11 -->
<g id="edge13" class="edge"><title>Node10&#45;&gt;Node11</title>
<path fill="none" stroke="midnightblue" d="M329.339,-112.083C328.815,-105.006 328.064,-94.8611 327.406,-85.9865"/>
<polygon fill="midnightblue" stroke="midnightblue" points="330.877,-85.4652 326.648,-75.7511 323.897,-85.9823 330.877,-85.4652"/>
</g>
<!-- Node12 -->
<g id="node13" class="node"><title>Node12</title>
<polygon fill="white" stroke="#bfbfbf" points="367.5,-56.5 367.5,-75.5 416.5,-75.5 416.5,-56.5 367.5,-56.5"/>
<text text-anchor="middle" x="392" y="-63.5" font-family="Helvetica,sans-Serif" font-size="10.00">stdint.h</text>
</g>
<!-- Node10&#45;&gt;Node12 -->
<g id="edge14" class="edge"><title>Node10&#45;&gt;Node12</title>
<path fill="none" stroke="midnightblue" d="M339.961,-112.324C349.127,-104.341 362.937,-92.3128 374.028,-82.6529"/>
<polygon fill="midnightblue" stroke="midnightblue" points="376.615,-85.041 381.857,-75.8339 372.018,-79.7624 376.615,-85.041"/>
</g>
</g>
</svg>
