<?xml version="1.0" encoding="UTF-8" standalone="no"?>
<!DOCTYPE svg PUBLIC "-//W3C//DTD SVG 1.1//EN"
 "http://www.w3.org/Graphics/SVG/1.1/DTD/svg11.dtd">
<!-- Generated by graphviz version 2.38.0 (20140413.2041)
 -->
<!-- Title: src/backends/mpi_starpu_kblas/blrm/drsdd.c Pages: 1 -->
<svg width="1038pt" height="151pt"
 viewBox="0.00 0.00 1037.50 151.00" xmlns="http://www.w3.org/2000/svg" xmlns:xlink="http://www.w3.org/1999/xlink">
<g id="graph0" class="graph" transform="scale(1 1) rotate(0) translate(4 147)">
<title>src/backends/mpi_starpu_kblas/blrm/drsdd.c</title>
<polygon fill="white" stroke="none" points="-4,4 -4,-147 1033.5,-147 1033.5,4 -4,4"/>
<!-- Node0 -->
<g id="node1" class="node"><title>Node0</title>
<polygon fill="#bfbfbf" stroke="black" points="597,-112.5 597,-142.5 723,-142.5 723,-112.5 597,-112.5"/>
<text text-anchor="start" x="605" y="-130.5" font-family="Helvetica,sans-Serif" font-size="10.00">src/backends/mpi_starpu</text>
<text text-anchor="middle" x="660" y="-119.5" font-family="Helvetica,sans-Serif" font-size="10.00">_kblas/blrm/drsdd.c</text>
</g>
<!-- Node1 -->
<g id="node2" class="node"><title>Node1</title>
<polygon fill="white" stroke="#bfbfbf" points="150,-56.5 150,-75.5 212,-75.5 212,-56.5 150,-56.5"/>
<text text-anchor="middle" x="181" y="-63.5" font-family="Helvetica,sans-Serif" font-size="10.00">common.h</text>
</g>
<!-- Node0&#45;&gt;Node1 -->
<g id="edge1" class="edge"><title>Node0&#45;&gt;Node1</title>
<path fill="none" stroke="midnightblue" d="M596.818,-121.367C513.257,-114.104 361.27,-99.2523 222.358,-76.0762"/>
<polygon fill="midnightblue" stroke="midnightblue" points="222.823,-72.6053 212.38,-74.3932 221.659,-79.5078 222.823,-72.6053"/>
</g>
<!-- Node2 -->
<g id="node3" class="node"><title>Node2</title>
<g id="a_node3"><a xlink:href="starsh_8h.html" target="_top" xlink:title="starsh.h">
<polygon fill="white" stroke="black" points="230,-56.5 230,-75.5 282,-75.5 282,-56.5 230,-56.5"/>
<text text-anchor="middle" x="256" y="-63.5" font-family="Helvetica,sans-Serif" font-size="10.00">starsh.h</text>
</a>
</g>
</g>
<!-- Node0&#45;&gt;Node2 -->
<g id="edge2" class="edge"><title>Node0&#45;&gt;Node2</title>
<path fill="none" stroke="midnightblue" d="M596.956,-120.119C525.287,-112.361 404.666,-97.7817 292.118,-76.0305"/>
<polygon fill="midnightblue" stroke="midnightblue" points="292.785,-72.5947 282.299,-74.1103 291.441,-79.4645 292.785,-72.5947"/>
</g>
<!-- Node9 -->
<g id="node10" class="node"><title>Node9</title>
<polygon fill="white" stroke="#bfbfbf" points="300,-56.5 300,-75.5 408,-75.5 408,-56.5 300,-56.5"/>
<text text-anchor="middle" x="354" y="-63.5" font-family="Helvetica,sans-Serif" font-size="10.00">starsh&#45;starpu&#45;kblas.h</text>
</g>
<!-- Node0&#45;&gt;Node9 -->
<g id="edge9" class="edge"><title>Node0&#45;&gt;Node9</title>
<path fill="none" stroke="midnightblue" d="M596.968,-114.244C541.249,-103.409 460.84,-87.7744 408.015,-77.5028"/>
<polygon fill="midnightblue" stroke="midnightblue" points="408.643,-74.0595 398.159,-75.5864 407.307,-80.9308 408.643,-74.0595"/>
</g>
<!-- Node10 -->
<g id="node11" class="node"><title>Node10</title>
<polygon fill="white" stroke="#bfbfbf" points="426.5,-56.5 426.5,-75.5 553.5,-75.5 553.5,-56.5 426.5,-56.5"/>
<text text-anchor="middle" x="490" y="-63.5" font-family="Helvetica,sans-Serif" font-size="10.00">starsh&#45;mpi&#45;starpu&#45;kblas.h</text>
</g>
<!-- Node0&#45;&gt;Node10 -->
<g id="edge10" class="edge"><title>Node0&#45;&gt;Node10</title>
<path fill="none" stroke="midnightblue" d="M619.712,-112.399C590.68,-102.238 551.919,-88.6716 524.349,-79.0221"/>
<polygon fill="midnightblue" stroke="midnightblue" points="525.331,-75.6578 514.737,-75.6578 523.019,-82.2649 525.331,-75.6578"/>
</g>
<!-- Node11 -->
<g id="node12" class="node"><title>Node11</title>
<polygon fill="white" stroke="#bfbfbf" points="571.5,-56.5 571.5,-75.5 654.5,-75.5 654.5,-56.5 571.5,-56.5"/>
<text text-anchor="middle" x="613" y="-63.5" font-family="Helvetica,sans-Serif" font-size="10.00">cuda_runtime.h</text>
</g>
<!-- Node0&#45;&gt;Node11 -->
<g id="edge11" class="edge"><title>Node0&#45;&gt;Node11</title>
<path fill="none" stroke="midnightblue" d="M648.862,-112.399C642.032,-103.753 633.255,-92.642 626.094,-83.576"/>
<polygon fill="midnightblue" stroke="midnightblue" points="628.784,-81.3354 619.839,-75.6578 623.291,-85.6745 628.784,-81.3354"/>
</g>
<!-- Node12 -->
<g id="node13" class="node"><title>Node12</title>
<polygon fill="white" stroke="#bfbfbf" points="672.5,-56.5 672.5,-75.5 741.5,-75.5 741.5,-56.5 672.5,-56.5"/>
<text text-anchor="middle" x="707" y="-63.5" font-family="Helvetica,sans-Serif" font-size="10.00">cublas_v2.h</text>
</g>
<!-- Node0&#45;&gt;Node12 -->
<g id="edge12" class="edge"><title>Node0&#45;&gt;Node12</title>
<path fill="none" stroke="midnightblue" d="M671.138,-112.399C677.968,-103.753 686.745,-92.642 693.906,-83.576"/>
<polygon fill="midnightblue" stroke="midnightblue" points="696.709,-85.6745 700.161,-75.6578 691.216,-81.3354 696.709,-85.6745"/>
</g>
<!-- Node13 -->
<g id="node14" class="node"><title>Node13</title>
<polygon fill="white" stroke="#bfbfbf" points="760,-56.5 760,-75.5 808,-75.5 808,-56.5 760,-56.5"/>
<text text-anchor="middle" x="784" y="-63.5" font-family="Helvetica,sans-Serif" font-size="10.00">kblas.h</text>
</g>
<!-- Node0&#45;&gt;Node13 -->
<g id="edge13" class="edge"><title>Node0&#45;&gt;Node13</title>
<path fill="none" stroke="midnightblue" d="M689.386,-112.399C709.82,-102.595 736.86,-89.6194 756.799,-80.052"/>
<polygon fill="midnightblue" stroke="midnightblue" points="758.455,-83.1395 765.957,-75.6578 755.427,-76.8284 758.455,-83.1395"/>
</g>
<!-- Node14 -->
<g id="node15" class="node"><title>Node14</title>
<polygon fill="white" stroke="#bfbfbf" points="826.5,-56.5 826.5,-75.5 899.5,-75.5 899.5,-56.5 826.5,-56.5"/>
<text text-anchor="middle" x="863" y="-63.5" font-family="Helvetica,sans-Serif" font-size="10.00">batch_rand.h</text>
</g>
<!-- Node0&#45;&gt;Node14 -->
<g id="edge14" class="edge"><title>Node0&#45;&gt;Node14</title>
<path fill="none" stroke="midnightblue" d="M707.851,-112.475C743.332,-102.075 791.086,-88.0783 824.201,-78.3722"/>
<polygon fill="midnightblue" stroke="midnightblue" points="825.366,-81.6778 833.978,-75.5064 823.398,-74.9604 825.366,-81.6778"/>
</g>
<!-- Node15 -->
<g id="node16" class="node"><title>Node15</title>
<polygon fill="white" stroke="#bfbfbf" points="918,-56.5 918,-75.5 970,-75.5 970,-56.5 918,-56.5"/>
<text text-anchor="middle" x="944" y="-63.5" font-family="Helvetica,sans-Serif" font-size="10.00">starpu.h</text>
</g>
<!-- Node0&#45;&gt;Node15 -->
<g id="edge15" class="edge"><title>Node0&#45;&gt;Node15</title>
<path fill="none" stroke="midnightblue" d="M723.13,-114.63C771.215,-105.375 839.279,-91.8174 907.585,-76.2404"/>
<polygon fill="midnightblue" stroke="midnightblue" points="908.699,-79.5759 917.662,-73.9277 907.133,-72.7532 908.699,-79.5759"/>
</g>
<!-- Node16 -->
<g id="node17" class="node"><title>Node16</title>
<polygon fill="white" stroke="#bfbfbf" points="988.5,-56.5 988.5,-75.5 1029.5,-75.5 1029.5,-56.5 988.5,-56.5"/>
<text text-anchor="middle" x="1009" y="-63.5" font-family="Helvetica,sans-Serif" font-size="10.00">mpi.h</text>
</g>
<!-- Node0&#45;&gt;Node16 -->
<g id="edge16" class="edge"><title>Node0&#45;&gt;Node16</title>
<path fill="none" stroke="midnightblue" d="M723.125,-119.053C785.614,-111.107 884.105,-97.0451 978.442,-75.8428"/>
<polygon fill="midnightblue" stroke="midnightblue" points="979.468,-79.1989 988.44,-73.5649 977.913,-72.3738 979.468,-79.1989"/>
</g>
<!-- Node3 -->
<g id="node4" class="node"><title>Node3</title>
<polygon fill="white" stroke="#bfbfbf" points="0,-0.5 0,-19.5 68,-19.5 68,-0.5 0,-0.5"/>
<text text-anchor="middle" x="34" y="-7.5" font-family="Helvetica,sans-Serif" font-size="10.00">sys/types.h</text>
</g>
<!-- Node2&#45;&gt;Node3 -->
<g id="edge3" class="edge"><title>Node2&#45;&gt;Node3</title>
<path fill="none" stroke="midnightblue" d="M229.638,-58.1744C226.725,-57.4341 223.801,-56.697 221,-56 172.277,-43.874 116.277,-30.4681 78.3569,-21.4692"/>
<polygon fill="midnightblue" stroke="midnightblue" points="78.6997,-17.9535 68.162,-19.0526 77.0851,-24.7648 78.6997,-17.9535"/>
</g>
<!-- Node4 -->
<g id="node5" class="node"><title>Node4</title>
<polygon fill="white" stroke="#bfbfbf" points="86,-0.5 86,-19.5 138,-19.5 138,-0.5 86,-0.5"/>
<text text-anchor="middle" x="112" y="-7.5" font-family="Helvetica,sans-Serif" font-size="10.00">stdarg.h</text>
</g>
<!-- Node2&#45;&gt;Node4 -->
<g id="edge4" class="edge"><title>Node2&#45;&gt;Node4</title>
<path fill="none" stroke="midnightblue" d="M233.183,-56.4435C209.168,-47.4381 171.171,-33.1891 144.131,-23.049"/>
<polygon fill="midnightblue" stroke="midnightblue" points="145.303,-19.7506 134.71,-19.5164 142.845,-26.3049 145.303,-19.7506"/>
</g>
<!-- Node5 -->
<g id="node6" class="node"><title>Node5</title>
<g id="a_node6"><a xlink:href="starsh-constants_8h.html" target="_top" xlink:title="starsh&#45;constants.h">
<polygon fill="white" stroke="black" points="156,-0.5 156,-19.5 254,-19.5 254,-0.5 156,-0.5"/>
<text text-anchor="middle" x="205" y="-7.5" font-family="Helvetica,sans-Serif" font-size="10.00">starsh&#45;constants.h</text>
</a>
</g>
</g>
<!-- Node2&#45;&gt;Node5 -->
<g id="edge5" class="edge"><title>Node2&#45;&gt;Node5</title>
<path fill="none" stroke="midnightblue" d="M247.578,-56.083C240.152,-48.2195 229.148,-36.5688 220.188,-27.0813"/>
<polygon fill="midnightblue" stroke="midnightblue" points="222.676,-24.618 213.265,-19.7511 217.587,-29.4244 222.676,-24.618"/>
</g>
<!-- Node6 -->
<g id="node7" class="node"><title>Node6</title>
<g id="a_node7"><a xlink:href="starsh-mpi_8h.html" target="_top" xlink:title="starsh&#45;mpi.h">
<polygon fill="white" stroke="black" points="272.5,-0.5 272.5,-19.5 343.5,-19.5 343.5,-0.5 272.5,-0.5"/>
<text text-anchor="middle" x="308" y="-7.5" font-family="Helvetica,sans-Serif" font-size="10.00">starsh&#45;mpi.h</text>
</a>
</g>
</g>
<!-- Node2&#45;&gt;Node6 -->
<g id="edge6" class="edge"><title>Node2&#45;&gt;Node6</title>
<path fill="none" stroke="midnightblue" d="M264.587,-56.083C272.159,-48.2195 283.378,-36.5688 292.514,-27.0813"/>
<polygon fill="midnightblue" stroke="midnightblue" points="295.158,-29.3821 299.573,-19.7511 290.115,-24.5266 295.158,-29.3821"/>
</g>
<!-- Node7 -->
<g id="node8" class="node"><title>Node7</title>
<g id="a_node8"><a xlink:href="starsh-starpu_8h.html" target="_top" xlink:title="starsh&#45;starpu.h">
<polygon fill="white" stroke="black" points="362,-0.5 362,-19.5 444,-19.5 444,-0.5 362,-0.5"/>
<text text-anchor="middle" x="403" y="-7.5" font-family="Helvetica,sans-Serif" font-size="10.00">starsh&#45;starpu.h</text>
</a>
</g>
</g>
<!-- Node2&#45;&gt;Node7 -->
<g id="edge7" class="edge"><title>Node2&#45;&gt;Node7</title>
<path fill="none" stroke="midnightblue" d="M279.293,-56.4435C303.807,-47.4381 342.596,-33.1891 370.2,-23.049"/>
<polygon fill="midnightblue" stroke="midnightblue" points="371.637,-26.25 379.816,-19.5164 369.223,-19.6793 371.637,-26.25"/>
</g>
<!-- Node8 -->
<g id="node9" class="node"><title>Node8</title>
<g id="a_node9"><a xlink:href="starsh-mpi-starpu_8h.html" target="_top" xlink:title="starsh&#45;mpi&#45;starpu.h">
<polygon fill="white" stroke="black" points="462.5,-0.5 462.5,-19.5 563.5,-19.5 563.5,-0.5 462.5,-0.5"/>
<text text-anchor="middle" x="513" y="-7.5" font-family="Helvetica,sans-Serif" font-size="10.00">starsh&#45;mpi&#45;starpu.h</text>
</a>
</g>
</g>
<!-- Node2&#45;&gt;Node8 -->
<g id="edge8" class="edge"><title>Node2&#45;&gt;Node8</title>
<path fill="none" stroke="midnightblue" d="M282.338,-58.072C285.255,-57.3509 288.187,-56.6463 291,-56 347.477,-43.0238 412.491,-30.0765 457.501,-21.424"/>
<polygon fill="midnightblue" stroke="midnightblue" points="458.195,-24.8549 467.358,-19.5364 456.878,-17.9798 458.195,-24.8549"/>
</g>
</g>
</svg>
