<?xml version="1.0" encoding="UTF-8" standalone="no"?>
<!DOCTYPE svg PUBLIC "-//W3C//DTD SVG 1.1//EN"
 "http://www.w3.org/Graphics/SVG/1.1/DTD/svg11.dtd">
<!-- Generated by graphviz version 2.38.0 (20140413.2041)
 -->
<!-- Title: src/backends/sequential/blrm/dmml.c Pages: 1 -->
<svg width="572pt" height="151pt"
 viewBox="0.00 0.00 571.50 151.00" xmlns="http://www.w3.org/2000/svg" xmlns:xlink="http://www.w3.org/1999/xlink">
<g id="graph0" class="graph" transform="scale(1 1) rotate(0) translate(4 147)">
<title>src/backends/sequential/blrm/dmml.c</title>
<polygon fill="white" stroke="none" points="-4,4 -4,-147 567.5,-147 567.5,4 -4,4"/>
<!-- Node0 -->
<g id="node1" class="node"><title>Node0</title>
<polygon fill="#bfbfbf" stroke="black" points="232,-112.5 232,-142.5 354,-142.5 354,-112.5 232,-112.5"/>
<text text-anchor="start" x="240" y="-130.5" font-family="Helvetica,sans-Serif" font-size="10.00">src/backends/sequential</text>
<text text-anchor="middle" x="293" y="-119.5" font-family="Helvetica,sans-Serif" font-size="10.00">/blrm/dmml.c</text>
</g>
<!-- Node1 -->
<g id="node2" class="node"><title>Node1</title>
<g id="a_node2"><a xlink:href="starsh_8h.html" target="_top" xlink:title="starsh.h">
<polygon fill="white" stroke="black" points="230,-56.5 230,-75.5 282,-75.5 282,-56.5 230,-56.5"/>
<text text-anchor="middle" x="256" y="-63.5" font-family="Helvetica,sans-Serif" font-size="10.00">starsh.h</text>
</a>
</g>
</g>
<!-- Node0&#45;&gt;Node1 -->
<g id="edge1" class="edge"><title>Node0&#45;&gt;Node1</title>
<path fill="none" stroke="midnightblue" d="M284.232,-112.399C279.021,-104.021 272.371,-93.3269 266.834,-84.4229"/>
<polygon fill="midnightblue" stroke="midnightblue" points="269.637,-82.3015 261.384,-75.6578 263.692,-85.9981 269.637,-82.3015"/>
</g>
<!-- Node8 -->
<g id="node9" class="node"><title>Node8</title>
<polygon fill="white" stroke="#bfbfbf" points="300,-56.5 300,-75.5 362,-75.5 362,-56.5 300,-56.5"/>
<text text-anchor="middle" x="331" y="-63.5" font-family="Helvetica,sans-Serif" font-size="10.00">common.h</text>
</g>
<!-- Node0&#45;&gt;Node8 -->
<g id="edge8" class="edge"><title>Node0&#45;&gt;Node8</title>
<path fill="none" stroke="midnightblue" d="M302.005,-112.399C307.413,-103.932 314.332,-93.0991 320.054,-84.1393"/>
<polygon fill="midnightblue" stroke="midnightblue" points="323.038,-85.9695 325.471,-75.6578 317.138,-82.2018 323.038,-85.9695"/>
</g>
<!-- Node2 -->
<g id="node3" class="node"><title>Node2</title>
<polygon fill="white" stroke="#bfbfbf" points="0,-0.5 0,-19.5 68,-19.5 68,-0.5 0,-0.5"/>
<text text-anchor="middle" x="34" y="-7.5" font-family="Helvetica,sans-Serif" font-size="10.00">sys/types.h</text>
</g>
<!-- Node1&#45;&gt;Node2 -->
<g id="edge2" class="edge"><title>Node1&#45;&gt;Node2</title>
<path fill="none" stroke="midnightblue" d="M229.662,-58.5934C192.289,-49.5028 123.392,-32.7441 78.1348,-21.7355"/>
<polygon fill="midnightblue" stroke="midnightblue" points="78.8397,-18.305 68.2958,-19.3422 77.1852,-25.1067 78.8397,-18.305"/>
</g>
<!-- Node3 -->
<g id="node4" class="node"><title>Node3</title>
<polygon fill="white" stroke="#bfbfbf" points="86,-0.5 86,-19.5 138,-19.5 138,-0.5 86,-0.5"/>
<text text-anchor="middle" x="112" y="-7.5" font-family="Helvetica,sans-Serif" font-size="10.00">stdarg.h</text>
</g>
<!-- Node1&#45;&gt;Node3 -->
<g id="edge3" class="edge"><title>Node1&#45;&gt;Node3</title>
<path fill="none" stroke="midnightblue" d="M233.183,-56.4435C209.168,-47.4381 171.171,-33.1891 144.131,-23.049"/>
<polygon fill="midnightblue" stroke="midnightblue" points="145.303,-19.7506 134.71,-19.5164 142.845,-26.3049 145.303,-19.7506"/>
</g>
<!-- Node4 -->
<g id="node5" class="node"><title>Node4</title>
<g id="a_node5"><a xlink:href="starsh-constants_8h.html" target="_top" xlink:title="starsh&#45;constants.h">
<polygon fill="white" stroke="black" points="156,-0.5 156,-19.5 254,-19.5 254,-0.5 156,-0.5"/>
<text text-anchor="middle" x="205" y="-7.5" font-family="Helvetica,sans-Serif" font-size="10.00">starsh&#45;constants.h</text>
</a>
</g>
</g>
<!-- Node1&#45;&gt;Node4 -->
<g id="edge4" class="edge"><title>Node1&#45;&gt;Node4</title>
<path fill="none" stroke="midnightblue" d="M247.578,-56.083C240.152,-48.2195 229.148,-36.5688 220.188,-27.0813"/>
<polygon fill="midnightblue" stroke="midnightblue" points="222.676,-24.618 213.265,-19.7511 217.587,-29.4244 222.676,-24.618"/>
</g>
<!-- Node5 -->
<g id="node6" class="node"><title>Node5</title>
<g id="a_node6"><a xlink:href="starsh-mpi_8h.html" target="_top" xlink:title="starsh&#45;mpi.h">
<polygon fill="white" stroke="black" points="272.5,-0.5 272.5,-19.5 343.5,-19.5 343.5,-0.5 272.5,-0.5"/>
<text text-anchor="middle" x="308" y="-7.5" font-family="Helvetica,sans-Serif" font-size="10.00">starsh&#45;mpi.h</text>
</a>
</g>
</g>
<!-- Node1&#45;&gt;Node5 -->
<g id="edge5" class="edge"><title>Node1&#45;&gt;Node5</title>
<path fill="none" stroke="midnightblue" d="M264.587,-56.083C272.159,-48.2195 283.378,-36.5688 292.514,-27.0813"/>
<polygon fill="midnightblue" stroke="midnightblue" points="295.158,-29.3821 299.573,-19.7511 290.115,-24.5266 295.158,-29.3821"/>
</g>
<!-- Node6 -->
<g id="node7" class="node"><title>Node6</title>
<g id="a_node7"><a xlink:href="starsh-starpu_8h.html" target="_top" xlink:title="starsh&#45;starpu.h">
<polygon fill="white" stroke="black" points="362,-0.5 362,-19.5 444,-19.5 444,-0.5 362,-0.5"/>
<text text-anchor="middle" x="403" y="-7.5" font-family="Helvetica,sans-Serif" font-size="10.00">starsh&#45;starpu.h</text>
</a>
</g>
</g>
<!-- Node1&#45;&gt;Node6 -->
<g id="edge6" class="edge"><title>Node1&#45;&gt;Node6</title>
<path fill="none" stroke="midnightblue" d="M279.293,-56.4435C303.807,-47.4381 342.596,-33.1891 370.2,-23.049"/>
<polygon fill="midnightblue" stroke="midnightblue" points="371.637,-26.25 379.816,-19.5164 369.223,-19.6793 371.637,-26.25"/>
</g>
<!-- Node7 -->
<g id="node8" class="node"><title>Node7</title>
<g id="a_node8"><a xlink:href="starsh-mpi-starpu_8h.html" target="_top" xlink:title="starsh&#45;mpi&#45;starpu.h">
<polygon fill="white" stroke="black" points="462.5,-0.5 462.5,-19.5 563.5,-19.5 563.5,-0.5 462.5,-0.5"/>
<text text-anchor="middle" x="513" y="-7.5" font-family="Helvetica,sans-Serif" font-size="10.00">starsh&#45;mpi&#45;starpu.h</text>
</a>
</g>
</g>
<!-- Node1&#45;&gt;Node7 -->
<g id="edge7" class="edge"><title>Node1&#45;&gt;Node7</title>
<path fill="none" stroke="midnightblue" d="M282.338,-58.072C285.255,-57.3509 288.187,-56.6463 291,-56 347.477,-43.0238 412.491,-30.0765 457.501,-21.424"/>
<polygon fill="midnightblue" stroke="midnightblue" points="458.195,-24.8549 467.358,-19.5364 456.878,-17.9798 458.195,-24.8549"/>
</g>
</g>
</svg>
