<?xml version="1.0" encoding="UTF-8" standalone="no"?>
<!DOCTYPE svg PUBLIC "-//W3C//DTD SVG 1.1//EN"
 "http://www.w3.org/Graphics/SVG/1.1/DTD/svg11.dtd">
<!-- Generated by graphviz version 2.38.0 (20140413.2041)
 -->
<!-- Title: include/starsh&#45;starpu.h Pages: 1 -->
<svg width="6545pt" height="162pt"
 viewBox="0.00 0.00 6545.00 162.00" xmlns="http://www.w3.org/2000/svg" xmlns:xlink="http://www.w3.org/1999/xlink">
<g id="graph0" class="graph" transform="scale(1 1) rotate(0) translate(4 158)">
<title>include/starsh&#45;starpu.h</title>
<polygon fill="white" stroke="none" points="-4,4 -4,-158 6541,-158 6541,4 -4,4"/>
<!-- Node1 -->
<g id="node1" class="node"><title>Node1</title>
<polygon fill="#bfbfbf" stroke="black" points="609.5,-134.5 609.5,-153.5 725.5,-153.5 725.5,-134.5 609.5,-134.5"/>
<text text-anchor="middle" x="667.5" y="-141.5" font-family="Helvetica,sans-Serif" font-size="10.00">include/starsh&#45;starpu.h</text>
</g>
<!-- Node2 -->
<g id="node2" class="node"><title>Node2</title>
<g id="a_node2"><a xlink:href="starpu_2dense_2dqp3_8c.html" target="_top" xlink:title="src/backends/starpu\l/dense/dqp3.c">
<polygon fill="white" stroke="black" points="0,-6 0,-36 105,-36 105,-6 0,-6"/>
<text text-anchor="start" x="8" y="-24" font-family="Helvetica,sans-Serif" font-size="10.00">src/backends/starpu</text>
<text text-anchor="middle" x="52.5" y="-13" font-family="Helvetica,sans-Serif" font-size="10.00">/dense/dqp3.c</text>
</a>
</g>
</g>
<!-- Node1&#45;&gt;Node2 -->
<g id="edge1" class="edge"><title>Node1&#45;&gt;Node2</title>
<path fill="none" stroke="midnightblue" d="M599.185,-134.304C493.781,-120.047 285.666,-88.5547 113.5,-42 106.937,-40.2254 100.039,-38.161 93.3368,-36.0455"/>
<polygon fill="midnightblue" stroke="midnightblue" points="598.991,-137.809 609.368,-135.671 599.923,-130.871 598.991,-137.809"/>
</g>
<!-- Node3 -->
<g id="node3" class="node"><title>Node3</title>
<g id="a_node3"><a xlink:href="starpu_2dense_2drsdd_8c.html" target="_top" xlink:title="src/backends/starpu\l/dense/drsdd.c">
<polygon fill="white" stroke="black" points="123,-6 123,-36 228,-36 228,-6 123,-6"/>
<text text-anchor="start" x="131" y="-24" font-family="Helvetica,sans-Serif" font-size="10.00">src/backends/starpu</text>
<text text-anchor="middle" x="175.5" y="-13" font-family="Helvetica,sans-Serif" font-size="10.00">/dense/drsdd.c</text>
</a>
</g>
</g>
<!-- Node1&#45;&gt;Node3 -->
<g id="edge2" class="edge"><title>Node1&#45;&gt;Node3</title>
<path fill="none" stroke="midnightblue" d="M615.252,-132.402C533.767,-115.505 371.732,-80.4239 236.5,-42 230.068,-40.1724 223.3,-38.1028 216.707,-36.0051"/>
<polygon fill="midnightblue" stroke="midnightblue" points="614.755,-135.873 625.257,-134.469 616.172,-129.018 614.755,-135.873"/>
</g>
<!-- Node4 -->
<g id="node4" class="node"><title>Node4</title>
<g id="a_node4"><a xlink:href="starpu_2dense_2dsdd_8c.html" target="_top" xlink:title="src/backends/starpu\l/dense/dsdd.c">
<polygon fill="white" stroke="black" points="246,-6 246,-36 351,-36 351,-6 246,-6"/>
<text text-anchor="start" x="254" y="-24" font-family="Helvetica,sans-Serif" font-size="10.00">src/backends/starpu</text>
<text text-anchor="middle" x="298.5" y="-13" font-family="Helvetica,sans-Serif" font-size="10.00">/dense/dsdd.c</text>
</a>
</g>
</g>
<!-- Node1&#45;&gt;Node4 -->
<g id="edge3" class="edge"><title>Node1&#45;&gt;Node4</title>
<path fill="none" stroke="midnightblue" d="M631.683,-131.255C563.334,-108.842 414.581,-60.0645 341.194,-36.0001"/>
<polygon fill="midnightblue" stroke="midnightblue" points="630.96,-134.701 641.553,-134.492 633.141,-128.05 630.96,-134.701"/>
</g>
<!-- Node5 -->
<g id="node5" class="node"><title>Node5</title>
<g id="a_node5"><a xlink:href="kernel_8c.html" target="_top" xlink:title="src/backends/starpu\l/dense/kernel.c">
<polygon fill="white" stroke="black" points="369,-6 369,-36 474,-36 474,-6 369,-6"/>
<text text-anchor="start" x="377" y="-24" font-family="Helvetica,sans-Serif" font-size="10.00">src/backends/starpu</text>
<text text-anchor="middle" x="421.5" y="-13" font-family="Helvetica,sans-Serif" font-size="10.00">/dense/kernel.c</text>
</a>
</g>
</g>
<!-- Node1&#45;&gt;Node5 -->
<g id="edge4" class="edge"><title>Node1&#45;&gt;Node5</title>
<path fill="none" stroke="midnightblue" d="M641.055,-129.992C594.491,-107.089 498.258,-59.7548 450.165,-36.0994"/>
<polygon fill="midnightblue" stroke="midnightblue" points="639.684,-133.218 650.202,-134.492 642.773,-126.937 639.684,-133.218"/>
</g>
<!-- Node6 -->
<g id="node6" class="node"><title>Node6</title>
<g id="a_node6"><a xlink:href="dgemm_8c.html" target="_top" xlink:title="src/backends/starpu\l/dense/dgemm.c">
<polygon fill="white" stroke="black" points="492,-6 492,-36 597,-36 597,-6 492,-6"/>
<text text-anchor="start" x="500" y="-24" font-family="Helvetica,sans-Serif" font-size="10.00">src/backends/starpu</text>
<text text-anchor="middle" x="544.5" y="-13" font-family="Helvetica,sans-Serif" font-size="10.00">/dense/dgemm.c</text>
</a>
</g>
</g>
<!-- Node1&#45;&gt;Node6 -->
<g id="edge5" class="edge"><title>Node1&#45;&gt;Node6</title>
<path fill="none" stroke="midnightblue" d="M651.311,-127.074C627.092,-103.249 581.819,-58.712 558.771,-36.0392"/>
<polygon fill="midnightblue" stroke="midnightblue" points="649.071,-129.78 658.654,-134.298 653.98,-124.79 649.071,-129.78"/>
</g>
<!-- Node7 -->
<g id="node7" class="node"><title>Node7</title>
<g id="a_node7"><a xlink:href="fake__init_8c.html" target="_top" xlink:title="src/backends/starpu\l/dense/fake_init.c">
<polygon fill="white" stroke="black" points="615,-6 615,-36 720,-36 720,-6 615,-6"/>
<text text-anchor="start" x="623" y="-24" font-family="Helvetica,sans-Serif" font-size="10.00">src/backends/starpu</text>
<text text-anchor="middle" x="667.5" y="-13" font-family="Helvetica,sans-Serif" font-size="10.00">/dense/fake_init.c</text>
</a>
</g>
</g>
<!-- Node1&#45;&gt;Node7 -->
<g id="edge6" class="edge"><title>Node1&#45;&gt;Node7</title>
<path fill="none" stroke="midnightblue" d="M667.5,-124.185C667.5,-99.7974 667.5,-57.8248 667.5,-36.0392"/>
<polygon fill="midnightblue" stroke="midnightblue" points="664,-124.298 667.5,-134.298 671,-124.298 664,-124.298"/>
</g>
<!-- Node8 -->
<g id="node8" class="node"><title>Node8</title>
<g id="a_node8"><a xlink:href="starpu_2blrm_2dqp3_8c.html" target="_top" xlink:title="src/backends/starpu\l/blrm/dqp3.c">
<polygon fill="white" stroke="black" points="738,-6 738,-36 843,-36 843,-6 738,-6"/>
<text text-anchor="start" x="746" y="-24" font-family="Helvetica,sans-Serif" font-size="10.00">src/backends/starpu</text>
<text text-anchor="middle" x="790.5" y="-13" font-family="Helvetica,sans-Serif" font-size="10.00">/blrm/dqp3.c</text>
</a>
</g>
</g>
<!-- Node1&#45;&gt;Node8 -->
<g id="edge7" class="edge"><title>Node1&#45;&gt;Node8</title>
<path fill="none" stroke="midnightblue" d="M683.689,-127.074C707.908,-103.249 753.181,-58.712 776.229,-36.0392"/>
<polygon fill="midnightblue" stroke="midnightblue" points="681.02,-124.79 676.346,-134.298 685.929,-129.78 681.02,-124.79"/>
</g>
<!-- Node9 -->
<g id="node9" class="node"><title>Node9</title>
<g id="a_node9"><a xlink:href="starpu_2blrm_2drsdd_8c.html" target="_top" xlink:title="src/backends/starpu\l/blrm/drsdd.c">
<polygon fill="white" stroke="black" points="861,-6 861,-36 966,-36 966,-6 861,-6"/>
<text text-anchor="start" x="869" y="-24" font-family="Helvetica,sans-Serif" font-size="10.00">src/backends/starpu</text>
<text text-anchor="middle" x="913.5" y="-13" font-family="Helvetica,sans-Serif" font-size="10.00">/blrm/drsdd.c</text>
</a>
</g>
</g>
<!-- Node1&#45;&gt;Node9 -->
<g id="edge8" class="edge"><title>Node1&#45;&gt;Node9</title>
<path fill="none" stroke="midnightblue" d="M693.945,-129.992C740.509,-107.089 836.742,-59.7548 884.835,-36.0994"/>
<polygon fill="midnightblue" stroke="midnightblue" points="692.227,-126.937 684.798,-134.492 695.316,-133.218 692.227,-126.937"/>
</g>
<!-- Node10 -->
<g id="node10" class="node"><title>Node10</title>
<g id="a_node10"><a xlink:href="starpu_2blrm_2dsdd_8c.html" target="_top" xlink:title="src/backends/starpu\l/blrm/dsdd.c">
<polygon fill="white" stroke="black" points="984,-6 984,-36 1089,-36 1089,-6 984,-6"/>
<text text-anchor="start" x="992" y="-24" font-family="Helvetica,sans-Serif" font-size="10.00">src/backends/starpu</text>
<text text-anchor="middle" x="1036.5" y="-13" font-family="Helvetica,sans-Serif" font-size="10.00">/blrm/dsdd.c</text>
</a>
</g>
</g>
<!-- Node1&#45;&gt;Node10 -->
<g id="edge9" class="edge"><title>Node1&#45;&gt;Node10</title>
<path fill="none" stroke="midnightblue" d="M703.317,-131.255C771.666,-108.842 920.419,-60.0645 993.806,-36.0001"/>
<polygon fill="midnightblue" stroke="midnightblue" points="701.859,-128.05 693.447,-134.492 704.04,-134.701 701.859,-128.05"/>
</g>
<!-- Node11 -->
<g id="node11" class="node"><title>Node11</title>
<g id="a_node11"><a xlink:href="init_8c.html" target="_top" xlink:title="src/control/init.c">
<polygon fill="white" stroke="black" points="1107.5,-11.5 1107.5,-30.5 1193.5,-30.5 1193.5,-11.5 1107.5,-11.5"/>
<text text-anchor="middle" x="1150.5" y="-18.5" font-family="Helvetica,sans-Serif" font-size="10.00">src/control/init.c</text>
</a>
</g>
</g>
<!-- Node1&#45;&gt;Node11 -->
<g id="edge10" class="edge"><title>Node1&#45;&gt;Node11</title>
<path fill="none" stroke="midnightblue" d="M722.146,-132.542C804.409,-116.266 964.587,-82.4996 1097.5,-42 1108.32,-38.7034 1120.11,-34.3327 1129.82,-30.5181"/>
<polygon fill="midnightblue" stroke="midnightblue" points="721.403,-129.121 712.267,-134.486 722.755,-135.989 721.403,-129.121"/>
</g>
<!-- Node12 -->
<g id="node12" class="node"><title>Node12</title>
<g id="a_node12"><a xlink:href="starsh_8h.html" target="_top" xlink:title="include/starsh.h">
<polygon fill="white" stroke="red" points="3069.5,-78.5 3069.5,-97.5 3155.5,-97.5 3155.5,-78.5 3069.5,-78.5"/>
<text text-anchor="middle" x="3112.5" y="-85.5" font-family="Helvetica,sans-Serif" font-size="10.00">include/starsh.h</text>
</a>
</g>
</g>
<!-- Node1&#45;&gt;Node12 -->
<g id="edge11" class="edge"><title>Node1&#45;&gt;Node12</title>
<path fill="none" stroke="midnightblue" d="M735.555,-141.497C1096.05,-133.535 2777.18,-96.4058 3069.2,-89.9563"/>
<polygon fill="midnightblue" stroke="midnightblue" points="735.447,-137.998 725.527,-141.718 735.602,-144.997 735.447,-137.998"/>
</g>
<!-- Node12&#45;&gt;Node2 -->
<g id="edge23" class="edge"><title>Node12&#45;&gt;Node2</title>
<path fill="none" stroke="midnightblue" d="M3059.22,-87.1672C2681.52,-88.2253 414.648,-92.4283 113.5,-42 105.586,-40.6747 97.2982,-38.5129 89.4731,-36.0899"/>
<polygon fill="midnightblue" stroke="midnightblue" points="3059.34,-90.667 3069.33,-87.1384 3059.32,-83.667 3059.34,-90.667"/>
</g>
<!-- Node12&#45;&gt;Node3 -->
<g id="edge24" class="edge"><title>Node12&#45;&gt;Node3</title>
<path fill="none" stroke="midnightblue" d="M3059.11,-87.1305C2690.1,-87.9049 524.679,-90.3517 236.5,-42 228.586,-40.6722 220.299,-38.5093 212.474,-36.086"/>
<polygon fill="midnightblue" stroke="midnightblue" points="3059.26,-90.6303 3069.25,-87.1087 3059.24,-83.6303 3059.26,-90.6303"/>
</g>
<!-- Node12&#45;&gt;Node4 -->
<g id="edge25" class="edge"><title>Node12&#45;&gt;Node4</title>
<path fill="none" stroke="midnightblue" d="M3059.15,-87.0901C2699.48,-87.5703 634.763,-88.2834 359.5,-42 351.587,-40.6694 343.299,-38.5053 335.475,-36.0817"/>
<polygon fill="midnightblue" stroke="midnightblue" points="3059.29,-90.59 3069.29,-87.076 3059.28,-83.59 3059.29,-90.59"/>
</g>
<!-- Node12&#45;&gt;Node5 -->
<g id="edge26" class="edge"><title>Node12&#45;&gt;Node5</title>
<path fill="none" stroke="midnightblue" d="M3059.34,-87.0459C2709.65,-87.2216 744.899,-86.2235 482.5,-42 474.587,-40.6664 466.3,-38.5009 458.475,-36.077"/>
<polygon fill="midnightblue" stroke="midnightblue" points="3059.45,-90.5459 3069.45,-87.0403 3059.45,-83.546 3059.45,-90.5459"/>
</g>
<!-- Node12&#45;&gt;Node6 -->
<g id="edge27" class="edge"><title>Node12&#45;&gt;Node6</title>
<path fill="none" stroke="midnightblue" d="M3059.16,-86.9976C2718.63,-86.8562 854.954,-84.1495 605.5,-42 597.588,-40.6631 589.301,-38.4962 581.476,-36.0719"/>
<polygon fill="midnightblue" stroke="midnightblue" points="3059.25,-90.4976 3069.25,-87.0013 3059.25,-83.4976 3059.25,-90.4976"/>
</g>
<!-- Node12&#45;&gt;Node7 -->
<g id="edge28" class="edge"><title>Node12&#45;&gt;Node7</title>
<path fill="none" stroke="midnightblue" d="M3059.2,-86.9444C2728.67,-86.4735 965.078,-82.0866 728.5,-42 720.588,-40.6594 712.302,-38.4909 704.477,-36.0662"/>
<polygon fill="midnightblue" stroke="midnightblue" points="3059.45,-90.4446 3069.46,-86.9584 3059.46,-83.4446 3059.45,-90.4446"/>
</g>
<!-- Node12&#45;&gt;Node8 -->
<g id="edge29" class="edge"><title>Node12&#45;&gt;Node8</title>
<path fill="none" stroke="midnightblue" d="M3058.94,-86.8847C2737.92,-86.0672 1075.15,-80.0139 851.5,-42 843.589,-40.6554 835.303,-38.4851 827.478,-36.0599"/>
<polygon fill="midnightblue" stroke="midnightblue" points="3059.35,-90.3856 3069.36,-86.9106 3059.36,-83.3856 3059.35,-90.3856"/>
</g>
<!-- Node12&#45;&gt;Node9 -->
<g id="edge30" class="edge"><title>Node12&#45;&gt;Node9</title>
<path fill="none" stroke="midnightblue" d="M3059.39,-86.8203C2749.89,-85.648 1185.4,-77.9713 974.5,-42 966.59,-40.6508 958.304,-38.4786 950.479,-36.0529"/>
<polygon fill="midnightblue" stroke="midnightblue" points="3059.43,-90.3204 3069.45,-86.8577 3059.46,-83.3204 3059.43,-90.3204"/>
</g>
<!-- Node12&#45;&gt;Node10 -->
<g id="edge31" class="edge"><title>Node12&#45;&gt;Node10</title>
<path fill="none" stroke="midnightblue" d="M3059.18,-86.73C2760.02,-85.092 1296.5,-75.4151 1098.5,-42 1090.47,-40.6449 1082.05,-38.4699 1074.1,-36.0436"/>
<polygon fill="midnightblue" stroke="midnightblue" points="3059.31,-90.2306 3069.33,-86.7849 3059.35,-83.2307 3059.31,-90.2306"/>
</g>
<!-- Node12&#45;&gt;Node11 -->
<g id="edge59" class="edge"><title>Node12&#45;&gt;Node11</title>
<path fill="none" stroke="midnightblue" d="M3059.19,-86.8125C2769.4,-85.6507 1389.73,-78.2419 1203.5,-42 1191.53,-39.6705 1178.72,-34.9053 1168.69,-30.6106"/>
<polygon fill="midnightblue" stroke="midnightblue" points="3059.42,-90.3134 3069.43,-86.8528 3059.45,-83.3134 3059.42,-90.3134"/>
</g>
<!-- Node13 -->
<g id="node13" class="node"><title>Node13</title>
<g id="a_node13"><a xlink:href="sequential_2dense_2dqp3_8c.html" target="_top" xlink:title="src/backends/sequential\l/dense/dqp3.c">
<polygon fill="white" stroke="black" points="2351.5,-6 2351.5,-36 2473.5,-36 2473.5,-6 2351.5,-6"/>
<text text-anchor="start" x="2359.5" y="-24" font-family="Helvetica,sans-Serif" font-size="10.00">src/backends/sequential</text>
<text text-anchor="middle" x="2412.5" y="-13" font-family="Helvetica,sans-Serif" font-size="10.00">/dense/dqp3.c</text>
</a>
</g>
</g>
<!-- Node12&#45;&gt;Node13 -->
<g id="edge12" class="edge"><title>Node12&#45;&gt;Node13</title>
<path fill="none" stroke="midnightblue" d="M3059.26,-86.8978C2950.18,-85.8782 2693.81,-79.3184 2482.5,-42 2474.04,-40.5053 2465.13,-38.3935 2456.61,-36.0979"/>
<polygon fill="midnightblue" stroke="midnightblue" points="3059.32,-90.3983 3069.35,-86.98 3059.38,-83.3985 3059.32,-90.3983"/>
</g>
<!-- Node14 -->
<g id="node14" class="node"><title>Node14</title>
<g id="a_node14"><a xlink:href="sequential_2dense_2drsdd_8c.html" target="_top" xlink:title="src/backends/sequential\l/dense/drsdd.c">
<polygon fill="white" stroke="black" points="2491.5,-6 2491.5,-36 2613.5,-36 2613.5,-6 2491.5,-6"/>
<text text-anchor="start" x="2499.5" y="-24" font-family="Helvetica,sans-Serif" font-size="10.00">src/backends/sequential</text>
<text text-anchor="middle" x="2552.5" y="-13" font-family="Helvetica,sans-Serif" font-size="10.00">/dense/drsdd.c</text>
</a>
</g>
</g>
<!-- Node12&#45;&gt;Node14 -->
<g id="edge13" class="edge"><title>Node12&#45;&gt;Node14</title>
<path fill="none" stroke="midnightblue" d="M3059.18,-85.3595C2968.69,-81.8514 2779.56,-71.3824 2622.5,-42 2614.18,-40.4428 2605.41,-38.3308 2597.01,-36.061"/>
<polygon fill="midnightblue" stroke="midnightblue" points="3059.07,-88.8578 3069.2,-85.7347 3059.33,-81.8627 3059.07,-88.8578"/>
</g>
<!-- Node15 -->
<g id="node15" class="node"><title>Node15</title>
<g id="a_node15"><a xlink:href="sequential_2dense_2dsdd_8c.html" target="_top" xlink:title="src/backends/sequential\l/dense/dsdd.c">
<polygon fill="white" stroke="black" points="2631.5,-6 2631.5,-36 2753.5,-36 2753.5,-6 2631.5,-6"/>
<text text-anchor="start" x="2639.5" y="-24" font-family="Helvetica,sans-Serif" font-size="10.00">src/backends/sequential</text>
<text text-anchor="middle" x="2692.5" y="-13" font-family="Helvetica,sans-Serif" font-size="10.00">/dense/dsdd.c</text>
</a>
</g>
</g>
<!-- Node12&#45;&gt;Node15 -->
<g id="edge14" class="edge"><title>Node12&#45;&gt;Node15</title>
<path fill="none" stroke="midnightblue" d="M3059.14,-82.6553C2990.15,-76.4649 2866.52,-63.42 2762.5,-42 2754.45,-40.343 2745.98,-38.2381 2737.82,-36.0196"/>
<polygon fill="midnightblue" stroke="midnightblue" points="3059.05,-86.1612 3069.32,-83.5547 3059.67,-79.1883 3059.05,-86.1612"/>
</g>
<!-- Node16 -->
<g id="node16" class="node"><title>Node16</title>
<g id="a_node16"><a xlink:href="dsvfr_8c.html" target="_top" xlink:title="src/backends/sequential\l/dense/dsvfr.c">
<polygon fill="white" stroke="black" points="2771.5,-6 2771.5,-36 2893.5,-36 2893.5,-6 2771.5,-6"/>
<text text-anchor="start" x="2779.5" y="-24" font-family="Helvetica,sans-Serif" font-size="10.00">src/backends/sequential</text>
<text text-anchor="middle" x="2832.5" y="-13" font-family="Helvetica,sans-Serif" font-size="10.00">/dense/dsvfr.c</text>
</a>
</g>
</g>
<!-- Node12&#45;&gt;Node16 -->
<g id="edge15" class="edge"><title>Node12&#45;&gt;Node16</title>
<path fill="none" stroke="midnightblue" d="M3059.4,-76.6487C3016.81,-68.099 2955.58,-55.2547 2902.5,-42 2895.27,-40.1934 2887.65,-38.1573 2880.21,-36.0933"/>
<polygon fill="midnightblue" stroke="midnightblue" points="3058.78,-80.0937 3069.27,-78.6201 3060.15,-73.2293 3058.78,-80.0937"/>
</g>
<!-- Node17 -->
<g id="node17" class="node"><title>Node17</title>
<g id="a_node17"><a xlink:href="sequential_2dense_2dna_8c.html" target="_top" xlink:title="src/backends/sequential\l/dense/dna.c">
<polygon fill="white" stroke="black" points="2911.5,-6 2911.5,-36 3033.5,-36 3033.5,-6 2911.5,-6"/>
<text text-anchor="start" x="2919.5" y="-24" font-family="Helvetica,sans-Serif" font-size="10.00">src/backends/sequential</text>
<text text-anchor="middle" x="2972.5" y="-13" font-family="Helvetica,sans-Serif" font-size="10.00">/dense/dna.c</text>
</a>
</g>
</g>
<!-- Node12&#45;&gt;Node17 -->
<g id="edge16" class="edge"><title>Node12&#45;&gt;Node17</title>
<path fill="none" stroke="midnightblue" d="M3084.76,-74.1206C3061.08,-63.1252 3027.08,-47.3413 3002.71,-36.0281"/>
<polygon fill="midnightblue" stroke="midnightblue" points="3083.37,-77.3319 3093.91,-78.3685 3086.31,-70.9828 3083.37,-77.3319"/>
</g>
<!-- Node18 -->
<g id="node18" class="node"><title>Node18</title>
<g id="a_node18"><a xlink:href="dca_8c.html" target="_top" xlink:title="src/backends/sequential\l/blrm/dca.c">
<polygon fill="white" stroke="black" points="3051.5,-6 3051.5,-36 3173.5,-36 3173.5,-6 3051.5,-6"/>
<text text-anchor="start" x="3059.5" y="-24" font-family="Helvetica,sans-Serif" font-size="10.00">src/backends/sequential</text>
<text text-anchor="middle" x="3112.5" y="-13" font-family="Helvetica,sans-Serif" font-size="10.00">/blrm/dca.c</text>
</a>
</g>
</g>
<!-- Node12&#45;&gt;Node18 -->
<g id="edge17" class="edge"><title>Node12&#45;&gt;Node18</title>
<path fill="none" stroke="midnightblue" d="M3112.5,-67.9107C3112.5,-57.722 3112.5,-45.401 3112.5,-36.089"/>
<polygon fill="midnightblue" stroke="midnightblue" points="3109,-68.2338 3112.5,-78.2338 3116,-68.2338 3109,-68.2338"/>
</g>
<!-- Node19 -->
<g id="node19" class="node"><title>Node19</title>
<g id="a_node19"><a xlink:href="sequential_2blrm_2dfe_8c.html" target="_top" xlink:title="src/backends/sequential\l/blrm/dfe.c">
<polygon fill="white" stroke="black" points="3191.5,-6 3191.5,-36 3313.5,-36 3313.5,-6 3191.5,-6"/>
<text text-anchor="start" x="3199.5" y="-24" font-family="Helvetica,sans-Serif" font-size="10.00">src/backends/sequential</text>
<text text-anchor="middle" x="3252.5" y="-13" font-family="Helvetica,sans-Serif" font-size="10.00">/blrm/dfe.c</text>
</a>
</g>
</g>
<!-- Node12&#45;&gt;Node19 -->
<g id="edge18" class="edge"><title>Node12&#45;&gt;Node19</title>
<path fill="none" stroke="midnightblue" d="M3140.24,-74.1206C3163.92,-63.1252 3197.92,-47.3413 3222.29,-36.0281"/>
<polygon fill="midnightblue" stroke="midnightblue" points="3138.69,-70.9828 3131.09,-78.3685 3141.63,-77.3319 3138.69,-70.9828"/>
</g>
<!-- Node20 -->
<g id="node20" class="node"><title>Node20</title>
<g id="a_node20"><a xlink:href="sequential_2blrm_2dmml_8c.html" target="_top" xlink:title="src/backends/sequential\l/blrm/dmml.c">
<polygon fill="white" stroke="black" points="3331.5,-6 3331.5,-36 3453.5,-36 3453.5,-6 3331.5,-6"/>
<text text-anchor="start" x="3339.5" y="-24" font-family="Helvetica,sans-Serif" font-size="10.00">src/backends/sequential</text>
<text text-anchor="middle" x="3392.5" y="-13" font-family="Helvetica,sans-Serif" font-size="10.00">/blrm/dmml.c</text>
</a>
</g>
</g>
<!-- Node12&#45;&gt;Node20 -->
<g id="edge19" class="edge"><title>Node12&#45;&gt;Node20</title>
<path fill="none" stroke="midnightblue" d="M3165.6,-76.6487C3208.19,-68.099 3269.42,-55.2547 3322.5,-42 3329.73,-40.1934 3337.35,-38.1573 3344.79,-36.0933"/>
<polygon fill="midnightblue" stroke="midnightblue" points="3164.85,-73.2293 3155.73,-78.6201 3166.22,-80.0937 3164.85,-73.2293"/>
</g>
<!-- Node21 -->
<g id="node21" class="node"><title>Node21</title>
<g id="a_node21"><a xlink:href="sequential_2blrm_2dqp3_8c.html" target="_top" xlink:title="src/backends/sequential\l/blrm/dqp3.c">
<polygon fill="white" stroke="black" points="3471.5,-6 3471.5,-36 3593.5,-36 3593.5,-6 3471.5,-6"/>
<text text-anchor="start" x="3479.5" y="-24" font-family="Helvetica,sans-Serif" font-size="10.00">src/backends/sequential</text>
<text text-anchor="middle" x="3532.5" y="-13" font-family="Helvetica,sans-Serif" font-size="10.00">/blrm/dqp3.c</text>
</a>
</g>
</g>
<!-- Node12&#45;&gt;Node21 -->
<g id="edge20" class="edge"><title>Node12&#45;&gt;Node21</title>
<path fill="none" stroke="midnightblue" d="M3165.86,-82.6553C3234.85,-76.4649 3358.48,-63.42 3462.5,-42 3470.55,-40.343 3479.02,-38.2381 3487.18,-36.0196"/>
<polygon fill="midnightblue" stroke="midnightblue" points="3165.33,-79.1883 3155.68,-83.5547 3165.95,-86.1612 3165.33,-79.1883"/>
</g>
<!-- Node22 -->
<g id="node22" class="node"><title>Node22</title>
<g id="a_node22"><a xlink:href="sequential_2blrm_2drsdd_8c.html" target="_top" xlink:title="src/backends/sequential\l/blrm/drsdd.c">
<polygon fill="white" stroke="black" points="3611.5,-6 3611.5,-36 3733.5,-36 3733.5,-6 3611.5,-6"/>
<text text-anchor="start" x="3619.5" y="-24" font-family="Helvetica,sans-Serif" font-size="10.00">src/backends/sequential</text>
<text text-anchor="middle" x="3672.5" y="-13" font-family="Helvetica,sans-Serif" font-size="10.00">/blrm/drsdd.c</text>
</a>
</g>
</g>
<!-- Node12&#45;&gt;Node22 -->
<g id="edge21" class="edge"><title>Node12&#45;&gt;Node22</title>
<path fill="none" stroke="midnightblue" d="M3165.82,-85.3595C3256.31,-81.8514 3445.44,-71.3824 3602.5,-42 3610.82,-40.4428 3619.59,-38.3308 3627.99,-36.061"/>
<polygon fill="midnightblue" stroke="midnightblue" points="3165.67,-81.8627 3155.8,-85.7347 3165.93,-88.8578 3165.67,-81.8627"/>
</g>
<!-- Node23 -->
<g id="node23" class="node"><title>Node23</title>
<g id="a_node23"><a xlink:href="sequential_2blrm_2dsdd_8c.html" target="_top" xlink:title="src/backends/sequential\l/blrm/dsdd.c">
<polygon fill="white" stroke="black" points="3751.5,-6 3751.5,-36 3873.5,-36 3873.5,-6 3751.5,-6"/>
<text text-anchor="start" x="3759.5" y="-24" font-family="Helvetica,sans-Serif" font-size="10.00">src/backends/sequential</text>
<text text-anchor="middle" x="3812.5" y="-13" font-family="Helvetica,sans-Serif" font-size="10.00">/blrm/dsdd.c</text>
</a>
</g>
</g>
<!-- Node12&#45;&gt;Node23 -->
<g id="edge22" class="edge"><title>Node12&#45;&gt;Node23</title>
<path fill="none" stroke="midnightblue" d="M3165.74,-86.8978C3274.82,-85.8782 3531.19,-79.3184 3742.5,-42 3750.96,-40.5053 3759.87,-38.3935 3768.39,-36.0979"/>
<polygon fill="midnightblue" stroke="midnightblue" points="3165.62,-83.3985 3155.65,-86.98 3165.68,-90.3983 3165.62,-83.3985"/>
</g>
<!-- Node24 -->
<g id="node24" class="node"><title>Node24</title>
<g id="a_node24"><a xlink:href="openmp_2blrm_2dqp3_8c.html" target="_top" xlink:title="src/backends/openmp\l/blrm/dqp3.c">
<polygon fill="white" stroke="black" points="3892,-6 3892,-36 4005,-36 4005,-6 3892,-6"/>
<text text-anchor="start" x="3900" y="-24" font-family="Helvetica,sans-Serif" font-size="10.00">src/backends/openmp</text>
<text text-anchor="middle" x="3948.5" y="-13" font-family="Helvetica,sans-Serif" font-size="10.00">/blrm/dqp3.c</text>
</a>
</g>
</g>
<!-- Node12&#45;&gt;Node24 -->
<g id="edge32" class="edge"><title>Node12&#45;&gt;Node24</title>
<path fill="none" stroke="midnightblue" d="M3166.4,-85.5031C3317.76,-81.0371 3744.58,-66.5704 3882.5,-42 3890.75,-40.53 3899.42,-38.3686 3907.67,-36.0037"/>
<polygon fill="midnightblue" stroke="midnightblue" points="3165.88,-82.0167 3155.99,-85.8073 3166.09,-89.0137 3165.88,-82.0167"/>
</g>
<!-- Node25 -->
<g id="node25" class="node"><title>Node25</title>
<g id="a_node25"><a xlink:href="openmp_2blrm_2drsdd_8c.html" target="_top" xlink:title="src/backends/openmp\l/blrm/drsdd.c">
<polygon fill="white" stroke="black" points="4023,-6 4023,-36 4136,-36 4136,-6 4023,-6"/>
<text text-anchor="start" x="4031" y="-24" font-family="Helvetica,sans-Serif" font-size="10.00">src/backends/openmp</text>
<text text-anchor="middle" x="4079.5" y="-13" font-family="Helvetica,sans-Serif" font-size="10.00">/blrm/drsdd.c</text>
</a>
</g>
</g>
<!-- Node12&#45;&gt;Node25 -->
<g id="edge33" class="edge"><title>Node12&#45;&gt;Node25</title>
<path fill="none" stroke="midnightblue" d="M3165.7,-86.0797C3333.44,-82.9054 3849.82,-70.9759 4014.5,-42 4022.64,-40.5678 4031.19,-38.4234 4039.31,-36.0635"/>
<polygon fill="midnightblue" stroke="midnightblue" points="3165.57,-82.5816 3155.63,-86.2676 3165.7,-89.5803 3165.57,-82.5816"/>
</g>
<!-- Node26 -->
<g id="node26" class="node"><title>Node26</title>
<g id="a_node26"><a xlink:href="openmp_2blrm_2dsdd_8c.html" target="_top" xlink:title="src/backends/openmp\l/blrm/dsdd.c">
<polygon fill="white" stroke="black" points="4154,-6 4154,-36 4267,-36 4267,-6 4154,-6"/>
<text text-anchor="start" x="4162" y="-24" font-family="Helvetica,sans-Serif" font-size="10.00">src/backends/openmp</text>
<text text-anchor="middle" x="4210.5" y="-13" font-family="Helvetica,sans-Serif" font-size="10.00">/blrm/dsdd.c</text>
</a>
</g>
</g>
<!-- Node12&#45;&gt;Node26 -->
<g id="edge34" class="edge"><title>Node12&#45;&gt;Node26</title>
<path fill="none" stroke="midnightblue" d="M3165.83,-86.4692C3349.39,-84.3622 3954.3,-75.0211 4145.5,-42 4153.76,-40.5734 4162.44,-38.3997 4170.67,-36.0031"/>
<polygon fill="midnightblue" stroke="midnightblue" points="3165.58,-82.9717 3155.62,-86.5839 3165.66,-89.9712 3165.58,-82.9717"/>
</g>
<!-- Node27 -->
<g id="node27" class="node"><title>Node27</title>
<g id="a_node27"><a xlink:href="openmp_2blrm_2dmml_8c.html" target="_top" xlink:title="src/backends/openmp\l/blrm/dmml.c">
<polygon fill="white" stroke="black" points="4285,-6 4285,-36 4398,-36 4398,-6 4285,-6"/>
<text text-anchor="start" x="4293" y="-24" font-family="Helvetica,sans-Serif" font-size="10.00">src/backends/openmp</text>
<text text-anchor="middle" x="4341.5" y="-13" font-family="Helvetica,sans-Serif" font-size="10.00">/blrm/dmml.c</text>
</a>
</g>
</g>
<!-- Node12&#45;&gt;Node27 -->
<g id="edge35" class="edge"><title>Node12&#45;&gt;Node27</title>
<path fill="none" stroke="midnightblue" d="M3165.85,-86.7736C3364.16,-85.6471 4058.6,-79.0829 4276.5,-42 4284.76,-40.5936 4293.44,-38.4289 4301.67,-36.0347"/>
<polygon fill="midnightblue" stroke="midnightblue" points="3165.67,-83.2745 3155.69,-86.829 3165.71,-90.2744 3165.67,-83.2745"/>
</g>
<!-- Node28 -->
<g id="node28" class="node"><title>Node28</title>
<g id="a_node28"><a xlink:href="openmp_2blrm_2dfe_8c.html" target="_top" xlink:title="src/backends/openmp\l/blrm/dfe.c">
<polygon fill="white" stroke="black" points="4416,-6 4416,-36 4529,-36 4529,-6 4416,-6"/>
<text text-anchor="start" x="4424" y="-24" font-family="Helvetica,sans-Serif" font-size="10.00">src/backends/openmp</text>
<text text-anchor="middle" x="4472.5" y="-13" font-family="Helvetica,sans-Serif" font-size="10.00">/blrm/dfe.c</text>
</a>
</g>
</g>
<!-- Node12&#45;&gt;Node28 -->
<g id="edge36" class="edge"><title>Node12&#45;&gt;Node28</title>
<path fill="none" stroke="midnightblue" d="M3165.76,-87.0174C3377.86,-86.798 4162.75,-83.1615 4407.5,-42 4415.77,-40.6097 4424.45,-38.4522 4432.68,-36.06"/>
<polygon fill="midnightblue" stroke="midnightblue" points="3165.51,-83.5175 3155.51,-87.0258 3165.51,-90.5175 3165.51,-83.5175"/>
</g>
<!-- Node29 -->
<g id="node29" class="node"><title>Node29</title>
<g id="a_node29"><a xlink:href="mpi_2blrm_2dqp3_8c.html" target="_top" xlink:title="src/backends/mpi/blrm\l/dqp3.c">
<polygon fill="white" stroke="black" points="4547.5,-6 4547.5,-36 4663.5,-36 4663.5,-6 4547.5,-6"/>
<text text-anchor="start" x="4555.5" y="-24" font-family="Helvetica,sans-Serif" font-size="10.00">src/backends/mpi/blrm</text>
<text text-anchor="middle" x="4605.5" y="-13" font-family="Helvetica,sans-Serif" font-size="10.00">/dqp3.c</text>
</a>
</g>
</g>
<!-- Node12&#45;&gt;Node29 -->
<g id="edge37" class="edge"><title>Node12&#45;&gt;Node29</title>
<path fill="none" stroke="midnightblue" d="M3165.86,-87.1575C3391.32,-87.5392 4266.69,-86.093 4538.5,-42 4547.01,-40.6199 4555.95,-38.467 4564.43,-36.076"/>
<polygon fill="midnightblue" stroke="midnightblue" points="3165.63,-83.6571 3155.62,-87.1381 3165.61,-90.6571 3165.63,-83.6571"/>
</g>
<!-- Node30 -->
<g id="node30" class="node"><title>Node30</title>
<g id="a_node30"><a xlink:href="mpi_2blrm_2drsdd_8c.html" target="_top" xlink:title="src/backends/mpi/blrm\l/drsdd.c">
<polygon fill="white" stroke="black" points="4681.5,-6 4681.5,-36 4797.5,-36 4797.5,-6 4681.5,-6"/>
<text text-anchor="start" x="4689.5" y="-24" font-family="Helvetica,sans-Serif" font-size="10.00">src/backends/mpi/blrm</text>
<text text-anchor="middle" x="4739.5" y="-13" font-family="Helvetica,sans-Serif" font-size="10.00">/drsdd.c</text>
</a>
</g>
</g>
<!-- Node12&#45;&gt;Node30 -->
<g id="edge38" class="edge"><title>Node12&#45;&gt;Node30</title>
<path fill="none" stroke="midnightblue" d="M3165.74,-87.3263C3403.91,-88.5007 4373,-90.1686 4672.5,-42 4681.01,-40.6314 4689.95,-38.4836 4698.43,-36.094"/>
<polygon fill="midnightblue" stroke="midnightblue" points="3165.62,-83.8258 3155.61,-87.2745 3165.59,-90.8257 3165.62,-83.8258"/>
</g>
<!-- Node31 -->
<g id="node31" class="node"><title>Node31</title>
<g id="a_node31"><a xlink:href="mpi_2blrm_2dfe_8c.html" target="_top" xlink:title="src/backends/mpi/blrm\l/dfe.c">
<polygon fill="white" stroke="black" points="4815.5,-6 4815.5,-36 4931.5,-36 4931.5,-6 4815.5,-6"/>
<text text-anchor="start" x="4823.5" y="-24" font-family="Helvetica,sans-Serif" font-size="10.00">src/backends/mpi/blrm</text>
<text text-anchor="middle" x="4873.5" y="-13" font-family="Helvetica,sans-Serif" font-size="10.00">/dfe.c</text>
</a>
</g>
</g>
<!-- Node12&#45;&gt;Node31 -->
<g id="edge39" class="edge"><title>Node12&#45;&gt;Node31</title>
<path fill="none" stroke="midnightblue" d="M3166.12,-86.4155C3436.24,-83.358 4641.56,-68.3337 4806.5,-42 4815.13,-40.622 4824.21,-38.4371 4832.79,-36.0082"/>
<polygon fill="midnightblue" stroke="midnightblue" points="3165.76,-82.9192 3155.8,-86.5316 3165.84,-89.9188 3165.76,-82.9192"/>
</g>
<!-- Node32 -->
<g id="node32" class="node"><title>Node32</title>
<g id="a_node32"><a xlink:href="mpi_2blrm_2dsdd_8c.html" target="_top" xlink:title="src/backends/mpi/blrm\l/dsdd.c">
<polygon fill="white" stroke="black" points="4949.5,-6 4949.5,-36 5065.5,-36 5065.5,-6 4949.5,-6"/>
<text text-anchor="start" x="4957.5" y="-24" font-family="Helvetica,sans-Serif" font-size="10.00">src/backends/mpi/blrm</text>
<text text-anchor="middle" x="5007.5" y="-13" font-family="Helvetica,sans-Serif" font-size="10.00">/dsdd.c</text>
</a>
</g>
</g>
<!-- Node12&#45;&gt;Node32 -->
<g id="edge40" class="edge"><title>Node12&#45;&gt;Node32</title>
<path fill="none" stroke="midnightblue" d="M3166.19,-86.527C3449.22,-83.9199 4761.64,-70.3789 4940.5,-42 4949.13,-40.6304 4958.21,-38.4492 4966.8,-36.0212"/>
<polygon fill="midnightblue" stroke="midnightblue" points="3165.76,-83.0307 3155.79,-86.6221 3165.82,-90.0304 3165.76,-83.0307"/>
</g>
<!-- Node33 -->
<g id="node33" class="node"><title>Node33</title>
<g id="a_node33"><a xlink:href="mpi_2blrm_2dmml_8c.html" target="_top" xlink:title="src/backends/mpi/blrm\l/dmml.c">
<polygon fill="white" stroke="black" points="5083.5,-6 5083.5,-36 5199.5,-36 5199.5,-6 5083.5,-6"/>
<text text-anchor="start" x="5091.5" y="-24" font-family="Helvetica,sans-Serif" font-size="10.00">src/backends/mpi/blrm</text>
<text text-anchor="middle" x="5141.5" y="-13" font-family="Helvetica,sans-Serif" font-size="10.00">/dmml.c</text>
</a>
</g>
</g>
<!-- Node12&#45;&gt;Node33 -->
<g id="edge41" class="edge"><title>Node12&#45;&gt;Node33</title>
<path fill="none" stroke="midnightblue" d="M3166.29,-86.6233C3461.81,-84.4394 4881.68,-72.4264 5074.5,-42 5083.13,-40.6377 5092.21,-38.4596 5100.8,-36.0324"/>
<polygon fill="midnightblue" stroke="midnightblue" points="3165.83,-83.1265 3155.85,-86.6998 3165.88,-90.1263 3165.83,-83.1265"/>
</g>
<!-- Node34 -->
<g id="node34" class="node"><title>Node34</title>
<g id="a_node34"><a xlink:href="mpi_2blrm_2dna_8c.html" target="_top" xlink:title="src/backends/mpi/blrm\l/dna.c">
<polygon fill="white" stroke="black" points="5217.5,-6 5217.5,-36 5333.5,-36 5333.5,-6 5217.5,-6"/>
<text text-anchor="start" x="5225.5" y="-24" font-family="Helvetica,sans-Serif" font-size="10.00">src/backends/mpi/blrm</text>
<text text-anchor="middle" x="5275.5" y="-13" font-family="Helvetica,sans-Serif" font-size="10.00">/dna.c</text>
</a>
</g>
</g>
<!-- Node12&#45;&gt;Node34 -->
<g id="edge42" class="edge"><title>Node12&#45;&gt;Node34</title>
<path fill="none" stroke="midnightblue" d="M3165.99,-86.7099C3472.69,-84.9323 5001.62,-74.4905 5208.5,-42 5217.13,-40.644 5226.21,-38.4687 5234.8,-36.0422"/>
<polygon fill="midnightblue" stroke="midnightblue" points="3165.57,-83.2121 3155.59,-86.7695 3165.61,-90.212 3165.57,-83.2121"/>
</g>
<!-- Node35 -->
<g id="node35" class="node"><title>Node35</title>
<g id="a_node35"><a xlink:href="mpi__starpu_2blrm_2dqp3_8c.html" target="_top" xlink:title="src/backends/mpi_starpu\l/blrm/dqp3.c">
<polygon fill="white" stroke="black" points="5351.5,-6 5351.5,-36 5477.5,-36 5477.5,-6 5351.5,-6"/>
<text text-anchor="start" x="5359.5" y="-24" font-family="Helvetica,sans-Serif" font-size="10.00">src/backends/mpi_starpu</text>
<text text-anchor="middle" x="5414.5" y="-13" font-family="Helvetica,sans-Serif" font-size="10.00">/blrm/dqp3.c</text>
</a>
</g>
</g>
<!-- Node12&#45;&gt;Node35 -->
<g id="edge43" class="edge"><title>Node12&#45;&gt;Node35</title>
<path fill="none" stroke="midnightblue" d="M3166.32,-86.7216C3485.3,-84.9642 5121.36,-74.4194 5342.5,-42 5351.74,-40.6451 5361.48,-38.4704 5370.71,-36.044"/>
<polygon fill="midnightblue" stroke="midnightblue" points="3165.95,-83.2235 3155.97,-86.7781 3165.99,-90.2234 3165.95,-83.2235"/>
</g>
<!-- Node36 -->
<g id="node36" class="node"><title>Node36</title>
<g id="a_node36"><a xlink:href="mpi__starpu_2blrm_2drsdd_8c.html" target="_top" xlink:title="src/backends/mpi_starpu\l/blrm/drsdd.c">
<polygon fill="white" stroke="black" points="5495.5,-6 5495.5,-36 5621.5,-36 5621.5,-6 5495.5,-6"/>
<text text-anchor="start" x="5503.5" y="-24" font-family="Helvetica,sans-Serif" font-size="10.00">src/backends/mpi_starpu</text>
<text text-anchor="middle" x="5558.5" y="-13" font-family="Helvetica,sans-Serif" font-size="10.00">/blrm/drsdd.c</text>
</a>
</g>
</g>
<!-- Node12&#45;&gt;Node36 -->
<g id="edge44" class="edge"><title>Node12&#45;&gt;Node36</title>
<path fill="none" stroke="midnightblue" d="M3166.08,-86.7935C3496.43,-85.4129 5250.19,-76.4954 5486.5,-42 5495.74,-40.6508 5505.48,-38.4785 5514.71,-36.0528"/>
<polygon fill="midnightblue" stroke="midnightblue" points="3165.81,-83.2945 3155.82,-86.8358 3165.84,-90.2944 3165.81,-83.2945"/>
</g>
<!-- Node37 -->
<g id="node37" class="node"><title>Node37</title>
<g id="a_node37"><a xlink:href="mpi__starpu_2blrm_2dsdd_8c.html" target="_top" xlink:title="src/backends/mpi_starpu\l/blrm/dsdd.c">
<polygon fill="white" stroke="black" points="5639.5,-6 5639.5,-36 5765.5,-36 5765.5,-6 5639.5,-6"/>
<text text-anchor="start" x="5647.5" y="-24" font-family="Helvetica,sans-Serif" font-size="10.00">src/backends/mpi_starpu</text>
<text text-anchor="middle" x="5702.5" y="-13" font-family="Helvetica,sans-Serif" font-size="10.00">/blrm/dsdd.c</text>
</a>
</g>
</g>
<!-- Node12&#45;&gt;Node37 -->
<g id="edge45" class="edge"><title>Node12&#45;&gt;Node37</title>
<path fill="none" stroke="midnightblue" d="M3165.78,-86.8569C3506.94,-85.8336 5378.98,-78.5763 5630.5,-42 5639.74,-40.6558 5649.48,-38.4857 5658.71,-36.0606"/>
<polygon fill="midnightblue" stroke="midnightblue" points="3165.66,-83.3572 3155.67,-86.8868 3165.68,-90.3571 3165.66,-83.3572"/>
</g>
<!-- Node38 -->
<g id="node38" class="node"><title>Node38</title>
<g id="a_node38"><a xlink:href="cg_8c.html" target="_top" xlink:title="src/itersolvers/cg.c">
<polygon fill="white" stroke="black" points="5783.5,-11.5 5783.5,-30.5 5883.5,-30.5 5883.5,-11.5 5783.5,-11.5"/>
<text text-anchor="middle" x="5833.5" y="-18.5" font-family="Helvetica,sans-Serif" font-size="10.00">src/itersolvers/cg.c</text>
</a>
</g>
</g>
<!-- Node12&#45;&gt;Node38 -->
<g id="edge46" class="edge"><title>Node12&#45;&gt;Node38</title>
<path fill="none" stroke="midnightblue" d="M3165.75,-87.0894C3518.18,-87.5503 5508.99,-88.0863 5774.5,-42 5787.82,-39.6879 5802.2,-34.8653 5813.43,-30.5352"/>
<polygon fill="midnightblue" stroke="midnightblue" points="3165.57,-83.5892 3155.56,-87.0755 3165.56,-90.5892 3165.57,-83.5892"/>
</g>
<!-- Node39 -->
<g id="node39" class="node"><title>Node39</title>
<g id="a_node39"><a xlink:href="common_8c.html" target="_top" xlink:title="src/applications/common.c">
<polygon fill="white" stroke="black" points="5901.5,-11.5 5901.5,-30.5 6035.5,-30.5 6035.5,-11.5 5901.5,-11.5"/>
<text text-anchor="middle" x="5968.5" y="-18.5" font-family="Helvetica,sans-Serif" font-size="10.00">src/applications/common.c</text>
</a>
</g>
</g>
<!-- Node12&#45;&gt;Node39 -->
<g id="edge47" class="edge"><title>Node12&#45;&gt;Node39</title>
<path fill="none" stroke="midnightblue" d="M3165.77,-86.9103C3527.14,-86.1996 5613.12,-80.4465 5892.5,-42 5909.4,-39.675 5927.91,-34.8521 5942.44,-30.525"/>
<polygon fill="midnightblue" stroke="midnightblue" points="3165.58,-83.4105 3155.59,-86.9299 3165.59,-90.4105 3165.58,-83.4105"/>
</g>
<!-- Node40 -->
<g id="node40" class="node"><title>Node40</title>
<g id="a_node40"><a xlink:href="spatial_8c.html" target="_top" xlink:title="src/applications/spatial.c">
<polygon fill="white" stroke="black" points="6054,-11.5 6054,-30.5 6179,-30.5 6179,-11.5 6054,-11.5"/>
<text text-anchor="middle" x="6116.5" y="-18.5" font-family="Helvetica,sans-Serif" font-size="10.00">src/applications/spatial.c</text>
</a>
</g>
</g>
<!-- Node12&#45;&gt;Node40 -->
<g id="edge48" class="edge"><title>Node12&#45;&gt;Node40</title>
<path fill="none" stroke="midnightblue" d="M3166.02,-87.0017C3539.44,-86.9053 5749.42,-84.5311 6044.5,-42 6060.55,-39.6866 6078.09,-34.864 6091.84,-30.5341"/>
<polygon fill="midnightblue" stroke="midnightblue" points="3165.76,-83.5017 3155.76,-87.0039 3165.76,-90.5017 3165.76,-83.5017"/>
</g>
<!-- Node41 -->
<g id="node41" class="node"><title>Node41</title>
<g id="a_node41"><a xlink:href="electrostatics_8c.html" target="_top" xlink:title="src/applications/electrostatics.c">
<polygon fill="white" stroke="black" points="6197,-11.5 6197,-30.5 6352,-30.5 6352,-11.5 6197,-11.5"/>
<text text-anchor="middle" x="6274.5" y="-18.5" font-family="Helvetica,sans-Serif" font-size="10.00">src/applications/electrostatics.c</text>
</a>
</g>
</g>
<!-- Node12&#45;&gt;Node41 -->
<g id="edge49" class="edge"><title>Node12&#45;&gt;Node41</title>
<path fill="none" stroke="midnightblue" d="M3165.88,-86.9075C3549.3,-86.1521 5877.3,-80.0172 6188.5,-42 6207.52,-39.6764 6228.47,-34.8536 6244.93,-30.5262"/>
<polygon fill="midnightblue" stroke="midnightblue" points="3165.62,-83.4079 3155.63,-86.9273 3165.63,-90.4079 3165.62,-83.4079"/>
</g>
<!-- Node42 -->
<g id="node42" class="node"><title>Node42</title>
<g id="a_node42"><a xlink:href="electrodynamics_8c.html" target="_top" xlink:title="src/applications/electrodynamics.c">
<polygon fill="white" stroke="black" points="6370,-11.5 6370,-30.5 6537,-30.5 6537,-11.5 6370,-11.5"/>
<text text-anchor="middle" x="6453.5" y="-18.5" font-family="Helvetica,sans-Serif" font-size="10.00">src/applications/electrodynamics.c</text>
</a>
</g>
</g>
<!-- Node12&#45;&gt;Node42 -->
<g id="edge50" class="edge"><title>Node12&#45;&gt;Node42</title>
<path fill="none" stroke="midnightblue" d="M3165.76,-86.9062C3561,-86.1252 6031.65,-79.7513 6361.5,-42 6381.8,-39.6768 6404.21,-34.8539 6421.83,-30.5264"/>
<polygon fill="midnightblue" stroke="midnightblue" points="3165.73,-83.4061 3155.74,-86.9256 3165.74,-90.4061 3165.73,-83.4061"/>
</g>
<!-- Node43 -->
<g id="node43" class="node"><title>Node43</title>
<g id="a_node43"><a xlink:href="randtlr_8c.html" target="_top" xlink:title="src/applications/randtlr.c">
<polygon fill="white" stroke="black" points="1212,-11.5 1212,-30.5 1335,-30.5 1335,-11.5 1212,-11.5"/>
<text text-anchor="middle" x="1273.5" y="-18.5" font-family="Helvetica,sans-Serif" font-size="10.00">src/applications/randtlr.c</text>
</a>
</g>
</g>
<!-- Node12&#45;&gt;Node43 -->
<g id="edge51" class="edge"><title>Node12&#45;&gt;Node43</title>
<path fill="none" stroke="midnightblue" d="M3059.23,-86.4343C2782.76,-83.3921 1517.41,-68.1353 1344.5,-42 1328.8,-39.6268 1311.65,-34.8603 1298.14,-30.5757"/>
<polygon fill="midnightblue" stroke="midnightblue" points="3059.37,-89.9359 3069.4,-86.5456 3059.44,-82.9363 3059.37,-89.9359"/>
</g>
<!-- Node44 -->
<g id="node44" class="node"><title>Node44</title>
<g id="a_node44"><a xlink:href="minimal_8c.html" target="_top" xlink:title="src/applications/minimal.c">
<polygon fill="white" stroke="black" points="1353.5,-11.5 1353.5,-30.5 1483.5,-30.5 1483.5,-11.5 1353.5,-11.5"/>
<text text-anchor="middle" x="1418.5" y="-18.5" font-family="Helvetica,sans-Serif" font-size="10.00">src/applications/minimal.c</text>
</a>
</g>
</g>
<!-- Node12&#45;&gt;Node44 -->
<g id="edge52" class="edge"><title>Node12&#45;&gt;Node44</title>
<path fill="none" stroke="midnightblue" d="M3059.26,-87.1836C2815.68,-87.7687 1805.89,-87.3598 1493.5,-42 1476.96,-39.5988 1458.85,-34.8314 1444.57,-30.5534"/>
<polygon fill="midnightblue" stroke="midnightblue" points="3059.29,-90.6836 3069.28,-87.1579 3059.27,-83.6837 3059.29,-90.6836"/>
</g>
<!-- Node45 -->
<g id="node45" class="node"><title>Node45</title>
<g id="a_node45"><a xlink:href="particles_8c.html" target="_top" xlink:title="src/applications/particles.c">
<polygon fill="white" stroke="black" points="1502,-11.5 1502,-30.5 1635,-30.5 1635,-11.5 1502,-11.5"/>
<text text-anchor="middle" x="1568.5" y="-18.5" font-family="Helvetica,sans-Serif" font-size="10.00">src/applications/particles.c</text>
</a>
</g>
</g>
<!-- Node12&#45;&gt;Node45 -->
<g id="edge53" class="edge"><title>Node12&#45;&gt;Node45</title>
<path fill="none" stroke="midnightblue" d="M3059.1,-86.9823C2829.55,-86.6573 1925.64,-82.7619 1644.5,-42 1627.76,-39.5725 1609.4,-34.8042 1594.93,-30.5324"/>
<polygon fill="midnightblue" stroke="midnightblue" points="3059.19,-90.4824 3069.2,-86.9949 3059.2,-83.4824 3059.19,-90.4824"/>
</g>
<!-- Node46 -->
<g id="node46" class="node"><title>Node46</title>
<g id="a_node46"><a xlink:href="cauchy_8c.html" target="_top" xlink:title="src/applications/cauchy.c">
<polygon fill="white" stroke="black" points="1653.5,-11.5 1653.5,-30.5 1781.5,-30.5 1781.5,-11.5 1653.5,-11.5"/>
<text text-anchor="middle" x="1717.5" y="-18.5" font-family="Helvetica,sans-Serif" font-size="10.00">src/applications/cauchy.c</text>
</a>
</g>
</g>
<!-- Node12&#45;&gt;Node46 -->
<g id="edge54" class="edge"><title>Node12&#45;&gt;Node46</title>
<path fill="none" stroke="midnightblue" d="M3059.21,-86.8432C2844.37,-85.9552 2041.39,-80.1026 1790.5,-42 1774.39,-39.5534 1756.76,-34.7846 1742.86,-30.5172"/>
<polygon fill="midnightblue" stroke="midnightblue" points="3059.27,-90.3434 3069.29,-86.883 3059.3,-83.3435 3059.27,-90.3434"/>
</g>
<!-- Node47 -->
<g id="node47" class="node"><title>Node47</title>
<g id="a_node47"><a xlink:href="kernel__sin__nd_8c.html" target="_top" xlink:title="build/src/applications\l/electrodynamics/kernel\l_sin_nd.c">
<polygon fill="white" stroke="black" points="1799.5,-0.5 1799.5,-41.5 1919.5,-41.5 1919.5,-0.5 1799.5,-0.5"/>
<text text-anchor="start" x="1807.5" y="-29.5" font-family="Helvetica,sans-Serif" font-size="10.00">build/src/applications</text>
<text text-anchor="start" x="1807.5" y="-18.5" font-family="Helvetica,sans-Serif" font-size="10.00">/electrodynamics/kernel</text>
<text text-anchor="middle" x="1859.5" y="-7.5" font-family="Helvetica,sans-Serif" font-size="10.00">_sin_nd.c</text>
</a>
</g>
</g>
<!-- Node12&#45;&gt;Node47 -->
<g id="edge55" class="edge"><title>Node12&#45;&gt;Node47</title>
<path fill="none" stroke="midnightblue" d="M3058.93,-86.6982C2858.19,-85.2978 2150.7,-77.8711 1928.5,-42 1925.54,-41.5229 1922.54,-40.9595 1919.51,-40.3302"/>
<polygon fill="midnightblue" stroke="midnightblue" points="3059.19,-90.1999 3069.21,-86.7677 3059.24,-83.2001 3059.19,-90.1999"/>
</g>
<!-- Node48 -->
<g id="node48" class="node"><title>Node48</title>
<g id="a_node48"><a xlink:href="kernel__sin__1d_8c.html" target="_top" xlink:title="build/src/applications\l/electrodynamics/kernel\l_sin_1d.c">
<polygon fill="white" stroke="black" points="1937.5,-0.5 1937.5,-41.5 2057.5,-41.5 2057.5,-0.5 1937.5,-0.5"/>
<text text-anchor="start" x="1945.5" y="-29.5" font-family="Helvetica,sans-Serif" font-size="10.00">build/src/applications</text>
<text text-anchor="start" x="1945.5" y="-18.5" font-family="Helvetica,sans-Serif" font-size="10.00">/electrodynamics/kernel</text>
<text text-anchor="middle" x="1997.5" y="-7.5" font-family="Helvetica,sans-Serif" font-size="10.00">_sin_1d.c</text>
</a>
</g>
</g>
<!-- Node12&#45;&gt;Node48 -->
<g id="edge56" class="edge"><title>Node12&#45;&gt;Node48</title>
<path fill="none" stroke="midnightblue" d="M3059.43,-86.392C2874.71,-84.0146 2260.69,-73.8492 2066.5,-42 2063.55,-41.5155 2060.54,-40.9461 2057.52,-40.312"/>
<polygon fill="midnightblue" stroke="midnightblue" points="3059.39,-89.8918 3069.44,-86.5186 3059.48,-82.8924 3059.39,-89.8918"/>
</g>
<!-- Node49 -->
<g id="node49" class="node"><title>Node49</title>
<g id="a_node49"><a xlink:href="kernel__sin__2d_8c.html" target="_top" xlink:title="build/src/applications\l/electrodynamics/kernel\l_sin_2d.c">
<polygon fill="white" stroke="black" points="2075.5,-0.5 2075.5,-41.5 2195.5,-41.5 2195.5,-0.5 2075.5,-0.5"/>
<text text-anchor="start" x="2083.5" y="-29.5" font-family="Helvetica,sans-Serif" font-size="10.00">build/src/applications</text>
<text text-anchor="start" x="2083.5" y="-18.5" font-family="Helvetica,sans-Serif" font-size="10.00">/electrodynamics/kernel</text>
<text text-anchor="middle" x="2135.5" y="-7.5" font-family="Helvetica,sans-Serif" font-size="10.00">_sin_2d.c</text>
</a>
</g>
</g>
<!-- Node12&#45;&gt;Node49 -->
<g id="edge57" class="edge"><title>Node12&#45;&gt;Node49</title>
<path fill="none" stroke="midnightblue" d="M3059.25,-85.986C2890.76,-82.5218 2370.6,-69.7986 2204.5,-42 2201.55,-41.5059 2198.54,-40.9287 2195.52,-40.2882"/>
<polygon fill="midnightblue" stroke="midnightblue" points="3059.3,-89.4875 3069.37,-86.1915 3059.44,-82.489 3059.3,-89.4875"/>
</g>
<!-- Node50 -->
<g id="node50" class="node"><title>Node50</title>
<g id="a_node50"><a xlink:href="kernel__sin__3d_8c.html" target="_top" xlink:title="build/src/applications\l/electrodynamics/kernel\l_sin_3d.c">
<polygon fill="white" stroke="black" points="2213.5,-0.5 2213.5,-41.5 2333.5,-41.5 2333.5,-0.5 2213.5,-0.5"/>
<text text-anchor="start" x="2221.5" y="-29.5" font-family="Helvetica,sans-Serif" font-size="10.00">build/src/applications</text>
<text text-anchor="start" x="2221.5" y="-18.5" font-family="Helvetica,sans-Serif" font-size="10.00">/electrodynamics/kernel</text>
<text text-anchor="middle" x="2273.5" y="-7.5" font-family="Helvetica,sans-Serif" font-size="10.00">_sin_3d.c</text>
</a>
</g>
</g>
<!-- Node12&#45;&gt;Node50 -->
<g id="edge58" class="edge"><title>Node12&#45;&gt;Node50</title>
<path fill="none" stroke="midnightblue" d="M3058.61,-85.4194C2907.29,-80.7317 2480.56,-65.7348 2342.5,-42 2339.55,-41.4928 2336.55,-40.905 2333.53,-40.2561"/>
<polygon fill="midnightblue" stroke="midnightblue" points="3058.92,-88.9304 3069.02,-85.7391 3059.13,-81.9337 3058.92,-88.9304"/>
</g>
</g>
</svg>
