<?xml version="1.0" encoding="UTF-8" standalone="no"?>
<!DOCTYPE svg PUBLIC "-//W3C//DTD SVG 1.1//EN"
 "http://www.w3.org/Graphics/SVG/1.1/DTD/svg11.dtd">
<!-- Generated by graphviz version 2.38.0 (20140413.2041)
 -->
<!-- Title: include/starsh&#45;particles.h Pages: 1 -->
<svg width="6176pt" height="162pt"
 viewBox="0.00 0.00 6175.50 162.00" xmlns="http://www.w3.org/2000/svg" xmlns:xlink="http://www.w3.org/1999/xlink">
<g id="graph0" class="graph" transform="scale(1 1) rotate(0) translate(4 158)">
<title>include/starsh&#45;particles.h</title>
<polygon fill="white" stroke="none" points="-4,4 -4,-158 6171.5,-158 6171.5,4 -4,4"/>
<!-- Node10 -->
<g id="node1" class="node"><title>Node10</title>
<polygon fill="#bfbfbf" stroke="black" points="4178,-134.5 4178,-153.5 4303,-153.5 4303,-134.5 4178,-134.5"/>
<text text-anchor="middle" x="4240.5" y="-141.5" font-family="Helvetica,sans-Serif" font-size="10.00">include/starsh&#45;particles.h</text>
</g>
<!-- Node11 -->
<g id="node2" class="node"><title>Node11</title>
<g id="a_node2"><a xlink:href="particles_8c.html" target="_top" xlink:title="src/applications/particles.c">
<polygon fill="white" stroke="black" points="1635,-78.5 1635,-97.5 1768,-97.5 1768,-78.5 1635,-78.5"/>
<text text-anchor="middle" x="1701.5" y="-85.5" font-family="Helvetica,sans-Serif" font-size="10.00">src/applications/particles.c</text>
</a>
</g>
</g>
<!-- Node10&#45;&gt;Node11 -->
<g id="edge1" class="edge"><title>Node10&#45;&gt;Node11</title>
<path fill="none" stroke="midnightblue" d="M4167.76,-142.666C3812.72,-140.884 2259.27,-131.289 1776.5,-98 1773.75,-97.8106 1770.95,-97.5916 1768.12,-97.3493"/>
<polygon fill="midnightblue" stroke="midnightblue" points="4167.9,-146.167 4177.92,-142.716 4167.93,-139.167 4167.9,-146.167"/>
</g>
<!-- Node12 -->
<g id="node3" class="node"><title>Node12</title>
<g id="a_node3"><a xlink:href="starsh-spatial_8h.html" target="_top" xlink:title="include/starsh&#45;spatial.h">
<polygon fill="white" stroke="black" points="1786,-78.5 1786,-97.5 1903,-97.5 1903,-78.5 1786,-78.5"/>
<text text-anchor="middle" x="1844.5" y="-85.5" font-family="Helvetica,sans-Serif" font-size="10.00">include/starsh&#45;spatial.h</text>
</a>
</g>
</g>
<!-- Node10&#45;&gt;Node12 -->
<g id="edge2" class="edge"><title>Node10&#45;&gt;Node12</title>
<path fill="none" stroke="midnightblue" d="M4167.94,-141.365C3809.12,-133.278 2228.57,-97.6559 1903.19,-90.3228"/>
<polygon fill="midnightblue" stroke="midnightblue" points="4167.87,-144.864 4177.95,-141.59 4168.03,-137.866 4167.87,-144.864"/>
</g>
<!-- Node36 -->
<g id="node27" class="node"><title>Node36</title>
<g id="a_node27"><a xlink:href="starsh-rbf_8h.html" target="_top" xlink:title="include/starsh&#45;rbf.h">
<polygon fill="white" stroke="black" points="3525.5,-78.5 3525.5,-97.5 3625.5,-97.5 3625.5,-78.5 3525.5,-78.5"/>
<text text-anchor="middle" x="3575.5" y="-85.5" font-family="Helvetica,sans-Serif" font-size="10.00">include/starsh&#45;rbf.h</text>
</a>
</g>
</g>
<!-- Node10&#45;&gt;Node36 -->
<g id="edge26" class="edge"><title>Node10&#45;&gt;Node36</title>
<path fill="none" stroke="midnightblue" d="M4167.63,-137.083C4031.65,-126.04 3742.48,-102.559 3625.84,-93.0874"/>
<polygon fill="midnightblue" stroke="midnightblue" points="4167.69,-140.599 4177.94,-137.92 4168.25,-133.622 4167.69,-140.599"/>
</g>
<!-- Node40 -->
<g id="node31" class="node"><title>Node40</title>
<g id="a_node31"><a xlink:href="starsh-electrostatics_8h.html" target="_top" xlink:title="include/starsh&#45;electrostatics.h">
<polygon fill="white" stroke="black" points="4167,-78.5 4167,-97.5 4314,-97.5 4314,-78.5 4167,-78.5"/>
<text text-anchor="middle" x="4240.5" y="-85.5" font-family="Helvetica,sans-Serif" font-size="10.00">include/starsh&#45;electrostatics.h</text>
</a>
</g>
</g>
<!-- Node10&#45;&gt;Node40 -->
<g id="edge30" class="edge"><title>Node10&#45;&gt;Node40</title>
<path fill="none" stroke="midnightblue" d="M4240.5,-123.805C4240.5,-114.91 4240.5,-104.78 4240.5,-97.7511"/>
<polygon fill="midnightblue" stroke="midnightblue" points="4237,-124.083 4240.5,-134.083 4244,-124.083 4237,-124.083"/>
</g>
<!-- Node47 -->
<g id="node38" class="node"><title>Node47</title>
<g id="a_node38"><a xlink:href="starsh-electrodynamics_8h.html" target="_top" xlink:title="include/starsh&#45;electrodynamics.h">
<polygon fill="white" stroke="red" points="5153.5,-78.5 5153.5,-97.5 5313.5,-97.5 5313.5,-78.5 5153.5,-78.5"/>
<text text-anchor="middle" x="5233.5" y="-85.5" font-family="Helvetica,sans-Serif" font-size="10.00">include/starsh&#45;electrodynamics.h</text>
</a>
</g>
</g>
<!-- Node10&#45;&gt;Node47 -->
<g id="edge38" class="edge"><title>Node10&#45;&gt;Node47</title>
<path fill="none" stroke="midnightblue" d="M4313.6,-139.025C4495.02,-129.159 4964.76,-103.614 5153.37,-93.3573"/>
<polygon fill="midnightblue" stroke="midnightblue" points="4313.17,-135.543 4303.37,-139.581 4313.55,-142.533 4313.17,-135.543"/>
</g>
<!-- Node59 -->
<g id="node49" class="node"><title>Node59</title>
<g id="a_node49"><a xlink:href="starsh-cauchy_8h_source.html" target="_top" xlink:title="include/starsh&#45;cauchy.h">
<polygon fill="white" stroke="red" points="4473.5,-78.5 4473.5,-97.5 4593.5,-97.5 4593.5,-78.5 4473.5,-78.5"/>
<text text-anchor="middle" x="4533.5" y="-85.5" font-family="Helvetica,sans-Serif" font-size="10.00">include/starsh&#45;cauchy.h</text>
</a>
</g>
</g>
<!-- Node10&#45;&gt;Node59 -->
<g id="edge50" class="edge"><title>Node10&#45;&gt;Node59</title>
<path fill="none" stroke="midnightblue" d="M4296.93,-132.601C4352.3,-122.395 4435.73,-107.019 4487.29,-97.5164"/>
<polygon fill="midnightblue" stroke="midnightblue" points="4296.13,-129.189 4286.93,-134.444 4297.4,-136.073 4296.13,-129.189"/>
</g>
<!-- Node61 -->
<g id="node50" class="node"><title>Node61</title>
<g id="a_node50"><a xlink:href="starsh-acoustic_8h.html" target="_top" xlink:title="include/starsh&#45;acoustic.h">
<polygon fill="white" stroke="red" points="5332,-78.5 5332,-97.5 5457,-97.5 5457,-78.5 5332,-78.5"/>
<text text-anchor="middle" x="5394.5" y="-85.5" font-family="Helvetica,sans-Serif" font-size="10.00">include/starsh&#45;acoustic.h</text>
</a>
</g>
</g>
<!-- Node10&#45;&gt;Node61 -->
<g id="edge52" class="edge"><title>Node10&#45;&gt;Node61</title>
<path fill="none" stroke="midnightblue" d="M4313.21,-142.053C4487.61,-139.328 4943.38,-129.524 5322.5,-98 5325.51,-97.7495 5328.59,-97.4668 5331.7,-97.1603"/>
<polygon fill="midnightblue" stroke="midnightblue" points="4313.07,-138.554 4303.12,-142.207 4313.17,-145.554 4313.07,-138.554"/>
</g>
<!-- Node13 -->
<g id="node4" class="node"><title>Node13</title>
<g id="a_node4"><a xlink:href="starpu__kblas3__spatial_2blrm_2drsdd_8c.html" target="_top" xlink:title="src/backends/starpu\l_kblas3_spatial/blrm\l/drsdd.c">
<polygon fill="white" stroke="black" points="955.5,-0.5 955.5,-41.5 1061.5,-41.5 1061.5,-0.5 955.5,-0.5"/>
<text text-anchor="start" x="963.5" y="-29.5" font-family="Helvetica,sans-Serif" font-size="10.00">src/backends/starpu</text>
<text text-anchor="start" x="963.5" y="-18.5" font-family="Helvetica,sans-Serif" font-size="10.00">_kblas3_spatial/blrm</text>
<text text-anchor="middle" x="1008.5" y="-7.5" font-family="Helvetica,sans-Serif" font-size="10.00">/drsdd.c</text>
</a>
</g>
</g>
<!-- Node12&#45;&gt;Node13 -->
<g id="edge3" class="edge"><title>Node12&#45;&gt;Node13</title>
<path fill="none" stroke="midnightblue" d="M1775.62,-78.0169C1461.79,-50.4127 1376.21,-98.1013 1070.5,-42 1067.61,-41.4692 1064.66,-40.84 1061.71,-40.1377"/>
<polygon fill="midnightblue" stroke="midnightblue" points="1775.66,-81.5338 1785.93,-78.943 1776.28,-74.5619 1775.66,-81.5338"/>
</g>
<!-- Node14 -->
<g id="node5" class="node"><title>Node14</title>
<g id="a_node5"><a xlink:href="common_8c.html" target="_top" xlink:title="src/applications/common.c">
<polygon fill="white" stroke="black" points="4607.5,-11.5 4607.5,-30.5 4741.5,-30.5 4741.5,-11.5 4607.5,-11.5"/>
<text text-anchor="middle" x="4674.5" y="-18.5" font-family="Helvetica,sans-Serif" font-size="10.00">src/applications/common.c</text>
</a>
</g>
</g>
<!-- Node12&#45;&gt;Node14 -->
<g id="edge4" class="edge"><title>Node12&#45;&gt;Node14</title>
<path fill="none" stroke="midnightblue" d="M1913.45,-86.8671C2313.28,-85.9639 4325.64,-79.5699 4598.5,-42 4615.4,-39.6737 4633.91,-34.8508 4648.44,-30.524"/>
<polygon fill="midnightblue" stroke="midnightblue" points="1913.19,-83.3675 1903.2,-86.8898 1913.21,-90.3675 1913.19,-83.3675"/>
</g>
<!-- Node15 -->
<g id="node6" class="node"><title>Node15</title>
<g id="a_node6"><a xlink:href="spatial_8c.html" target="_top" xlink:title="src/applications/spatial.c">
<polygon fill="white" stroke="black" points="1080,-11.5 1080,-30.5 1205,-30.5 1205,-11.5 1080,-11.5"/>
<text text-anchor="middle" x="1142.5" y="-18.5" font-family="Helvetica,sans-Serif" font-size="10.00">src/applications/spatial.c</text>
</a>
</g>
</g>
<!-- Node12&#45;&gt;Node15 -->
<g id="edge5" class="edge"><title>Node12&#45;&gt;Node15</title>
<path fill="none" stroke="midnightblue" d="M1775.8,-78.0147C1525.63,-54.3485 1458.03,-83.1675 1214.5,-42 1198.89,-39.3619 1181.81,-34.696 1168.2,-30.5342"/>
<polygon fill="midnightblue" stroke="midnightblue" points="1775.63,-81.5149 1785.92,-78.9916 1776.31,-74.5473 1775.63,-81.5149"/>
</g>
<!-- Node16 -->
<g id="node7" class="node"><title>Node16</title>
<g id="a_node7"><a xlink:href="kernel__exp__nd_8c.html" target="_top" xlink:title="build/src/applications\l/spatial/kernel_exp_nd.c">
<polygon fill="white" stroke="black" points="1223.5,-6 1223.5,-36 1345.5,-36 1345.5,-6 1223.5,-6"/>
<text text-anchor="start" x="1231.5" y="-24" font-family="Helvetica,sans-Serif" font-size="10.00">build/src/applications</text>
<text text-anchor="middle" x="1284.5" y="-13" font-family="Helvetica,sans-Serif" font-size="10.00">/spatial/kernel_exp_nd.c</text>
</a>
</g>
</g>
<!-- Node12&#45;&gt;Node16 -->
<g id="edge6" class="edge"><title>Node12&#45;&gt;Node16</title>
<path fill="none" stroke="midnightblue" d="M1775.97,-78.0064C1587.63,-58.2579 1536.47,-75.4336 1354.5,-42 1346.05,-40.4469 1337.15,-38.3078 1328.63,-36.0035"/>
<polygon fill="midnightblue" stroke="midnightblue" points="1775.6,-81.4871 1785.92,-79.0704 1776.34,-74.5268 1775.6,-81.4871"/>
</g>
<!-- Node17 -->
<g id="node8" class="node"><title>Node17</title>
<g id="a_node8"><a xlink:href="kernel__exp__1d_8c.html" target="_top" xlink:title="build/src/applications\l/spatial/kernel_exp_1d.c">
<polygon fill="white" stroke="black" points="1363.5,-6 1363.5,-36 1485.5,-36 1485.5,-6 1363.5,-6"/>
<text text-anchor="start" x="1371.5" y="-24" font-family="Helvetica,sans-Serif" font-size="10.00">build/src/applications</text>
<text text-anchor="middle" x="1424.5" y="-13" font-family="Helvetica,sans-Serif" font-size="10.00">/spatial/kernel_exp_1d.c</text>
</a>
</g>
</g>
<!-- Node12&#45;&gt;Node17 -->
<g id="edge7" class="edge"><title>Node12&#45;&gt;Node17</title>
<path fill="none" stroke="midnightblue" d="M1775.83,-77.9361C1649.47,-61.9811 1615.12,-66.7827 1494.5,-42 1486.45,-40.3466 1477.98,-38.2435 1469.81,-36.0256"/>
<polygon fill="midnightblue" stroke="midnightblue" points="1775.53,-81.4265 1785.9,-79.2263 1776.42,-74.4833 1775.53,-81.4265"/>
</g>
<!-- Node18 -->
<g id="node9" class="node"><title>Node18</title>
<g id="a_node9"><a xlink:href="kernel__exp__2d_8c.html" target="_top" xlink:title="build/src/applications\l/spatial/kernel_exp_2d.c">
<polygon fill="white" stroke="black" points="1503.5,-6 1503.5,-36 1625.5,-36 1625.5,-6 1503.5,-6"/>
<text text-anchor="start" x="1511.5" y="-24" font-family="Helvetica,sans-Serif" font-size="10.00">build/src/applications</text>
<text text-anchor="middle" x="1564.5" y="-13" font-family="Helvetica,sans-Serif" font-size="10.00">/spatial/kernel_exp_2d.c</text>
</a>
</g>
</g>
<!-- Node12&#45;&gt;Node18 -->
<g id="edge8" class="edge"><title>Node12&#45;&gt;Node18</title>
<path fill="none" stroke="midnightblue" d="M1790.59,-76.4863C1748.03,-67.9369 1687.25,-55.171 1634.5,-42 1627.27,-40.1934 1619.65,-38.1573 1612.21,-36.0933"/>
<polygon fill="midnightblue" stroke="midnightblue" points="1789.97,-79.9312 1800.46,-78.4593 1791.34,-73.067 1789.97,-79.9312"/>
</g>
<!-- Node19 -->
<g id="node10" class="node"><title>Node19</title>
<g id="a_node10"><a xlink:href="kernel__exp__3d_8c.html" target="_top" xlink:title="build/src/applications\l/spatial/kernel_exp_3d.c">
<polygon fill="white" stroke="black" points="1643.5,-6 1643.5,-36 1765.5,-36 1765.5,-6 1643.5,-6"/>
<text text-anchor="start" x="1651.5" y="-24" font-family="Helvetica,sans-Serif" font-size="10.00">build/src/applications</text>
<text text-anchor="middle" x="1704.5" y="-13" font-family="Helvetica,sans-Serif" font-size="10.00">/spatial/kernel_exp_3d.c</text>
</a>
</g>
</g>
<!-- Node12&#45;&gt;Node19 -->
<g id="edge9" class="edge"><title>Node12&#45;&gt;Node19</title>
<path fill="none" stroke="midnightblue" d="M1816.76,-74.1206C1793.08,-63.1252 1759.08,-47.3413 1734.71,-36.0281"/>
<polygon fill="midnightblue" stroke="midnightblue" points="1815.37,-77.3319 1825.91,-78.3685 1818.31,-70.9828 1815.37,-77.3319"/>
</g>
<!-- Node20 -->
<g id="node11" class="node"><title>Node20</title>
<g id="a_node11"><a xlink:href="kernel__exp__4d_8c.html" target="_top" xlink:title="build/src/applications\l/spatial/kernel_exp_4d.c">
<polygon fill="white" stroke="black" points="1783.5,-6 1783.5,-36 1905.5,-36 1905.5,-6 1783.5,-6"/>
<text text-anchor="start" x="1791.5" y="-24" font-family="Helvetica,sans-Serif" font-size="10.00">build/src/applications</text>
<text text-anchor="middle" x="1844.5" y="-13" font-family="Helvetica,sans-Serif" font-size="10.00">/spatial/kernel_exp_4d.c</text>
</a>
</g>
</g>
<!-- Node12&#45;&gt;Node20 -->
<g id="edge10" class="edge"><title>Node12&#45;&gt;Node20</title>
<path fill="none" stroke="midnightblue" d="M1844.5,-67.9107C1844.5,-57.722 1844.5,-45.401 1844.5,-36.089"/>
<polygon fill="midnightblue" stroke="midnightblue" points="1841,-68.2338 1844.5,-78.2338 1848,-68.2338 1841,-68.2338"/>
</g>
<!-- Node21 -->
<g id="node12" class="node"><title>Node21</title>
<g id="a_node12"><a xlink:href="kernel__sqrexp__nd_8c.html" target="_top" xlink:title="build/src/applications\l/spatial/kernel_sqrexp_nd.c">
<polygon fill="white" stroke="black" points="1923.5,-6 1923.5,-36 2059.5,-36 2059.5,-6 1923.5,-6"/>
<text text-anchor="start" x="1931.5" y="-24" font-family="Helvetica,sans-Serif" font-size="10.00">build/src/applications</text>
<text text-anchor="middle" x="1991.5" y="-13" font-family="Helvetica,sans-Serif" font-size="10.00">/spatial/kernel_sqrexp_nd.c</text>
</a>
</g>
</g>
<!-- Node12&#45;&gt;Node21 -->
<g id="edge11" class="edge"><title>Node12&#45;&gt;Node21</title>
<path fill="none" stroke="midnightblue" d="M1873.3,-74.267C1898.18,-63.2656 1934.08,-47.3916 1959.77,-36.0281"/>
<polygon fill="midnightblue" stroke="midnightblue" points="1871.75,-71.1234 1864.02,-78.3685 1874.58,-77.5254 1871.75,-71.1234"/>
</g>
<!-- Node22 -->
<g id="node13" class="node"><title>Node22</title>
<g id="a_node13"><a xlink:href="kernel__sqrexp__1d_8c.html" target="_top" xlink:title="build/src/applications\l/spatial/kernel_sqrexp_1d.c">
<polygon fill="white" stroke="black" points="2077.5,-6 2077.5,-36 2213.5,-36 2213.5,-6 2077.5,-6"/>
<text text-anchor="start" x="2085.5" y="-24" font-family="Helvetica,sans-Serif" font-size="10.00">build/src/applications</text>
<text text-anchor="middle" x="2145.5" y="-13" font-family="Helvetica,sans-Serif" font-size="10.00">/spatial/kernel_sqrexp_1d.c</text>
</a>
</g>
</g>
<!-- Node12&#45;&gt;Node22 -->
<g id="edge12" class="edge"><title>Node12&#45;&gt;Node22</title>
<path fill="none" stroke="midnightblue" d="M1900.94,-76.5657C1946.35,-67.9541 2011.72,-55.0669 2068.5,-42 2076.44,-40.1725 2084.81,-38.125 2092.99,-36.0561"/>
<polygon fill="midnightblue" stroke="midnightblue" points="1900.17,-73.1494 1890.99,-78.4445 1901.47,-80.0278 1900.17,-73.1494"/>
</g>
<!-- Node23 -->
<g id="node14" class="node"><title>Node23</title>
<g id="a_node14"><a xlink:href="kernel__sqrexp__2d_8c.html" target="_top" xlink:title="build/src/applications\l/spatial/kernel_sqrexp_2d.c">
<polygon fill="white" stroke="black" points="2231.5,-6 2231.5,-36 2367.5,-36 2367.5,-6 2231.5,-6"/>
<text text-anchor="start" x="2239.5" y="-24" font-family="Helvetica,sans-Serif" font-size="10.00">build/src/applications</text>
<text text-anchor="middle" x="2299.5" y="-13" font-family="Helvetica,sans-Serif" font-size="10.00">/spatial/kernel_sqrexp_2d.c</text>
</a>
</g>
</g>
<!-- Node12&#45;&gt;Node23 -->
<g id="edge13" class="edge"><title>Node12&#45;&gt;Node23</title>
<path fill="none" stroke="midnightblue" d="M1913.56,-81.6111C1989.67,-75.0151 2115.5,-62.1682 2222.5,-42 2231.32,-40.3371 2240.63,-38.2292 2249.6,-36.0096"/>
<polygon fill="midnightblue" stroke="midnightblue" points="1912.82,-78.1612 1903.15,-82.5004 1913.42,-85.1358 1912.82,-78.1612"/>
</g>
<!-- Node24 -->
<g id="node15" class="node"><title>Node24</title>
<g id="a_node15"><a xlink:href="kernel__sqrexp__3d_8c.html" target="_top" xlink:title="build/src/applications\l/spatial/kernel_sqrexp_3d.c">
<polygon fill="white" stroke="black" points="2385.5,-6 2385.5,-36 2521.5,-36 2521.5,-6 2385.5,-6"/>
<text text-anchor="start" x="2393.5" y="-24" font-family="Helvetica,sans-Serif" font-size="10.00">build/src/applications</text>
<text text-anchor="middle" x="2453.5" y="-13" font-family="Helvetica,sans-Serif" font-size="10.00">/spatial/kernel_sqrexp_3d.c</text>
</a>
</g>
</g>
<!-- Node12&#45;&gt;Node24 -->
<g id="edge14" class="edge"><title>Node12&#45;&gt;Node24</title>
<path fill="none" stroke="midnightblue" d="M1913.32,-84.9078C2015.17,-80.9713 2211.76,-70.1526 2376.5,-42 2385.62,-40.4412 2395.24,-38.3284 2404.48,-36.0584"/>
<polygon fill="midnightblue" stroke="midnightblue" points="1913.03,-81.4162 1903.16,-85.2895 1913.29,-88.4113 1913.03,-81.4162"/>
</g>
<!-- Node25 -->
<g id="node16" class="node"><title>Node25</title>
<g id="a_node16"><a xlink:href="kernel__sqrexp__4d_8c.html" target="_top" xlink:title="build/src/applications\l/spatial/kernel_sqrexp_4d.c">
<polygon fill="white" stroke="black" points="2539.5,-6 2539.5,-36 2675.5,-36 2675.5,-6 2539.5,-6"/>
<text text-anchor="start" x="2547.5" y="-24" font-family="Helvetica,sans-Serif" font-size="10.00">build/src/applications</text>
<text text-anchor="middle" x="2607.5" y="-13" font-family="Helvetica,sans-Serif" font-size="10.00">/spatial/kernel_sqrexp_4d.c</text>
</a>
</g>
</g>
<!-- Node12&#45;&gt;Node25 -->
<g id="edge15" class="edge"><title>Node12&#45;&gt;Node25</title>
<path fill="none" stroke="midnightblue" d="M1913.31,-86.7631C2037.44,-85.3885 2306.72,-78.0703 2530.5,-42 2539.77,-40.5054 2549.55,-38.3937 2558.91,-36.0982"/>
<polygon fill="midnightblue" stroke="midnightblue" points="1913.15,-83.2644 1903.19,-86.8654 1913.23,-90.264 1913.15,-83.2644"/>
</g>
<!-- Node26 -->
<g id="node17" class="node"><title>Node26</title>
<g id="a_node17"><a xlink:href="kernel__matern__nd_8c.html" target="_top" xlink:title="build/src/applications\l/spatial/kernel_matern_nd.c">
<polygon fill="white" stroke="black" points="2694,-6 2694,-36 2831,-36 2831,-6 2694,-6"/>
<text text-anchor="start" x="2702" y="-24" font-family="Helvetica,sans-Serif" font-size="10.00">build/src/applications</text>
<text text-anchor="middle" x="2762.5" y="-13" font-family="Helvetica,sans-Serif" font-size="10.00">/spatial/kernel_matern_nd.c</text>
</a>
</g>
</g>
<!-- Node12&#45;&gt;Node26 -->
<g id="edge16" class="edge"><title>Node12&#45;&gt;Node26</title>
<path fill="none" stroke="midnightblue" d="M1913.23,-87.8891C2057.2,-88.7509 2400.62,-85.5608 2684.5,-42 2694.03,-40.537 2704.1,-38.4096 2713.71,-36.0824"/>
<polygon fill="midnightblue" stroke="midnightblue" points="1913.23,-84.3892 1903.21,-87.8206 1913.19,-91.389 1913.23,-84.3892"/>
</g>
<!-- Node27 -->
<g id="node18" class="node"><title>Node27</title>
<g id="a_node18"><a xlink:href="kernel__matern__1d_8c.html" target="_top" xlink:title="build/src/applications\l/spatial/kernel_matern_1d.c">
<polygon fill="white" stroke="black" points="2849,-6 2849,-36 2986,-36 2986,-6 2849,-6"/>
<text text-anchor="start" x="2857" y="-24" font-family="Helvetica,sans-Serif" font-size="10.00">build/src/applications</text>
<text text-anchor="middle" x="2917.5" y="-13" font-family="Helvetica,sans-Serif" font-size="10.00">/spatial/kernel_matern_1d.c</text>
</a>
</g>
</g>
<!-- Node12&#45;&gt;Node27 -->
<g id="edge17" class="edge"><title>Node12&#45;&gt;Node27</title>
<path fill="none" stroke="midnightblue" d="M1913.32,-85.7309C2108.05,-81.8469 2660.35,-68.7279 2839.5,-42 2849.18,-40.556 2859.4,-38.4064 2869.13,-36.0449"/>
<polygon fill="midnightblue" stroke="midnightblue" points="1913.15,-82.2335 1903.22,-85.9305 1913.29,-89.2322 1913.15,-82.2335"/>
</g>
<!-- Node28 -->
<g id="node19" class="node"><title>Node28</title>
<g id="a_node19"><a xlink:href="kernel__matern__2d_8c.html" target="_top" xlink:title="build/src/applications\l/spatial/kernel_matern_2d.c">
<polygon fill="white" stroke="black" points="3004,-6 3004,-36 3141,-36 3141,-6 3004,-6"/>
<text text-anchor="start" x="3012" y="-24" font-family="Helvetica,sans-Serif" font-size="10.00">build/src/applications</text>
<text text-anchor="middle" x="3072.5" y="-13" font-family="Helvetica,sans-Serif" font-size="10.00">/spatial/kernel_matern_2d.c</text>
</a>
</g>
</g>
<!-- Node12&#45;&gt;Node28 -->
<g id="edge18" class="edge"><title>Node12&#45;&gt;Node28</title>
<path fill="none" stroke="midnightblue" d="M1913.45,-86.2168C2128.34,-83.4742 2784.05,-72.7428 2994.5,-42 3004.18,-40.5855 3014.4,-38.4492 3024.14,-36.0915"/>
<polygon fill="midnightblue" stroke="midnightblue" points="1913.21,-82.7195 1903.25,-86.3452 1913.3,-89.719 1913.21,-82.7195"/>
</g>
<!-- Node29 -->
<g id="node20" class="node"><title>Node29</title>
<g id="a_node20"><a xlink:href="kernel__matern__3d_8c.html" target="_top" xlink:title="build/src/applications\l/spatial/kernel_matern_3d.c">
<polygon fill="white" stroke="black" points="3159,-6 3159,-36 3296,-36 3296,-6 3159,-6"/>
<text text-anchor="start" x="3167" y="-24" font-family="Helvetica,sans-Serif" font-size="10.00">build/src/applications</text>
<text text-anchor="middle" x="3227.5" y="-13" font-family="Helvetica,sans-Serif" font-size="10.00">/spatial/kernel_matern_3d.c</text>
</a>
</g>
</g>
<!-- Node12&#45;&gt;Node29 -->
<g id="edge19" class="edge"><title>Node12&#45;&gt;Node29</title>
<path fill="none" stroke="midnightblue" d="M1913.05,-86.5934C2146.19,-84.9042 2907.39,-76.7944 3149.5,-42 3159.32,-40.5881 3169.7,-38.4209 3179.56,-36.0261"/>
<polygon fill="midnightblue" stroke="midnightblue" points="1912.98,-83.0937 1903,-86.6646 1913.03,-90.0936 1912.98,-83.0937"/>
</g>
<!-- Node30 -->
<g id="node21" class="node"><title>Node30</title>
<g id="a_node21"><a xlink:href="kernel__matern__4d_8c.html" target="_top" xlink:title="build/src/applications\l/spatial/kernel_matern_4d.c">
<polygon fill="white" stroke="black" points="0,-6 0,-36 137,-36 137,-6 0,-6"/>
<text text-anchor="start" x="8" y="-24" font-family="Helvetica,sans-Serif" font-size="10.00">build/src/applications</text>
<text text-anchor="middle" x="68.5" y="-13" font-family="Helvetica,sans-Serif" font-size="10.00">/spatial/kernel_matern_4d.c</text>
</a>
</g>
</g>
<!-- Node12&#45;&gt;Node30 -->
<g id="edge20" class="edge"><title>Node12&#45;&gt;Node30</title>
<path fill="none" stroke="midnightblue" d="M1775.76,-78.0758C1398.87,-50.9248 502.196,-90.8717 146.5,-42 136.528,-40.6299 125.996,-38.4485 116.007,-36.0204"/>
<polygon fill="midnightblue" stroke="midnightblue" points="1775.7,-81.5813 1785.94,-78.8352 1776.23,-74.6007 1775.7,-81.5813"/>
</g>
<!-- Node31 -->
<g id="node22" class="node"><title>Node31</title>
<g id="a_node22"><a xlink:href="kernel__matern2__nd_8c.html" target="_top" xlink:title="build/src/applications\l/spatial/kernel_matern2_nd.c">
<polygon fill="white" stroke="black" points="155.5,-6 155.5,-36 297.5,-36 297.5,-6 155.5,-6"/>
<text text-anchor="start" x="163.5" y="-24" font-family="Helvetica,sans-Serif" font-size="10.00">build/src/applications</text>
<text text-anchor="middle" x="226.5" y="-13" font-family="Helvetica,sans-Serif" font-size="10.00">/spatial/kernel_matern2_nd.c</text>
</a>
</g>
</g>
<!-- Node12&#45;&gt;Node31 -->
<g id="edge21" class="edge"><title>Node12&#45;&gt;Node31</title>
<path fill="none" stroke="midnightblue" d="M1775.73,-78.0716C1434.36,-53.1865 627.062,-85.4531 306.5,-42 296.428,-40.6346 285.789,-38.4882 275.672,-36.0991"/>
<polygon fill="midnightblue" stroke="midnightblue" points="1775.7,-81.5797 1785.94,-78.8441 1776.23,-74.5996 1775.7,-81.5797"/>
</g>
<!-- Node32 -->
<g id="node23" class="node"><title>Node32</title>
<g id="a_node23"><a xlink:href="kernel__matern2__1d_8c.html" target="_top" xlink:title="build/src/applications\l/spatial/kernel_matern2_1d.c">
<polygon fill="white" stroke="black" points="315.5,-6 315.5,-36 457.5,-36 457.5,-6 315.5,-6"/>
<text text-anchor="start" x="323.5" y="-24" font-family="Helvetica,sans-Serif" font-size="10.00">build/src/applications</text>
<text text-anchor="middle" x="386.5" y="-13" font-family="Helvetica,sans-Serif" font-size="10.00">/spatial/kernel_matern2_1d.c</text>
</a>
</g>
</g>
<!-- Node12&#45;&gt;Node32 -->
<g id="edge22" class="edge"><title>Node12&#45;&gt;Node32</title>
<path fill="none" stroke="midnightblue" d="M1775.61,-78.0409C1194.1,-32.7681 1040.16,-120.635 466.5,-42 456.43,-40.6196 445.792,-38.4665 435.675,-36.0755"/>
<polygon fill="midnightblue" stroke="midnightblue" points="1775.69,-81.5582 1785.94,-78.8553 1776.24,-74.5798 1775.69,-81.5582"/>
</g>
<!-- Node33 -->
<g id="node24" class="node"><title>Node33</title>
<g id="a_node24"><a xlink:href="kernel__matern2__2d_8c.html" target="_top" xlink:title="build/src/applications\l/spatial/kernel_matern2_2d.c">
<polygon fill="white" stroke="black" points="475.5,-6 475.5,-36 617.5,-36 617.5,-6 475.5,-6"/>
<text text-anchor="start" x="483.5" y="-24" font-family="Helvetica,sans-Serif" font-size="10.00">build/src/applications</text>
<text text-anchor="middle" x="546.5" y="-13" font-family="Helvetica,sans-Serif" font-size="10.00">/spatial/kernel_matern2_2d.c</text>
</a>
</g>
</g>
<!-- Node12&#45;&gt;Node33 -->
<g id="edge23" class="edge"><title>Node12&#45;&gt;Node33</title>
<path fill="none" stroke="midnightblue" d="M1775.72,-78.0451C1265.05,-37.3959 1129.65,-111.949 626.5,-42 616.432,-40.6004 605.795,-38.4387 595.679,-36.0453"/>
<polygon fill="midnightblue" stroke="midnightblue" points="1775.69,-81.5537 1785.93,-78.8696 1776.25,-74.5764 1775.69,-81.5537"/>
</g>
<!-- Node34 -->
<g id="node25" class="node"><title>Node34</title>
<g id="a_node25"><a xlink:href="kernel__matern2__3d_8c.html" target="_top" xlink:title="build/src/applications\l/spatial/kernel_matern2_3d.c">
<polygon fill="white" stroke="black" points="635.5,-6 635.5,-36 777.5,-36 777.5,-6 635.5,-6"/>
<text text-anchor="start" x="643.5" y="-24" font-family="Helvetica,sans-Serif" font-size="10.00">build/src/applications</text>
<text text-anchor="middle" x="706.5" y="-13" font-family="Helvetica,sans-Serif" font-size="10.00">/spatial/kernel_matern2_3d.c</text>
</a>
</g>
</g>
<!-- Node12&#45;&gt;Node34 -->
<g id="edge24" class="edge"><title>Node12&#45;&gt;Node34</title>
<path fill="none" stroke="midnightblue" d="M1775.81,-78.047C1336,-42.0144 1219.14,-103.261 786.5,-42 776.436,-40.5749 765.801,-38.4019 755.685,-36.0055"/>
<polygon fill="midnightblue" stroke="midnightblue" points="1775.68,-81.5477 1785.93,-78.8885 1776.26,-74.5717 1775.68,-81.5477"/>
</g>
<!-- Node35 -->
<g id="node26" class="node"><title>Node35</title>
<g id="a_node26"><a xlink:href="kernel__matern2__4d_8c.html" target="_top" xlink:title="build/src/applications\l/spatial/kernel_matern2_4d.c">
<polygon fill="white" stroke="black" points="795.5,-6 795.5,-36 937.5,-36 937.5,-6 795.5,-6"/>
<text text-anchor="start" x="803.5" y="-24" font-family="Helvetica,sans-Serif" font-size="10.00">build/src/applications</text>
<text text-anchor="middle" x="866.5" y="-13" font-family="Helvetica,sans-Serif" font-size="10.00">/spatial/kernel_matern2_4d.c</text>
</a>
</g>
</g>
<!-- Node12&#45;&gt;Node35 -->
<g id="edge25" class="edge"><title>Node12&#45;&gt;Node35</title>
<path fill="none" stroke="midnightblue" d="M1775.78,-78.0358C1406.91,-46.6275 1308.6,-94.5666 946.5,-42 936.583,-40.5603 926.107,-38.4126 916.121,-36.0516"/>
<polygon fill="midnightblue" stroke="midnightblue" points="1775.67,-81.5393 1785.93,-78.9146 1776.27,-74.5654 1775.67,-81.5393"/>
</g>
<!-- Node37 -->
<g id="node28" class="node"><title>Node37</title>
<g id="a_node28"><a xlink:href="cube_8c.html" target="_top" xlink:title="src/applications/mesh\l_deformation/cube.c">
<polygon fill="white" stroke="black" points="3314.5,-6 3314.5,-36 3426.5,-36 3426.5,-6 3314.5,-6"/>
<text text-anchor="start" x="3322.5" y="-24" font-family="Helvetica,sans-Serif" font-size="10.00">src/applications/mesh</text>
<text text-anchor="middle" x="3370.5" y="-13" font-family="Helvetica,sans-Serif" font-size="10.00">_deformation/cube.c</text>
</a>
</g>
</g>
<!-- Node36&#45;&gt;Node37 -->
<g id="edge27" class="edge"><title>Node36&#45;&gt;Node37</title>
<path fill="none" stroke="midnightblue" d="M3538.52,-75.2749C3503.76,-64.2533 3451.69,-47.7435 3414.74,-36.0281"/>
<polygon fill="midnightblue" stroke="midnightblue" points="3537.69,-78.6823 3548.28,-78.3685 3539.8,-72.0097 3537.69,-78.6823"/>
</g>
<!-- Node38 -->
<g id="node29" class="node"><title>Node38</title>
<g id="a_node29"><a xlink:href="mesh__rbf_8c.html" target="_top" xlink:title="src/applications/mesh\l_deformation/mesh_rbf.c">
<polygon fill="white" stroke="black" points="3445,-6 3445,-36 3570,-36 3570,-6 3445,-6"/>
<text text-anchor="start" x="3453" y="-24" font-family="Helvetica,sans-Serif" font-size="10.00">src/applications/mesh</text>
<text text-anchor="middle" x="3507.5" y="-13" font-family="Helvetica,sans-Serif" font-size="10.00">_deformation/mesh_rbf.c</text>
</a>
</g>
</g>
<!-- Node36&#45;&gt;Node38 -->
<g id="edge28" class="edge"><title>Node36&#45;&gt;Node38</title>
<path fill="none" stroke="midnightblue" d="M3558.88,-71.117C3547.68,-60.4065 3533.03,-46.4022 3522.24,-36.089"/>
<polygon fill="midnightblue" stroke="midnightblue" points="3556.68,-73.854 3566.33,-78.2338 3561.52,-68.7939 3556.68,-73.854"/>
</g>
<!-- Node39 -->
<g id="node30" class="node"><title>Node39</title>
<g id="a_node30"><a xlink:href="virus_8c.html" target="_top" xlink:title="src/applications/mesh\l_deformation/virus.c">
<polygon fill="white" stroke="black" points="3588.5,-6 3588.5,-36 3700.5,-36 3700.5,-6 3588.5,-6"/>
<text text-anchor="start" x="3596.5" y="-24" font-family="Helvetica,sans-Serif" font-size="10.00">src/applications/mesh</text>
<text text-anchor="middle" x="3644.5" y="-13" font-family="Helvetica,sans-Serif" font-size="10.00">_deformation/virus.c</text>
</a>
</g>
</g>
<!-- Node36&#45;&gt;Node39 -->
<g id="edge29" class="edge"><title>Node36&#45;&gt;Node39</title>
<path fill="none" stroke="midnightblue" d="M3592.36,-71.117C3603.73,-60.4065 3618.6,-46.4022 3629.54,-36.089"/>
<polygon fill="midnightblue" stroke="midnightblue" points="3589.68,-68.8292 3584.81,-78.2338 3594.48,-73.9245 3589.68,-68.8292"/>
</g>
<!-- Node40&#45;&gt;Node14 -->
<g id="edge31" class="edge"><title>Node40&#45;&gt;Node14</title>
<path fill="none" stroke="midnightblue" d="M4324.36,-79.6243C4397.22,-72.4629 4505.4,-60.0191 4598.5,-42 4614.31,-38.9408 4631.69,-34.4525 4645.84,-30.5026"/>
<polygon fill="midnightblue" stroke="midnightblue" points="4323.93,-76.1493 4314.31,-80.5998 4324.61,-83.1165 4323.93,-76.1493"/>
</g>
<!-- Node41 -->
<g id="node32" class="node"><title>Node41</title>
<g id="a_node32"><a xlink:href="electrostatics_8c.html" target="_top" xlink:title="src/applications/electrostatics.c">
<polygon fill="white" stroke="black" points="3719,-11.5 3719,-30.5 3874,-30.5 3874,-11.5 3719,-11.5"/>
<text text-anchor="middle" x="3796.5" y="-18.5" font-family="Helvetica,sans-Serif" font-size="10.00">src/applications/electrostatics.c</text>
</a>
</g>
</g>
<!-- Node40&#45;&gt;Node41 -->
<g id="edge32" class="edge"><title>Node40&#45;&gt;Node41</title>
<path fill="none" stroke="midnightblue" d="M4156.77,-78.9511C4083.98,-71.3646 3975.85,-58.6754 3882.5,-42 3865,-38.8731 3845.7,-34.4735 3829.82,-30.5966"/>
<polygon fill="midnightblue" stroke="midnightblue" points="4156.49,-82.4412 4166.8,-79.9876 4157.21,-75.4782 4156.49,-82.4412"/>
</g>
<!-- Node42 -->
<g id="node33" class="node"><title>Node42</title>
<g id="a_node33"><a xlink:href="kernel__coulomb__potential__nd_8c.html" target="_top" xlink:title="build/src/applications\l/electrostatics/kernel\l_coulomb_potential_nd.c">
<polygon fill="white" stroke="black" points="3892,-0.5 3892,-41.5 4017,-41.5 4017,-0.5 3892,-0.5"/>
<text text-anchor="start" x="3900" y="-29.5" font-family="Helvetica,sans-Serif" font-size="10.00">build/src/applications</text>
<text text-anchor="start" x="3900" y="-18.5" font-family="Helvetica,sans-Serif" font-size="10.00">/electrostatics/kernel</text>
<text text-anchor="middle" x="3954.5" y="-7.5" font-family="Helvetica,sans-Serif" font-size="10.00">_coulomb_potential_nd.c</text>
</a>
</g>
</g>
<!-- Node40&#45;&gt;Node42 -->
<g id="edge33" class="edge"><title>Node40&#45;&gt;Node42</title>
<path fill="none" stroke="midnightblue" d="M4185.58,-76.4526C4142.22,-67.8847 4080.28,-55.1104 4026.5,-42 4023.47,-41.2626 4020.38,-40.4877 4017.27,-39.6888"/>
<polygon fill="midnightblue" stroke="midnightblue" points="4185.15,-79.9347 4195.64,-78.4302 4186.5,-73.0663 4185.15,-79.9347"/>
</g>
<!-- Node43 -->
<g id="node34" class="node"><title>Node43</title>
<g id="a_node34"><a xlink:href="kernel__coulomb__potential__1d_8c.html" target="_top" xlink:title="build/src/applications\l/electrostatics/kernel\l_coulomb_potential_1d.c">
<polygon fill="white" stroke="black" points="4035,-0.5 4035,-41.5 4160,-41.5 4160,-0.5 4035,-0.5"/>
<text text-anchor="start" x="4043" y="-29.5" font-family="Helvetica,sans-Serif" font-size="10.00">build/src/applications</text>
<text text-anchor="start" x="4043" y="-18.5" font-family="Helvetica,sans-Serif" font-size="10.00">/electrostatics/kernel</text>
<text text-anchor="middle" x="4097.5" y="-7.5" font-family="Helvetica,sans-Serif" font-size="10.00">_coulomb_potential_1d.c</text>
</a>
</g>
</g>
<!-- Node40&#45;&gt;Node43 -->
<g id="edge34" class="edge"><title>Node40&#45;&gt;Node43</title>
<path fill="none" stroke="midnightblue" d="M4212.15,-74.1127C4191.74,-64.8366 4163.84,-52.1556 4140.68,-41.6254"/>
<polygon fill="midnightblue" stroke="midnightblue" points="4210.96,-77.4167 4221.51,-78.3685 4213.86,-71.0441 4210.96,-77.4167"/>
</g>
<!-- Node44 -->
<g id="node35" class="node"><title>Node44</title>
<g id="a_node35"><a xlink:href="kernel__coulomb__potential__2d_8c.html" target="_top" xlink:title="build/src/applications\l/electrostatics/kernel\l_coulomb_potential_2d.c">
<polygon fill="white" stroke="black" points="4178,-0.5 4178,-41.5 4303,-41.5 4303,-0.5 4178,-0.5"/>
<text text-anchor="start" x="4186" y="-29.5" font-family="Helvetica,sans-Serif" font-size="10.00">build/src/applications</text>
<text text-anchor="start" x="4186" y="-18.5" font-family="Helvetica,sans-Serif" font-size="10.00">/electrostatics/kernel</text>
<text text-anchor="middle" x="4240.5" y="-7.5" font-family="Helvetica,sans-Serif" font-size="10.00">_coulomb_potential_2d.c</text>
</a>
</g>
</g>
<!-- Node40&#45;&gt;Node44 -->
<g id="edge35" class="edge"><title>Node40&#45;&gt;Node44</title>
<path fill="none" stroke="midnightblue" d="M4240.5,-68.037C4240.5,-59.7084 4240.5,-49.9358 4240.5,-41.5421"/>
<polygon fill="midnightblue" stroke="midnightblue" points="4237,-68.2338 4240.5,-78.2338 4244,-68.2338 4237,-68.2338"/>
</g>
<!-- Node45 -->
<g id="node36" class="node"><title>Node45</title>
<g id="a_node36"><a xlink:href="kernel__coulomb__potential__3d_8c.html" target="_top" xlink:title="build/src/applications\l/electrostatics/kernel\l_coulomb_potential_3d.c">
<polygon fill="white" stroke="black" points="4321,-0.5 4321,-41.5 4446,-41.5 4446,-0.5 4321,-0.5"/>
<text text-anchor="start" x="4329" y="-29.5" font-family="Helvetica,sans-Serif" font-size="10.00">build/src/applications</text>
<text text-anchor="start" x="4329" y="-18.5" font-family="Helvetica,sans-Serif" font-size="10.00">/electrostatics/kernel</text>
<text text-anchor="middle" x="4383.5" y="-7.5" font-family="Helvetica,sans-Serif" font-size="10.00">_coulomb_potential_3d.c</text>
</a>
</g>
</g>
<!-- Node40&#45;&gt;Node45 -->
<g id="edge36" class="edge"><title>Node40&#45;&gt;Node45</title>
<path fill="none" stroke="midnightblue" d="M4268.85,-74.1127C4289.26,-64.8366 4317.16,-52.1556 4340.32,-41.6254"/>
<polygon fill="midnightblue" stroke="midnightblue" points="4267.14,-71.0441 4259.49,-78.3685 4270.04,-77.4167 4267.14,-71.0441"/>
</g>
<!-- Node46 -->
<g id="node37" class="node"><title>Node46</title>
<g id="a_node37"><a xlink:href="kernel__coulomb__potential__4d_8c.html" target="_top" xlink:title="build/src/applications\l/electrostatics/kernel\l_coulomb_potential_4d.c">
<polygon fill="white" stroke="black" points="4464,-0.5 4464,-41.5 4589,-41.5 4589,-0.5 4464,-0.5"/>
<text text-anchor="start" x="4472" y="-29.5" font-family="Helvetica,sans-Serif" font-size="10.00">build/src/applications</text>
<text text-anchor="start" x="4472" y="-18.5" font-family="Helvetica,sans-Serif" font-size="10.00">/electrostatics/kernel</text>
<text text-anchor="middle" x="4526.5" y="-7.5" font-family="Helvetica,sans-Serif" font-size="10.00">_coulomb_potential_4d.c</text>
</a>
</g>
</g>
<!-- Node40&#45;&gt;Node46 -->
<g id="edge37" class="edge"><title>Node40&#45;&gt;Node46</title>
<path fill="none" stroke="midnightblue" d="M4295.42,-76.5796C4339,-68.0516 4401.38,-55.2697 4455.5,-42 4458.24,-41.3291 4461.03,-40.6258 4463.84,-39.9006"/>
<polygon fill="midnightblue" stroke="midnightblue" points="4294.73,-73.1467 4285.59,-78.4932 4296.07,-80.0177 4294.73,-73.1467"/>
</g>
<!-- Node47&#45;&gt;Node14 -->
<g id="edge39" class="edge"><title>Node47&#45;&gt;Node14</title>
<path fill="none" stroke="midnightblue" d="M5143.37,-83.0364C5045.9,-77.7209 4886.26,-66.0193 4750.5,-42 4734.38,-39.1476 4716.67,-34.5748 4702.41,-30.5212"/>
<polygon fill="midnightblue" stroke="midnightblue" points="5143.31,-86.5379 5153.48,-83.577 5143.68,-79.5479 5143.31,-86.5379"/>
</g>
<!-- Node48 -->
<g id="node39" class="node"><title>Node48</title>
<g id="a_node39"><a xlink:href="electrodynamics_8c.html" target="_top" xlink:title="src/applications/electrodynamics.c">
<polygon fill="white" stroke="black" points="5311,-11.5 5311,-30.5 5478,-30.5 5478,-11.5 5311,-11.5"/>
<text text-anchor="middle" x="5394.5" y="-18.5" font-family="Helvetica,sans-Serif" font-size="10.00">src/applications/electrodynamics.c</text>
</a>
</g>
</g>
<!-- Node47&#45;&gt;Node48 -->
<g id="edge40" class="edge"><title>Node47&#45;&gt;Node48</title>
<path fill="none" stroke="midnightblue" d="M5264.2,-74.6041C5296.17,-61.6984 5345.39,-41.8272 5373.29,-30.5637"/>
<polygon fill="midnightblue" stroke="midnightblue" points="5262.84,-71.3793 5254.88,-78.3685 5265.46,-77.8702 5262.84,-71.3793"/>
</g>
<!-- Node49 -->
<g id="node40" class="node"><title>Node49</title>
<g id="a_node40"><a xlink:href="kernel__sin__nd_8c.html" target="_top" xlink:title="build/src/applications\l/electrodynamics/kernel\l_sin_nd.c">
<polygon fill="white" stroke="black" points="5495.5,-0.5 5495.5,-41.5 5615.5,-41.5 5615.5,-0.5 5495.5,-0.5"/>
<text text-anchor="start" x="5503.5" y="-29.5" font-family="Helvetica,sans-Serif" font-size="10.00">build/src/applications</text>
<text text-anchor="start" x="5503.5" y="-18.5" font-family="Helvetica,sans-Serif" font-size="10.00">/electrodynamics/kernel</text>
<text text-anchor="middle" x="5555.5" y="-7.5" font-family="Helvetica,sans-Serif" font-size="10.00">_sin_nd.c</text>
</a>
</g>
</g>
<!-- Node47&#45;&gt;Node49 -->
<g id="edge41" class="edge"><title>Node47&#45;&gt;Node49</title>
<path fill="none" stroke="midnightblue" d="M5302.12,-76.9516C5353.47,-68.9229 5425.27,-56.6163 5487.5,-42 5490.02,-41.4091 5492.58,-40.7806 5495.16,-40.1246"/>
<polygon fill="midnightblue" stroke="midnightblue" points="5301.48,-73.5093 5292.13,-78.4997 5302.55,-80.4267 5301.48,-73.5093"/>
</g>
<!-- Node50 -->
<g id="node41" class="node"><title>Node50</title>
<g id="a_node41"><a xlink:href="kernel__sin__1d_8c.html" target="_top" xlink:title="build/src/applications\l/electrodynamics/kernel\l_sin_1d.c">
<polygon fill="white" stroke="black" points="5633.5,-0.5 5633.5,-41.5 5753.5,-41.5 5753.5,-0.5 5633.5,-0.5"/>
<text text-anchor="start" x="5641.5" y="-29.5" font-family="Helvetica,sans-Serif" font-size="10.00">build/src/applications</text>
<text text-anchor="start" x="5641.5" y="-18.5" font-family="Helvetica,sans-Serif" font-size="10.00">/electrodynamics/kernel</text>
<text text-anchor="middle" x="5693.5" y="-7.5" font-family="Helvetica,sans-Serif" font-size="10.00">_sin_1d.c</text>
</a>
</g>
</g>
<!-- Node47&#45;&gt;Node50 -->
<g id="edge42" class="edge"><title>Node47&#45;&gt;Node50</title>
<path fill="none" stroke="midnightblue" d="M5323.85,-77.4089C5430.12,-66.0003 5595.78,-47.772 5624.5,-42 5627.43,-41.4101 5630.43,-40.7551 5633.44,-40.0523"/>
<polygon fill="midnightblue" stroke="midnightblue" points="5323.33,-73.9448 5313.76,-78.491 5324.07,-80.9049 5323.33,-73.9448"/>
</g>
<!-- Node51 -->
<g id="node42" class="node"><title>Node51</title>
<g id="a_node42"><a xlink:href="kernel__sin__2d_8c.html" target="_top" xlink:title="build/src/applications\l/electrodynamics/kernel\l_sin_2d.c">
<polygon fill="white" stroke="black" points="5771.5,-0.5 5771.5,-41.5 5891.5,-41.5 5891.5,-0.5 5771.5,-0.5"/>
<text text-anchor="start" x="5779.5" y="-29.5" font-family="Helvetica,sans-Serif" font-size="10.00">build/src/applications</text>
<text text-anchor="start" x="5779.5" y="-18.5" font-family="Helvetica,sans-Serif" font-size="10.00">/electrodynamics/kernel</text>
<text text-anchor="middle" x="5831.5" y="-7.5" font-family="Helvetica,sans-Serif" font-size="10.00">_sin_2d.c</text>
</a>
</g>
</g>
<!-- Node47&#45;&gt;Node51 -->
<g id="edge43" class="edge"><title>Node47&#45;&gt;Node51</title>
<path fill="none" stroke="midnightblue" d="M5324.02,-77.9835C5520.21,-60.8151 5573.16,-76.8396 5762.5,-42 5765.44,-41.4583 5768.44,-40.8424 5771.46,-40.1709"/>
<polygon fill="midnightblue" stroke="midnightblue" points="5323.61,-74.5062 5313.96,-78.8818 5324.24,-81.4784 5323.61,-74.5062"/>
</g>
<!-- Node52 -->
<g id="node43" class="node"><title>Node52</title>
<g id="a_node43"><a xlink:href="kernel__sin__3d_8c.html" target="_top" xlink:title="build/src/applications\l/electrodynamics/kernel\l_sin_3d.c">
<polygon fill="white" stroke="black" points="5909.5,-0.5 5909.5,-41.5 6029.5,-41.5 6029.5,-0.5 5909.5,-0.5"/>
<text text-anchor="start" x="5917.5" y="-29.5" font-family="Helvetica,sans-Serif" font-size="10.00">build/src/applications</text>
<text text-anchor="start" x="5917.5" y="-18.5" font-family="Helvetica,sans-Serif" font-size="10.00">/electrodynamics/kernel</text>
<text text-anchor="middle" x="5969.5" y="-7.5" font-family="Helvetica,sans-Serif" font-size="10.00">_sin_3d.c</text>
</a>
</g>
</g>
<!-- Node47&#45;&gt;Node52 -->
<g id="edge44" class="edge"><title>Node47&#45;&gt;Node52</title>
<path fill="none" stroke="midnightblue" d="M5323.98,-78.0058C5581.35,-57.933 5650.57,-85.4726 5900.5,-42 5903.45,-41.487 5906.45,-40.8945 5909.47,-40.2417"/>
<polygon fill="midnightblue" stroke="midnightblue" points="5323.65,-74.5211 5313.96,-78.804 5324.2,-81.499 5323.65,-74.5211"/>
</g>
<!-- Node53 -->
<g id="node44" class="node"><title>Node53</title>
<g id="a_node44"><a xlink:href="kernel__sin__4d_8c.html" target="_top" xlink:title="build/src/applications\l/electrodynamics/kernel\l_sin_4d.c">
<polygon fill="white" stroke="black" points="6047.5,-0.5 6047.5,-41.5 6167.5,-41.5 6167.5,-0.5 6047.5,-0.5"/>
<text text-anchor="start" x="6055.5" y="-29.5" font-family="Helvetica,sans-Serif" font-size="10.00">build/src/applications</text>
<text text-anchor="start" x="6055.5" y="-18.5" font-family="Helvetica,sans-Serif" font-size="10.00">/electrodynamics/kernel</text>
<text text-anchor="middle" x="6107.5" y="-7.5" font-family="Helvetica,sans-Serif" font-size="10.00">_sin_4d.c</text>
</a>
</g>
</g>
<!-- Node47&#45;&gt;Node53 -->
<g id="edge45" class="edge"><title>Node47&#45;&gt;Node53</title>
<path fill="none" stroke="midnightblue" d="M5323.93,-78.0199C5642.53,-54.9831 5727.92,-94.1035 6038.5,-42 6041.45,-41.5047 6044.46,-40.9266 6047.48,-40.2854"/>
<polygon fill="midnightblue" stroke="midnightblue" points="5323.67,-74.5297 5313.95,-78.7561 5324.18,-81.5107 5323.67,-74.5297"/>
</g>
<!-- Node54 -->
<g id="node45" class="node"><title>Node54</title>
<g id="a_node45"><a xlink:href="kernel__cos__nd_8c.html" target="_top" xlink:title="build/src/applications\l/electrodynamics/kernel\l_cos_nd.c">
<polygon fill="white" stroke="black" points="4759.5,-0.5 4759.5,-41.5 4879.5,-41.5 4879.5,-0.5 4759.5,-0.5"/>
<text text-anchor="start" x="4767.5" y="-29.5" font-family="Helvetica,sans-Serif" font-size="10.00">build/src/applications</text>
<text text-anchor="start" x="4767.5" y="-18.5" font-family="Helvetica,sans-Serif" font-size="10.00">/electrodynamics/kernel</text>
<text text-anchor="middle" x="4819.5" y="-7.5" font-family="Helvetica,sans-Serif" font-size="10.00">_cos_nd.c</text>
</a>
</g>
</g>
<!-- Node47&#45;&gt;Node54 -->
<g id="edge46" class="edge"><title>Node47&#45;&gt;Node54</title>
<path fill="none" stroke="midnightblue" d="M5143.34,-79.0378C5073.36,-71.9452 4974.16,-59.8922 4888.5,-42 4885.57,-41.388 4882.58,-40.7149 4879.57,-39.9977"/>
<polygon fill="midnightblue" stroke="midnightblue" points="5143.15,-82.5361 5153.44,-80.0484 5143.84,-75.5708 5143.15,-82.5361"/>
</g>
<!-- Node55 -->
<g id="node46" class="node"><title>Node55</title>
<g id="a_node46"><a xlink:href="kernel__cos__1d_8c.html" target="_top" xlink:title="build/src/applications\l/electrodynamics/kernel\l_cos_1d.c">
<polygon fill="white" stroke="black" points="4897.5,-0.5 4897.5,-41.5 5017.5,-41.5 5017.5,-0.5 4897.5,-0.5"/>
<text text-anchor="start" x="4905.5" y="-29.5" font-family="Helvetica,sans-Serif" font-size="10.00">build/src/applications</text>
<text text-anchor="start" x="4905.5" y="-18.5" font-family="Helvetica,sans-Serif" font-size="10.00">/electrodynamics/kernel</text>
<text text-anchor="middle" x="4957.5" y="-7.5" font-family="Helvetica,sans-Serif" font-size="10.00">_cos_1d.c</text>
</a>
</g>
</g>
<!-- Node47&#45;&gt;Node55 -->
<g id="edge47" class="edge"><title>Node47&#45;&gt;Node55</title>
<path fill="none" stroke="midnightblue" d="M5180.09,-76.4304C5138.15,-67.8803 5078.37,-55.14 5026.5,-42 5023.6,-41.265 5020.63,-40.492 5017.64,-39.6946"/>
<polygon fill="midnightblue" stroke="midnightblue" points="5179.59,-79.9 5190.08,-78.4577 5180.98,-73.0397 5179.59,-79.9"/>
</g>
<!-- Node56 -->
<g id="node47" class="node"><title>Node56</title>
<g id="a_node47"><a xlink:href="kernel__cos__2d_8c.html" target="_top" xlink:title="build/src/applications\l/electrodynamics/kernel\l_cos_2d.c">
<polygon fill="white" stroke="black" points="5035.5,-0.5 5035.5,-41.5 5155.5,-41.5 5155.5,-0.5 5035.5,-0.5"/>
<text text-anchor="start" x="5043.5" y="-29.5" font-family="Helvetica,sans-Serif" font-size="10.00">build/src/applications</text>
<text text-anchor="start" x="5043.5" y="-18.5" font-family="Helvetica,sans-Serif" font-size="10.00">/electrodynamics/kernel</text>
<text text-anchor="middle" x="5095.5" y="-7.5" font-family="Helvetica,sans-Serif" font-size="10.00">_cos_2d.c</text>
</a>
</g>
</g>
<!-- Node47&#45;&gt;Node56 -->
<g id="edge48" class="edge"><title>Node47&#45;&gt;Node56</title>
<path fill="none" stroke="midnightblue" d="M5205.87,-73.986C5186.2,-64.7214 5159.42,-52.1077 5137.17,-41.6254"/>
<polygon fill="midnightblue" stroke="midnightblue" points="5204.64,-77.2737 5215.17,-78.3685 5207.62,-70.941 5204.64,-77.2737"/>
</g>
<!-- Node57 -->
<g id="node48" class="node"><title>Node57</title>
<g id="a_node48"><a xlink:href="kernel__cos__3d_8c.html" target="_top" xlink:title="build/src/applications\l/electrodynamics/kernel\l_cos_3d.c">
<polygon fill="white" stroke="black" points="5173.5,-0.5 5173.5,-41.5 5293.5,-41.5 5293.5,-0.5 5173.5,-0.5"/>
<text text-anchor="start" x="5181.5" y="-29.5" font-family="Helvetica,sans-Serif" font-size="10.00">build/src/applications</text>
<text text-anchor="start" x="5181.5" y="-18.5" font-family="Helvetica,sans-Serif" font-size="10.00">/electrodynamics/kernel</text>
<text text-anchor="middle" x="5233.5" y="-7.5" font-family="Helvetica,sans-Serif" font-size="10.00">_cos_3d.c</text>
</a>
</g>
</g>
<!-- Node47&#45;&gt;Node57 -->
<g id="edge49" class="edge"><title>Node47&#45;&gt;Node57</title>
<path fill="none" stroke="midnightblue" d="M5233.5,-68.037C5233.5,-59.7084 5233.5,-49.9358 5233.5,-41.5421"/>
<polygon fill="midnightblue" stroke="midnightblue" points="5230,-68.2338 5233.5,-78.2338 5237,-68.2338 5230,-68.2338"/>
</g>
<!-- Node59&#45;&gt;Node14 -->
<g id="edge51" class="edge"><title>Node59&#45;&gt;Node14</title>
<path fill="none" stroke="midnightblue" d="M4561.46,-74.1127C4589.38,-61.2387 4631.54,-41.8059 4655.7,-30.6672"/>
<polygon fill="midnightblue" stroke="midnightblue" points="4559.84,-71.0034 4552.22,-78.3685 4562.77,-77.3605 4559.84,-71.0034"/>
</g>
</g>
</svg>
