<?xml version="1.0" encoding="UTF-8" standalone="no"?>
<!DOCTYPE svg PUBLIC "-//W3C//DTD SVG 1.1//EN"
 "http://www.w3.org/Graphics/SVG/1.1/DTD/svg11.dtd">
<!-- Generated by graphviz version 2.38.0 (20140413.2041)
 -->
<!-- Title: include/starsh&#45;electrostatics.h Pages: 1 -->
<!--zoomable 106 -->
<svg id="main" version="1.1" xmlns="http://www.w3.org/2000/svg" xmlns:xlink="http://www.w3.org/1999/xlink" xml:space="preserve" onload="init(evt)">
<style type="text/css"><![CDATA[
.edge:hover path { stroke: red; }
.edge:hover polygon { stroke: red; fill: red; }
]]></style>
<script type="text/javascript"><![CDATA[
var edges = document.getElementsByTagName('g');
if (edges && edges.length) {
  for (var i=0;i<edges.length;i++) {
    if (edges[i].id.substr(0,4)=='edge') {
      edges[i].setAttribute('class','edge');
    }
  }
}
]]></script>
        <defs>
                <circle id="rim" cx="0" cy="0" r="7"/>
                <circle id="rim2" cx="0" cy="0" r="3.5"/>
                <g id="zoomPlus">
                        <use xlink:href="#rim" fill="#404040">
                                <set attributeName="fill" to="#808080" begin="zoomplus.mouseover" end="zoomplus.mouseout"/>
                        </use>
                        <path d="M-4,0h8M0,-4v8" fill="none" stroke="white" stroke-width="1.5" pointer-events="none"/>
                </g>
                <g id="zoomMin">
                        <use xlink:href="#rim" fill="#404040">
                                <set attributeName="fill" to="#808080" begin="zoomminus.mouseover" end="zoomminus.mouseout"/>
                        </use>
                        <path d="M-4,0h8" fill="none" stroke="white" stroke-width="1.5" pointer-events="none"/>
                </g>
                <g id="dirArrow">
                        <path fill="none" stroke="white" stroke-width="1.5" d="M0,-3.0v7 M-2.5,-0.5L0,-3.0L2.5,-0.5"/>
                </g>
               <g id="resetDef">
                       <use xlink:href="#rim2" fill="#404040">
                               <set attributeName="fill" to="#808080" begin="reset.mouseover" end="reset.mouseout"/>
                       </use>
               </g>
        </defs>

<script type="text/javascript">
var viewWidth = 1031;
var viewHeight = 106;
var sectionId = 'dynsection-1';
</script>
<script xlink:href="svgpan.js"/>
<svg id="graph" class="graph">
<g id="viewport">
<title>include/starsh&#45;electrostatics.h</title>
<polygon fill="white" stroke="none" points="-4,4 -4,-102 1026.5,-102 1026.5,4 -4,4"/>
<!-- Node11 -->
<g id="node1" class="node"><title>Node11</title>
<polygon fill="#bfbfbf" stroke="black" points="457.5,-78.5 457.5,-97.5 604.5,-97.5 604.5,-78.5 457.5,-78.5"/>
<text text-anchor="middle" x="531" y="-85.5" font-family="Helvetica,sans-Serif" font-size="10.00">include/starsh&#45;electrostatics.h</text>
</g>
<!-- Node12 -->
<g id="node2" class="node"><title>Node12</title>
<g id="a_node2"><a xlink:href="common_8c.html" target="_top" xlink:title="src/applications/common.c">
<polygon fill="white" stroke="black" points="0,-11.5 0,-30.5 134,-30.5 134,-11.5 0,-11.5"/>
<text text-anchor="middle" x="67" y="-18.5" font-family="Helvetica,sans-Serif" font-size="10.00">src/applications/common.c</text>
</a>
</g>
</g>
<!-- Node11&#45;&gt;Node12 -->
<g id="edge1" class="edge"><title>Node11&#45;&gt;Node12</title>
<path fill="none" stroke="midnightblue" d="M446.858,-80.7077C367.916,-73.9872 246.793,-61.5736 143,-42 127.179,-39.0165 109.796,-34.5341 95.6522,-30.5686"/>
<polygon fill="midnightblue" stroke="midnightblue" points="446.973,-84.2296 457.231,-81.5786 447.559,-77.2541 446.973,-84.2296"/>
</g>
<!-- Node13 -->
<g id="node3" class="node"><title>Node13</title>
<g id="a_node3"><a xlink:href="electrostatics_8c.html" target="_top" xlink:title="src/applications/electrostatics.c">
<polygon fill="white" stroke="black" points="152.5,-11.5 152.5,-30.5 307.5,-30.5 307.5,-11.5 152.5,-11.5"/>
<text text-anchor="middle" x="230" y="-18.5" font-family="Helvetica,sans-Serif" font-size="10.00">src/applications/electrostatics.c</text>
</a>
</g>
</g>
<!-- Node11&#45;&gt;Node13 -->
<g id="edge2" class="edge"><title>Node11&#45;&gt;Node13</title>
<path fill="none" stroke="midnightblue" d="M479.117,-76.4765C435.527,-67.5548 371.62,-54.2865 316,-42 299.535,-38.3629 281.341,-34.1588 265.945,-30.5465"/>
<polygon fill="midnightblue" stroke="midnightblue" points="478.421,-79.9066 488.919,-78.4797 479.823,-73.0484 478.421,-79.9066"/>
</g>
<!-- Node14 -->
<g id="node4" class="node"><title>Node14</title>
<g id="a_node4"><a xlink:href="kernel__coulomb__potential__nd_8c.html" target="_top" xlink:title="build/src/applications\l/electrostatics/kernel\l_coulomb_potential_nd.c">
<polygon fill="white" stroke="black" points="325.5,-0.5 325.5,-41.5 450.5,-41.5 450.5,-0.5 325.5,-0.5"/>
<text text-anchor="start" x="333.5" y="-29.5" font-family="Helvetica,sans-Serif" font-size="10.00">build/src/applications</text>
<text text-anchor="start" x="333.5" y="-18.5" font-family="Helvetica,sans-Serif" font-size="10.00">/electrostatics/kernel</text>
<text text-anchor="middle" x="388" y="-7.5" font-family="Helvetica,sans-Serif" font-size="10.00">_coulomb_potential_nd.c</text>
</a>
</g>
</g>
<!-- Node11&#45;&gt;Node14 -->
<g id="edge3" class="edge"><title>Node11&#45;&gt;Node14</title>
<path fill="none" stroke="midnightblue" d="M502.648,-74.1127C482.241,-64.8366 454.342,-52.1556 431.176,-41.6254"/>
<polygon fill="midnightblue" stroke="midnightblue" points="501.459,-77.4167 512.011,-78.3685 504.355,-71.0441 501.459,-77.4167"/>
</g>
<!-- Node15 -->
<g id="node5" class="node"><title>Node15</title>
<g id="a_node5"><a xlink:href="kernel__coulomb__potential__1d_8c.html" target="_top" xlink:title="build/src/applications\l/electrostatics/kernel\l_coulomb_potential_1d.c">
<polygon fill="white" stroke="black" points="468.5,-0.5 468.5,-41.5 593.5,-41.5 593.5,-0.5 468.5,-0.5"/>
<text text-anchor="start" x="476.5" y="-29.5" font-family="Helvetica,sans-Serif" font-size="10.00">build/src/applications</text>
<text text-anchor="start" x="476.5" y="-18.5" font-family="Helvetica,sans-Serif" font-size="10.00">/electrostatics/kernel</text>
<text text-anchor="middle" x="531" y="-7.5" font-family="Helvetica,sans-Serif" font-size="10.00">_coulomb_potential_1d.c</text>
</a>
</g>
</g>
<!-- Node11&#45;&gt;Node15 -->
<g id="edge4" class="edge"><title>Node11&#45;&gt;Node15</title>
<path fill="none" stroke="midnightblue" d="M531,-68.037C531,-59.7084 531,-49.9358 531,-41.5421"/>
<polygon fill="midnightblue" stroke="midnightblue" points="527.5,-68.2338 531,-78.2338 534.5,-68.2338 527.5,-68.2338"/>
</g>
<!-- Node16 -->
<g id="node6" class="node"><title>Node16</title>
<g id="a_node6"><a xlink:href="kernel__coulomb__potential__2d_8c.html" target="_top" xlink:title="build/src/applications\l/electrostatics/kernel\l_coulomb_potential_2d.c">
<polygon fill="white" stroke="black" points="611.5,-0.5 611.5,-41.5 736.5,-41.5 736.5,-0.5 611.5,-0.5"/>
<text text-anchor="start" x="619.5" y="-29.5" font-family="Helvetica,sans-Serif" font-size="10.00">build/src/applications</text>
<text text-anchor="start" x="619.5" y="-18.5" font-family="Helvetica,sans-Serif" font-size="10.00">/electrostatics/kernel</text>
<text text-anchor="middle" x="674" y="-7.5" font-family="Helvetica,sans-Serif" font-size="10.00">_coulomb_potential_2d.c</text>
</a>
</g>
</g>
<!-- Node11&#45;&gt;Node16 -->
<g id="edge5" class="edge"><title>Node11&#45;&gt;Node16</title>
<path fill="none" stroke="midnightblue" d="M559.352,-74.1127C579.759,-64.8366 607.658,-52.1556 630.824,-41.6254"/>
<polygon fill="midnightblue" stroke="midnightblue" points="557.645,-71.0441 549.989,-78.3685 560.541,-77.4167 557.645,-71.0441"/>
</g>
<!-- Node17 -->
<g id="node7" class="node"><title>Node17</title>
<g id="a_node7"><a xlink:href="kernel__coulomb__potential__3d_8c.html" target="_top" xlink:title="build/src/applications\l/electrostatics/kernel\l_coulomb_potential_3d.c">
<polygon fill="white" stroke="black" points="754.5,-0.5 754.5,-41.5 879.5,-41.5 879.5,-0.5 754.5,-0.5"/>
<text text-anchor="start" x="762.5" y="-29.5" font-family="Helvetica,sans-Serif" font-size="10.00">build/src/applications</text>
<text text-anchor="start" x="762.5" y="-18.5" font-family="Helvetica,sans-Serif" font-size="10.00">/electrostatics/kernel</text>
<text text-anchor="middle" x="817" y="-7.5" font-family="Helvetica,sans-Serif" font-size="10.00">_coulomb_potential_3d.c</text>
</a>
</g>
</g>
<!-- Node11&#45;&gt;Node17 -->
<g id="edge6" class="edge"><title>Node11&#45;&gt;Node17</title>
<path fill="none" stroke="midnightblue" d="M585.916,-76.5796C629.498,-68.0516 691.881,-55.2697 746,-42 748.736,-41.3291 751.527,-40.6258 754.342,-39.9006"/>
<polygon fill="midnightblue" stroke="midnightblue" points="585.233,-73.1467 576.086,-78.4932 586.571,-80.0177 585.233,-73.1467"/>
</g>
<!-- Node18 -->
<g id="node8" class="node"><title>Node18</title>
<g id="a_node8"><a xlink:href="kernel__coulomb__potential__4d_8c.html" target="_top" xlink:title="build/src/applications\l/electrostatics/kernel\l_coulomb_potential_4d.c">
<polygon fill="white" stroke="black" points="897.5,-0.5 897.5,-41.5 1022.5,-41.5 1022.5,-0.5 897.5,-0.5"/>
<text text-anchor="start" x="905.5" y="-29.5" font-family="Helvetica,sans-Serif" font-size="10.00">build/src/applications</text>
<text text-anchor="start" x="905.5" y="-18.5" font-family="Helvetica,sans-Serif" font-size="10.00">/electrostatics/kernel</text>
<text text-anchor="middle" x="960" y="-7.5" font-family="Helvetica,sans-Serif" font-size="10.00">_coulomb_potential_4d.c</text>
</a>
</g>
</g>
<!-- Node11&#45;&gt;Node18 -->
<g id="edge7" class="edge"><title>Node11&#45;&gt;Node18</title>
<path fill="none" stroke="midnightblue" d="M614.591,-80.059C687.513,-73.1575 795.913,-60.8512 889,-42 891.761,-41.4408 894.572,-40.83 897.404,-40.1806"/>
<polygon fill="midnightblue" stroke="midnightblue" points="614.173,-76.5827 604.542,-80.9971 614.824,-83.5524 614.173,-76.5827"/>
</g>
</g>
</svg>
        <g id="navigator" transform="translate(0 0)" fill="#404254">
                <rect fill="#f2f5e9" fill-opacity="0.5" stroke="#606060" stroke-width=".5" x="0" y="0" width="60" height="60"/>
                <use id="zoomplus" xlink:href="#zoomPlus" x="17" y="9" onmousedown="handleZoom(evt,'in')"/>
                <use id="zoomminus" xlink:href="#zoomMin" x="42" y="9" onmousedown="handleZoom(evt,'out')"/>
                <use id="reset" xlink:href="#resetDef" x="30" y="36" onmousedown="handleReset()"/>
                <g id="arrowUp" xlink:href="#dirArrow" transform="translate(30 24)" onmousedown="handlePan(0,-1)">
                  <use xlink:href="#rim" fill="#404040">
                        <set attributeName="fill" to="#808080" begin="arrowUp.mouseover" end="arrowUp.mouseout"/>
                  </use>
                  <path fill="none" stroke="white" stroke-width="1.5" d="M0,-3.0v7 M-2.5,-0.5L0,-3.0L2.5,-0.5"/>
                </g>
                <g id="arrowRight" xlink:href="#dirArrow" transform="rotate(90) translate(36 -43)" onmousedown="handlePan(1,0)">
                  <use xlink:href="#rim" fill="#404040">
                        <set attributeName="fill" to="#808080" begin="arrowRight.mouseover" end="arrowRight.mouseout"/>
                  </use>
                  <path fill="none" stroke="white" stroke-width="1.5" d="M0,-3.0v7 M-2.5,-0.5L0,-3.0L2.5,-0.5"/>
                </g>
                <g id="arrowDown" xlink:href="#dirArrow" transform="rotate(180) translate(-30 -48)" onmousedown="handlePan(0,1)">
                  <use xlink:href="#rim" fill="#404040">
                        <set attributeName="fill" to="#808080" begin="arrowDown.mouseover" end="arrowDown.mouseout"/>
                  </use>
                  <path fill="none" stroke="white" stroke-width="1.5" d="M0,-3.0v7 M-2.5,-0.5L0,-3.0L2.5,-0.5"/>
                </g>
                <g id="arrowLeft" xlink:href="#dirArrow" transform="rotate(270) translate(-36 17)" onmousedown="handlePan(-1,0)">
                  <use xlink:href="#rim" fill="#404040">
                        <set attributeName="fill" to="#808080" begin="arrowLeft.mouseover" end="arrowLeft.mouseout"/>
                  </use>
                  <path fill="none" stroke="white" stroke-width="1.5" d="M0,-3.0v7 M-2.5,-0.5L0,-3.0L2.5,-0.5"/>
                </g>
        </g>
        <svg viewBox="0 0 15 15" width="100%" height="30px" preserveAspectRatio="xMaxYMin meet">
         <g id="arrow_out" transform="scale(0.3 0.3)">
          <a xlink:href="starsh-electrostatics_8h__dep__incl_org.svg" target="_base">
           <rect id="button" ry="5" rx="5" y="6" x="6" height="38" width="38"
                fill="#f2f5e9" fill-opacity="0.5" stroke="#606060" stroke-width="1.0"/>
           <path id="arrow"
             d="M 11.500037,31.436501 C 11.940474,20.09759 22.043105,11.32322 32.158766,21.979434 L 37.068811,17.246167 C 37.068811,17.246167 37.088388,32 37.088388,32 L 22.160133,31.978069 C 22.160133,31.978069 26.997745,27.140456 26.997745,27.140456 C 18.528582,18.264221 13.291696,25.230495 11.500037,31.436501 z"
             style="fill:#404040;"/>
          </a>
         </g>
        </svg>
</svg>
