<?xml version="1.0" encoding="UTF-8" standalone="no"?>
<!DOCTYPE svg PUBLIC "-//W3C//DTD SVG 1.1//EN"
 "http://www.w3.org/Graphics/SVG/1.1/DTD/svg11.dtd">
<!-- Generated by graphviz version 2.38.0 (20140413.2041)
 -->
<!-- Title: src/backends/starpu/dense/drsdd.c Pages: 1 -->
<svg width="571pt" height="151pt"
 viewBox="0.00 0.00 571.00 151.00" xmlns="http://www.w3.org/2000/svg" xmlns:xlink="http://www.w3.org/1999/xlink">
<g id="graph0" class="graph" transform="scale(1 1) rotate(0) translate(4 147)">
<title>src/backends/starpu/dense/drsdd.c</title>
<polygon fill="white" stroke="none" points="-4,4 -4,-147 567,-147 567,4 -4,4"/>
<!-- Node0 -->
<g id="node1" class="node"><title>Node0</title>
<polygon fill="#bfbfbf" stroke="black" points="255.5,-112.5 255.5,-142.5 360.5,-142.5 360.5,-112.5 255.5,-112.5"/>
<text text-anchor="start" x="263.5" y="-130.5" font-family="Helvetica,sans-Serif" font-size="10.00">src/backends/starpu</text>
<text text-anchor="middle" x="308" y="-119.5" font-family="Helvetica,sans-Serif" font-size="10.00">/dense/drsdd.c</text>
</g>
<!-- Node1 -->
<g id="node2" class="node"><title>Node1</title>
<polygon fill="white" stroke="#bfbfbf" points="202,-56.5 202,-75.5 264,-75.5 264,-56.5 202,-56.5"/>
<text text-anchor="middle" x="233" y="-63.5" font-family="Helvetica,sans-Serif" font-size="10.00">common.h</text>
</g>
<!-- Node0&#45;&gt;Node1 -->
<g id="edge1" class="edge"><title>Node0&#45;&gt;Node1</title>
<path fill="none" stroke="midnightblue" d="M290.226,-112.399C278.654,-103.218 263.577,-91.2579 251.804,-81.9182"/>
<polygon fill="midnightblue" stroke="midnightblue" points="253.923,-79.1309 243.913,-75.6578 249.572,-84.6148 253.923,-79.1309"/>
</g>
<!-- Node2 -->
<g id="node3" class="node"><title>Node2</title>
<g id="a_node3"><a xlink:href="starsh_8h.html" target="_top" xlink:title="starsh.h">
<polygon fill="white" stroke="black" points="282,-56.5 282,-75.5 334,-75.5 334,-56.5 282,-56.5"/>
<text text-anchor="middle" x="308" y="-63.5" font-family="Helvetica,sans-Serif" font-size="10.00">starsh.h</text>
</a>
</g>
</g>
<!-- Node0&#45;&gt;Node2 -->
<g id="edge2" class="edge"><title>Node0&#45;&gt;Node2</title>
<path fill="none" stroke="midnightblue" d="M308,-112.399C308,-104.466 308,-94.458 308,-85.8583"/>
<polygon fill="midnightblue" stroke="midnightblue" points="311.5,-85.6577 308,-75.6578 304.5,-85.6578 311.5,-85.6577"/>
</g>
<!-- Node7 -->
<g id="node8" class="node"><title>Node7</title>
<g id="a_node8"><a xlink:href="starsh-starpu_8h.html" target="_top" xlink:title="starsh&#45;starpu.h">
<polygon fill="white" stroke="black" points="481,-0.5 481,-19.5 563,-19.5 563,-0.5 481,-0.5"/>
<text text-anchor="middle" x="522" y="-7.5" font-family="Helvetica,sans-Serif" font-size="10.00">starsh&#45;starpu.h</text>
</a>
</g>
</g>
<!-- Node0&#45;&gt;Node7 -->
<g id="edge9" class="edge"><title>Node0&#45;&gt;Node7</title>
<path fill="none" stroke="midnightblue" d="M334.241,-112.337C375.881,-89.8633 456.534,-46.3333 497.233,-24.3675"/>
<polygon fill="midnightblue" stroke="midnightblue" points="499.072,-27.352 506.21,-19.5223 495.747,-21.1919 499.072,-27.352"/>
</g>
<!-- Node3 -->
<g id="node4" class="node"><title>Node3</title>
<polygon fill="white" stroke="#bfbfbf" points="0,-0.5 0,-19.5 68,-19.5 68,-0.5 0,-0.5"/>
<text text-anchor="middle" x="34" y="-7.5" font-family="Helvetica,sans-Serif" font-size="10.00">sys/types.h</text>
</g>
<!-- Node2&#45;&gt;Node3 -->
<g id="edge3" class="edge"><title>Node2&#45;&gt;Node3</title>
<path fill="none" stroke="midnightblue" d="M281.674,-58.0198C278.754,-57.3085 275.819,-56.6204 273,-56 189.543,-37.6291 165.575,-37.0892 78.0757,-20.1654"/>
<polygon fill="midnightblue" stroke="midnightblue" points="78.7373,-16.7285 68.2521,-18.2485 77.3966,-23.599 78.7373,-16.7285"/>
</g>
<!-- Node4 -->
<g id="node5" class="node"><title>Node4</title>
<polygon fill="white" stroke="#bfbfbf" points="86,-0.5 86,-19.5 138,-19.5 138,-0.5 86,-0.5"/>
<text text-anchor="middle" x="112" y="-7.5" font-family="Helvetica,sans-Serif" font-size="10.00">stdarg.h</text>
</g>
<!-- Node2&#45;&gt;Node4 -->
<g id="edge4" class="edge"><title>Node2&#45;&gt;Node4</title>
<path fill="none" stroke="midnightblue" d="M281.973,-57.8292C247.56,-48.3482 186.76,-31.5971 147.972,-20.9105"/>
<polygon fill="midnightblue" stroke="midnightblue" points="148.705,-17.4824 138.135,-18.2004 146.846,-24.2309 148.705,-17.4824"/>
</g>
<!-- Node5 -->
<g id="node6" class="node"><title>Node5</title>
<g id="a_node6"><a xlink:href="starsh-constants_8h.html" target="_top" xlink:title="starsh&#45;constants.h">
<polygon fill="white" stroke="black" points="156,-0.5 156,-19.5 254,-19.5 254,-0.5 156,-0.5"/>
<text text-anchor="middle" x="205" y="-7.5" font-family="Helvetica,sans-Serif" font-size="10.00">starsh&#45;constants.h</text>
</a>
</g>
</g>
<!-- Node2&#45;&gt;Node5 -->
<g id="edge5" class="edge"><title>Node2&#45;&gt;Node5</title>
<path fill="none" stroke="midnightblue" d="M291.451,-56.324C275.008,-47.7034 249.565,-34.3643 230.532,-24.3855"/>
<polygon fill="midnightblue" stroke="midnightblue" points="231.989,-21.198 221.508,-19.6545 228.739,-27.3977 231.989,-21.198"/>
</g>
<!-- Node6 -->
<g id="node7" class="node"><title>Node6</title>
<g id="a_node7"><a xlink:href="starsh-mpi_8h.html" target="_top" xlink:title="starsh&#45;mpi.h">
<polygon fill="white" stroke="black" points="272.5,-0.5 272.5,-19.5 343.5,-19.5 343.5,-0.5 272.5,-0.5"/>
<text text-anchor="middle" x="308" y="-7.5" font-family="Helvetica,sans-Serif" font-size="10.00">starsh&#45;mpi.h</text>
</a>
</g>
</g>
<!-- Node2&#45;&gt;Node6 -->
<g id="edge6" class="edge"><title>Node2&#45;&gt;Node6</title>
<path fill="none" stroke="midnightblue" d="M308,-56.083C308,-49.0059 308,-38.8611 308,-29.9865"/>
<polygon fill="midnightblue" stroke="midnightblue" points="311.5,-29.751 308,-19.7511 304.5,-29.7511 311.5,-29.751"/>
</g>
<!-- Node2&#45;&gt;Node7 -->
<g id="edge7" class="edge"><title>Node2&#45;&gt;Node7</title>
<path fill="none" stroke="midnightblue" d="M334.241,-58.3785C370.17,-49.3121 435.146,-32.9164 478.438,-21.9924"/>
<polygon fill="midnightblue" stroke="midnightblue" points="479.296,-25.3857 488.135,-19.5453 477.583,-18.5984 479.296,-25.3857"/>
</g>
<!-- Node8 -->
<g id="node9" class="node"><title>Node8</title>
<g id="a_node9"><a xlink:href="starsh-mpi-starpu_8h.html" target="_top" xlink:title="starsh&#45;mpi&#45;starpu.h">
<polygon fill="white" stroke="black" points="361.5,-0.5 361.5,-19.5 462.5,-19.5 462.5,-0.5 361.5,-0.5"/>
<text text-anchor="middle" x="412" y="-7.5" font-family="Helvetica,sans-Serif" font-size="10.00">starsh&#45;mpi&#45;starpu.h</text>
</a>
</g>
</g>
<!-- Node2&#45;&gt;Node8 -->
<g id="edge8" class="edge"><title>Node2&#45;&gt;Node8</title>
<path fill="none" stroke="midnightblue" d="M324.709,-56.324C341.312,-47.7034 367.002,-34.3643 386.22,-24.3855"/>
<polygon fill="midnightblue" stroke="midnightblue" points="388.07,-27.3689 395.332,-19.6545 384.844,-21.1565 388.07,-27.3689"/>
</g>
</g>
</svg>
