<?xml version="1.0" encoding="UTF-8" standalone="no"?>
<!DOCTYPE svg PUBLIC "-//W3C//DTD SVG 1.1//EN"
 "http://www.w3.org/Graphics/SVG/1.1/DTD/svg11.dtd">
<!-- Generated by graphviz version 2.38.0 (20140413.2041)
 -->
<!-- Title: include/starsh&#45;acoustic.h Pages: 1 -->
<svg width="276pt" height="95pt"
 viewBox="0.00 0.00 276.00 95.00" xmlns="http://www.w3.org/2000/svg" xmlns:xlink="http://www.w3.org/1999/xlink">
<g id="graph0" class="graph" transform="scale(1 1) rotate(0) translate(4 91)">
<title>include/starsh&#45;acoustic.h</title>
<polygon fill="white" stroke="none" points="-4,4 -4,-91 272,-91 272,4 -4,4"/>
<!-- Node11 -->
<g id="node1" class="node"><title>Node11</title>
<polygon fill="#bfbfbf" stroke="black" points="71,-67.5 71,-86.5 196,-86.5 196,-67.5 71,-67.5"/>
<text text-anchor="middle" x="133.5" y="-74.5" font-family="Helvetica,sans-Serif" font-size="10.00">include/starsh&#45;acoustic.h</text>
</g>
<!-- Node12 -->
<g id="node2" class="node"><title>Node12</title>
<g id="a_node2"><a xlink:href="mesh__acoustic_8c.html" target="_top" xlink:title="src/applications/acoustic\l/mesh_acoustic.c">
<polygon fill="white" stroke="black" points="0,-0.5 0,-30.5 125,-30.5 125,-0.5 0,-0.5"/>
<text text-anchor="start" x="8" y="-18.5" font-family="Helvetica,sans-Serif" font-size="10.00">src/applications/acoustic</text>
<text text-anchor="middle" x="62.5" y="-7.5" font-family="Helvetica,sans-Serif" font-size="10.00">/mesh_acoustic.c</text>
</a>
</g>
</g>
<!-- Node11&#45;&gt;Node12 -->
<g id="edge1" class="edge"><title>Node11&#45;&gt;Node12</title>
<path fill="none" stroke="midnightblue" d="M115.507,-60.9215C104.359,-51.579 90.1382,-39.6616 79.2333,-30.523"/>
<polygon fill="midnightblue" stroke="midnightblue" points="113.415,-63.7346 123.327,-67.4751 117.911,-58.3694 113.415,-63.7346"/>
</g>
<!-- Node13 -->
<g id="node3" class="node"><title>Node13</title>
<g id="a_node3"><a xlink:href="acoustic_8c.html" target="_top" xlink:title="src/applications/acoustic\l/acoustic.c">
<polygon fill="white" stroke="black" points="143,-0.5 143,-30.5 268,-30.5 268,-0.5 143,-0.5"/>
<text text-anchor="start" x="151" y="-18.5" font-family="Helvetica,sans-Serif" font-size="10.00">src/applications/acoustic</text>
<text text-anchor="middle" x="205.5" y="-7.5" font-family="Helvetica,sans-Serif" font-size="10.00">/acoustic.c</text>
</a>
</g>
</g>
<!-- Node11&#45;&gt;Node13 -->
<g id="edge2" class="edge"><title>Node11&#45;&gt;Node13</title>
<path fill="none" stroke="midnightblue" d="M151.746,-60.9215C163.051,-51.579 177.473,-39.6616 188.531,-30.523"/>
<polygon fill="midnightblue" stroke="midnightblue" points="149.295,-58.4069 143.816,-67.4751 153.754,-63.8028 149.295,-58.4069"/>
</g>
</g>
</svg>
