<?xml version="1.0" encoding="UTF-8" standalone="no"?>
<!DOCTYPE svg PUBLIC "-//W3C//DTD SVG 1.1//EN"
 "http://www.w3.org/Graphics/SVG/1.1/DTD/svg11.dtd">
<!-- Generated by graphviz version 2.38.0 (20140413.2041)
 -->
<!-- Title: include/starsh&#45;particles.h Pages: 1 -->
<svg width="5931pt" height="162pt"
 viewBox="0.00 0.00 5931.00 162.00" xmlns="http://www.w3.org/2000/svg" xmlns:xlink="http://www.w3.org/1999/xlink">
<g id="graph0" class="graph" transform="scale(1 1) rotate(0) translate(4 158)">
<title>include/starsh&#45;particles.h</title>
<polygon fill="white" stroke="none" points="-4,4 -4,-158 5927,-158 5927,4 -4,4"/>
<!-- Node10 -->
<g id="node1" class="node"><title>Node10</title>
<polygon fill="#bfbfbf" stroke="black" points="1691,-134.5 1691,-153.5 1816,-153.5 1816,-134.5 1691,-134.5"/>
<text text-anchor="middle" x="1753.5" y="-141.5" font-family="Helvetica,sans-Serif" font-size="10.00">include/starsh&#45;particles.h</text>
</g>
<!-- Node11 -->
<g id="node2" class="node"><title>Node11</title>
<g id="a_node2"><a xlink:href="particles_8c.html" target="_top" xlink:title="src/applications/particles.c">
<polygon fill="white" stroke="black" points="440,-78.5 440,-97.5 573,-97.5 573,-78.5 440,-78.5"/>
<text text-anchor="middle" x="506.5" y="-85.5" font-family="Helvetica,sans-Serif" font-size="10.00">src/applications/particles.c</text>
</a>
</g>
</g>
<!-- Node10&#45;&gt;Node11 -->
<g id="edge1" class="edge"><title>Node10&#45;&gt;Node11</title>
<path fill="none" stroke="midnightblue" d="M1680.71,-142.254C1496.44,-139.922 996.629,-130.823 581.5,-98 578.755,-97.7829 575.955,-97.5409 573.128,-97.2795"/>
<polygon fill="midnightblue" stroke="midnightblue" points="1680.78,-145.755 1690.82,-142.38 1680.87,-138.756 1680.78,-145.755"/>
</g>
<!-- Node12 -->
<g id="node3" class="node"><title>Node12</title>
<g id="a_node3"><a xlink:href="starsh-spatial_8h.html" target="_top" xlink:title="include/starsh&#45;spatial.h">
<polygon fill="white" stroke="black" points="4133,-78.5 4133,-97.5 4250,-97.5 4250,-78.5 4133,-78.5"/>
<text text-anchor="middle" x="4191.5" y="-85.5" font-family="Helvetica,sans-Serif" font-size="10.00">include/starsh&#45;spatial.h</text>
</a>
</g>
</g>
<!-- Node10&#45;&gt;Node12 -->
<g id="edge2" class="edge"><title>Node10&#45;&gt;Node12</title>
<path fill="none" stroke="midnightblue" d="M1826.35,-141.386C2189.93,-133.333 3803.65,-97.5907 4132.77,-90.3008"/>
<polygon fill="midnightblue" stroke="midnightblue" points="1826.14,-137.89 1816.22,-141.611 1826.29,-144.889 1826.14,-137.89"/>
</g>
<!-- Node35 -->
<g id="node26" class="node"><title>Node35</title>
<g id="a_node26"><a xlink:href="starsh-electrostatics_8h.html" target="_top" xlink:title="include/starsh&#45;electrostatics.h">
<polygon fill="white" stroke="black" points="591,-78.5 591,-97.5 738,-97.5 738,-78.5 591,-78.5"/>
<text text-anchor="middle" x="664.5" y="-85.5" font-family="Helvetica,sans-Serif" font-size="10.00">include/starsh&#45;electrostatics.h</text>
</a>
</g>
</g>
<!-- Node10&#45;&gt;Node35 -->
<g id="edge25" class="edge"><title>Node10&#45;&gt;Node35</title>
<path fill="none" stroke="midnightblue" d="M1680.64,-139.387C1482.79,-129.577 937.091,-102.517 738.229,-92.656"/>
<polygon fill="midnightblue" stroke="midnightblue" points="1680.48,-142.883 1690.64,-139.883 1680.83,-135.892 1680.48,-142.883"/>
</g>
<!-- Node42 -->
<g id="node33" class="node"><title>Node42</title>
<g id="a_node33"><a xlink:href="starsh-electrodynamics_8h.html" target="_top" xlink:title="include/starsh&#45;electrodynamics.h">
<polygon fill="white" stroke="black" points="1673.5,-78.5 1673.5,-97.5 1833.5,-97.5 1833.5,-78.5 1673.5,-78.5"/>
<text text-anchor="middle" x="1753.5" y="-85.5" font-family="Helvetica,sans-Serif" font-size="10.00">include/starsh&#45;electrodynamics.h</text>
</a>
</g>
</g>
<!-- Node10&#45;&gt;Node42 -->
<g id="edge33" class="edge"><title>Node10&#45;&gt;Node42</title>
<path fill="none" stroke="midnightblue" d="M1753.5,-123.805C1753.5,-114.91 1753.5,-104.78 1753.5,-97.7511"/>
<polygon fill="midnightblue" stroke="midnightblue" points="1750,-124.083 1753.5,-134.083 1757,-124.083 1750,-124.083"/>
</g>
<!-- Node54 -->
<g id="node45" class="node"><title>Node54</title>
<g id="a_node45"><a xlink:href="starsh-cauchy_8h_source.html" target="_top" xlink:title="include/starsh&#45;cauchy.h">
<polygon fill="white" stroke="black" points="2459.5,-78.5 2459.5,-97.5 2579.5,-97.5 2579.5,-78.5 2459.5,-78.5"/>
<text text-anchor="middle" x="2519.5" y="-85.5" font-family="Helvetica,sans-Serif" font-size="10.00">include/starsh&#45;cauchy.h</text>
</a>
</g>
</g>
<!-- Node10&#45;&gt;Node54 -->
<g id="edge46" class="edge"><title>Node10&#45;&gt;Node54</title>
<path fill="none" stroke="midnightblue" d="M1826.26,-137.871C1976.88,-127.253 2320.37,-103.038 2459.41,-93.236"/>
<polygon fill="midnightblue" stroke="midnightblue" points="1825.91,-134.386 1816.18,-138.581 1826.41,-141.369 1825.91,-134.386"/>
</g>
<!-- Node13 -->
<g id="node4" class="node"><title>Node13</title>
<g id="a_node4"><a xlink:href="common_8c.html" target="_top" xlink:title="src/applications/common.c">
<polygon fill="white" stroke="black" points="2452.5,-11.5 2452.5,-30.5 2586.5,-30.5 2586.5,-11.5 2452.5,-11.5"/>
<text text-anchor="middle" x="2519.5" y="-18.5" font-family="Helvetica,sans-Serif" font-size="10.00">src/applications/common.c</text>
</a>
</g>
</g>
<!-- Node12&#45;&gt;Node13 -->
<g id="edge3" class="edge"><title>Node12&#45;&gt;Node13</title>
<path fill="none" stroke="midnightblue" d="M4122.48,-87.1554C3856.36,-87.4285 2896.89,-85.3193 2595.5,-42 2578.75,-39.593 2560.4,-34.8254 2545.92,-30.5488"/>
<polygon fill="midnightblue" stroke="midnightblue" points="4122.77,-90.6551 4132.77,-87.1432 4122.76,-83.6551 4122.77,-90.6551"/>
</g>
<!-- Node14 -->
<g id="node5" class="node"><title>Node14</title>
<g id="a_node5"><a xlink:href="spatial_8c.html" target="_top" xlink:title="src/applications/spatial.c">
<polygon fill="white" stroke="black" points="3707,-11.5 3707,-30.5 3832,-30.5 3832,-11.5 3707,-11.5"/>
<text text-anchor="middle" x="3769.5" y="-18.5" font-family="Helvetica,sans-Serif" font-size="10.00">src/applications/spatial.c</text>
</a>
</g>
</g>
<!-- Node12&#45;&gt;Node14 -->
<g id="edge4" class="edge"><title>Node12&#45;&gt;Node14</title>
<path fill="none" stroke="midnightblue" d="M4122.72,-81.0903C4051.8,-74.3122 3938.23,-61.5481 3841.5,-42 3826.49,-38.9676 3810.03,-34.4814 3796.63,-30.5259"/>
<polygon fill="midnightblue" stroke="midnightblue" points="4122.58,-84.5928 4132.87,-82.047 4123.24,-77.6237 4122.58,-84.5928"/>
</g>
<!-- Node15 -->
<g id="node6" class="node"><title>Node15</title>
<g id="a_node6"><a xlink:href="kernel__exp__nd_8c.html" target="_top" xlink:title="build/src/applications\l/spatial/kernel_exp_nd.c">
<polygon fill="white" stroke="black" points="3850.5,-6 3850.5,-36 3972.5,-36 3972.5,-6 3850.5,-6"/>
<text text-anchor="start" x="3858.5" y="-24" font-family="Helvetica,sans-Serif" font-size="10.00">build/src/applications</text>
<text text-anchor="middle" x="3911.5" y="-13" font-family="Helvetica,sans-Serif" font-size="10.00">/spatial/kernel_exp_nd.c</text>
</a>
</g>
</g>
<!-- Node12&#45;&gt;Node15 -->
<g id="edge5" class="edge"><title>Node12&#45;&gt;Node15</title>
<path fill="none" stroke="midnightblue" d="M4137.59,-76.4863C4095.03,-67.9369 4034.25,-55.171 3981.5,-42 3974.27,-40.1934 3966.65,-38.1573 3959.21,-36.0933"/>
<polygon fill="midnightblue" stroke="midnightblue" points="4136.97,-79.9312 4147.46,-78.4593 4138.34,-73.067 4136.97,-79.9312"/>
</g>
<!-- Node16 -->
<g id="node7" class="node"><title>Node16</title>
<g id="a_node7"><a xlink:href="kernel__exp__1d_8c.html" target="_top" xlink:title="build/src/applications\l/spatial/kernel_exp_1d.c">
<polygon fill="white" stroke="black" points="3990.5,-6 3990.5,-36 4112.5,-36 4112.5,-6 3990.5,-6"/>
<text text-anchor="start" x="3998.5" y="-24" font-family="Helvetica,sans-Serif" font-size="10.00">build/src/applications</text>
<text text-anchor="middle" x="4051.5" y="-13" font-family="Helvetica,sans-Serif" font-size="10.00">/spatial/kernel_exp_1d.c</text>
</a>
</g>
</g>
<!-- Node12&#45;&gt;Node16 -->
<g id="edge6" class="edge"><title>Node12&#45;&gt;Node16</title>
<path fill="none" stroke="midnightblue" d="M4163.76,-74.1206C4140.08,-63.1252 4106.08,-47.3413 4081.71,-36.0281"/>
<polygon fill="midnightblue" stroke="midnightblue" points="4162.37,-77.3319 4172.91,-78.3685 4165.31,-70.9828 4162.37,-77.3319"/>
</g>
<!-- Node17 -->
<g id="node8" class="node"><title>Node17</title>
<g id="a_node8"><a xlink:href="kernel__exp__2d_8c.html" target="_top" xlink:title="build/src/applications\l/spatial/kernel_exp_2d.c">
<polygon fill="white" stroke="black" points="4130.5,-6 4130.5,-36 4252.5,-36 4252.5,-6 4130.5,-6"/>
<text text-anchor="start" x="4138.5" y="-24" font-family="Helvetica,sans-Serif" font-size="10.00">build/src/applications</text>
<text text-anchor="middle" x="4191.5" y="-13" font-family="Helvetica,sans-Serif" font-size="10.00">/spatial/kernel_exp_2d.c</text>
</a>
</g>
</g>
<!-- Node12&#45;&gt;Node17 -->
<g id="edge7" class="edge"><title>Node12&#45;&gt;Node17</title>
<path fill="none" stroke="midnightblue" d="M4191.5,-67.9107C4191.5,-57.722 4191.5,-45.401 4191.5,-36.089"/>
<polygon fill="midnightblue" stroke="midnightblue" points="4188,-68.2338 4191.5,-78.2338 4195,-68.2338 4188,-68.2338"/>
</g>
<!-- Node18 -->
<g id="node9" class="node"><title>Node18</title>
<g id="a_node9"><a xlink:href="kernel__exp__3d_8c.html" target="_top" xlink:title="build/src/applications\l/spatial/kernel_exp_3d.c">
<polygon fill="white" stroke="black" points="4270.5,-6 4270.5,-36 4392.5,-36 4392.5,-6 4270.5,-6"/>
<text text-anchor="start" x="4278.5" y="-24" font-family="Helvetica,sans-Serif" font-size="10.00">build/src/applications</text>
<text text-anchor="middle" x="4331.5" y="-13" font-family="Helvetica,sans-Serif" font-size="10.00">/spatial/kernel_exp_3d.c</text>
</a>
</g>
</g>
<!-- Node12&#45;&gt;Node18 -->
<g id="edge8" class="edge"><title>Node12&#45;&gt;Node18</title>
<path fill="none" stroke="midnightblue" d="M4219.24,-74.1206C4242.92,-63.1252 4276.92,-47.3413 4301.29,-36.0281"/>
<polygon fill="midnightblue" stroke="midnightblue" points="4217.69,-70.9828 4210.09,-78.3685 4220.63,-77.3319 4217.69,-70.9828"/>
</g>
<!-- Node19 -->
<g id="node10" class="node"><title>Node19</title>
<g id="a_node10"><a xlink:href="kernel__exp__4d_8c.html" target="_top" xlink:title="build/src/applications\l/spatial/kernel_exp_4d.c">
<polygon fill="white" stroke="black" points="4410.5,-6 4410.5,-36 4532.5,-36 4532.5,-6 4410.5,-6"/>
<text text-anchor="start" x="4418.5" y="-24" font-family="Helvetica,sans-Serif" font-size="10.00">build/src/applications</text>
<text text-anchor="middle" x="4471.5" y="-13" font-family="Helvetica,sans-Serif" font-size="10.00">/spatial/kernel_exp_4d.c</text>
</a>
</g>
</g>
<!-- Node12&#45;&gt;Node19 -->
<g id="edge9" class="edge"><title>Node12&#45;&gt;Node19</title>
<path fill="none" stroke="midnightblue" d="M4245.41,-76.4863C4287.97,-67.9369 4348.75,-55.171 4401.5,-42 4408.73,-40.1934 4416.35,-38.1573 4423.79,-36.0933"/>
<polygon fill="midnightblue" stroke="midnightblue" points="4244.66,-73.067 4235.54,-78.4593 4246.03,-79.9312 4244.66,-73.067"/>
</g>
<!-- Node20 -->
<g id="node11" class="node"><title>Node20</title>
<g id="a_node11"><a xlink:href="kernel__sqrexp__nd_8c.html" target="_top" xlink:title="build/src/applications\l/spatial/kernel_sqrexp_nd.c">
<polygon fill="white" stroke="black" points="4550.5,-6 4550.5,-36 4686.5,-36 4686.5,-6 4550.5,-6"/>
<text text-anchor="start" x="4558.5" y="-24" font-family="Helvetica,sans-Serif" font-size="10.00">build/src/applications</text>
<text text-anchor="middle" x="4618.5" y="-13" font-family="Helvetica,sans-Serif" font-size="10.00">/spatial/kernel_sqrexp_nd.c</text>
</a>
</g>
</g>
<!-- Node12&#45;&gt;Node20 -->
<g id="edge10" class="edge"><title>Node12&#45;&gt;Node20</title>
<path fill="none" stroke="midnightblue" d="M4260.21,-80.7544C4331.08,-73.7084 4444.61,-60.7338 4541.5,-42 4550.18,-40.3219 4559.33,-38.2329 4568.18,-36.0433"/>
<polygon fill="midnightblue" stroke="midnightblue" points="4259.68,-77.2896 4250.07,-81.751 4260.37,-84.256 4259.68,-77.2896"/>
</g>
<!-- Node21 -->
<g id="node12" class="node"><title>Node21</title>
<g id="a_node12"><a xlink:href="kernel__sqrexp__1d_8c.html" target="_top" xlink:title="build/src/applications\l/spatial/kernel_sqrexp_1d.c">
<polygon fill="white" stroke="black" points="4704.5,-6 4704.5,-36 4840.5,-36 4840.5,-6 4704.5,-6"/>
<text text-anchor="start" x="4712.5" y="-24" font-family="Helvetica,sans-Serif" font-size="10.00">build/src/applications</text>
<text text-anchor="middle" x="4772.5" y="-13" font-family="Helvetica,sans-Serif" font-size="10.00">/spatial/kernel_sqrexp_1d.c</text>
</a>
</g>
</g>
<!-- Node12&#45;&gt;Node21 -->
<g id="edge11" class="edge"><title>Node12&#45;&gt;Node21</title>
<path fill="none" stroke="midnightblue" d="M4260.13,-84.4634C4357.55,-80.0504 4541.26,-68.7286 4695.5,-42 4704.62,-40.4199 4714.24,-38.297 4723.47,-36.0236"/>
<polygon fill="midnightblue" stroke="midnightblue" points="4259.95,-80.9677 4250.11,-84.9063 4260.26,-87.9609 4259.95,-80.9677"/>
</g>
<!-- Node22 -->
<g id="node13" class="node"><title>Node22</title>
<g id="a_node13"><a xlink:href="kernel__sqrexp__2d_8c.html" target="_top" xlink:title="build/src/applications\l/spatial/kernel_sqrexp_2d.c">
<polygon fill="white" stroke="black" points="4858.5,-6 4858.5,-36 4994.5,-36 4994.5,-6 4858.5,-6"/>
<text text-anchor="start" x="4866.5" y="-24" font-family="Helvetica,sans-Serif" font-size="10.00">build/src/applications</text>
<text text-anchor="middle" x="4926.5" y="-13" font-family="Helvetica,sans-Serif" font-size="10.00">/spatial/kernel_sqrexp_2d.c</text>
</a>
</g>
</g>
<!-- Node12&#45;&gt;Node22 -->
<g id="edge12" class="edge"><title>Node12&#45;&gt;Node22</title>
<path fill="none" stroke="midnightblue" d="M4260.17,-86.4899C4380.39,-84.6675 4636.45,-76.6445 4849.5,-42 4858.77,-40.4925 4868.55,-38.3748 4877.91,-36.0773"/>
<polygon fill="midnightblue" stroke="midnightblue" points="4259.96,-82.9925 4250.01,-86.634 4260.06,-89.9918 4259.96,-82.9925"/>
</g>
<!-- Node23 -->
<g id="node14" class="node"><title>Node23</title>
<g id="a_node14"><a xlink:href="kernel__sqrexp__3d_8c.html" target="_top" xlink:title="build/src/applications\l/spatial/kernel_sqrexp_3d.c">
<polygon fill="white" stroke="black" points="5012.5,-6 5012.5,-36 5148.5,-36 5148.5,-6 5012.5,-6"/>
<text text-anchor="start" x="5020.5" y="-24" font-family="Helvetica,sans-Serif" font-size="10.00">build/src/applications</text>
<text text-anchor="middle" x="5080.5" y="-13" font-family="Helvetica,sans-Serif" font-size="10.00">/spatial/kernel_sqrexp_3d.c</text>
</a>
</g>
</g>
<!-- Node12&#45;&gt;Node23 -->
<g id="edge13" class="edge"><title>Node12&#45;&gt;Node23</title>
<path fill="none" stroke="midnightblue" d="M4260.2,-87.7752C4400.69,-88.3559 4730.63,-84.5654 5003.5,-42 5012.92,-40.5312 5022.85,-38.4012 5032.34,-36.0732"/>
<polygon fill="midnightblue" stroke="midnightblue" points="4260.03,-84.2744 4250.01,-87.724 4259.99,-91.2744 4260.03,-84.2744"/>
</g>
<!-- Node24 -->
<g id="node15" class="node"><title>Node24</title>
<g id="a_node15"><a xlink:href="kernel__sqrexp__4d_8c.html" target="_top" xlink:title="build/src/applications\l/spatial/kernel_sqrexp_4d.c">
<polygon fill="white" stroke="black" points="5166.5,-6 5166.5,-36 5302.5,-36 5302.5,-6 5166.5,-6"/>
<text text-anchor="start" x="5174.5" y="-24" font-family="Helvetica,sans-Serif" font-size="10.00">build/src/applications</text>
<text text-anchor="middle" x="5234.5" y="-13" font-family="Helvetica,sans-Serif" font-size="10.00">/spatial/kernel_sqrexp_4d.c</text>
</a>
</g>
</g>
<!-- Node12&#45;&gt;Node24 -->
<g id="edge14" class="edge"><title>Node12&#45;&gt;Node24</title>
<path fill="none" stroke="midnightblue" d="M4260.28,-85.6511C4451.05,-81.6142 4984.21,-68.2496 5157.5,-42 5167.06,-40.552 5177.15,-38.4005 5186.76,-36.0385"/>
<polygon fill="midnightblue" stroke="midnightblue" points="4260.02,-82.1556 4250.1,-85.8645 4260.17,-89.154 4260.02,-82.1556"/>
</g>
<!-- Node25 -->
<g id="node16" class="node"><title>Node25</title>
<g id="a_node16"><a xlink:href="kernel__matern__nd_8c.html" target="_top" xlink:title="build/src/applications\l/spatial/kernel_matern_nd.c">
<polygon fill="white" stroke="black" points="5321,-6 5321,-36 5458,-36 5458,-6 5321,-6"/>
<text text-anchor="start" x="5329" y="-24" font-family="Helvetica,sans-Serif" font-size="10.00">build/src/applications</text>
<text text-anchor="middle" x="5389.5" y="-13" font-family="Helvetica,sans-Serif" font-size="10.00">/spatial/kernel_matern_nd.c</text>
</a>
</g>
</g>
<!-- Node12&#45;&gt;Node25 -->
<g id="edge15" class="edge"><title>Node12&#45;&gt;Node25</title>
<path fill="none" stroke="midnightblue" d="M4260.11,-86.1375C4470.88,-83.1888 5107.02,-71.9798 5311.5,-42 5321.18,-40.5804 5331.4,-38.4418 5341.14,-36.0835"/>
<polygon fill="midnightblue" stroke="midnightblue" points="4260.05,-82.6379 4250.1,-86.2757 4260.15,-89.6372 4260.05,-82.6379"/>
</g>
<!-- Node26 -->
<g id="node17" class="node"><title>Node26</title>
<g id="a_node17"><a xlink:href="kernel__matern__1d_8c.html" target="_top" xlink:title="build/src/applications\l/spatial/kernel_matern_1d.c">
<polygon fill="white" stroke="black" points="5476,-6 5476,-36 5613,-36 5613,-6 5476,-6"/>
<text text-anchor="start" x="5484" y="-24" font-family="Helvetica,sans-Serif" font-size="10.00">build/src/applications</text>
<text text-anchor="middle" x="5544.5" y="-13" font-family="Helvetica,sans-Serif" font-size="10.00">/spatial/kernel_matern_1d.c</text>
</a>
</g>
</g>
<!-- Node12&#45;&gt;Node26 -->
<g id="edge16" class="edge"><title>Node12&#45;&gt;Node26</title>
<path fill="none" stroke="midnightblue" d="M4260.44,-86.5556C4490.63,-84.7604 5231.49,-76.3884 5467.5,-42 5477.2,-40.5861 5487.45,-38.4181 5497.19,-36.023"/>
<polygon fill="midnightblue" stroke="midnightblue" points="4260.17,-83.0575 4250.19,-86.6338 4260.22,-90.0573 4260.17,-83.0575"/>
</g>
<!-- Node27 -->
<g id="node18" class="node"><title>Node27</title>
<g id="a_node18"><a xlink:href="kernel__matern__2d_8c.html" target="_top" xlink:title="build/src/applications\l/spatial/kernel_matern_2d.c">
<polygon fill="white" stroke="black" points="5631,-6 5631,-36 5768,-36 5768,-6 5631,-6"/>
<text text-anchor="start" x="5639" y="-24" font-family="Helvetica,sans-Serif" font-size="10.00">build/src/applications</text>
<text text-anchor="middle" x="5699.5" y="-13" font-family="Helvetica,sans-Serif" font-size="10.00">/spatial/kernel_matern_2d.c</text>
</a>
</g>
</g>
<!-- Node12&#45;&gt;Node27 -->
<g id="edge17" class="edge"><title>Node12&#45;&gt;Node27</title>
<path fill="none" stroke="midnightblue" d="M4260.7,-86.8627C4509.07,-86.0519 5354.94,-80.4641 5622.5,-42 5632.21,-40.6046 5642.45,-38.4448 5652.19,-36.052"/>
<polygon fill="midnightblue" stroke="midnightblue" points="4260.36,-83.3636 4250.37,-86.8947 4260.39,-90.3636 4260.36,-83.3636"/>
</g>
<!-- Node28 -->
<g id="node19" class="node"><title>Node28</title>
<g id="a_node19"><a xlink:href="kernel__matern__3d_8c.html" target="_top" xlink:title="build/src/applications\l/spatial/kernel_matern_3d.c">
<polygon fill="white" stroke="black" points="5786,-6 5786,-36 5923,-36 5923,-6 5786,-6"/>
<text text-anchor="start" x="5794" y="-24" font-family="Helvetica,sans-Serif" font-size="10.00">build/src/applications</text>
<text text-anchor="middle" x="5854.5" y="-13" font-family="Helvetica,sans-Serif" font-size="10.00">/spatial/kernel_matern_3d.c</text>
</a>
</g>
</g>
<!-- Node12&#45;&gt;Node28 -->
<g id="edge18" class="edge"><title>Node12&#45;&gt;Node28</title>
<path fill="none" stroke="midnightblue" d="M4260.53,-87.1119C4525.59,-87.2203 5478.1,-84.5717 5777.5,-42 5787.21,-40.6195 5797.45,-38.4664 5807.19,-36.0754"/>
<polygon fill="midnightblue" stroke="midnightblue" points="4260.28,-83.6118 4250.28,-87.1061 4260.28,-90.6118 4260.28,-83.6118"/>
</g>
<!-- Node29 -->
<g id="node20" class="node"><title>Node29</title>
<g id="a_node20"><a xlink:href="kernel__matern__4d_8c.html" target="_top" xlink:title="build/src/applications\l/spatial/kernel_matern_4d.c">
<polygon fill="white" stroke="black" points="2751,-6 2751,-36 2888,-36 2888,-6 2751,-6"/>
<text text-anchor="start" x="2759" y="-24" font-family="Helvetica,sans-Serif" font-size="10.00">build/src/applications</text>
<text text-anchor="middle" x="2819.5" y="-13" font-family="Helvetica,sans-Serif" font-size="10.00">/spatial/kernel_matern_4d.c</text>
</a>
</g>
</g>
<!-- Node12&#45;&gt;Node29 -->
<g id="edge19" class="edge"><title>Node12&#45;&gt;Node29</title>
<path fill="none" stroke="midnightblue" d="M4122.74,-86.5683C3890.63,-84.8043 3137.29,-76.4971 2897.5,-42 2887.68,-40.5866 2877.3,-38.4188 2867.44,-36.0238"/>
<polygon fill="midnightblue" stroke="midnightblue" points="4122.71,-90.0682 4132.74,-86.6427 4122.77,-83.0683 4122.71,-90.0682"/>
</g>
<!-- Node30 -->
<g id="node21" class="node"><title>Node30</title>
<g id="a_node21"><a xlink:href="kernel__matern2__nd_8c.html" target="_top" xlink:title="build/src/applications\l/spatial/kernel_matern2_nd.c">
<polygon fill="white" stroke="black" points="2906.5,-6 2906.5,-36 3048.5,-36 3048.5,-6 2906.5,-6"/>
<text text-anchor="start" x="2914.5" y="-24" font-family="Helvetica,sans-Serif" font-size="10.00">build/src/applications</text>
<text text-anchor="middle" x="2977.5" y="-13" font-family="Helvetica,sans-Serif" font-size="10.00">/spatial/kernel_matern2_nd.c</text>
</a>
</g>
</g>
<!-- Node12&#45;&gt;Node30 -->
<g id="edge20" class="edge"><title>Node12&#45;&gt;Node30</title>
<path fill="none" stroke="midnightblue" d="M4122.78,-86.1218C3910.15,-83.1128 3264.87,-71.7134 3057.5,-42 3047.58,-40.5786 3037.1,-38.4391 3027.12,-36.0806"/>
<polygon fill="midnightblue" stroke="midnightblue" points="4122.82,-89.6227 4132.87,-86.2629 4122.92,-82.6233 4122.82,-89.6227"/>
</g>
<!-- Node31 -->
<g id="node22" class="node"><title>Node31</title>
<g id="a_node22"><a xlink:href="kernel__matern2__1d_8c.html" target="_top" xlink:title="build/src/applications\l/spatial/kernel_matern2_1d.c">
<polygon fill="white" stroke="black" points="3066.5,-6 3066.5,-36 3208.5,-36 3208.5,-6 3066.5,-6"/>
<text text-anchor="start" x="3074.5" y="-24" font-family="Helvetica,sans-Serif" font-size="10.00">build/src/applications</text>
<text text-anchor="middle" x="3137.5" y="-13" font-family="Helvetica,sans-Serif" font-size="10.00">/spatial/kernel_matern2_1d.c</text>
</a>
</g>
</g>
<!-- Node12&#45;&gt;Node31 -->
<g id="edge21" class="edge"><title>Node12&#45;&gt;Node31</title>
<path fill="none" stroke="midnightblue" d="M4122.5,-85.5957C3930.47,-81.4032 3392.45,-67.6489 3217.5,-42 3207.58,-40.5463 3197.11,-38.3922 3187.12,-36.0295"/>
<polygon fill="midnightblue" stroke="midnightblue" points="4122.67,-89.1001 4132.75,-85.8174 4122.83,-82.1017 4122.67,-89.1001"/>
</g>
<!-- Node32 -->
<g id="node23" class="node"><title>Node32</title>
<g id="a_node23"><a xlink:href="kernel__matern2__2d_8c.html" target="_top" xlink:title="build/src/applications\l/spatial/kernel_matern2_2d.c">
<polygon fill="white" stroke="black" points="3226.5,-6 3226.5,-36 3368.5,-36 3368.5,-6 3226.5,-6"/>
<text text-anchor="start" x="3234.5" y="-24" font-family="Helvetica,sans-Serif" font-size="10.00">build/src/applications</text>
<text text-anchor="middle" x="3297.5" y="-13" font-family="Helvetica,sans-Serif" font-size="10.00">/spatial/kernel_matern2_2d.c</text>
</a>
</g>
</g>
<!-- Node12&#45;&gt;Node32 -->
<g id="edge22" class="edge"><title>Node12&#45;&gt;Node32</title>
<path fill="none" stroke="midnightblue" d="M4122.67,-87.5807C3981.89,-87.806 3651.24,-83.4 3377.5,-42 3367.73,-40.5228 3357.42,-38.389 3347.56,-36.0598"/>
<polygon fill="midnightblue" stroke="midnightblue" points="4122.88,-91.0802 4132.88,-87.5555 4122.87,-84.0802 4122.88,-91.0802"/>
</g>
<!-- Node33 -->
<g id="node24" class="node"><title>Node33</title>
<g id="a_node24"><a xlink:href="kernel__matern2__3d_8c.html" target="_top" xlink:title="build/src/applications\l/spatial/kernel_matern2_3d.c">
<polygon fill="white" stroke="black" points="3386.5,-6 3386.5,-36 3528.5,-36 3528.5,-6 3386.5,-6"/>
<text text-anchor="start" x="3394.5" y="-24" font-family="Helvetica,sans-Serif" font-size="10.00">build/src/applications</text>
<text text-anchor="middle" x="3457.5" y="-13" font-family="Helvetica,sans-Serif" font-size="10.00">/spatial/kernel_matern2_3d.c</text>
</a>
</g>
</g>
<!-- Node12&#45;&gt;Node33 -->
<g id="edge23" class="edge"><title>Node12&#45;&gt;Node33</title>
<path fill="none" stroke="midnightblue" d="M4122.82,-86.2449C4003.19,-84.0474 3749.13,-75.4671 3537.5,-42 3527.88,-40.4794 3517.73,-38.3555 3508.01,-36.0561"/>
<polygon fill="midnightblue" stroke="midnightblue" points="4122.87,-89.7463 4132.93,-86.4213 4122.99,-82.7474 4122.87,-89.7463"/>
</g>
<!-- Node34 -->
<g id="node25" class="node"><title>Node34</title>
<g id="a_node25"><a xlink:href="kernel__matern2__4d_8c.html" target="_top" xlink:title="build/src/applications\l/spatial/kernel_matern2_4d.c">
<polygon fill="white" stroke="black" points="3546.5,-6 3546.5,-36 3688.5,-36 3688.5,-6 3546.5,-6"/>
<text text-anchor="start" x="3554.5" y="-24" font-family="Helvetica,sans-Serif" font-size="10.00">build/src/applications</text>
<text text-anchor="middle" x="3617.5" y="-13" font-family="Helvetica,sans-Serif" font-size="10.00">/spatial/kernel_matern2_4d.c</text>
</a>
</g>
</g>
<!-- Node12&#45;&gt;Node34 -->
<g id="edge24" class="edge"><title>Node12&#45;&gt;Node34</title>
<path fill="none" stroke="midnightblue" d="M4122.81,-84.0903C4026.99,-79.273 3848.03,-67.5163 3697.5,-42 3688.18,-40.4209 3678.35,-38.3267 3668.89,-36.0879"/>
<polygon fill="midnightblue" stroke="midnightblue" points="4122.79,-87.5934 4132.95,-84.5896 4123.13,-80.6019 4122.79,-87.5934"/>
</g>
<!-- Node35&#45;&gt;Node13 -->
<g id="edge26" class="edge"><title>Node35&#45;&gt;Node13</title>
<path fill="none" stroke="midnightblue" d="M748.555,-86.0199C1078.47,-82.0164 2275,-65.9704 2443.5,-42 2460.25,-39.6173 2478.6,-34.8505 2493.08,-30.5681"/>
<polygon fill="midnightblue" stroke="midnightblue" points="748.074,-82.5254 738.117,-86.1461 748.158,-89.5249 748.074,-82.5254"/>
</g>
<!-- Node36 -->
<g id="node27" class="node"><title>Node36</title>
<g id="a_node27"><a xlink:href="electrostatics_8c.html" target="_top" xlink:title="src/applications/electrostatics.c">
<polygon fill="white" stroke="black" points="0,-11.5 0,-30.5 155,-30.5 155,-11.5 0,-11.5"/>
<text text-anchor="middle" x="77.5" y="-18.5" font-family="Helvetica,sans-Serif" font-size="10.00">src/applications/electrostatics.c</text>
</a>
</g>
</g>
<!-- Node35&#45;&gt;Node36 -->
<g id="edge27" class="edge"><title>Node35&#45;&gt;Node36</title>
<path fill="none" stroke="midnightblue" d="M580.602,-77.944C394.172,-60.3311 344.429,-70.6795 163.5,-42 145.483,-39.1442 125.634,-34.6218 109.548,-30.5993"/>
<polygon fill="midnightblue" stroke="midnightblue" points="580.454,-81.4457 590.742,-78.9167 581.122,-74.4777 580.454,-81.4457"/>
</g>
<!-- Node37 -->
<g id="node28" class="node"><title>Node37</title>
<g id="a_node28"><a xlink:href="kernel__coulomb__potential__nd_8c.html" target="_top" xlink:title="build/src/applications\l/electrostatics/kernel\l_coulomb_potential_nd.c">
<polygon fill="white" stroke="black" points="173,-0.5 173,-41.5 298,-41.5 298,-0.5 173,-0.5"/>
<text text-anchor="start" x="181" y="-29.5" font-family="Helvetica,sans-Serif" font-size="10.00">build/src/applications</text>
<text text-anchor="start" x="181" y="-18.5" font-family="Helvetica,sans-Serif" font-size="10.00">/electrostatics/kernel</text>
<text text-anchor="middle" x="235.5" y="-7.5" font-family="Helvetica,sans-Serif" font-size="10.00">_coulomb_potential_nd.c</text>
</a>
</g>
</g>
<!-- Node35&#45;&gt;Node37 -->
<g id="edge28" class="edge"><title>Node35&#45;&gt;Node37</title>
<path fill="none" stroke="midnightblue" d="M581.725,-77.257C484.428,-65.7006 332.813,-47.3287 306.5,-42 303.739,-41.4408 300.928,-40.83 298.096,-40.1806"/>
<polygon fill="midnightblue" stroke="midnightblue" points="581.5,-80.7548 591.843,-78.4575 582.325,-73.8036 581.5,-80.7548"/>
</g>
<!-- Node38 -->
<g id="node29" class="node"><title>Node38</title>
<g id="a_node29"><a xlink:href="kernel__coulomb__potential__1d_8c.html" target="_top" xlink:title="build/src/applications\l/electrostatics/kernel\l_coulomb_potential_1d.c">
<polygon fill="white" stroke="black" points="316,-0.5 316,-41.5 441,-41.5 441,-0.5 316,-0.5"/>
<text text-anchor="start" x="324" y="-29.5" font-family="Helvetica,sans-Serif" font-size="10.00">build/src/applications</text>
<text text-anchor="start" x="324" y="-18.5" font-family="Helvetica,sans-Serif" font-size="10.00">/electrostatics/kernel</text>
<text text-anchor="middle" x="378.5" y="-7.5" font-family="Helvetica,sans-Serif" font-size="10.00">_coulomb_potential_1d.c</text>
</a>
</g>
</g>
<!-- Node35&#45;&gt;Node38 -->
<g id="edge29" class="edge"><title>Node35&#45;&gt;Node38</title>
<path fill="none" stroke="midnightblue" d="M609.584,-76.5796C566.002,-68.0516 503.619,-55.2697 449.5,-42 446.764,-41.3291 443.973,-40.6258 441.158,-39.9006"/>
<polygon fill="midnightblue" stroke="midnightblue" points="608.929,-80.0177 619.414,-78.4932 610.267,-73.1467 608.929,-80.0177"/>
</g>
<!-- Node39 -->
<g id="node30" class="node"><title>Node39</title>
<g id="a_node30"><a xlink:href="kernel__coulomb__potential__2d_8c.html" target="_top" xlink:title="build/src/applications\l/electrostatics/kernel\l_coulomb_potential_2d.c">
<polygon fill="white" stroke="black" points="459,-0.5 459,-41.5 584,-41.5 584,-0.5 459,-0.5"/>
<text text-anchor="start" x="467" y="-29.5" font-family="Helvetica,sans-Serif" font-size="10.00">build/src/applications</text>
<text text-anchor="start" x="467" y="-18.5" font-family="Helvetica,sans-Serif" font-size="10.00">/electrostatics/kernel</text>
<text text-anchor="middle" x="521.5" y="-7.5" font-family="Helvetica,sans-Serif" font-size="10.00">_coulomb_potential_2d.c</text>
</a>
</g>
</g>
<!-- Node35&#45;&gt;Node39 -->
<g id="edge30" class="edge"><title>Node35&#45;&gt;Node39</title>
<path fill="none" stroke="midnightblue" d="M636.148,-74.1127C615.741,-64.8366 587.842,-52.1556 564.676,-41.6254"/>
<polygon fill="midnightblue" stroke="midnightblue" points="634.959,-77.4167 645.511,-78.3685 637.855,-71.0441 634.959,-77.4167"/>
</g>
<!-- Node40 -->
<g id="node31" class="node"><title>Node40</title>
<g id="a_node31"><a xlink:href="kernel__coulomb__potential__3d_8c.html" target="_top" xlink:title="build/src/applications\l/electrostatics/kernel\l_coulomb_potential_3d.c">
<polygon fill="white" stroke="black" points="602,-0.5 602,-41.5 727,-41.5 727,-0.5 602,-0.5"/>
<text text-anchor="start" x="610" y="-29.5" font-family="Helvetica,sans-Serif" font-size="10.00">build/src/applications</text>
<text text-anchor="start" x="610" y="-18.5" font-family="Helvetica,sans-Serif" font-size="10.00">/electrostatics/kernel</text>
<text text-anchor="middle" x="664.5" y="-7.5" font-family="Helvetica,sans-Serif" font-size="10.00">_coulomb_potential_3d.c</text>
</a>
</g>
</g>
<!-- Node35&#45;&gt;Node40 -->
<g id="edge31" class="edge"><title>Node35&#45;&gt;Node40</title>
<path fill="none" stroke="midnightblue" d="M664.5,-68.037C664.5,-59.7084 664.5,-49.9358 664.5,-41.5421"/>
<polygon fill="midnightblue" stroke="midnightblue" points="661,-68.2338 664.5,-78.2338 668,-68.2338 661,-68.2338"/>
</g>
<!-- Node41 -->
<g id="node32" class="node"><title>Node41</title>
<g id="a_node32"><a xlink:href="kernel__coulomb__potential__4d_8c.html" target="_top" xlink:title="build/src/applications\l/electrostatics/kernel\l_coulomb_potential_4d.c">
<polygon fill="white" stroke="black" points="745,-0.5 745,-41.5 870,-41.5 870,-0.5 745,-0.5"/>
<text text-anchor="start" x="753" y="-29.5" font-family="Helvetica,sans-Serif" font-size="10.00">build/src/applications</text>
<text text-anchor="start" x="753" y="-18.5" font-family="Helvetica,sans-Serif" font-size="10.00">/electrostatics/kernel</text>
<text text-anchor="middle" x="807.5" y="-7.5" font-family="Helvetica,sans-Serif" font-size="10.00">_coulomb_potential_4d.c</text>
</a>
</g>
</g>
<!-- Node35&#45;&gt;Node41 -->
<g id="edge32" class="edge"><title>Node35&#45;&gt;Node41</title>
<path fill="none" stroke="midnightblue" d="M692.852,-74.1127C713.259,-64.8366 741.158,-52.1556 764.324,-41.6254"/>
<polygon fill="midnightblue" stroke="midnightblue" points="691.145,-71.0441 683.489,-78.3685 694.041,-77.4167 691.145,-71.0441"/>
</g>
<!-- Node42&#45;&gt;Node13 -->
<g id="edge34" class="edge"><title>Node42&#45;&gt;Node13</title>
<path fill="none" stroke="midnightblue" d="M1843.85,-86.6226C1976.26,-84.8261 2230.44,-76.6516 2443.5,-42 2459.93,-39.328 2477.96,-34.6605 2492.33,-30.5063"/>
<polygon fill="midnightblue" stroke="midnightblue" points="1843.7,-83.124 1833.75,-86.7504 1843.79,-90.1235 1843.7,-83.124"/>
</g>
<!-- Node43 -->
<g id="node34" class="node"><title>Node43</title>
<g id="a_node34"><a xlink:href="electrodynamics_8c.html" target="_top" xlink:title="src/applications/electrodynamics.c">
<polygon fill="white" stroke="black" points="1026,-11.5 1026,-30.5 1193,-30.5 1193,-11.5 1026,-11.5"/>
<text text-anchor="middle" x="1109.5" y="-18.5" font-family="Helvetica,sans-Serif" font-size="10.00">src/applications/electrodynamics.c</text>
</a>
</g>
</g>
<!-- Node42&#45;&gt;Node43 -->
<g id="edge35" class="edge"><title>Node42&#45;&gt;Node43</title>
<path fill="none" stroke="midnightblue" d="M1663.1,-83.3157C1553.42,-77.9983 1363.12,-66.0473 1201.5,-42 1182.26,-39.1375 1161.03,-34.6147 1143.81,-30.5936"/>
<polygon fill="midnightblue" stroke="midnightblue" points="1662.98,-86.8138 1673.13,-83.7945 1663.31,-79.8217 1662.98,-86.8138"/>
</g>
<!-- Node44 -->
<g id="node35" class="node"><title>Node44</title>
<g id="a_node35"><a xlink:href="kernel__sin__nd_8c.html" target="_top" xlink:title="build/src/applications\l/electrodynamics/kernel\l_sin_nd.c">
<polygon fill="white" stroke="black" points="1210.5,-0.5 1210.5,-41.5 1330.5,-41.5 1330.5,-0.5 1210.5,-0.5"/>
<text text-anchor="start" x="1218.5" y="-29.5" font-family="Helvetica,sans-Serif" font-size="10.00">build/src/applications</text>
<text text-anchor="start" x="1218.5" y="-18.5" font-family="Helvetica,sans-Serif" font-size="10.00">/electrodynamics/kernel</text>
<text text-anchor="middle" x="1270.5" y="-7.5" font-family="Helvetica,sans-Serif" font-size="10.00">_sin_nd.c</text>
</a>
</g>
</g>
<!-- Node42&#45;&gt;Node44 -->
<g id="edge36" class="edge"><title>Node42&#45;&gt;Node44</title>
<path fill="none" stroke="midnightblue" d="M1663.06,-81.7134C1578.73,-75.7137 1449.74,-63.7962 1339.5,-42 1336.56,-41.4194 1333.57,-40.7719 1330.56,-40.0751"/>
<polygon fill="midnightblue" stroke="midnightblue" points="1662.9,-85.2107 1673.12,-82.4161 1663.39,-78.2277 1662.9,-85.2107"/>
</g>
<!-- Node45 -->
<g id="node36" class="node"><title>Node45</title>
<g id="a_node36"><a xlink:href="kernel__sin__1d_8c.html" target="_top" xlink:title="build/src/applications\l/electrodynamics/kernel\l_sin_1d.c">
<polygon fill="white" stroke="black" points="1348.5,-0.5 1348.5,-41.5 1468.5,-41.5 1468.5,-0.5 1348.5,-0.5"/>
<text text-anchor="start" x="1356.5" y="-29.5" font-family="Helvetica,sans-Serif" font-size="10.00">build/src/applications</text>
<text text-anchor="start" x="1356.5" y="-18.5" font-family="Helvetica,sans-Serif" font-size="10.00">/electrodynamics/kernel</text>
<text text-anchor="middle" x="1408.5" y="-7.5" font-family="Helvetica,sans-Serif" font-size="10.00">_sin_1d.c</text>
</a>
</g>
</g>
<!-- Node42&#45;&gt;Node45 -->
<g id="edge37" class="edge"><title>Node42&#45;&gt;Node45</title>
<path fill="none" stroke="midnightblue" d="M1677.13,-77.0707C1621.45,-69.2214 1544.38,-57.0864 1477.5,-42 1474.58,-41.3413 1471.6,-40.6303 1468.6,-39.8827"/>
<polygon fill="midnightblue" stroke="midnightblue" points="1676.88,-80.5699 1687.27,-78.4862 1677.85,-73.6371 1676.88,-80.5699"/>
</g>
<!-- Node46 -->
<g id="node37" class="node"><title>Node46</title>
<g id="a_node37"><a xlink:href="kernel__sin__2d_8c.html" target="_top" xlink:title="build/src/applications\l/electrodynamics/kernel\l_sin_2d.c">
<polygon fill="white" stroke="black" points="1486.5,-0.5 1486.5,-41.5 1606.5,-41.5 1606.5,-0.5 1486.5,-0.5"/>
<text text-anchor="start" x="1494.5" y="-29.5" font-family="Helvetica,sans-Serif" font-size="10.00">build/src/applications</text>
<text text-anchor="start" x="1494.5" y="-18.5" font-family="Helvetica,sans-Serif" font-size="10.00">/electrodynamics/kernel</text>
<text text-anchor="middle" x="1546.5" y="-7.5" font-family="Helvetica,sans-Serif" font-size="10.00">_sin_2d.c</text>
</a>
</g>
</g>
<!-- Node42&#45;&gt;Node46 -->
<g id="edge38" class="edge"><title>Node42&#45;&gt;Node46</title>
<path fill="none" stroke="midnightblue" d="M1716.23,-75.2971C1685.81,-65.7447 1642.23,-52.059 1606.84,-40.9478"/>
<polygon fill="midnightblue" stroke="midnightblue" points="1715.42,-78.7118 1726.01,-78.3685 1717.52,-72.0333 1715.42,-78.7118"/>
</g>
<!-- Node47 -->
<g id="node38" class="node"><title>Node47</title>
<g id="a_node38"><a xlink:href="kernel__sin__3d_8c.html" target="_top" xlink:title="build/src/applications\l/electrodynamics/kernel\l_sin_3d.c">
<polygon fill="white" stroke="black" points="1624.5,-0.5 1624.5,-41.5 1744.5,-41.5 1744.5,-0.5 1624.5,-0.5"/>
<text text-anchor="start" x="1632.5" y="-29.5" font-family="Helvetica,sans-Serif" font-size="10.00">build/src/applications</text>
<text text-anchor="start" x="1632.5" y="-18.5" font-family="Helvetica,sans-Serif" font-size="10.00">/electrodynamics/kernel</text>
<text text-anchor="middle" x="1684.5" y="-7.5" font-family="Helvetica,sans-Serif" font-size="10.00">_sin_3d.c</text>
</a>
</g>
</g>
<!-- Node42&#45;&gt;Node47 -->
<g id="edge39" class="edge"><title>Node42&#45;&gt;Node47</title>
<path fill="none" stroke="midnightblue" d="M1736.89,-71.3564C1727.39,-62.3993 1715.37,-51.0804 1705.24,-41.5421"/>
<polygon fill="midnightblue" stroke="midnightblue" points="1734.52,-73.9245 1744.19,-78.2338 1739.32,-68.8292 1734.52,-73.9245"/>
</g>
<!-- Node48 -->
<g id="node39" class="node"><title>Node48</title>
<g id="a_node39"><a xlink:href="kernel__sin__4d_8c.html" target="_top" xlink:title="build/src/applications\l/electrodynamics/kernel\l_sin_4d.c">
<polygon fill="white" stroke="black" points="1762.5,-0.5 1762.5,-41.5 1882.5,-41.5 1882.5,-0.5 1762.5,-0.5"/>
<text text-anchor="start" x="1770.5" y="-29.5" font-family="Helvetica,sans-Serif" font-size="10.00">build/src/applications</text>
<text text-anchor="start" x="1770.5" y="-18.5" font-family="Helvetica,sans-Serif" font-size="10.00">/electrodynamics/kernel</text>
<text text-anchor="middle" x="1822.5" y="-7.5" font-family="Helvetica,sans-Serif" font-size="10.00">_sin_4d.c</text>
</a>
</g>
</g>
<!-- Node42&#45;&gt;Node48 -->
<g id="edge40" class="edge"><title>Node42&#45;&gt;Node48</title>
<path fill="none" stroke="midnightblue" d="M1770.11,-71.3564C1779.61,-62.3993 1791.63,-51.0804 1801.76,-41.5421"/>
<polygon fill="midnightblue" stroke="midnightblue" points="1767.68,-68.8292 1762.81,-78.2338 1772.48,-73.9245 1767.68,-68.8292"/>
</g>
<!-- Node49 -->
<g id="node40" class="node"><title>Node49</title>
<g id="a_node40"><a xlink:href="kernel__cos__nd_8c.html" target="_top" xlink:title="build/src/applications\l/electrodynamics/kernel\l_cos_nd.c">
<polygon fill="white" stroke="black" points="1900.5,-0.5 1900.5,-41.5 2020.5,-41.5 2020.5,-0.5 1900.5,-0.5"/>
<text text-anchor="start" x="1908.5" y="-29.5" font-family="Helvetica,sans-Serif" font-size="10.00">build/src/applications</text>
<text text-anchor="start" x="1908.5" y="-18.5" font-family="Helvetica,sans-Serif" font-size="10.00">/electrodynamics/kernel</text>
<text text-anchor="middle" x="1960.5" y="-7.5" font-family="Helvetica,sans-Serif" font-size="10.00">_cos_nd.c</text>
</a>
</g>
</g>
<!-- Node42&#45;&gt;Node49 -->
<g id="edge41" class="edge"><title>Node42&#45;&gt;Node49</title>
<path fill="none" stroke="midnightblue" d="M1790.77,-75.2971C1821.19,-65.7447 1864.77,-52.059 1900.16,-40.9478"/>
<polygon fill="midnightblue" stroke="midnightblue" points="1789.48,-72.0333 1780.99,-78.3685 1791.58,-78.7118 1789.48,-72.0333"/>
</g>
<!-- Node50 -->
<g id="node41" class="node"><title>Node50</title>
<g id="a_node41"><a xlink:href="kernel__cos__1d_8c.html" target="_top" xlink:title="build/src/applications\l/electrodynamics/kernel\l_cos_1d.c">
<polygon fill="white" stroke="black" points="2038.5,-0.5 2038.5,-41.5 2158.5,-41.5 2158.5,-0.5 2038.5,-0.5"/>
<text text-anchor="start" x="2046.5" y="-29.5" font-family="Helvetica,sans-Serif" font-size="10.00">build/src/applications</text>
<text text-anchor="start" x="2046.5" y="-18.5" font-family="Helvetica,sans-Serif" font-size="10.00">/electrodynamics/kernel</text>
<text text-anchor="middle" x="2098.5" y="-7.5" font-family="Helvetica,sans-Serif" font-size="10.00">_cos_1d.c</text>
</a>
</g>
</g>
<!-- Node42&#45;&gt;Node50 -->
<g id="edge42" class="edge"><title>Node42&#45;&gt;Node50</title>
<path fill="none" stroke="midnightblue" d="M1829.87,-77.0707C1885.55,-69.2214 1962.62,-57.0864 2029.5,-42 2032.42,-41.3413 2035.4,-40.6303 2038.4,-39.8827"/>
<polygon fill="midnightblue" stroke="midnightblue" points="1829.15,-73.6371 1819.73,-78.4862 1830.12,-80.5699 1829.15,-73.6371"/>
</g>
<!-- Node51 -->
<g id="node42" class="node"><title>Node51</title>
<g id="a_node42"><a xlink:href="kernel__cos__2d_8c.html" target="_top" xlink:title="build/src/applications\l/electrodynamics/kernel\l_cos_2d.c">
<polygon fill="white" stroke="black" points="2176.5,-0.5 2176.5,-41.5 2296.5,-41.5 2296.5,-0.5 2176.5,-0.5"/>
<text text-anchor="start" x="2184.5" y="-29.5" font-family="Helvetica,sans-Serif" font-size="10.00">build/src/applications</text>
<text text-anchor="start" x="2184.5" y="-18.5" font-family="Helvetica,sans-Serif" font-size="10.00">/electrodynamics/kernel</text>
<text text-anchor="middle" x="2236.5" y="-7.5" font-family="Helvetica,sans-Serif" font-size="10.00">_cos_2d.c</text>
</a>
</g>
</g>
<!-- Node42&#45;&gt;Node51 -->
<g id="edge43" class="edge"><title>Node42&#45;&gt;Node51</title>
<path fill="none" stroke="midnightblue" d="M1843.94,-81.7134C1928.27,-75.7137 2057.26,-63.7962 2167.5,-42 2170.44,-41.4194 2173.43,-40.7719 2176.44,-40.0751"/>
<polygon fill="midnightblue" stroke="midnightblue" points="1843.61,-78.2277 1833.88,-82.4161 1844.1,-85.2107 1843.61,-78.2277"/>
</g>
<!-- Node52 -->
<g id="node43" class="node"><title>Node52</title>
<g id="a_node43"><a xlink:href="kernel__cos__3d_8c.html" target="_top" xlink:title="build/src/applications\l/electrodynamics/kernel\l_cos_3d.c">
<polygon fill="white" stroke="black" points="2314.5,-0.5 2314.5,-41.5 2434.5,-41.5 2434.5,-0.5 2314.5,-0.5"/>
<text text-anchor="start" x="2322.5" y="-29.5" font-family="Helvetica,sans-Serif" font-size="10.00">build/src/applications</text>
<text text-anchor="start" x="2322.5" y="-18.5" font-family="Helvetica,sans-Serif" font-size="10.00">/electrodynamics/kernel</text>
<text text-anchor="middle" x="2374.5" y="-7.5" font-family="Helvetica,sans-Serif" font-size="10.00">_cos_3d.c</text>
</a>
</g>
</g>
<!-- Node42&#45;&gt;Node52 -->
<g id="edge44" class="edge"><title>Node42&#45;&gt;Node52</title>
<path fill="none" stroke="midnightblue" d="M1843.74,-85.1902C1953.65,-81.7151 2144.56,-71.5748 2305.5,-42 2308.44,-41.459 2311.44,-40.8437 2314.46,-40.1727"/>
<polygon fill="midnightblue" stroke="midnightblue" points="1843.58,-81.6934 1833.69,-85.4965 1843.79,-88.6902 1843.58,-81.6934"/>
</g>
<!-- Node53 -->
<g id="node44" class="node"><title>Node53</title>
<g id="a_node44"><a xlink:href="kernel__cos__4d_8c.html" target="_top" xlink:title="build/src/applications\l/electrodynamics/kernel\l_cos_4d.c">
<polygon fill="white" stroke="black" points="888.5,-0.5 888.5,-41.5 1008.5,-41.5 1008.5,-0.5 888.5,-0.5"/>
<text text-anchor="start" x="896.5" y="-29.5" font-family="Helvetica,sans-Serif" font-size="10.00">build/src/applications</text>
<text text-anchor="start" x="896.5" y="-18.5" font-family="Helvetica,sans-Serif" font-size="10.00">/electrodynamics/kernel</text>
<text text-anchor="middle" x="948.5" y="-7.5" font-family="Helvetica,sans-Serif" font-size="10.00">_cos_4d.c</text>
</a>
</g>
</g>
<!-- Node42&#45;&gt;Node53 -->
<g id="edge45" class="edge"><title>Node42&#45;&gt;Node53</title>
<path fill="none" stroke="midnightblue" d="M1663.24,-87.99C1523.54,-88.0659 1247,-82.4028 1016.5,-42 1013.95,-41.5538 1011.37,-41.0463 1008.77,-40.4905"/>
<polygon fill="midnightblue" stroke="midnightblue" points="1663.48,-91.4897 1673.47,-87.974 1663.47,-84.4897 1663.48,-91.4897"/>
</g>
<!-- Node54&#45;&gt;Node13 -->
<g id="edge47" class="edge"><title>Node54&#45;&gt;Node13</title>
<path fill="none" stroke="midnightblue" d="M2519.5,-68.037C2519.5,-55.6703 2519.5,-40.1198 2519.5,-30.6273"/>
<polygon fill="midnightblue" stroke="midnightblue" points="2516,-68.2338 2519.5,-78.2338 2523,-68.2338 2516,-68.2338"/>
</g>
<!-- Node55 -->
<g id="node46" class="node"><title>Node55</title>
<g id="a_node46"><a xlink:href="cauchy_8c.html" target="_top" xlink:title="src/applications/cauchy.c">
<polygon fill="white" stroke="black" points="2604.5,-11.5 2604.5,-30.5 2732.5,-30.5 2732.5,-11.5 2604.5,-11.5"/>
<text text-anchor="middle" x="2668.5" y="-18.5" font-family="Helvetica,sans-Serif" font-size="10.00">src/applications/cauchy.c</text>
</a>
</g>
</g>
<!-- Node54&#45;&gt;Node55 -->
<g id="edge48" class="edge"><title>Node54&#45;&gt;Node55</title>
<path fill="none" stroke="midnightblue" d="M2548.66,-74.281C2578.16,-61.4085 2622.99,-41.8545 2648.63,-30.6672"/>
<polygon fill="midnightblue" stroke="midnightblue" points="2547.05,-71.1619 2539.29,-78.3685 2549.85,-77.578 2547.05,-71.1619"/>
</g>
</g>
</svg>
