<?xml version="1.0" encoding="UTF-8" standalone="no"?>
<!DOCTYPE svg PUBLIC "-//W3C//DTD SVG 1.1//EN"
 "http://www.w3.org/Graphics/SVG/1.1/DTD/svg11.dtd">
<!-- Generated by graphviz version 2.38.0 (20140413.2041)
 -->
<!-- Title: include/starsh&#45;spatial.h Pages: 1 -->
<svg width="572pt" height="196pt"
 viewBox="0.00 0.00 571.50 196.00" xmlns="http://www.w3.org/2000/svg" xmlns:xlink="http://www.w3.org/1999/xlink">
<g id="graph0" class="graph" transform="scale(1 1) rotate(0) translate(4 192)">
<title>include/starsh&#45;spatial.h</title>
<polygon fill="white" stroke="none" points="-4,4 -4,-192 567.5,-192 567.5,4 -4,4"/>
<!-- Node0 -->
<g id="node1" class="node"><title>Node0</title>
<polygon fill="#bfbfbf" stroke="black" points="268.5,-168.5 268.5,-187.5 385.5,-187.5 385.5,-168.5 268.5,-168.5"/>
<text text-anchor="middle" x="327" y="-175.5" font-family="Helvetica,sans-Serif" font-size="10.00">include/starsh&#45;spatial.h</text>
</g>
<!-- Node1 -->
<g id="node2" class="node"><title>Node1</title>
<g id="a_node2"><a xlink:href="starsh_8h.html" target="_top" xlink:title="starsh.h">
<polygon fill="white" stroke="black" points="230,-56.5 230,-75.5 282,-75.5 282,-56.5 230,-56.5"/>
<text text-anchor="middle" x="256" y="-63.5" font-family="Helvetica,sans-Serif" font-size="10.00">starsh.h</text>
</a>
</g>
</g>
<!-- Node0&#45;&gt;Node1 -->
<g id="edge1" class="edge"><title>Node0&#45;&gt;Node1</title>
<path fill="none" stroke="midnightblue" d="M311.852,-168.449C299.294,-160.578 281.946,-147.752 272,-132 263.178,-118.028 259.22,-99.5246 257.444,-85.8338"/>
<polygon fill="midnightblue" stroke="midnightblue" points="260.904,-85.2637 256.407,-75.6706 253.94,-85.9743 260.904,-85.2637"/>
</g>
<!-- Node8 -->
<g id="node9" class="node"><title>Node8</title>
<g id="a_node9"><a xlink:href="starsh-particles_8h.html" target="_top" xlink:title="starsh&#45;particles.h">
<polygon fill="white" stroke="black" points="281,-112.5 281,-131.5 373,-131.5 373,-112.5 281,-112.5"/>
<text text-anchor="middle" x="327" y="-119.5" font-family="Helvetica,sans-Serif" font-size="10.00">starsh&#45;particles.h</text>
</a>
</g>
</g>
<!-- Node0&#45;&gt;Node8 -->
<g id="edge8" class="edge"><title>Node0&#45;&gt;Node8</title>
<path fill="none" stroke="midnightblue" d="M327,-168.083C327,-161.006 327,-150.861 327,-141.986"/>
<polygon fill="midnightblue" stroke="midnightblue" points="330.5,-141.751 327,-131.751 323.5,-141.751 330.5,-141.751"/>
</g>
<!-- Node11 -->
<g id="node12" class="node"><title>Node11</title>
<g id="a_node12"><a xlink:href="starsh-spatial-gsl_8h.html" target="_top" xlink:title="starsh&#45;spatial&#45;gsl.h">
<polygon fill="white" stroke="black" points="391.5,-112.5 391.5,-131.5 490.5,-131.5 490.5,-112.5 391.5,-112.5"/>
<text text-anchor="middle" x="441" y="-119.5" font-family="Helvetica,sans-Serif" font-size="10.00">starsh&#45;spatial&#45;gsl.h</text>
</a>
</g>
</g>
<!-- Node0&#45;&gt;Node11 -->
<g id="edge12" class="edge"><title>Node0&#45;&gt;Node11</title>
<path fill="none" stroke="midnightblue" d="M345.064,-168.444C363.575,-159.675 392.581,-145.935 413.855,-135.858"/>
<polygon fill="midnightblue" stroke="midnightblue" points="415.482,-138.96 423.021,-131.516 412.485,-132.634 415.482,-138.96"/>
</g>
<!-- Node2 -->
<g id="node3" class="node"><title>Node2</title>
<polygon fill="white" stroke="#bfbfbf" points="0,-0.5 0,-19.5 68,-19.5 68,-0.5 0,-0.5"/>
<text text-anchor="middle" x="34" y="-7.5" font-family="Helvetica,sans-Serif" font-size="10.00">sys/types.h</text>
</g>
<!-- Node1&#45;&gt;Node2 -->
<g id="edge2" class="edge"><title>Node1&#45;&gt;Node2</title>
<path fill="none" stroke="midnightblue" d="M229.662,-58.5934C192.289,-49.5028 123.392,-32.7441 78.1348,-21.7355"/>
<polygon fill="midnightblue" stroke="midnightblue" points="78.8397,-18.305 68.2958,-19.3422 77.1852,-25.1067 78.8397,-18.305"/>
</g>
<!-- Node3 -->
<g id="node4" class="node"><title>Node3</title>
<polygon fill="white" stroke="#bfbfbf" points="86,-0.5 86,-19.5 138,-19.5 138,-0.5 86,-0.5"/>
<text text-anchor="middle" x="112" y="-7.5" font-family="Helvetica,sans-Serif" font-size="10.00">stdarg.h</text>
</g>
<!-- Node1&#45;&gt;Node3 -->
<g id="edge3" class="edge"><title>Node1&#45;&gt;Node3</title>
<path fill="none" stroke="midnightblue" d="M233.183,-56.4435C209.168,-47.4381 171.171,-33.1891 144.131,-23.049"/>
<polygon fill="midnightblue" stroke="midnightblue" points="145.303,-19.7506 134.71,-19.5164 142.845,-26.3049 145.303,-19.7506"/>
</g>
<!-- Node4 -->
<g id="node5" class="node"><title>Node4</title>
<g id="a_node5"><a xlink:href="starsh-constants_8h.html" target="_top" xlink:title="starsh&#45;constants.h">
<polygon fill="white" stroke="black" points="156,-0.5 156,-19.5 254,-19.5 254,-0.5 156,-0.5"/>
<text text-anchor="middle" x="205" y="-7.5" font-family="Helvetica,sans-Serif" font-size="10.00">starsh&#45;constants.h</text>
</a>
</g>
</g>
<!-- Node1&#45;&gt;Node4 -->
<g id="edge4" class="edge"><title>Node1&#45;&gt;Node4</title>
<path fill="none" stroke="midnightblue" d="M247.578,-56.083C240.152,-48.2195 229.148,-36.5688 220.188,-27.0813"/>
<polygon fill="midnightblue" stroke="midnightblue" points="222.676,-24.618 213.265,-19.7511 217.587,-29.4244 222.676,-24.618"/>
</g>
<!-- Node5 -->
<g id="node6" class="node"><title>Node5</title>
<g id="a_node6"><a xlink:href="starsh-mpi_8h.html" target="_top" xlink:title="starsh&#45;mpi.h">
<polygon fill="white" stroke="black" points="272.5,-0.5 272.5,-19.5 343.5,-19.5 343.5,-0.5 272.5,-0.5"/>
<text text-anchor="middle" x="308" y="-7.5" font-family="Helvetica,sans-Serif" font-size="10.00">starsh&#45;mpi.h</text>
</a>
</g>
</g>
<!-- Node1&#45;&gt;Node5 -->
<g id="edge5" class="edge"><title>Node1&#45;&gt;Node5</title>
<path fill="none" stroke="midnightblue" d="M264.587,-56.083C272.159,-48.2195 283.378,-36.5688 292.514,-27.0813"/>
<polygon fill="midnightblue" stroke="midnightblue" points="295.158,-29.3821 299.573,-19.7511 290.115,-24.5266 295.158,-29.3821"/>
</g>
<!-- Node6 -->
<g id="node7" class="node"><title>Node6</title>
<g id="a_node7"><a xlink:href="starsh-starpu_8h.html" target="_top" xlink:title="starsh&#45;starpu.h">
<polygon fill="white" stroke="black" points="362,-0.5 362,-19.5 444,-19.5 444,-0.5 362,-0.5"/>
<text text-anchor="middle" x="403" y="-7.5" font-family="Helvetica,sans-Serif" font-size="10.00">starsh&#45;starpu.h</text>
</a>
</g>
</g>
<!-- Node1&#45;&gt;Node6 -->
<g id="edge6" class="edge"><title>Node1&#45;&gt;Node6</title>
<path fill="none" stroke="midnightblue" d="M279.293,-56.4435C303.807,-47.4381 342.596,-33.1891 370.2,-23.049"/>
<polygon fill="midnightblue" stroke="midnightblue" points="371.637,-26.25 379.816,-19.5164 369.223,-19.6793 371.637,-26.25"/>
</g>
<!-- Node7 -->
<g id="node8" class="node"><title>Node7</title>
<g id="a_node8"><a xlink:href="starsh-mpi-starpu_8h.html" target="_top" xlink:title="starsh&#45;mpi&#45;starpu.h">
<polygon fill="white" stroke="black" points="462.5,-0.5 462.5,-19.5 563.5,-19.5 563.5,-0.5 462.5,-0.5"/>
<text text-anchor="middle" x="513" y="-7.5" font-family="Helvetica,sans-Serif" font-size="10.00">starsh&#45;mpi&#45;starpu.h</text>
</a>
</g>
</g>
<!-- Node1&#45;&gt;Node7 -->
<g id="edge7" class="edge"><title>Node1&#45;&gt;Node7</title>
<path fill="none" stroke="midnightblue" d="M282.249,-58.4888C285.856,-57.6309 289.516,-56.7797 293,-56 349.295,-43.4003 414.015,-30.3315 458.611,-21.5456"/>
<polygon fill="midnightblue" stroke="midnightblue" points="459.515,-24.9349 468.653,-19.5726 458.165,-18.0663 459.515,-24.9349"/>
</g>
<!-- Node8&#45;&gt;Node1 -->
<g id="edge9" class="edge"><title>Node8&#45;&gt;Node1</title>
<path fill="none" stroke="midnightblue" d="M315.593,-112.324C304.891,-104.185 288.659,-91.8395 275.837,-82.0874"/>
<polygon fill="midnightblue" stroke="midnightblue" points="277.693,-79.1018 267.615,-75.8339 273.456,-84.6734 277.693,-79.1018"/>
</g>
<!-- Node9 -->
<g id="node10" class="node"><title>Node9</title>
<polygon fill="white" stroke="#bfbfbf" points="302,-56.5 302,-75.5 348,-75.5 348,-56.5 302,-56.5"/>
<text text-anchor="middle" x="325" y="-63.5" font-family="Helvetica,sans-Serif" font-size="10.00">stdio.h</text>
</g>
<!-- Node8&#45;&gt;Node9 -->
<g id="edge10" class="edge"><title>Node8&#45;&gt;Node9</title>
<path fill="none" stroke="midnightblue" d="M326.67,-112.083C326.408,-105.006 326.032,-94.8611 325.703,-85.9865"/>
<polygon fill="midnightblue" stroke="midnightblue" points="329.192,-85.6147 325.324,-75.7511 322.197,-85.8738 329.192,-85.6147"/>
</g>
<!-- Node10 -->
<g id="node11" class="node"><title>Node10</title>
<polygon fill="white" stroke="#bfbfbf" points="366.5,-56.5 366.5,-75.5 415.5,-75.5 415.5,-56.5 366.5,-56.5"/>
<text text-anchor="middle" x="391" y="-63.5" font-family="Helvetica,sans-Serif" font-size="10.00">stdint.h</text>
</g>
<!-- Node8&#45;&gt;Node10 -->
<g id="edge11" class="edge"><title>Node8&#45;&gt;Node10</title>
<path fill="none" stroke="midnightblue" d="M337.283,-112.324C346.836,-104.263 361.28,-92.0765 372.784,-82.3695"/>
<polygon fill="midnightblue" stroke="midnightblue" points="375.144,-84.9577 380.53,-75.8339 370.63,-79.6076 375.144,-84.9577"/>
</g>
</g>
</svg>
