<?xml version="1.0" encoding="UTF-8" standalone="no"?>
<!DOCTYPE svg PUBLIC "-//W3C//DTD SVG 1.1//EN"
 "http://www.w3.org/Graphics/SVG/1.1/DTD/svg11.dtd">
<!-- Generated by graphviz version 2.38.0 (20140413.2041)
 -->
<!-- Title: include/starsh&#45;randtlr.h Pages: 1 -->
<svg width="284pt" height="84pt"
 viewBox="0.00 0.00 283.50 84.00" xmlns="http://www.w3.org/2000/svg" xmlns:xlink="http://www.w3.org/1999/xlink">
<g id="graph0" class="graph" transform="scale(1 1) rotate(0) translate(4 80)">
<title>include/starsh&#45;randtlr.h</title>
<polygon fill="white" stroke="none" points="-4,4 -4,-80 279.5,-80 279.5,4 -4,4"/>
<!-- Node8 -->
<g id="node1" class="node"><title>Node8</title>
<polygon fill="#bfbfbf" stroke="black" points="82,-56.5 82,-75.5 198,-75.5 198,-56.5 82,-56.5"/>
<text text-anchor="middle" x="140" y="-63.5" font-family="Helvetica,sans-Serif" font-size="10.00">include/starsh&#45;randtlr.h</text>
</g>
<!-- Node9 -->
<g id="node2" class="node"><title>Node9</title>
<g id="a_node2"><a xlink:href="common_8c.html" target="_top" xlink:title="src/applications/common.c">
<polygon fill="white" stroke="black" points="0,-0.5 0,-19.5 134,-19.5 134,-0.5 0,-0.5"/>
<text text-anchor="middle" x="67" y="-7.5" font-family="Helvetica,sans-Serif" font-size="10.00">src/applications/common.c</text>
</a>
</g>
</g>
<!-- Node8&#45;&gt;Node9 -->
<g id="edge1" class="edge"><title>Node8&#45;&gt;Node9</title>
<path fill="none" stroke="midnightblue" d="M119.858,-50.1008C106.721,-40.3824 90.0179,-28.0269 78.9421,-19.8339"/>
<polygon fill="midnightblue" stroke="midnightblue" points="118.15,-53.1907 128.271,-56.324 122.313,-47.5631 118.15,-53.1907"/>
</g>
<!-- Node10 -->
<g id="node3" class="node"><title>Node10</title>
<g id="a_node3"><a xlink:href="randtlr_8c.html" target="_top" xlink:title="src/applications/randtlr.c">
<polygon fill="white" stroke="black" points="152.5,-0.5 152.5,-19.5 275.5,-19.5 275.5,-0.5 152.5,-0.5"/>
<text text-anchor="middle" x="214" y="-7.5" font-family="Helvetica,sans-Serif" font-size="10.00">src/applications/randtlr.c</text>
</a>
</g>
</g>
<!-- Node8&#45;&gt;Node10 -->
<g id="edge2" class="edge"><title>Node8&#45;&gt;Node10</title>
<path fill="none" stroke="midnightblue" d="M160.034,-50.3804C173.409,-40.6204 190.559,-28.1057 201.894,-19.8339"/>
<polygon fill="midnightblue" stroke="midnightblue" points="157.904,-47.602 151.889,-56.324 162.03,-53.2565 157.904,-47.602"/>
</g>
</g>
</svg>
