<?xml version="1.0" encoding="UTF-8" standalone="no"?>
<!DOCTYPE svg PUBLIC "-//W3C//DTD SVG 1.1//EN"
 "http://www.w3.org/Graphics/SVG/1.1/DTD/svg11.dtd">
<!-- Generated by graphviz version 2.38.0 (20140413.2041)
 -->
<!-- Title: include/starsh&#45;mpi&#45;starpu.h Pages: 1 -->
<svg width="6545pt" height="173pt"
 viewBox="0.00 0.00 6544.50 173.00" xmlns="http://www.w3.org/2000/svg" xmlns:xlink="http://www.w3.org/1999/xlink">
<g id="graph0" class="graph" transform="scale(1 1) rotate(0) translate(4 169)">
<title>include/starsh&#45;mpi&#45;starpu.h</title>
<polygon fill="white" stroke="none" points="-4,4 -4,-169 6540.5,-169 6540.5,4 -4,4"/>
<!-- Node1 -->
<g id="node1" class="node"><title>Node1</title>
<polygon fill="#bfbfbf" stroke="black" points="303,-134.5 303,-164.5 399,-164.5 399,-134.5 303,-134.5"/>
<text text-anchor="start" x="311" y="-152.5" font-family="Helvetica,sans-Serif" font-size="10.00">include/starsh&#45;mpi</text>
<text text-anchor="middle" x="351" y="-141.5" font-family="Helvetica,sans-Serif" font-size="10.00">&#45;starpu.h</text>
</g>
<!-- Node2 -->
<g id="node2" class="node"><title>Node2</title>
<g id="a_node2"><a xlink:href="mpi__starpu_2blrm_2dqp3_8c.html" target="_top" xlink:title="src/backends/mpi_starpu\l/blrm/dqp3.c">
<polygon fill="white" stroke="black" points="0,-6 0,-36 126,-36 126,-6 0,-6"/>
<text text-anchor="start" x="8" y="-24" font-family="Helvetica,sans-Serif" font-size="10.00">src/backends/mpi_starpu</text>
<text text-anchor="middle" x="63" y="-13" font-family="Helvetica,sans-Serif" font-size="10.00">/blrm/dqp3.c</text>
</a>
</g>
</g>
<!-- Node1&#45;&gt;Node2 -->
<g id="edge1" class="edge"><title>Node1&#45;&gt;Node2</title>
<path fill="none" stroke="midnightblue" d="M309.855,-130.428C251.941,-104.99 147.599,-59.1588 95.0644,-36.0838"/>
<polygon fill="midnightblue" stroke="midnightblue" points="308.515,-133.662 319.079,-134.479 311.33,-127.253 308.515,-133.662"/>
</g>
<!-- Node3 -->
<g id="node3" class="node"><title>Node3</title>
<g id="a_node3"><a xlink:href="mpi__starpu_2blrm_2drsdd_8c.html" target="_top" xlink:title="src/backends/mpi_starpu\l/blrm/drsdd.c">
<polygon fill="white" stroke="black" points="144,-6 144,-36 270,-36 270,-6 144,-6"/>
<text text-anchor="start" x="152" y="-24" font-family="Helvetica,sans-Serif" font-size="10.00">src/backends/mpi_starpu</text>
<text text-anchor="middle" x="207" y="-13" font-family="Helvetica,sans-Serif" font-size="10.00">/blrm/drsdd.c</text>
</a>
</g>
</g>
<!-- Node1&#45;&gt;Node3 -->
<g id="edge2" class="edge"><title>Node1&#45;&gt;Node3</title>
<path fill="none" stroke="midnightblue" d="M327.299,-127.679C297.845,-101.805 248.379,-58.35 223.032,-36.0838"/>
<polygon fill="midnightblue" stroke="midnightblue" points="325.216,-130.509 335.039,-134.479 329.836,-125.25 325.216,-130.509"/>
</g>
<!-- Node4 -->
<g id="node4" class="node"><title>Node4</title>
<g id="a_node4"><a xlink:href="mpi__starpu_2blrm_2dsdd_8c.html" target="_top" xlink:title="src/backends/mpi_starpu\l/blrm/dsdd.c">
<polygon fill="white" stroke="black" points="288,-6 288,-36 414,-36 414,-6 288,-6"/>
<text text-anchor="start" x="296" y="-24" font-family="Helvetica,sans-Serif" font-size="10.00">src/backends/mpi_starpu</text>
<text text-anchor="middle" x="351" y="-13" font-family="Helvetica,sans-Serif" font-size="10.00">/blrm/dsdd.c</text>
</a>
</g>
</g>
<!-- Node1&#45;&gt;Node4 -->
<g id="edge3" class="edge"><title>Node1&#45;&gt;Node4</title>
<path fill="none" stroke="midnightblue" d="M351,-124.269C351,-98.1294 351,-57.3985 351,-36.0838"/>
<polygon fill="midnightblue" stroke="midnightblue" points="347.5,-124.479 351,-134.479 354.5,-124.479 347.5,-124.479"/>
</g>
<!-- Node5 -->
<g id="node5" class="node"><title>Node5</title>
<g id="a_node5"><a xlink:href="init_8c.html" target="_top" xlink:title="src/control/init.c">
<polygon fill="white" stroke="black" points="432,-11.5 432,-30.5 518,-30.5 518,-11.5 432,-11.5"/>
<text text-anchor="middle" x="475" y="-18.5" font-family="Helvetica,sans-Serif" font-size="10.00">src/control/init.c</text>
</a>
</g>
</g>
<!-- Node1&#45;&gt;Node5 -->
<g id="edge4" class="edge"><title>Node1&#45;&gt;Node5</title>
<path fill="none" stroke="midnightblue" d="M371.98,-127.097C399.631,-98.8883 447.029,-50.5349 466.385,-30.7885"/>
<polygon fill="midnightblue" stroke="midnightblue" points="369.245,-124.888 364.744,-134.479 374.244,-129.788 369.245,-124.888"/>
</g>
<!-- Node6 -->
<g id="node6" class="node"><title>Node6</title>
<g id="a_node6"><a xlink:href="starsh_8h.html" target="_top" xlink:title="include/starsh.h">
<polygon fill="white" stroke="red" points="2987,-78.5 2987,-97.5 3073,-97.5 3073,-78.5 2987,-78.5"/>
<text text-anchor="middle" x="3030" y="-85.5" font-family="Helvetica,sans-Serif" font-size="10.00">include/starsh.h</text>
</a>
</g>
</g>
<!-- Node1&#45;&gt;Node6 -->
<g id="edge5" class="edge"><title>Node1&#45;&gt;Node6</title>
<path fill="none" stroke="midnightblue" d="M409.388,-147.203C768.779,-139.221 2675.63,-96.8705 2986.99,-89.9552"/>
<polygon fill="midnightblue" stroke="midnightblue" points="409.129,-143.708 399.209,-147.429 409.285,-150.706 409.129,-143.708"/>
</g>
<!-- Node6&#45;&gt;Node2 -->
<g id="edge37" class="edge"><title>Node6&#45;&gt;Node2</title>
<path fill="none" stroke="midnightblue" d="M2976.57,-86.9905C2606.14,-86.816 426.202,-84.0008 135,-42 125.755,-40.6666 116.015,-38.5011 106.79,-36.0772"/>
<polygon fill="midnightblue" stroke="midnightblue" points="2976.75,-90.4904 2986.75,-86.9948 2976.75,-83.4904 2976.75,-90.4904"/>
</g>
<!-- Node6&#45;&gt;Node3 -->
<g id="edge38" class="edge"><title>Node6&#45;&gt;Node3</title>
<path fill="none" stroke="midnightblue" d="M2976.71,-86.9438C2617.45,-86.4571 555.051,-81.9302 279,-42 269.755,-40.6628 260.016,-38.4957 250.79,-36.0714"/>
<polygon fill="midnightblue" stroke="midnightblue" points="2976.83,-90.4438 2986.84,-86.957 2976.84,-83.4439 2976.83,-90.4438"/>
</g>
<!-- Node6&#45;&gt;Node4 -->
<g id="edge39" class="edge"><title>Node6&#45;&gt;Node4</title>
<path fill="none" stroke="midnightblue" d="M2976.78,-86.8921C2628.77,-86.079 683.9,-79.859 423,-42 413.756,-40.6586 404.017,-38.4897 394.791,-36.0649"/>
<polygon fill="midnightblue" stroke="midnightblue" points="2976.83,-90.3921 2986.84,-86.9151 2976.85,-83.3921 2976.83,-90.3921"/>
</g>
<!-- Node6&#45;&gt;Node5 -->
<g id="edge53" class="edge"><title>Node6&#45;&gt;Node5</title>
<path fill="none" stroke="midnightblue" d="M2976.74,-87.1343C2636.73,-87.8469 775.969,-89.5378 528,-42 516.023,-39.7039 503.214,-34.9398 493.189,-30.6372"/>
<polygon fill="midnightblue" stroke="midnightblue" points="2976.83,-90.6342 2986.82,-87.1125 2976.81,-83.6342 2976.83,-90.6342"/>
</g>
<!-- Node7 -->
<g id="node7" class="node"><title>Node7</title>
<g id="a_node7"><a xlink:href="sequential_2dense_2dqp3_8c.html" target="_top" xlink:title="src/backends/sequential\l/dense/dqp3.c">
<polygon fill="white" stroke="black" points="4891,-6 4891,-36 5013,-36 5013,-6 4891,-6"/>
<text text-anchor="start" x="4899" y="-24" font-family="Helvetica,sans-Serif" font-size="10.00">src/backends/sequential</text>
<text text-anchor="middle" x="4952" y="-13" font-family="Helvetica,sans-Serif" font-size="10.00">/dense/dqp3.c</text>
</a>
</g>
</g>
<!-- Node6&#45;&gt;Node7 -->
<g id="edge6" class="edge"><title>Node6&#45;&gt;Node7</title>
<path fill="none" stroke="midnightblue" d="M3083.05,-86.5142C3366.91,-83.8069 4700.33,-69.6974 4882,-42 4891,-40.6284 4900.47,-38.4463 4909.44,-36.0181"/>
<polygon fill="midnightblue" stroke="midnightblue" points="3082.97,-83.0146 3073.01,-86.6093 3083.04,-90.0143 3082.97,-83.0146"/>
</g>
<!-- Node8 -->
<g id="node8" class="node"><title>Node8</title>
<g id="a_node8"><a xlink:href="sequential_2dense_2drsdd_8c.html" target="_top" xlink:title="src/backends/sequential\l/dense/drsdd.c">
<polygon fill="white" stroke="black" points="5031,-6 5031,-36 5153,-36 5153,-6 5031,-6"/>
<text text-anchor="start" x="5039" y="-24" font-family="Helvetica,sans-Serif" font-size="10.00">src/backends/sequential</text>
<text text-anchor="middle" x="5092" y="-13" font-family="Helvetica,sans-Serif" font-size="10.00">/dense/drsdd.c</text>
</a>
</g>
</g>
<!-- Node6&#45;&gt;Node8 -->
<g id="edge7" class="edge"><title>Node6&#45;&gt;Node8</title>
<path fill="none" stroke="midnightblue" d="M3083.2,-86.6103C3380.08,-84.3273 4825.75,-71.75 5022,-42 5031,-40.6361 5040.47,-38.4574 5049.44,-36.03"/>
<polygon fill="midnightblue" stroke="midnightblue" points="3083.1,-83.1109 3073.13,-86.6872 3083.15,-90.1107 3083.1,-83.1109"/>
</g>
<!-- Node9 -->
<g id="node9" class="node"><title>Node9</title>
<g id="a_node9"><a xlink:href="sequential_2dense_2dsdd_8c.html" target="_top" xlink:title="src/backends/sequential\l/dense/dsdd.c">
<polygon fill="white" stroke="black" points="5171,-6 5171,-36 5293,-36 5293,-6 5171,-6"/>
<text text-anchor="start" x="5179" y="-24" font-family="Helvetica,sans-Serif" font-size="10.00">src/backends/sequential</text>
<text text-anchor="middle" x="5232" y="-13" font-family="Helvetica,sans-Serif" font-size="10.00">/dense/dsdd.c</text>
</a>
</g>
</g>
<!-- Node6&#45;&gt;Node9 -->
<g id="edge8" class="edge"><title>Node6&#45;&gt;Node9</title>
<path fill="none" stroke="midnightblue" d="M3083.44,-86.6937C3393.13,-84.8093 4951.15,-73.8021 5162,-42 5171,-40.6428 5180.47,-38.467 5189.44,-36.0404"/>
<polygon fill="midnightblue" stroke="midnightblue" points="3083.35,-83.1941 3073.37,-86.7544 3083.39,-90.194 3083.35,-83.1941"/>
</g>
<!-- Node10 -->
<g id="node10" class="node"><title>Node10</title>
<g id="a_node10"><a xlink:href="dsvfr_8c.html" target="_top" xlink:title="src/backends/sequential\l/dense/dsvfr.c">
<polygon fill="white" stroke="black" points="5311,-6 5311,-36 5433,-36 5433,-6 5311,-6"/>
<text text-anchor="start" x="5319" y="-24" font-family="Helvetica,sans-Serif" font-size="10.00">src/backends/sequential</text>
<text text-anchor="middle" x="5372" y="-13" font-family="Helvetica,sans-Serif" font-size="10.00">/dense/dsvfr.c</text>
</a>
</g>
</g>
<!-- Node6&#45;&gt;Node10 -->
<g id="edge9" class="edge"><title>Node6&#45;&gt;Node10</title>
<path fill="none" stroke="midnightblue" d="M3083.8,-86.7668C3406.27,-85.2584 5076.57,-75.8521 5302,-42 5311,-40.6486 5320.47,-38.4754 5329.44,-36.0494"/>
<polygon fill="midnightblue" stroke="midnightblue" points="3083.32,-83.2689 3073.34,-86.8152 3083.35,-90.2688 3083.32,-83.2689"/>
</g>
<!-- Node11 -->
<g id="node11" class="node"><title>Node11</title>
<g id="a_node11"><a xlink:href="sequential_2dense_2dna_8c.html" target="_top" xlink:title="src/backends/sequential\l/dense/dna.c">
<polygon fill="white" stroke="black" points="5451,-6 5451,-36 5573,-36 5573,-6 5451,-6"/>
<text text-anchor="start" x="5459" y="-24" font-family="Helvetica,sans-Serif" font-size="10.00">src/backends/sequential</text>
<text text-anchor="middle" x="5512" y="-13" font-family="Helvetica,sans-Serif" font-size="10.00">/dense/dna.c</text>
</a>
</g>
</g>
<!-- Node6&#45;&gt;Node11 -->
<g id="edge10" class="edge"><title>Node6&#45;&gt;Node11</title>
<path fill="none" stroke="midnightblue" d="M3083.37,-86.8349C3416.3,-85.6946 5201.78,-77.9323 5442,-42 5451,-40.6538 5460.47,-38.4828 5469.44,-36.0574"/>
<polygon fill="midnightblue" stroke="midnightblue" points="3083.03,-83.3359 3073.04,-86.8697 3083.05,-90.3359 3083.03,-83.3359"/>
</g>
<!-- Node12 -->
<g id="node12" class="node"><title>Node12</title>
<g id="a_node12"><a xlink:href="dca_8c.html" target="_top" xlink:title="src/backends/sequential\l/blrm/dca.c">
<polygon fill="white" stroke="black" points="5591,-6 5591,-36 5713,-36 5713,-6 5591,-6"/>
<text text-anchor="start" x="5599" y="-24" font-family="Helvetica,sans-Serif" font-size="10.00">src/backends/sequential</text>
<text text-anchor="middle" x="5652" y="-13" font-family="Helvetica,sans-Serif" font-size="10.00">/blrm/dca.c</text>
</a>
</g>
</g>
<!-- Node6&#45;&gt;Node12 -->
<g id="edge11" class="edge"><title>Node6&#45;&gt;Node12</title>
<path fill="none" stroke="midnightblue" d="M3083.17,-86.8942C3426.76,-86.1001 5327.01,-80.0069 5582,-42 5591,-40.6584 5600.48,-38.4894 5609.45,-36.0646"/>
<polygon fill="midnightblue" stroke="midnightblue" points="3082.99,-83.3945 3073,-86.9172 3083.01,-90.3944 3082.99,-83.3945"/>
</g>
<!-- Node13 -->
<g id="node13" class="node"><title>Node13</title>
<g id="a_node13"><a xlink:href="sequential_2blrm_2dfe_8c.html" target="_top" xlink:title="src/backends/sequential\l/blrm/dfe.c">
<polygon fill="white" stroke="black" points="5731,-6 5731,-36 5853,-36 5853,-6 5731,-6"/>
<text text-anchor="start" x="5739" y="-24" font-family="Helvetica,sans-Serif" font-size="10.00">src/backends/sequential</text>
<text text-anchor="middle" x="5792" y="-13" font-family="Helvetica,sans-Serif" font-size="10.00">/blrm/dfe.c</text>
</a>
</g>
</g>
<!-- Node6&#45;&gt;Node13 -->
<g id="edge12" class="edge"><title>Node6&#45;&gt;Node13</title>
<path fill="none" stroke="midnightblue" d="M3083.26,-86.9466C3437.93,-86.4804 5452.3,-82.0735 5722,-42 5731,-40.6625 5740.48,-38.4954 5749.45,-36.071"/>
<polygon fill="midnightblue" stroke="midnightblue" points="3083.01,-83.4468 3073.01,-86.9596 3083.01,-90.4468 3083.01,-83.4468"/>
</g>
<!-- Node14 -->
<g id="node14" class="node"><title>Node14</title>
<g id="a_node14"><a xlink:href="sequential_2blrm_2dmml_8c.html" target="_top" xlink:title="src/backends/sequential\l/blrm/dmml.c">
<polygon fill="white" stroke="black" points="5871,-6 5871,-36 5993,-36 5993,-6 5871,-6"/>
<text text-anchor="start" x="5879" y="-24" font-family="Helvetica,sans-Serif" font-size="10.00">src/backends/sequential</text>
<text text-anchor="middle" x="5932" y="-13" font-family="Helvetica,sans-Serif" font-size="10.00">/blrm/dmml.c</text>
</a>
</g>
</g>
<!-- Node6&#45;&gt;Node14 -->
<g id="edge13" class="edge"><title>Node6&#45;&gt;Node14</title>
<path fill="none" stroke="midnightblue" d="M3083.13,-86.9941C3448.04,-86.8429 5577.52,-84.1498 5862,-42 5871,-40.6662 5880.48,-38.5007 5889.45,-36.0767"/>
<polygon fill="midnightblue" stroke="midnightblue" points="3083.1,-83.494 3073.1,-86.9978 3083.1,-90.494 3083.1,-83.494"/>
</g>
<!-- Node15 -->
<g id="node15" class="node"><title>Node15</title>
<g id="a_node15"><a xlink:href="sequential_2blrm_2dqp3_8c.html" target="_top" xlink:title="src/backends/sequential\l/blrm/dqp3.c">
<polygon fill="white" stroke="black" points="6011,-6 6011,-36 6133,-36 6133,-6 6011,-6"/>
<text text-anchor="start" x="6019" y="-24" font-family="Helvetica,sans-Serif" font-size="10.00">src/backends/sequential</text>
<text text-anchor="middle" x="6072" y="-13" font-family="Helvetica,sans-Serif" font-size="10.00">/blrm/dqp3.c</text>
</a>
</g>
</g>
<!-- Node6&#45;&gt;Node15 -->
<g id="edge14" class="edge"><title>Node6&#45;&gt;Node15</title>
<path fill="none" stroke="midnightblue" d="M3083.07,-87.037C3458.13,-87.1875 5702.74,-86.2256 6002,-42 6011,-40.6696 6020.48,-38.5055 6029.45,-36.082"/>
<polygon fill="midnightblue" stroke="midnightblue" points="3083.03,-83.5371 3073.03,-87.0325 3083.03,-90.5371 3083.03,-83.5371"/>
</g>
<!-- Node16 -->
<g id="node16" class="node"><title>Node16</title>
<g id="a_node16"><a xlink:href="sequential_2blrm_2drsdd_8c.html" target="_top" xlink:title="src/backends/sequential\l/blrm/drsdd.c">
<polygon fill="white" stroke="black" points="6151,-6 6151,-36 6273,-36 6273,-6 6151,-6"/>
<text text-anchor="start" x="6159" y="-24" font-family="Helvetica,sans-Serif" font-size="10.00">src/backends/sequential</text>
<text text-anchor="middle" x="6212" y="-13" font-family="Helvetica,sans-Serif" font-size="10.00">/blrm/drsdd.c</text>
</a>
</g>
</g>
<!-- Node6&#45;&gt;Node16 -->
<g id="edge15" class="edge"><title>Node6&#45;&gt;Node16</title>
<path fill="none" stroke="midnightblue" d="M3083.13,-87.0761C3468.44,-87.5165 5827.97,-88.2985 6142,-42 6151,-40.6727 6160.48,-38.5099 6169.45,-36.0867"/>
<polygon fill="midnightblue" stroke="midnightblue" points="3083.09,-83.5761 3073.09,-87.0641 3083.09,-90.5761 3083.09,-83.5761"/>
</g>
<!-- Node17 -->
<g id="node17" class="node"><title>Node17</title>
<g id="a_node17"><a xlink:href="sequential_2blrm_2dsdd_8c.html" target="_top" xlink:title="src/backends/sequential\l/blrm/dsdd.c">
<polygon fill="white" stroke="black" points="6291,-6 6291,-36 6413,-36 6413,-6 6291,-6"/>
<text text-anchor="start" x="6299" y="-24" font-family="Helvetica,sans-Serif" font-size="10.00">src/backends/sequential</text>
<text text-anchor="middle" x="6352" y="-13" font-family="Helvetica,sans-Serif" font-size="10.00">/blrm/dsdd.c</text>
</a>
</g>
</g>
<!-- Node6&#45;&gt;Node17 -->
<g id="edge16" class="edge"><title>Node6&#45;&gt;Node17</title>
<path fill="none" stroke="midnightblue" d="M3083.02,-87.1116C3477.84,-87.8312 5953.15,-90.3798 6282,-42 6291,-40.6755 6300.48,-38.514 6309.45,-36.0911"/>
<polygon fill="midnightblue" stroke="midnightblue" points="3083.02,-83.6117 3073.01,-87.0929 3083.01,-90.6116 3083.02,-83.6117"/>
</g>
<!-- Node18 -->
<g id="node18" class="node"><title>Node18</title>
<g id="a_node18"><a xlink:href="starpu_2dense_2dqp3_8c.html" target="_top" xlink:title="src/backends/starpu\l/dense/dqp3.c">
<polygon fill="white" stroke="black" points="6431.5,-6 6431.5,-36 6536.5,-36 6536.5,-6 6431.5,-6"/>
<text text-anchor="start" x="6439.5" y="-24" font-family="Helvetica,sans-Serif" font-size="10.00">src/backends/starpu</text>
<text text-anchor="middle" x="6484" y="-13" font-family="Helvetica,sans-Serif" font-size="10.00">/dense/dqp3.c</text>
</a>
</g>
</g>
<!-- Node6&#45;&gt;Node18 -->
<g id="edge17" class="edge"><title>Node6&#45;&gt;Node18</title>
<path fill="none" stroke="midnightblue" d="M3083.28,-86.7462C3501.87,-84.6957 6250.22,-70.1893 6422,-42 6430.04,-40.6813 6438.46,-38.5223 6446.41,-36.1001"/>
<polygon fill="midnightblue" stroke="midnightblue" points="3083.24,-83.2462 3073.26,-86.795 3083.27,-90.2461 3083.24,-83.2462"/>
</g>
<!-- Node19 -->
<g id="node19" class="node"><title>Node19</title>
<g id="a_node19"><a xlink:href="starpu_2dense_2drsdd_8c.html" target="_top" xlink:title="src/backends/starpu\l/dense/drsdd.c">
<polygon fill="white" stroke="black" points="536.5,-6 536.5,-36 641.5,-36 641.5,-6 536.5,-6"/>
<text text-anchor="start" x="544.5" y="-24" font-family="Helvetica,sans-Serif" font-size="10.00">src/backends/starpu</text>
<text text-anchor="middle" x="589" y="-13" font-family="Helvetica,sans-Serif" font-size="10.00">/dense/drsdd.c</text>
</a>
</g>
</g>
<!-- Node6&#45;&gt;Node19 -->
<g id="edge18" class="edge"><title>Node6&#45;&gt;Node19</title>
<path fill="none" stroke="midnightblue" d="M2976.29,-86.9263C2645.11,-86.3468 887.051,-81.4216 651,-42 642.968,-40.6586 634.55,-38.4897 626.598,-36.0649"/>
<polygon fill="midnightblue" stroke="midnightblue" points="2976.56,-90.4267 2986.57,-86.9437 2976.57,-83.4267 2976.56,-90.4267"/>
</g>
<!-- Node20 -->
<g id="node20" class="node"><title>Node20</title>
<g id="a_node20"><a xlink:href="starpu_2dense_2dsdd_8c.html" target="_top" xlink:title="src/backends/starpu\l/dense/dsdd.c">
<polygon fill="white" stroke="black" points="659.5,-6 659.5,-36 764.5,-36 764.5,-6 659.5,-6"/>
<text text-anchor="start" x="667.5" y="-24" font-family="Helvetica,sans-Serif" font-size="10.00">src/backends/starpu</text>
<text text-anchor="middle" x="712" y="-13" font-family="Helvetica,sans-Serif" font-size="10.00">/dense/dsdd.c</text>
</a>
</g>
</g>
<!-- Node6&#45;&gt;Node20 -->
<g id="edge19" class="edge"><title>Node6&#45;&gt;Node20</title>
<path fill="none" stroke="midnightblue" d="M2976.56,-86.8673C2656.26,-85.9481 997.243,-79.401 774,-42 765.969,-40.6545 757.551,-38.4838 749.599,-36.0585"/>
<polygon fill="midnightblue" stroke="midnightblue" points="2976.94,-90.3683 2986.95,-86.8965 2976.96,-83.3683 2976.94,-90.3683"/>
</g>
<!-- Node21 -->
<g id="node21" class="node"><title>Node21</title>
<g id="a_node21"><a xlink:href="kernel_8c.html" target="_top" xlink:title="src/backends/starpu\l/dense/kernel.c">
<polygon fill="white" stroke="black" points="782.5,-6 782.5,-36 887.5,-36 887.5,-6 782.5,-6"/>
<text text-anchor="start" x="790.5" y="-24" font-family="Helvetica,sans-Serif" font-size="10.00">src/backends/starpu</text>
<text text-anchor="middle" x="835" y="-13" font-family="Helvetica,sans-Serif" font-size="10.00">/dense/kernel.c</text>
</a>
</g>
</g>
<!-- Node6&#45;&gt;Node21 -->
<g id="edge20" class="edge"><title>Node6&#45;&gt;Node21</title>
<path fill="none" stroke="midnightblue" d="M2976.52,-86.8009C2666.58,-85.5234 1107.38,-77.3702 897,-42 888.969,-40.6499 880.552,-38.4771 872.6,-36.0513"/>
<polygon fill="midnightblue" stroke="midnightblue" points="2976.58,-90.3011 2986.59,-86.8418 2976.61,-83.3011 2976.58,-90.3011"/>
</g>
<!-- Node22 -->
<g id="node22" class="node"><title>Node22</title>
<g id="a_node22"><a xlink:href="dgemm_8c.html" target="_top" xlink:title="src/backends/starpu\l/dense/dgemm.c">
<polygon fill="white" stroke="black" points="905.5,-6 905.5,-36 1010.5,-36 1010.5,-6 905.5,-6"/>
<text text-anchor="start" x="913.5" y="-24" font-family="Helvetica,sans-Serif" font-size="10.00">src/backends/starpu</text>
<text text-anchor="middle" x="958" y="-13" font-family="Helvetica,sans-Serif" font-size="10.00">/dense/dgemm.c</text>
</a>
</g>
</g>
<!-- Node6&#45;&gt;Node22 -->
<g id="edge21" class="edge"><title>Node6&#45;&gt;Node22</title>
<path fill="none" stroke="midnightblue" d="M2976.79,-86.728C2678.22,-85.0792 1217.6,-75.3532 1020,-42 1011.97,-40.6447 1003.55,-38.4697 995.601,-36.0433"/>
<polygon fill="midnightblue" stroke="midnightblue" points="2976.89,-90.2285 2986.91,-86.7833 2976.93,-83.2286 2976.89,-90.2285"/>
</g>
<!-- Node23 -->
<g id="node23" class="node"><title>Node23</title>
<g id="a_node23"><a xlink:href="fake__init_8c.html" target="_top" xlink:title="src/backends/starpu\l/dense/fake_init.c">
<polygon fill="white" stroke="black" points="1028.5,-6 1028.5,-36 1133.5,-36 1133.5,-6 1028.5,-6"/>
<text text-anchor="start" x="1036.5" y="-24" font-family="Helvetica,sans-Serif" font-size="10.00">src/backends/starpu</text>
<text text-anchor="middle" x="1081" y="-13" font-family="Helvetica,sans-Serif" font-size="10.00">/dense/fake_init.c</text>
</a>
</g>
</g>
<!-- Node6&#45;&gt;Node23 -->
<g id="edge22" class="edge"><title>Node6&#45;&gt;Node23</title>
<path fill="none" stroke="midnightblue" d="M2976.4,-86.6417C2688.09,-84.5911 1327.7,-73.3146 1143,-42 1134.97,-40.6388 1126.55,-38.4613 1118.6,-36.0342"/>
<polygon fill="midnightblue" stroke="midnightblue" points="2976.57,-90.1429 2986.6,-86.7135 2976.62,-83.143 2976.57,-90.1429"/>
</g>
<!-- Node24 -->
<g id="node24" class="node"><title>Node24</title>
<g id="a_node24"><a xlink:href="starpu_2blrm_2dqp3_8c.html" target="_top" xlink:title="src/backends/starpu\l/blrm/dqp3.c">
<polygon fill="white" stroke="black" points="1151.5,-6 1151.5,-36 1256.5,-36 1256.5,-6 1151.5,-6"/>
<text text-anchor="start" x="1159.5" y="-24" font-family="Helvetica,sans-Serif" font-size="10.00">src/backends/starpu</text>
<text text-anchor="middle" x="1204" y="-13" font-family="Helvetica,sans-Serif" font-size="10.00">/blrm/dqp3.c</text>
</a>
</g>
</g>
<!-- Node6&#45;&gt;Node24 -->
<g id="edge23" class="edge"><title>Node6&#45;&gt;Node24</title>
<path fill="none" stroke="midnightblue" d="M2976.84,-86.5496C2700.89,-84.0907 1438,-71.3083 1266,-42 1257.97,-40.6322 1249.56,-38.4517 1241.6,-36.0239"/>
<polygon fill="midnightblue" stroke="midnightblue" points="2976.96,-90.0507 2986.99,-86.6394 2977.02,-83.051 2976.96,-90.0507"/>
</g>
<!-- Node25 -->
<g id="node25" class="node"><title>Node25</title>
<g id="a_node25"><a xlink:href="starpu_2blrm_2drsdd_8c.html" target="_top" xlink:title="src/backends/starpu\l/blrm/drsdd.c">
<polygon fill="white" stroke="black" points="1274.5,-6 1274.5,-36 1379.5,-36 1379.5,-6 1274.5,-6"/>
<text text-anchor="start" x="1282.5" y="-24" font-family="Helvetica,sans-Serif" font-size="10.00">src/backends/starpu</text>
<text text-anchor="middle" x="1327" y="-13" font-family="Helvetica,sans-Serif" font-size="10.00">/blrm/drsdd.c</text>
</a>
</g>
</g>
<!-- Node6&#45;&gt;Node25 -->
<g id="edge24" class="edge"><title>Node6&#45;&gt;Node25</title>
<path fill="none" stroke="midnightblue" d="M2976.76,-86.4395C2712.52,-83.5368 1548.22,-69.2866 1389,-42 1380.97,-40.6245 1372.56,-38.4407 1364.61,-36.012"/>
<polygon fill="midnightblue" stroke="midnightblue" points="2976.83,-89.9404 2986.87,-86.5498 2976.9,-82.9408 2976.83,-89.9404"/>
</g>
<!-- Node26 -->
<g id="node26" class="node"><title>Node26</title>
<g id="a_node26"><a xlink:href="starpu_2blrm_2dsdd_8c.html" target="_top" xlink:title="src/backends/starpu\l/blrm/dsdd.c">
<polygon fill="white" stroke="black" points="1397.5,-6 1397.5,-36 1502.5,-36 1502.5,-6 1397.5,-6"/>
<text text-anchor="start" x="1405.5" y="-24" font-family="Helvetica,sans-Serif" font-size="10.00">src/backends/starpu</text>
<text text-anchor="middle" x="1450" y="-13" font-family="Helvetica,sans-Serif" font-size="10.00">/blrm/dsdd.c</text>
</a>
</g>
</g>
<!-- Node6&#45;&gt;Node26 -->
<g id="edge25" class="edge"><title>Node6&#45;&gt;Node26</title>
<path fill="none" stroke="midnightblue" d="M2976.73,-86.312C2724.73,-82.9373 1658.47,-67.2695 1512,-42 1504.09,-40.6348 1495.79,-38.4885 1487.94,-36.0993"/>
<polygon fill="midnightblue" stroke="midnightblue" points="2976.69,-89.8117 2986.73,-86.4452 2976.78,-82.8123 2976.69,-89.8117"/>
</g>
<!-- Node27 -->
<g id="node27" class="node"><title>Node27</title>
<g id="a_node27"><a xlink:href="openmp_2blrm_2dqp3_8c.html" target="_top" xlink:title="src/backends/openmp\l/blrm/dqp3.c">
<polygon fill="white" stroke="black" points="1520.5,-6 1520.5,-36 1633.5,-36 1633.5,-6 1520.5,-6"/>
<text text-anchor="start" x="1528.5" y="-24" font-family="Helvetica,sans-Serif" font-size="10.00">src/backends/openmp</text>
<text text-anchor="middle" x="1577" y="-13" font-family="Helvetica,sans-Serif" font-size="10.00">/blrm/dqp3.c</text>
</a>
</g>
</g>
<!-- Node6&#45;&gt;Node27 -->
<g id="edge26" class="edge"><title>Node6&#45;&gt;Node27</title>
<path fill="none" stroke="midnightblue" d="M2976.63,-87.1312C2755.01,-87.389 1906.69,-85.4572 1643,-42 1634.61,-40.6177 1625.8,-38.4638 1617.45,-36.0725"/>
<polygon fill="midnightblue" stroke="midnightblue" points="2976.71,-90.6312 2986.7,-87.1175 2976.7,-83.6312 2976.71,-90.6312"/>
</g>
<!-- Node28 -->
<g id="node28" class="node"><title>Node28</title>
<g id="a_node28"><a xlink:href="openmp_2blrm_2drsdd_8c.html" target="_top" xlink:title="src/backends/openmp\l/blrm/drsdd.c">
<polygon fill="white" stroke="black" points="1651.5,-6 1651.5,-36 1764.5,-36 1764.5,-6 1651.5,-6"/>
<text text-anchor="start" x="1659.5" y="-24" font-family="Helvetica,sans-Serif" font-size="10.00">src/backends/openmp</text>
<text text-anchor="middle" x="1708" y="-13" font-family="Helvetica,sans-Serif" font-size="10.00">/blrm/drsdd.c</text>
</a>
</g>
</g>
<!-- Node6&#45;&gt;Node28 -->
<g id="edge27" class="edge"><title>Node6&#45;&gt;Node28</title>
<path fill="none" stroke="midnightblue" d="M2976.62,-86.92C2768.42,-86.3245 2010.79,-81.435 1774,-42 1765.61,-40.6035 1756.8,-38.4433 1748.45,-36.0503"/>
<polygon fill="midnightblue" stroke="midnightblue" points="2976.68,-90.4201 2986.69,-86.9467 2976.7,-83.4201 2976.68,-90.4201"/>
</g>
<!-- Node29 -->
<g id="node29" class="node"><title>Node29</title>
<g id="a_node29"><a xlink:href="openmp_2blrm_2dsdd_8c.html" target="_top" xlink:title="src/backends/openmp\l/blrm/dsdd.c">
<polygon fill="white" stroke="black" points="1782.5,-6 1782.5,-36 1895.5,-36 1895.5,-6 1782.5,-6"/>
<text text-anchor="start" x="1790.5" y="-24" font-family="Helvetica,sans-Serif" font-size="10.00">src/backends/openmp</text>
<text text-anchor="middle" x="1839" y="-13" font-family="Helvetica,sans-Serif" font-size="10.00">/blrm/dsdd.c</text>
</a>
</g>
</g>
<!-- Node6&#45;&gt;Node29 -->
<g id="edge28" class="edge"><title>Node6&#45;&gt;Node29</title>
<path fill="none" stroke="midnightblue" d="M2976.53,-86.6595C2782.36,-85.1435 2114.96,-77.4167 1905,-42 1896.62,-40.5861 1887.81,-38.418 1879.45,-36.023"/>
<polygon fill="midnightblue" stroke="midnightblue" points="2976.73,-90.1611 2986.76,-86.7371 2976.78,-83.1613 2976.73,-90.1611"/>
</g>
<!-- Node30 -->
<g id="node30" class="node"><title>Node30</title>
<g id="a_node30"><a xlink:href="openmp_2blrm_2dmml_8c.html" target="_top" xlink:title="src/backends/openmp\l/blrm/dmml.c">
<polygon fill="white" stroke="black" points="1913.5,-6 1913.5,-36 2026.5,-36 2026.5,-6 1913.5,-6"/>
<text text-anchor="start" x="1921.5" y="-24" font-family="Helvetica,sans-Serif" font-size="10.00">src/backends/openmp</text>
<text text-anchor="middle" x="1970" y="-13" font-family="Helvetica,sans-Serif" font-size="10.00">/blrm/dmml.c</text>
</a>
</g>
</g>
<!-- Node6&#45;&gt;Node30 -->
<g id="edge29" class="edge"><title>Node6&#45;&gt;Node30</title>
<path fill="none" stroke="midnightblue" d="M2976.6,-86.3327C2797.53,-83.8207 2219.32,-73.4185 2036,-42 2027.74,-40.5842 2019.06,-38.4474 2010.81,-36.0896"/>
<polygon fill="midnightblue" stroke="midnightblue" points="2976.78,-89.8353 2986.82,-86.4735 2976.87,-82.8359 2976.78,-89.8353"/>
</g>
<!-- Node31 -->
<g id="node31" class="node"><title>Node31</title>
<g id="a_node31"><a xlink:href="openmp_2blrm_2dfe_8c.html" target="_top" xlink:title="src/backends/openmp\l/blrm/dfe.c">
<polygon fill="white" stroke="black" points="2044.5,-6 2044.5,-36 2157.5,-36 2157.5,-6 2044.5,-6"/>
<text text-anchor="start" x="2052.5" y="-24" font-family="Helvetica,sans-Serif" font-size="10.00">src/backends/openmp</text>
<text text-anchor="middle" x="2101" y="-13" font-family="Helvetica,sans-Serif" font-size="10.00">/blrm/dfe.c</text>
</a>
</g>
</g>
<!-- Node6&#45;&gt;Node31 -->
<g id="edge30" class="edge"><title>Node6&#45;&gt;Node31</title>
<path fill="none" stroke="midnightblue" d="M2976.66,-85.9083C2813.68,-82.306 2323.81,-69.4293 2167,-42 2158.74,-40.5559 2150.07,-38.4062 2141.82,-36.0448"/>
<polygon fill="midnightblue" stroke="midnightblue" points="2976.84,-89.413 2986.92,-86.1322 2977,-82.4147 2976.84,-89.413"/>
</g>
<!-- Node32 -->
<g id="node32" class="node"><title>Node32</title>
<g id="a_node32"><a xlink:href="mpi_2blrm_2dqp3_8c.html" target="_top" xlink:title="src/backends/mpi/blrm\l/dqp3.c">
<polygon fill="white" stroke="black" points="2176,-6 2176,-36 2292,-36 2292,-6 2176,-6"/>
<text text-anchor="start" x="2184" y="-24" font-family="Helvetica,sans-Serif" font-size="10.00">src/backends/mpi/blrm</text>
<text text-anchor="middle" x="2234" y="-13" font-family="Helvetica,sans-Serif" font-size="10.00">/dqp3.c</text>
</a>
</g>
</g>
<!-- Node6&#45;&gt;Node32 -->
<g id="edge31" class="edge"><title>Node6&#45;&gt;Node32</title>
<path fill="none" stroke="midnightblue" d="M2976.51,-85.2838C2831.11,-80.366 2430.87,-65.0782 2301,-42 2292.75,-40.5345 2284.08,-38.4061 2275.82,-36.0785"/>
<polygon fill="midnightblue" stroke="midnightblue" points="2976.83,-88.7963 2986.94,-85.6335 2977.06,-81.8002 2976.83,-88.7963"/>
</g>
<!-- Node33 -->
<g id="node33" class="node"><title>Node33</title>
<g id="a_node33"><a xlink:href="mpi_2blrm_2drsdd_8c.html" target="_top" xlink:title="src/backends/mpi/blrm\l/drsdd.c">
<polygon fill="white" stroke="black" points="2310,-6 2310,-36 2426,-36 2426,-6 2310,-6"/>
<text text-anchor="start" x="2318" y="-24" font-family="Helvetica,sans-Serif" font-size="10.00">src/backends/mpi/blrm</text>
<text text-anchor="middle" x="2368" y="-13" font-family="Helvetica,sans-Serif" font-size="10.00">/drsdd.c</text>
</a>
</g>
</g>
<!-- Node6&#45;&gt;Node33 -->
<g id="edge32" class="edge"><title>Node6&#45;&gt;Node33</title>
<path fill="none" stroke="midnightblue" d="M2976.65,-86.7842C2871.92,-85.5224 2632.42,-78.4924 2435,-42 2426.88,-40.4996 2418.35,-38.3851 2410.2,-36.0887"/>
<polygon fill="midnightblue" stroke="midnightblue" points="2976.62,-90.284 2986.66,-86.892 2976.7,-83.2844 2976.62,-90.284"/>
</g>
<!-- Node34 -->
<g id="node34" class="node"><title>Node34</title>
<g id="a_node34"><a xlink:href="mpi_2blrm_2dfe_8c.html" target="_top" xlink:title="src/backends/mpi/blrm\l/dfe.c">
<polygon fill="white" stroke="black" points="2444,-6 2444,-36 2560,-36 2560,-6 2444,-6"/>
<text text-anchor="start" x="2452" y="-24" font-family="Helvetica,sans-Serif" font-size="10.00">src/backends/mpi/blrm</text>
<text text-anchor="middle" x="2502" y="-13" font-family="Helvetica,sans-Serif" font-size="10.00">/dfe.c</text>
</a>
</g>
</g>
<!-- Node6&#45;&gt;Node34 -->
<g id="edge33" class="edge"><title>Node6&#45;&gt;Node34</title>
<path fill="none" stroke="midnightblue" d="M2976.61,-85.128C2890.23,-81.3542 2714.78,-70.5957 2569,-42 2561.02,-40.4345 2552.63,-38.3184 2544.58,-36.0473"/>
<polygon fill="midnightblue" stroke="midnightblue" points="2976.56,-88.6287 2986.7,-85.5543 2976.85,-81.6349 2976.56,-88.6287"/>
</g>
<!-- Node35 -->
<g id="node35" class="node"><title>Node35</title>
<g id="a_node35"><a xlink:href="mpi_2blrm_2dsdd_8c.html" target="_top" xlink:title="src/backends/mpi/blrm\l/dsdd.c">
<polygon fill="white" stroke="black" points="2578,-6 2578,-36 2694,-36 2694,-6 2578,-6"/>
<text text-anchor="start" x="2586" y="-24" font-family="Helvetica,sans-Serif" font-size="10.00">src/backends/mpi/blrm</text>
<text text-anchor="middle" x="2636" y="-13" font-family="Helvetica,sans-Serif" font-size="10.00">/dsdd.c</text>
</a>
</g>
</g>
<!-- Node6&#45;&gt;Node35 -->
<g id="edge34" class="edge"><title>Node6&#45;&gt;Node35</title>
<path fill="none" stroke="midnightblue" d="M2976.76,-82.2064C2911.68,-75.7667 2798.43,-62.6807 2703,-42 2695.41,-40.3545 2687.42,-38.2817 2679.72,-36.0982"/>
<polygon fill="midnightblue" stroke="midnightblue" points="2976.49,-85.6965 2986.78,-83.183 2977.17,-78.7295 2976.49,-85.6965"/>
</g>
<!-- Node36 -->
<g id="node36" class="node"><title>Node36</title>
<g id="a_node36"><a xlink:href="mpi_2blrm_2dmml_8c.html" target="_top" xlink:title="src/backends/mpi/blrm\l/dmml.c">
<polygon fill="white" stroke="black" points="2712,-6 2712,-36 2828,-36 2828,-6 2712,-6"/>
<text text-anchor="start" x="2720" y="-24" font-family="Helvetica,sans-Serif" font-size="10.00">src/backends/mpi/blrm</text>
<text text-anchor="middle" x="2770" y="-13" font-family="Helvetica,sans-Serif" font-size="10.00">/dmml.c</text>
</a>
</g>
</g>
<!-- Node6&#45;&gt;Node36 -->
<g id="edge35" class="edge"><title>Node6&#45;&gt;Node36</title>
<path fill="none" stroke="midnightblue" d="M2980.46,-76.3221C2941.35,-67.6829 2885.49,-54.8762 2837,-42 2830.08,-40.1617 2822.79,-38.1084 2815.67,-36.0369"/>
<polygon fill="midnightblue" stroke="midnightblue" points="2979.76,-79.7513 2990.27,-78.4808 2981.26,-72.9146 2979.76,-79.7513"/>
</g>
<!-- Node37 -->
<g id="node37" class="node"><title>Node37</title>
<g id="a_node37"><a xlink:href="mpi_2blrm_2dna_8c.html" target="_top" xlink:title="src/backends/mpi/blrm\l/dna.c">
<polygon fill="white" stroke="black" points="2846,-6 2846,-36 2962,-36 2962,-6 2846,-6"/>
<text text-anchor="start" x="2854" y="-24" font-family="Helvetica,sans-Serif" font-size="10.00">src/backends/mpi/blrm</text>
<text text-anchor="middle" x="2904" y="-13" font-family="Helvetica,sans-Serif" font-size="10.00">/dna.c</text>
</a>
</g>
</g>
<!-- Node6&#45;&gt;Node37 -->
<g id="edge36" class="edge"><title>Node6&#45;&gt;Node37</title>
<path fill="none" stroke="midnightblue" d="M3004.21,-73.6944C2983.01,-62.7607 2953.06,-47.3102 2931.43,-36.1516"/>
<polygon fill="midnightblue" stroke="midnightblue" points="3002.78,-76.8943 3013.27,-78.3685 3005.99,-70.6733 3002.78,-76.8943"/>
</g>
<!-- Node38 -->
<g id="node38" class="node"><title>Node38</title>
<g id="a_node38"><a xlink:href="cg_8c.html" target="_top" xlink:title="src/itersolvers/cg.c">
<polygon fill="white" stroke="black" points="2980,-11.5 2980,-30.5 3080,-30.5 3080,-11.5 2980,-11.5"/>
<text text-anchor="middle" x="3030" y="-18.5" font-family="Helvetica,sans-Serif" font-size="10.00">src/itersolvers/cg.c</text>
</a>
</g>
</g>
<!-- Node6&#45;&gt;Node38 -->
<g id="edge40" class="edge"><title>Node6&#45;&gt;Node38</title>
<path fill="none" stroke="midnightblue" d="M3030,-68.037C3030,-55.6703 3030,-40.1198 3030,-30.6273"/>
<polygon fill="midnightblue" stroke="midnightblue" points="3026.5,-68.2338 3030,-78.2338 3033.5,-68.2338 3026.5,-68.2338"/>
</g>
<!-- Node39 -->
<g id="node39" class="node"><title>Node39</title>
<g id="a_node39"><a xlink:href="common_8c.html" target="_top" xlink:title="src/applications/common.c">
<polygon fill="white" stroke="black" points="3098,-11.5 3098,-30.5 3232,-30.5 3232,-11.5 3098,-11.5"/>
<text text-anchor="middle" x="3165" y="-18.5" font-family="Helvetica,sans-Serif" font-size="10.00">src/applications/common.c</text>
</a>
</g>
</g>
<!-- Node6&#45;&gt;Node39 -->
<g id="edge41" class="edge"><title>Node6&#45;&gt;Node39</title>
<path fill="none" stroke="midnightblue" d="M3057.12,-73.9436C3083.86,-61.0691 3123.97,-41.7573 3147,-30.6672"/>
<polygon fill="midnightblue" stroke="midnightblue" points="3055.42,-70.8768 3047.93,-78.3685 3058.46,-77.1838 3055.42,-70.8768"/>
</g>
<!-- Node40 -->
<g id="node40" class="node"><title>Node40</title>
<g id="a_node40"><a xlink:href="spatial_8c.html" target="_top" xlink:title="src/applications/spatial.c">
<polygon fill="white" stroke="black" points="3250.5,-11.5 3250.5,-30.5 3375.5,-30.5 3375.5,-11.5 3250.5,-11.5"/>
<text text-anchor="middle" x="3313" y="-18.5" font-family="Helvetica,sans-Serif" font-size="10.00">src/applications/spatial.c</text>
</a>
</g>
</g>
<!-- Node6&#45;&gt;Node40 -->
<g id="edge42" class="edge"><title>Node6&#45;&gt;Node40</title>
<path fill="none" stroke="midnightblue" d="M3082.93,-76.6416C3125.72,-68.0422 3187.45,-55.1343 3241,-42 3255.11,-38.5386 3270.66,-34.2778 3283.68,-30.5796"/>
<polygon fill="midnightblue" stroke="midnightblue" points="3082.13,-73.2312 3073.01,-78.6246 3083.5,-80.0952 3082.13,-73.2312"/>
</g>
<!-- Node41 -->
<g id="node41" class="node"><title>Node41</title>
<g id="a_node41"><a xlink:href="electrostatics_8c.html" target="_top" xlink:title="src/applications/electrostatics.c">
<polygon fill="white" stroke="black" points="3393.5,-11.5 3393.5,-30.5 3548.5,-30.5 3548.5,-11.5 3393.5,-11.5"/>
<text text-anchor="middle" x="3471" y="-18.5" font-family="Helvetica,sans-Serif" font-size="10.00">src/applications/electrostatics.c</text>
</a>
</g>
</g>
<!-- Node6&#45;&gt;Node41 -->
<g id="edge43" class="edge"><title>Node6&#45;&gt;Node41</title>
<path fill="none" stroke="midnightblue" d="M3083.39,-81.954C3153.08,-74.9744 3278.7,-61.0457 3385,-42 3402.5,-38.8639 3421.8,-34.4635 3437.67,-30.5884"/>
<polygon fill="midnightblue" stroke="midnightblue" points="3082.72,-78.5037 3073.11,-82.9737 3083.41,-85.4695 3082.72,-78.5037"/>
</g>
<!-- Node42 -->
<g id="node42" class="node"><title>Node42</title>
<g id="a_node42"><a xlink:href="electrodynamics_8c.html" target="_top" xlink:title="src/applications/electrodynamics.c">
<polygon fill="white" stroke="black" points="3566.5,-11.5 3566.5,-30.5 3733.5,-30.5 3733.5,-11.5 3566.5,-11.5"/>
<text text-anchor="middle" x="3650" y="-18.5" font-family="Helvetica,sans-Serif" font-size="10.00">src/applications/electrodynamics.c</text>
</a>
</g>
</g>
<!-- Node6&#45;&gt;Node42 -->
<g id="edge44" class="edge"><title>Node6&#45;&gt;Node42</title>
<path fill="none" stroke="midnightblue" d="M3083.34,-84.7326C3178.92,-80.1635 3385.52,-67.9863 3558,-42 3577.23,-39.1021 3598.47,-34.5768 3615.68,-30.5632"/>
<polygon fill="midnightblue" stroke="midnightblue" points="3083.16,-81.2369 3073.34,-85.2021 3083.49,-88.2291 3083.16,-81.2369"/>
</g>
<!-- Node43 -->
<g id="node43" class="node"><title>Node43</title>
<g id="a_node43"><a xlink:href="randtlr_8c.html" target="_top" xlink:title="src/applications/randtlr.c">
<polygon fill="white" stroke="black" points="3751.5,-11.5 3751.5,-30.5 3874.5,-30.5 3874.5,-11.5 3751.5,-11.5"/>
<text text-anchor="middle" x="3813" y="-18.5" font-family="Helvetica,sans-Serif" font-size="10.00">src/applications/randtlr.c</text>
</a>
</g>
</g>
<!-- Node6&#45;&gt;Node43 -->
<g id="edge45" class="edge"><title>Node6&#45;&gt;Node43</title>
<path fill="none" stroke="midnightblue" d="M3083.7,-87.5341C3203.14,-87.8685 3499.47,-83.9695 3743,-42 3758.2,-39.3812 3774.81,-34.7162 3788.03,-30.55"/>
<polygon fill="midnightblue" stroke="midnightblue" points="3083.39,-84.033 3073.37,-87.4932 3083.36,-91.0329 3083.39,-84.033"/>
</g>
<!-- Node44 -->
<g id="node44" class="node"><title>Node44</title>
<g id="a_node44"><a xlink:href="minimal_8c.html" target="_top" xlink:title="src/applications/minimal.c">
<polygon fill="white" stroke="black" points="3893,-11.5 3893,-30.5 4023,-30.5 4023,-11.5 3893,-11.5"/>
<text text-anchor="middle" x="3958" y="-18.5" font-family="Helvetica,sans-Serif" font-size="10.00">src/applications/minimal.c</text>
</a>
</g>
</g>
<!-- Node6&#45;&gt;Node44 -->
<g id="edge46" class="edge"><title>Node6&#45;&gt;Node44</title>
<path fill="none" stroke="midnightblue" d="M3083.31,-85.6659C3245.04,-81.3849 3728.61,-66.8062 3884,-42 3900.03,-39.4405 3917.59,-34.7783 3931.58,-30.5988"/>
<polygon fill="midnightblue" stroke="midnightblue" points="3083.03,-82.1718 3073.12,-85.933 3083.21,-89.1694 3083.03,-82.1718"/>
</g>
<!-- Node45 -->
<g id="node45" class="node"><title>Node45</title>
<g id="a_node45"><a xlink:href="particles_8c.html" target="_top" xlink:title="src/applications/particles.c">
<polygon fill="white" stroke="black" points="4041.5,-11.5 4041.5,-30.5 4174.5,-30.5 4174.5,-11.5 4041.5,-11.5"/>
<text text-anchor="middle" x="4108" y="-18.5" font-family="Helvetica,sans-Serif" font-size="10.00">src/applications/particles.c</text>
</a>
</g>
</g>
<!-- Node6&#45;&gt;Node45 -->
<g id="edge47" class="edge"><title>Node6&#45;&gt;Node45</title>
<path fill="none" stroke="midnightblue" d="M3083.21,-86.1012C3262.92,-82.832 3846.45,-70.2519 4032,-42 4048.59,-39.4739 4066.78,-34.7582 4081.21,-30.5402"/>
<polygon fill="midnightblue" stroke="midnightblue" points="3083.14,-82.6017 3073.21,-86.2811 3083.27,-89.6006 3083.14,-82.6017"/>
</g>
<!-- Node46 -->
<g id="node46" class="node"><title>Node46</title>
<g id="a_node46"><a xlink:href="cauchy_8c.html" target="_top" xlink:title="src/applications/cauchy.c">
<polygon fill="white" stroke="black" points="4193,-11.5 4193,-30.5 4321,-30.5 4321,-11.5 4193,-11.5"/>
<text text-anchor="middle" x="4257" y="-18.5" font-family="Helvetica,sans-Serif" font-size="10.00">src/applications/cauchy.c</text>
</a>
</g>
</g>
<!-- Node6&#45;&gt;Node46 -->
<g id="edge48" class="edge"><title>Node6&#45;&gt;Node46</title>
<path fill="none" stroke="midnightblue" d="M3083.19,-86.5369C3280.12,-84.5717 3967.55,-75.42 4184,-42 4199.97,-39.5336 4217.45,-34.8203 4231.3,-30.5885"/>
<polygon fill="midnightblue" stroke="midnightblue" points="3083.06,-83.0379 3073.09,-86.6355 3083.13,-90.0375 3083.06,-83.0379"/>
</g>
<!-- Node47 -->
<g id="node47" class="node"><title>Node47</title>
<g id="a_node47"><a xlink:href="kernel__sin__nd_8c.html" target="_top" xlink:title="build/src/applications\l/electrodynamics/kernel\l_sin_nd.c">
<polygon fill="white" stroke="black" points="4339,-0.5 4339,-41.5 4459,-41.5 4459,-0.5 4339,-0.5"/>
<text text-anchor="start" x="4347" y="-29.5" font-family="Helvetica,sans-Serif" font-size="10.00">build/src/applications</text>
<text text-anchor="start" x="4347" y="-18.5" font-family="Helvetica,sans-Serif" font-size="10.00">/electrodynamics/kernel</text>
<text text-anchor="middle" x="4399" y="-7.5" font-family="Helvetica,sans-Serif" font-size="10.00">_sin_nd.c</text>
</a>
</g>
</g>
<!-- Node6&#45;&gt;Node47 -->
<g id="edge49" class="edge"><title>Node6&#45;&gt;Node47</title>
<path fill="none" stroke="midnightblue" d="M3083.44,-86.9104C3296.29,-86.2813 4083.97,-81.2908 4330,-42 4332.96,-41.5279 4335.96,-40.9686 4338.99,-40.3425"/>
<polygon fill="midnightblue" stroke="midnightblue" points="3083.15,-83.4111 3073.16,-86.9387 3083.17,-90.4111 3083.15,-83.4111"/>
</g>
<!-- Node48 -->
<g id="node48" class="node"><title>Node48</title>
<g id="a_node48"><a xlink:href="kernel__sin__1d_8c.html" target="_top" xlink:title="build/src/applications\l/electrodynamics/kernel\l_sin_1d.c">
<polygon fill="white" stroke="black" points="4477,-0.5 4477,-41.5 4597,-41.5 4597,-0.5 4477,-0.5"/>
<text text-anchor="start" x="4485" y="-29.5" font-family="Helvetica,sans-Serif" font-size="10.00">build/src/applications</text>
<text text-anchor="start" x="4485" y="-18.5" font-family="Helvetica,sans-Serif" font-size="10.00">/electrodynamics/kernel</text>
<text text-anchor="middle" x="4537" y="-7.5" font-family="Helvetica,sans-Serif" font-size="10.00">_sin_1d.c</text>
</a>
</g>
</g>
<!-- Node6&#45;&gt;Node48 -->
<g id="edge50" class="edge"><title>Node6&#45;&gt;Node48</title>
<path fill="none" stroke="midnightblue" d="M3083.42,-87.1178C3310.14,-87.3424 4193.57,-85.3598 4468,-42 4470.96,-41.5329 4473.97,-40.9775 4476.99,-40.3546"/>
<polygon fill="midnightblue" stroke="midnightblue" points="3083.13,-83.6176 3073.13,-87.1056 3083.13,-90.6176 3083.13,-83.6176"/>
</g>
<!-- Node49 -->
<g id="node49" class="node"><title>Node49</title>
<g id="a_node49"><a xlink:href="kernel__sin__2d_8c.html" target="_top" xlink:title="build/src/applications\l/electrodynamics/kernel\l_sin_2d.c">
<polygon fill="white" stroke="black" points="4615,-0.5 4615,-41.5 4735,-41.5 4735,-0.5 4615,-0.5"/>
<text text-anchor="start" x="4623" y="-29.5" font-family="Helvetica,sans-Serif" font-size="10.00">build/src/applications</text>
<text text-anchor="start" x="4623" y="-18.5" font-family="Helvetica,sans-Serif" font-size="10.00">/electrodynamics/kernel</text>
<text text-anchor="middle" x="4675" y="-7.5" font-family="Helvetica,sans-Serif" font-size="10.00">_sin_2d.c</text>
</a>
</g>
</g>
<!-- Node6&#45;&gt;Node49 -->
<g id="edge51" class="edge"><title>Node6&#45;&gt;Node49</title>
<path fill="none" stroke="midnightblue" d="M3083.38,-87.2891C3323.27,-88.3101 4303.06,-89.4389 4606,-42 4608.96,-41.5369 4611.97,-40.9848 4614.99,-40.3646"/>
<polygon fill="midnightblue" stroke="midnightblue" points="3083.19,-83.7883 3073.18,-87.2438 3083.16,-90.7882 3083.19,-83.7883"/>
</g>
<!-- Node50 -->
<g id="node50" class="node"><title>Node50</title>
<g id="a_node50"><a xlink:href="kernel__sin__3d_8c.html" target="_top" xlink:title="build/src/applications\l/electrodynamics/kernel\l_sin_3d.c">
<polygon fill="white" stroke="black" points="4753,-0.5 4753,-41.5 4873,-41.5 4873,-0.5 4753,-0.5"/>
<text text-anchor="start" x="4761" y="-29.5" font-family="Helvetica,sans-Serif" font-size="10.00">build/src/applications</text>
<text text-anchor="start" x="4761" y="-18.5" font-family="Helvetica,sans-Serif" font-size="10.00">/electrodynamics/kernel</text>
<text text-anchor="middle" x="4813" y="-7.5" font-family="Helvetica,sans-Serif" font-size="10.00">_sin_3d.c</text>
</a>
</g>
</g>
<!-- Node6&#45;&gt;Node50 -->
<g id="edge52" class="edge"><title>Node6&#45;&gt;Node50</title>
<path fill="none" stroke="midnightblue" d="M3083.4,-86.4107C3355,-83.304 4576.83,-67.9808 4744,-42 4746.96,-41.5403 4749.97,-40.991 4752.99,-40.373"/>
<polygon fill="midnightblue" stroke="midnightblue" points="3083.36,-82.9108 3073.4,-86.5244 3083.44,-89.9104 3083.36,-82.9108"/>
</g>
</g>
</svg>
