<?xml version="1.0" encoding="UTF-8" standalone="no"?>
<!DOCTYPE svg PUBLIC "-//W3C//DTD SVG 1.1//EN"
 "http://www.w3.org/Graphics/SVG/1.1/DTD/svg11.dtd">
<!-- Generated by graphviz version 2.38.0 (20140413.2041)
 -->
<!-- Title: include/starsh&#45;minimal.h Pages: 1 -->
<svg width="290pt" height="84pt"
 viewBox="0.00 0.00 290.00 84.00" xmlns="http://www.w3.org/2000/svg" xmlns:xlink="http://www.w3.org/1999/xlink">
<g id="graph0" class="graph" transform="scale(1 1) rotate(0) translate(4 80)">
<title>include/starsh&#45;minimal.h</title>
<polygon fill="white" stroke="none" points="-4,4 -4,-80 286,-80 286,4 -4,4"/>
<!-- Node8 -->
<g id="node1" class="node"><title>Node8</title>
<polygon fill="#bfbfbf" stroke="black" points="81,-56.5 81,-75.5 203,-75.5 203,-56.5 81,-56.5"/>
<text text-anchor="middle" x="142" y="-63.5" font-family="Helvetica,sans-Serif" font-size="10.00">include/starsh&#45;minimal.h</text>
</g>
<!-- Node9 -->
<g id="node2" class="node"><title>Node9</title>
<g id="a_node2"><a xlink:href="common_8c.html" target="_top" xlink:title="src/applications/common.c">
<polygon fill="white" stroke="black" points="0,-0.5 0,-19.5 134,-19.5 134,-0.5 0,-0.5"/>
<text text-anchor="middle" x="67" y="-7.5" font-family="Helvetica,sans-Serif" font-size="10.00">src/applications/common.c</text>
</a>
</g>
</g>
<!-- Node8&#45;&gt;Node9 -->
<g id="edge1" class="edge"><title>Node8&#45;&gt;Node9</title>
<path fill="none" stroke="midnightblue" d="M121.695,-50.3804C108.139,-40.6204 90.7579,-28.1057 79.2693,-19.8339"/>
<polygon fill="midnightblue" stroke="midnightblue" points="119.79,-53.3213 129.95,-56.324 123.88,-47.6405 119.79,-53.3213"/>
</g>
<!-- Node10 -->
<g id="node3" class="node"><title>Node10</title>
<g id="a_node3"><a xlink:href="minimal_8c.html" target="_top" xlink:title="src/applications/minimal.c">
<polygon fill="white" stroke="black" points="152,-0.5 152,-19.5 282,-19.5 282,-0.5 152,-0.5"/>
<text text-anchor="middle" x="217" y="-7.5" font-family="Helvetica,sans-Serif" font-size="10.00">src/applications/minimal.c</text>
</a>
</g>
</g>
<!-- Node8&#45;&gt;Node10 -->
<g id="edge2" class="edge"><title>Node8&#45;&gt;Node10</title>
<path fill="none" stroke="midnightblue" d="M162.305,-50.3804C175.861,-40.6204 193.242,-28.1057 204.731,-19.8339"/>
<polygon fill="midnightblue" stroke="midnightblue" points="160.12,-47.6405 154.05,-56.324 164.21,-53.3213 160.12,-47.6405"/>
</g>
</g>
</svg>
