<?xml version="1.0" encoding="UTF-8" standalone="no"?>
<!DOCTYPE svg PUBLIC "-//W3C//DTD SVG 1.1//EN"
 "http://www.w3.org/Graphics/SVG/1.1/DTD/svg11.dtd">
<!-- Generated by graphviz version 2.38.0 (20140413.2041)
 -->
<!-- Title: include/starsh&#45;electrodynamics.h Pages: 1 -->
<svg width="1707pt" height="106pt"
 viewBox="0.00 0.00 1707.00 106.00" xmlns="http://www.w3.org/2000/svg" xmlns:xlink="http://www.w3.org/1999/xlink">
<g id="graph0" class="graph" transform="scale(1 1) rotate(0) translate(4 102)">
<title>include/starsh&#45;electrodynamics.h</title>
<polygon fill="white" stroke="none" points="-4,4 -4,-102 1703,-102 1703,4 -4,4"/>
<!-- Node11 -->
<g id="node1" class="node"><title>Node11</title>
<polygon fill="#bfbfbf" stroke="black" points="800,-78.5 800,-97.5 960,-97.5 960,-78.5 800,-78.5"/>
<text text-anchor="middle" x="880" y="-85.5" font-family="Helvetica,sans-Serif" font-size="10.00">include/starsh&#45;electrodynamics.h</text>
</g>
<!-- Node12 -->
<g id="node2" class="node"><title>Node12</title>
<g id="a_node2"><a xlink:href="common_8c.html" target="_top" xlink:title="src/applications/common.c">
<polygon fill="white" stroke="black" points="0,-11.5 0,-30.5 134,-30.5 134,-11.5 0,-11.5"/>
<text text-anchor="middle" x="67" y="-18.5" font-family="Helvetica,sans-Serif" font-size="10.00">src/applications/common.c</text>
</a>
</g>
</g>
<!-- Node11&#45;&gt;Node12 -->
<g id="edge1" class="edge"><title>Node11&#45;&gt;Node12</title>
<path fill="none" stroke="midnightblue" d="M789.601,-87.1694C649.993,-86.1544 373.907,-79.063 143,-42 126.565,-39.362 108.534,-34.6961 94.1611,-30.5343"/>
<polygon fill="midnightblue" stroke="midnightblue" points="789.8,-90.6707 799.823,-87.2346 789.845,-83.6708 789.8,-90.6707"/>
</g>
<!-- Node13 -->
<g id="node3" class="node"><title>Node13</title>
<g id="a_node3"><a xlink:href="electrodynamics_8c.html" target="_top" xlink:title="src/applications/electrodynamics.c">
<polygon fill="white" stroke="black" points="152.5,-11.5 152.5,-30.5 319.5,-30.5 319.5,-11.5 152.5,-11.5"/>
<text text-anchor="middle" x="236" y="-18.5" font-family="Helvetica,sans-Serif" font-size="10.00">src/applications/electrodynamics.c</text>
</a>
</g>
</g>
<!-- Node11&#45;&gt;Node13 -->
<g id="edge2" class="edge"><title>Node11&#45;&gt;Node13</title>
<path fill="none" stroke="midnightblue" d="M789.599,-83.3157C679.923,-77.9983 489.625,-66.0473 328,-42 308.761,-39.1375 287.529,-34.6147 270.314,-30.5936"/>
<polygon fill="midnightblue" stroke="midnightblue" points="789.476,-86.8138 799.632,-83.7945 789.81,-79.8217 789.476,-86.8138"/>
</g>
<!-- Node14 -->
<g id="node4" class="node"><title>Node14</title>
<g id="a_node4"><a xlink:href="kernel__sin__nd_8c.html" target="_top" xlink:title="build/src/applications\l/electrodynamics/kernel\l_sin_nd.c">
<polygon fill="white" stroke="black" points="337,-0.5 337,-41.5 457,-41.5 457,-0.5 337,-0.5"/>
<text text-anchor="start" x="345" y="-29.5" font-family="Helvetica,sans-Serif" font-size="10.00">build/src/applications</text>
<text text-anchor="start" x="345" y="-18.5" font-family="Helvetica,sans-Serif" font-size="10.00">/electrodynamics/kernel</text>
<text text-anchor="middle" x="397" y="-7.5" font-family="Helvetica,sans-Serif" font-size="10.00">_sin_nd.c</text>
</a>
</g>
</g>
<!-- Node11&#45;&gt;Node14 -->
<g id="edge3" class="edge"><title>Node11&#45;&gt;Node14</title>
<path fill="none" stroke="midnightblue" d="M789.564,-81.7134C705.231,-75.7137 576.24,-63.7962 466,-42 463.064,-41.4194 460.071,-40.7719 457.059,-40.0751"/>
<polygon fill="midnightblue" stroke="midnightblue" points="789.403,-85.2107 799.623,-82.4161 789.891,-78.2277 789.403,-85.2107"/>
</g>
<!-- Node15 -->
<g id="node5" class="node"><title>Node15</title>
<g id="a_node5"><a xlink:href="kernel__sin__1d_8c.html" target="_top" xlink:title="build/src/applications\l/electrodynamics/kernel\l_sin_1d.c">
<polygon fill="white" stroke="black" points="475,-0.5 475,-41.5 595,-41.5 595,-0.5 475,-0.5"/>
<text text-anchor="start" x="483" y="-29.5" font-family="Helvetica,sans-Serif" font-size="10.00">build/src/applications</text>
<text text-anchor="start" x="483" y="-18.5" font-family="Helvetica,sans-Serif" font-size="10.00">/electrodynamics/kernel</text>
<text text-anchor="middle" x="535" y="-7.5" font-family="Helvetica,sans-Serif" font-size="10.00">_sin_1d.c</text>
</a>
</g>
</g>
<!-- Node11&#45;&gt;Node15 -->
<g id="edge4" class="edge"><title>Node11&#45;&gt;Node15</title>
<path fill="none" stroke="midnightblue" d="M803.627,-77.0707C747.952,-69.2214 670.876,-57.0864 604,-42 601.08,-41.3413 598.101,-40.6303 595.1,-39.8827"/>
<polygon fill="midnightblue" stroke="midnightblue" points="803.378,-80.5699 813.766,-78.4862 804.346,-73.6371 803.378,-80.5699"/>
</g>
<!-- Node16 -->
<g id="node6" class="node"><title>Node16</title>
<g id="a_node6"><a xlink:href="kernel__sin__2d_8c.html" target="_top" xlink:title="build/src/applications\l/electrodynamics/kernel\l_sin_2d.c">
<polygon fill="white" stroke="black" points="613,-0.5 613,-41.5 733,-41.5 733,-0.5 613,-0.5"/>
<text text-anchor="start" x="621" y="-29.5" font-family="Helvetica,sans-Serif" font-size="10.00">build/src/applications</text>
<text text-anchor="start" x="621" y="-18.5" font-family="Helvetica,sans-Serif" font-size="10.00">/electrodynamics/kernel</text>
<text text-anchor="middle" x="673" y="-7.5" font-family="Helvetica,sans-Serif" font-size="10.00">_sin_2d.c</text>
</a>
</g>
</g>
<!-- Node11&#45;&gt;Node16 -->
<g id="edge5" class="edge"><title>Node11&#45;&gt;Node16</title>
<path fill="none" stroke="midnightblue" d="M842.731,-75.2971C812.31,-65.7447 768.726,-52.059 733.341,-40.9478"/>
<polygon fill="midnightblue" stroke="midnightblue" points="841.923,-78.7118 852.512,-78.3685 844.02,-72.0333 841.923,-78.7118"/>
</g>
<!-- Node17 -->
<g id="node7" class="node"><title>Node17</title>
<g id="a_node7"><a xlink:href="kernel__sin__3d_8c.html" target="_top" xlink:title="build/src/applications\l/electrodynamics/kernel\l_sin_3d.c">
<polygon fill="white" stroke="black" points="751,-0.5 751,-41.5 871,-41.5 871,-0.5 751,-0.5"/>
<text text-anchor="start" x="759" y="-29.5" font-family="Helvetica,sans-Serif" font-size="10.00">build/src/applications</text>
<text text-anchor="start" x="759" y="-18.5" font-family="Helvetica,sans-Serif" font-size="10.00">/electrodynamics/kernel</text>
<text text-anchor="middle" x="811" y="-7.5" font-family="Helvetica,sans-Serif" font-size="10.00">_sin_3d.c</text>
</a>
</g>
</g>
<!-- Node11&#45;&gt;Node17 -->
<g id="edge6" class="edge"><title>Node11&#45;&gt;Node17</title>
<path fill="none" stroke="midnightblue" d="M863.394,-71.3564C853.885,-62.3993 841.87,-51.0804 831.745,-41.5421"/>
<polygon fill="midnightblue" stroke="midnightblue" points="861.015,-73.9245 870.694,-78.2338 865.815,-68.8292 861.015,-73.9245"/>
</g>
<!-- Node18 -->
<g id="node8" class="node"><title>Node18</title>
<g id="a_node8"><a xlink:href="kernel__sin__4d_8c.html" target="_top" xlink:title="build/src/applications\l/electrodynamics/kernel\l_sin_4d.c">
<polygon fill="white" stroke="black" points="889,-0.5 889,-41.5 1009,-41.5 1009,-0.5 889,-0.5"/>
<text text-anchor="start" x="897" y="-29.5" font-family="Helvetica,sans-Serif" font-size="10.00">build/src/applications</text>
<text text-anchor="start" x="897" y="-18.5" font-family="Helvetica,sans-Serif" font-size="10.00">/electrodynamics/kernel</text>
<text text-anchor="middle" x="949" y="-7.5" font-family="Helvetica,sans-Serif" font-size="10.00">_sin_4d.c</text>
</a>
</g>
</g>
<!-- Node11&#45;&gt;Node18 -->
<g id="edge7" class="edge"><title>Node11&#45;&gt;Node18</title>
<path fill="none" stroke="midnightblue" d="M896.606,-71.3564C906.115,-62.3993 918.13,-51.0804 928.255,-41.5421"/>
<polygon fill="midnightblue" stroke="midnightblue" points="894.185,-68.8292 889.306,-78.2338 898.985,-73.9245 894.185,-68.8292"/>
</g>
<!-- Node19 -->
<g id="node9" class="node"><title>Node19</title>
<g id="a_node9"><a xlink:href="kernel__cos__nd_8c.html" target="_top" xlink:title="build/src/applications\l/electrodynamics/kernel\l_cos_nd.c">
<polygon fill="white" stroke="black" points="1027,-0.5 1027,-41.5 1147,-41.5 1147,-0.5 1027,-0.5"/>
<text text-anchor="start" x="1035" y="-29.5" font-family="Helvetica,sans-Serif" font-size="10.00">build/src/applications</text>
<text text-anchor="start" x="1035" y="-18.5" font-family="Helvetica,sans-Serif" font-size="10.00">/electrodynamics/kernel</text>
<text text-anchor="middle" x="1087" y="-7.5" font-family="Helvetica,sans-Serif" font-size="10.00">_cos_nd.c</text>
</a>
</g>
</g>
<!-- Node11&#45;&gt;Node19 -->
<g id="edge8" class="edge"><title>Node11&#45;&gt;Node19</title>
<path fill="none" stroke="midnightblue" d="M917.269,-75.2971C947.69,-65.7447 991.274,-52.059 1026.66,-40.9478"/>
<polygon fill="midnightblue" stroke="midnightblue" points="915.98,-72.0333 907.488,-78.3685 918.077,-78.7118 915.98,-72.0333"/>
</g>
<!-- Node20 -->
<g id="node10" class="node"><title>Node20</title>
<g id="a_node10"><a xlink:href="kernel__cos__1d_8c.html" target="_top" xlink:title="build/src/applications\l/electrodynamics/kernel\l_cos_1d.c">
<polygon fill="white" stroke="black" points="1165,-0.5 1165,-41.5 1285,-41.5 1285,-0.5 1165,-0.5"/>
<text text-anchor="start" x="1173" y="-29.5" font-family="Helvetica,sans-Serif" font-size="10.00">build/src/applications</text>
<text text-anchor="start" x="1173" y="-18.5" font-family="Helvetica,sans-Serif" font-size="10.00">/electrodynamics/kernel</text>
<text text-anchor="middle" x="1225" y="-7.5" font-family="Helvetica,sans-Serif" font-size="10.00">_cos_1d.c</text>
</a>
</g>
</g>
<!-- Node11&#45;&gt;Node20 -->
<g id="edge9" class="edge"><title>Node11&#45;&gt;Node20</title>
<path fill="none" stroke="midnightblue" d="M956.373,-77.0707C1012.05,-69.2214 1089.12,-57.0864 1156,-42 1158.92,-41.3413 1161.9,-40.6303 1164.9,-39.8827"/>
<polygon fill="midnightblue" stroke="midnightblue" points="955.654,-73.6371 946.234,-78.4862 956.622,-80.5699 955.654,-73.6371"/>
</g>
<!-- Node21 -->
<g id="node11" class="node"><title>Node21</title>
<g id="a_node11"><a xlink:href="kernel__cos__2d_8c.html" target="_top" xlink:title="build/src/applications\l/electrodynamics/kernel\l_cos_2d.c">
<polygon fill="white" stroke="black" points="1303,-0.5 1303,-41.5 1423,-41.5 1423,-0.5 1303,-0.5"/>
<text text-anchor="start" x="1311" y="-29.5" font-family="Helvetica,sans-Serif" font-size="10.00">build/src/applications</text>
<text text-anchor="start" x="1311" y="-18.5" font-family="Helvetica,sans-Serif" font-size="10.00">/electrodynamics/kernel</text>
<text text-anchor="middle" x="1363" y="-7.5" font-family="Helvetica,sans-Serif" font-size="10.00">_cos_2d.c</text>
</a>
</g>
</g>
<!-- Node11&#45;&gt;Node21 -->
<g id="edge10" class="edge"><title>Node11&#45;&gt;Node21</title>
<path fill="none" stroke="midnightblue" d="M970.436,-81.7134C1054.77,-75.7137 1183.76,-63.7962 1294,-42 1296.94,-41.4194 1299.93,-40.7719 1302.94,-40.0751"/>
<polygon fill="midnightblue" stroke="midnightblue" points="970.109,-78.2277 960.377,-82.4161 970.597,-85.2107 970.109,-78.2277"/>
</g>
<!-- Node22 -->
<g id="node12" class="node"><title>Node22</title>
<g id="a_node12"><a xlink:href="kernel__cos__3d_8c.html" target="_top" xlink:title="build/src/applications\l/electrodynamics/kernel\l_cos_3d.c">
<polygon fill="white" stroke="black" points="1441,-0.5 1441,-41.5 1561,-41.5 1561,-0.5 1441,-0.5"/>
<text text-anchor="start" x="1449" y="-29.5" font-family="Helvetica,sans-Serif" font-size="10.00">build/src/applications</text>
<text text-anchor="start" x="1449" y="-18.5" font-family="Helvetica,sans-Serif" font-size="10.00">/electrodynamics/kernel</text>
<text text-anchor="middle" x="1501" y="-7.5" font-family="Helvetica,sans-Serif" font-size="10.00">_cos_3d.c</text>
</a>
</g>
</g>
<!-- Node11&#45;&gt;Node22 -->
<g id="edge11" class="edge"><title>Node11&#45;&gt;Node22</title>
<path fill="none" stroke="midnightblue" d="M970.24,-85.1902C1080.15,-81.7151 1271.06,-71.5748 1432,-42 1434.94,-41.459 1437.94,-40.8437 1440.96,-40.1727"/>
<polygon fill="midnightblue" stroke="midnightblue" points="970.075,-81.6934 960.187,-85.4965 970.289,-88.6902 970.075,-81.6934"/>
</g>
<!-- Node23 -->
<g id="node13" class="node"><title>Node23</title>
<g id="a_node13"><a xlink:href="kernel__cos__4d_8c.html" target="_top" xlink:title="build/src/applications\l/electrodynamics/kernel\l_cos_4d.c">
<polygon fill="white" stroke="black" points="1579,-0.5 1579,-41.5 1699,-41.5 1699,-0.5 1579,-0.5"/>
<text text-anchor="start" x="1587" y="-29.5" font-family="Helvetica,sans-Serif" font-size="10.00">build/src/applications</text>
<text text-anchor="start" x="1587" y="-18.5" font-family="Helvetica,sans-Serif" font-size="10.00">/electrodynamics/kernel</text>
<text text-anchor="middle" x="1639" y="-7.5" font-family="Helvetica,sans-Serif" font-size="10.00">_cos_4d.c</text>
</a>
</g>
</g>
<!-- Node11&#45;&gt;Node23 -->
<g id="edge12" class="edge"><title>Node11&#45;&gt;Node23</title>
<path fill="none" stroke="midnightblue" d="M970.196,-87.3257C1102.68,-86.4065 1357.24,-79.3161 1570,-42 1572.95,-41.4829 1575.95,-40.887 1578.97,-40.2315"/>
<polygon fill="midnightblue" stroke="midnightblue" points="970.071,-83.8262 960.092,-87.3854 970.113,-90.8261 970.071,-83.8262"/>
</g>
</g>
</svg>
