<?xml version="1.0" encoding="UTF-8" standalone="no"?>
<!DOCTYPE svg PUBLIC "-//W3C//DTD SVG 1.1//EN"
 "http://www.w3.org/Graphics/SVG/1.1/DTD/svg11.dtd">
<!-- Generated by graphviz version 2.38.0 (20140413.2041)
 -->
<!-- Title: include/starsh&#45;starpu.h Pages: 1 -->
<svg width="6531pt" height="162pt"
 viewBox="0.00 0.00 6530.50 162.00" xmlns="http://www.w3.org/2000/svg" xmlns:xlink="http://www.w3.org/1999/xlink">
<g id="graph0" class="graph" transform="scale(1 1) rotate(0) translate(4 158)">
<title>include/starsh&#45;starpu.h</title>
<polygon fill="white" stroke="none" points="-4,4 -4,-158 6526.5,-158 6526.5,4 -4,4"/>
<!-- Node1 -->
<g id="node1" class="node"><title>Node1</title>
<polygon fill="#bfbfbf" stroke="black" points="609.5,-134.5 609.5,-153.5 725.5,-153.5 725.5,-134.5 609.5,-134.5"/>
<text text-anchor="middle" x="667.5" y="-141.5" font-family="Helvetica,sans-Serif" font-size="10.00">include/starsh&#45;starpu.h</text>
</g>
<!-- Node2 -->
<g id="node2" class="node"><title>Node2</title>
<g id="a_node2"><a xlink:href="starpu_2dense_2dqp3_8c.html" target="_top" xlink:title="src/backends/starpu\l/dense/dqp3.c">
<polygon fill="white" stroke="black" points="0,-6 0,-36 105,-36 105,-6 0,-6"/>
<text text-anchor="start" x="8" y="-24" font-family="Helvetica,sans-Serif" font-size="10.00">src/backends/starpu</text>
<text text-anchor="middle" x="52.5" y="-13" font-family="Helvetica,sans-Serif" font-size="10.00">/dense/dqp3.c</text>
</a>
</g>
</g>
<!-- Node1&#45;&gt;Node2 -->
<g id="edge1" class="edge"><title>Node1&#45;&gt;Node2</title>
<path fill="none" stroke="midnightblue" d="M599.185,-134.304C493.781,-120.047 285.666,-88.5547 113.5,-42 106.937,-40.2254 100.039,-38.161 93.3368,-36.0455"/>
<polygon fill="midnightblue" stroke="midnightblue" points="598.991,-137.809 609.368,-135.671 599.923,-130.871 598.991,-137.809"/>
</g>
<!-- Node3 -->
<g id="node3" class="node"><title>Node3</title>
<g id="a_node3"><a xlink:href="starpu_2dense_2drsdd_8c.html" target="_top" xlink:title="src/backends/starpu\l/dense/drsdd.c">
<polygon fill="white" stroke="black" points="123,-6 123,-36 228,-36 228,-6 123,-6"/>
<text text-anchor="start" x="131" y="-24" font-family="Helvetica,sans-Serif" font-size="10.00">src/backends/starpu</text>
<text text-anchor="middle" x="175.5" y="-13" font-family="Helvetica,sans-Serif" font-size="10.00">/dense/drsdd.c</text>
</a>
</g>
</g>
<!-- Node1&#45;&gt;Node3 -->
<g id="edge2" class="edge"><title>Node1&#45;&gt;Node3</title>
<path fill="none" stroke="midnightblue" d="M615.252,-132.402C533.767,-115.505 371.732,-80.4239 236.5,-42 230.068,-40.1724 223.3,-38.1028 216.707,-36.0051"/>
<polygon fill="midnightblue" stroke="midnightblue" points="614.755,-135.873 625.257,-134.469 616.172,-129.018 614.755,-135.873"/>
</g>
<!-- Node4 -->
<g id="node4" class="node"><title>Node4</title>
<g id="a_node4"><a xlink:href="starpu_2dense_2dsdd_8c.html" target="_top" xlink:title="src/backends/starpu\l/dense/dsdd.c">
<polygon fill="white" stroke="black" points="246,-6 246,-36 351,-36 351,-6 246,-6"/>
<text text-anchor="start" x="254" y="-24" font-family="Helvetica,sans-Serif" font-size="10.00">src/backends/starpu</text>
<text text-anchor="middle" x="298.5" y="-13" font-family="Helvetica,sans-Serif" font-size="10.00">/dense/dsdd.c</text>
</a>
</g>
</g>
<!-- Node1&#45;&gt;Node4 -->
<g id="edge3" class="edge"><title>Node1&#45;&gt;Node4</title>
<path fill="none" stroke="midnightblue" d="M631.683,-131.255C563.334,-108.842 414.581,-60.0645 341.194,-36.0001"/>
<polygon fill="midnightblue" stroke="midnightblue" points="630.96,-134.701 641.553,-134.492 633.141,-128.05 630.96,-134.701"/>
</g>
<!-- Node5 -->
<g id="node5" class="node"><title>Node5</title>
<g id="a_node5"><a xlink:href="dense_2kernel_8c.html" target="_top" xlink:title="src/backends/starpu\l/dense/kernel.c">
<polygon fill="white" stroke="black" points="369,-6 369,-36 474,-36 474,-6 369,-6"/>
<text text-anchor="start" x="377" y="-24" font-family="Helvetica,sans-Serif" font-size="10.00">src/backends/starpu</text>
<text text-anchor="middle" x="421.5" y="-13" font-family="Helvetica,sans-Serif" font-size="10.00">/dense/kernel.c</text>
</a>
</g>
</g>
<!-- Node1&#45;&gt;Node5 -->
<g id="edge4" class="edge"><title>Node1&#45;&gt;Node5</title>
<path fill="none" stroke="midnightblue" d="M641.055,-129.992C594.491,-107.089 498.258,-59.7548 450.165,-36.0994"/>
<polygon fill="midnightblue" stroke="midnightblue" points="639.684,-133.218 650.202,-134.492 642.773,-126.937 639.684,-133.218"/>
</g>
<!-- Node6 -->
<g id="node6" class="node"><title>Node6</title>
<g id="a_node6"><a xlink:href="dgemm_8c.html" target="_top" xlink:title="src/backends/starpu\l/dense/dgemm.c">
<polygon fill="white" stroke="black" points="492,-6 492,-36 597,-36 597,-6 492,-6"/>
<text text-anchor="start" x="500" y="-24" font-family="Helvetica,sans-Serif" font-size="10.00">src/backends/starpu</text>
<text text-anchor="middle" x="544.5" y="-13" font-family="Helvetica,sans-Serif" font-size="10.00">/dense/dgemm.c</text>
</a>
</g>
</g>
<!-- Node1&#45;&gt;Node6 -->
<g id="edge5" class="edge"><title>Node1&#45;&gt;Node6</title>
<path fill="none" stroke="midnightblue" d="M651.311,-127.074C627.092,-103.249 581.819,-58.712 558.771,-36.0392"/>
<polygon fill="midnightblue" stroke="midnightblue" points="649.071,-129.78 658.654,-134.298 653.98,-124.79 649.071,-129.78"/>
</g>
<!-- Node7 -->
<g id="node7" class="node"><title>Node7</title>
<g id="a_node7"><a xlink:href="fake__init_8c.html" target="_top" xlink:title="src/backends/starpu\l/dense/fake_init.c">
<polygon fill="white" stroke="black" points="615,-6 615,-36 720,-36 720,-6 615,-6"/>
<text text-anchor="start" x="623" y="-24" font-family="Helvetica,sans-Serif" font-size="10.00">src/backends/starpu</text>
<text text-anchor="middle" x="667.5" y="-13" font-family="Helvetica,sans-Serif" font-size="10.00">/dense/fake_init.c</text>
</a>
</g>
</g>
<!-- Node1&#45;&gt;Node7 -->
<g id="edge6" class="edge"><title>Node1&#45;&gt;Node7</title>
<path fill="none" stroke="midnightblue" d="M667.5,-124.185C667.5,-99.7974 667.5,-57.8248 667.5,-36.0392"/>
<polygon fill="midnightblue" stroke="midnightblue" points="664,-124.298 667.5,-134.298 671,-124.298 664,-124.298"/>
</g>
<!-- Node8 -->
<g id="node8" class="node"><title>Node8</title>
<g id="a_node8"><a xlink:href="starpu_2blrm_2dqp3_8c.html" target="_top" xlink:title="src/backends/starpu\l/blrm/dqp3.c">
<polygon fill="white" stroke="black" points="738,-6 738,-36 843,-36 843,-6 738,-6"/>
<text text-anchor="start" x="746" y="-24" font-family="Helvetica,sans-Serif" font-size="10.00">src/backends/starpu</text>
<text text-anchor="middle" x="790.5" y="-13" font-family="Helvetica,sans-Serif" font-size="10.00">/blrm/dqp3.c</text>
</a>
</g>
</g>
<!-- Node1&#45;&gt;Node8 -->
<g id="edge7" class="edge"><title>Node1&#45;&gt;Node8</title>
<path fill="none" stroke="midnightblue" d="M683.689,-127.074C707.908,-103.249 753.181,-58.712 776.229,-36.0392"/>
<polygon fill="midnightblue" stroke="midnightblue" points="681.02,-124.79 676.346,-134.298 685.929,-129.78 681.02,-124.79"/>
</g>
<!-- Node9 -->
<g id="node9" class="node"><title>Node9</title>
<g id="a_node9"><a xlink:href="starpu_2blrm_2drsdd_8c.html" target="_top" xlink:title="src/backends/starpu\l/blrm/drsdd.c">
<polygon fill="white" stroke="black" points="861,-6 861,-36 966,-36 966,-6 861,-6"/>
<text text-anchor="start" x="869" y="-24" font-family="Helvetica,sans-Serif" font-size="10.00">src/backends/starpu</text>
<text text-anchor="middle" x="913.5" y="-13" font-family="Helvetica,sans-Serif" font-size="10.00">/blrm/drsdd.c</text>
</a>
</g>
</g>
<!-- Node1&#45;&gt;Node9 -->
<g id="edge8" class="edge"><title>Node1&#45;&gt;Node9</title>
<path fill="none" stroke="midnightblue" d="M693.945,-129.992C740.509,-107.089 836.742,-59.7548 884.835,-36.0994"/>
<polygon fill="midnightblue" stroke="midnightblue" points="692.227,-126.937 684.798,-134.492 695.316,-133.218 692.227,-126.937"/>
</g>
<!-- Node10 -->
<g id="node10" class="node"><title>Node10</title>
<g id="a_node10"><a xlink:href="starpu_2blrm_2dsdd_8c.html" target="_top" xlink:title="src/backends/starpu\l/blrm/dsdd.c">
<polygon fill="white" stroke="black" points="984,-6 984,-36 1089,-36 1089,-6 984,-6"/>
<text text-anchor="start" x="992" y="-24" font-family="Helvetica,sans-Serif" font-size="10.00">src/backends/starpu</text>
<text text-anchor="middle" x="1036.5" y="-13" font-family="Helvetica,sans-Serif" font-size="10.00">/blrm/dsdd.c</text>
</a>
</g>
</g>
<!-- Node1&#45;&gt;Node10 -->
<g id="edge9" class="edge"><title>Node1&#45;&gt;Node10</title>
<path fill="none" stroke="midnightblue" d="M703.317,-131.255C771.666,-108.842 920.419,-60.0645 993.806,-36.0001"/>
<polygon fill="midnightblue" stroke="midnightblue" points="701.859,-128.05 693.447,-134.492 704.04,-134.701 701.859,-128.05"/>
</g>
<!-- Node11 -->
<g id="node11" class="node"><title>Node11</title>
<g id="a_node11"><a xlink:href="init_8c.html" target="_top" xlink:title="src/control/init.c">
<polygon fill="white" stroke="black" points="1107.5,-11.5 1107.5,-30.5 1193.5,-30.5 1193.5,-11.5 1107.5,-11.5"/>
<text text-anchor="middle" x="1150.5" y="-18.5" font-family="Helvetica,sans-Serif" font-size="10.00">src/control/init.c</text>
</a>
</g>
</g>
<!-- Node1&#45;&gt;Node11 -->
<g id="edge10" class="edge"><title>Node1&#45;&gt;Node11</title>
<path fill="none" stroke="midnightblue" d="M722.146,-132.542C804.409,-116.266 964.587,-82.4996 1097.5,-42 1108.32,-38.7034 1120.11,-34.3327 1129.82,-30.5181"/>
<polygon fill="midnightblue" stroke="midnightblue" points="721.403,-129.121 712.267,-134.486 722.755,-135.989 721.403,-129.121"/>
</g>
<!-- Node12 -->
<g id="node12" class="node"><title>Node12</title>
<g id="a_node12"><a xlink:href="starsh_8h.html" target="_top" xlink:title="include/starsh.h">
<polygon fill="white" stroke="red" points="3148.5,-78.5 3148.5,-97.5 3234.5,-97.5 3234.5,-78.5 3148.5,-78.5"/>
<text text-anchor="middle" x="3191.5" y="-85.5" font-family="Helvetica,sans-Serif" font-size="10.00">include/starsh.h</text>
</a>
</g>
</g>
<!-- Node1&#45;&gt;Node12 -->
<g id="edge11" class="edge"><title>Node1&#45;&gt;Node12</title>
<path fill="none" stroke="midnightblue" d="M735.81,-141.539C1104.35,-133.654 2849.92,-96.3079 3148.12,-89.9281"/>
<polygon fill="midnightblue" stroke="midnightblue" points="735.489,-138.045 725.566,-141.758 735.638,-145.043 735.489,-138.045"/>
</g>
<!-- Node12&#45;&gt;Node2 -->
<g id="edge24" class="edge"><title>Node12&#45;&gt;Node2</title>
<path fill="none" stroke="midnightblue" d="M3138.04,-87.19C2754.09,-88.4267 422.915,-93.7515 113.5,-42 105.586,-40.6763 97.2978,-38.5151 89.4728,-36.0923"/>
<polygon fill="midnightblue" stroke="midnightblue" points="3138.32,-90.6892 3148.31,-87.1564 3138.3,-83.6892 3138.32,-90.6892"/>
</g>
<!-- Node12&#45;&gt;Node3 -->
<g id="edge25" class="edge"><title>Node12&#45;&gt;Node3</title>
<path fill="none" stroke="midnightblue" d="M3138.41,-87.1538C2764.49,-88.1107 533.068,-91.6955 236.5,-42 228.586,-40.6739 220.298,-38.5116 212.473,-36.0885"/>
<polygon fill="midnightblue" stroke="midnightblue" points="3138.44,-90.6539 3148.43,-87.1277 3138.42,-83.6539 3138.44,-90.6539"/>
</g>
<!-- Node12&#45;&gt;Node4 -->
<g id="edge26" class="edge"><title>Node12&#45;&gt;Node4</title>
<path fill="none" stroke="midnightblue" d="M3138.35,-87.116C2773.31,-87.786 643.116,-89.6214 359.5,-42 351.586,-40.6712 343.299,-38.5079 335.474,-36.0845"/>
<polygon fill="midnightblue" stroke="midnightblue" points="3138.39,-90.616 3148.38,-87.097 3138.38,-83.616 3138.39,-90.616"/>
</g>
<!-- Node12&#45;&gt;Node5 -->
<g id="edge27" class="edge"><title>Node12&#45;&gt;Node5</title>
<path fill="none" stroke="midnightblue" d="M3138.44,-87.0745C2782.92,-87.4471 753.215,-87.5557 482.5,-42 474.587,-40.6684 466.3,-38.5038 458.475,-36.0801"/>
<polygon fill="midnightblue" stroke="midnightblue" points="3138.47,-90.5745 3148.46,-87.0634 3138.46,-83.5745 3138.47,-90.5745"/>
</g>
<!-- Node12&#45;&gt;Node6 -->
<g id="edge28" class="edge"><title>Node12&#45;&gt;Node6</title>
<path fill="none" stroke="midnightblue" d="M3138.41,-87.0292C2792.31,-87.0934 863.298,-85.4867 605.5,-42 597.587,-40.6653 589.3,-38.4993 581.476,-36.0752"/>
<polygon fill="midnightblue" stroke="midnightblue" points="3138.42,-90.5293 3148.42,-87.0268 3138.42,-83.5293 3138.42,-90.5293"/>
</g>
<!-- Node12&#45;&gt;Node7 -->
<g id="edge29" class="edge"><title>Node12&#45;&gt;Node7</title>
<path fill="none" stroke="midnightblue" d="M3138.02,-86.9791C2800.64,-86.7204 973.309,-83.4051 728.5,-42 720.588,-40.6618 712.301,-38.4943 704.477,-36.0699"/>
<polygon fill="midnightblue" stroke="midnightblue" points="3138.02,-90.479 3148.03,-86.9862 3138.03,-83.479 3138.02,-90.479"/>
</g>
<!-- Node12&#45;&gt;Node8 -->
<g id="edge30" class="edge"><title>Node12&#45;&gt;Node8</title>
<path fill="none" stroke="midnightblue" d="M3138.14,-86.9239C2811.06,-86.3312 1083.46,-81.3462 851.5,-42 843.589,-40.658 835.302,-38.4889 827.478,-36.064"/>
<polygon fill="midnightblue" stroke="midnightblue" points="3138.29,-90.424 3148.3,-86.9417 3138.31,-83.4241 3138.29,-90.424"/>
</g>
<!-- Node12&#45;&gt;Node9 -->
<g id="edge31" class="edge"><title>Node12&#45;&gt;Node9</title>
<path fill="none" stroke="midnightblue" d="M3137.97,-86.862C2820.72,-85.9177 1193.56,-79.2778 974.5,-42 966.589,-40.6538 958.303,-38.4828 950.479,-36.0575"/>
<polygon fill="midnightblue" stroke="midnightblue" points="3138.26,-90.3627 3148.27,-86.892 3138.28,-83.3627 3138.26,-90.3627"/>
</g>
<!-- Node12&#45;&gt;Node10 -->
<g id="edge32" class="edge"><title>Node12&#45;&gt;Node10</title>
<path fill="none" stroke="midnightblue" d="M3138.08,-86.7779C2831.75,-85.3812 1304.72,-76.713 1098.5,-42 1090.47,-40.6482 1082.05,-38.4748 1074.1,-36.0488"/>
<polygon fill="midnightblue" stroke="midnightblue" points="3138.44,-90.2795 3148.46,-86.8246 3138.47,-83.2796 3138.44,-90.2795"/>
</g>
<!-- Node12&#45;&gt;Node11 -->
<g id="edge59" class="edge"><title>Node12&#45;&gt;Node11</title>
<path fill="none" stroke="midnightblue" d="M3138.36,-86.8669C2841.84,-85.9818 1397.97,-79.75 1203.5,-42 1191.53,-39.6761 1178.72,-34.9111 1168.69,-30.615"/>
<polygon fill="midnightblue" stroke="midnightblue" points="3138.41,-90.367 3148.42,-86.8962 3138.43,-83.367 3138.41,-90.367"/>
</g>
<!-- Node13 -->
<g id="node13" class="node"><title>Node13</title>
<g id="a_node13"><a xlink:href="sequential_2dense_2dqp3_8c.html" target="_top" xlink:title="src/backends/sequential\l/dense/dqp3.c">
<polygon fill="white" stroke="black" points="2430.5,-6 2430.5,-36 2552.5,-36 2552.5,-6 2430.5,-6"/>
<text text-anchor="start" x="2438.5" y="-24" font-family="Helvetica,sans-Serif" font-size="10.00">src/backends/sequential</text>
<text text-anchor="middle" x="2491.5" y="-13" font-family="Helvetica,sans-Serif" font-size="10.00">/dense/dqp3.c</text>
</a>
</g>
</g>
<!-- Node12&#45;&gt;Node13 -->
<g id="edge12" class="edge"><title>Node12&#45;&gt;Node13</title>
<path fill="none" stroke="midnightblue" d="M3138.26,-86.8978C3029.18,-85.8782 2772.81,-79.3184 2561.5,-42 2553.04,-40.5053 2544.13,-38.3935 2535.61,-36.0979"/>
<polygon fill="midnightblue" stroke="midnightblue" points="3138.32,-90.3983 3148.35,-86.98 3138.38,-83.3985 3138.32,-90.3983"/>
</g>
<!-- Node14 -->
<g id="node14" class="node"><title>Node14</title>
<g id="a_node14"><a xlink:href="sequential_2dense_2drsdd_8c.html" target="_top" xlink:title="src/backends/sequential\l/dense/drsdd.c">
<polygon fill="white" stroke="black" points="2570.5,-6 2570.5,-36 2692.5,-36 2692.5,-6 2570.5,-6"/>
<text text-anchor="start" x="2578.5" y="-24" font-family="Helvetica,sans-Serif" font-size="10.00">src/backends/sequential</text>
<text text-anchor="middle" x="2631.5" y="-13" font-family="Helvetica,sans-Serif" font-size="10.00">/dense/drsdd.c</text>
</a>
</g>
</g>
<!-- Node12&#45;&gt;Node14 -->
<g id="edge13" class="edge"><title>Node12&#45;&gt;Node14</title>
<path fill="none" stroke="midnightblue" d="M3138.18,-85.3595C3047.69,-81.8514 2858.56,-71.3824 2701.5,-42 2693.18,-40.4428 2684.41,-38.3308 2676.01,-36.061"/>
<polygon fill="midnightblue" stroke="midnightblue" points="3138.07,-88.8578 3148.2,-85.7347 3138.33,-81.8627 3138.07,-88.8578"/>
</g>
<!-- Node15 -->
<g id="node15" class="node"><title>Node15</title>
<g id="a_node15"><a xlink:href="sequential_2dense_2dsdd_8c.html" target="_top" xlink:title="src/backends/sequential\l/dense/dsdd.c">
<polygon fill="white" stroke="black" points="2710.5,-6 2710.5,-36 2832.5,-36 2832.5,-6 2710.5,-6"/>
<text text-anchor="start" x="2718.5" y="-24" font-family="Helvetica,sans-Serif" font-size="10.00">src/backends/sequential</text>
<text text-anchor="middle" x="2771.5" y="-13" font-family="Helvetica,sans-Serif" font-size="10.00">/dense/dsdd.c</text>
</a>
</g>
</g>
<!-- Node12&#45;&gt;Node15 -->
<g id="edge14" class="edge"><title>Node12&#45;&gt;Node15</title>
<path fill="none" stroke="midnightblue" d="M3138.14,-82.6553C3069.15,-76.4649 2945.52,-63.42 2841.5,-42 2833.45,-40.343 2824.98,-38.2381 2816.82,-36.0196"/>
<polygon fill="midnightblue" stroke="midnightblue" points="3138.05,-86.1612 3148.32,-83.5547 3138.67,-79.1883 3138.05,-86.1612"/>
</g>
<!-- Node16 -->
<g id="node16" class="node"><title>Node16</title>
<g id="a_node16"><a xlink:href="dsvfr_8c.html" target="_top" xlink:title="src/backends/sequential\l/dense/dsvfr.c">
<polygon fill="white" stroke="black" points="2850.5,-6 2850.5,-36 2972.5,-36 2972.5,-6 2850.5,-6"/>
<text text-anchor="start" x="2858.5" y="-24" font-family="Helvetica,sans-Serif" font-size="10.00">src/backends/sequential</text>
<text text-anchor="middle" x="2911.5" y="-13" font-family="Helvetica,sans-Serif" font-size="10.00">/dense/dsvfr.c</text>
</a>
</g>
</g>
<!-- Node12&#45;&gt;Node16 -->
<g id="edge15" class="edge"><title>Node12&#45;&gt;Node16</title>
<path fill="none" stroke="midnightblue" d="M3138.4,-76.6487C3095.81,-68.099 3034.58,-55.2547 2981.5,-42 2974.27,-40.1934 2966.65,-38.1573 2959.21,-36.0933"/>
<polygon fill="midnightblue" stroke="midnightblue" points="3137.78,-80.0937 3148.27,-78.6201 3139.15,-73.2293 3137.78,-80.0937"/>
</g>
<!-- Node17 -->
<g id="node17" class="node"><title>Node17</title>
<g id="a_node17"><a xlink:href="sequential_2dense_2dna_8c.html" target="_top" xlink:title="src/backends/sequential\l/dense/dna.c">
<polygon fill="white" stroke="black" points="2990.5,-6 2990.5,-36 3112.5,-36 3112.5,-6 2990.5,-6"/>
<text text-anchor="start" x="2998.5" y="-24" font-family="Helvetica,sans-Serif" font-size="10.00">src/backends/sequential</text>
<text text-anchor="middle" x="3051.5" y="-13" font-family="Helvetica,sans-Serif" font-size="10.00">/dense/dna.c</text>
</a>
</g>
</g>
<!-- Node12&#45;&gt;Node17 -->
<g id="edge16" class="edge"><title>Node12&#45;&gt;Node17</title>
<path fill="none" stroke="midnightblue" d="M3163.76,-74.1206C3140.08,-63.1252 3106.08,-47.3413 3081.71,-36.0281"/>
<polygon fill="midnightblue" stroke="midnightblue" points="3162.37,-77.3319 3172.91,-78.3685 3165.31,-70.9828 3162.37,-77.3319"/>
</g>
<!-- Node18 -->
<g id="node18" class="node"><title>Node18</title>
<g id="a_node18"><a xlink:href="zrsdd_8c.html" target="_top" xlink:title="src/backends/sequential\l/dense/zrsdd.c">
<polygon fill="white" stroke="black" points="3130.5,-6 3130.5,-36 3252.5,-36 3252.5,-6 3130.5,-6"/>
<text text-anchor="start" x="3138.5" y="-24" font-family="Helvetica,sans-Serif" font-size="10.00">src/backends/sequential</text>
<text text-anchor="middle" x="3191.5" y="-13" font-family="Helvetica,sans-Serif" font-size="10.00">/dense/zrsdd.c</text>
</a>
</g>
</g>
<!-- Node12&#45;&gt;Node18 -->
<g id="edge17" class="edge"><title>Node12&#45;&gt;Node18</title>
<path fill="none" stroke="midnightblue" d="M3191.5,-67.9107C3191.5,-57.722 3191.5,-45.401 3191.5,-36.089"/>
<polygon fill="midnightblue" stroke="midnightblue" points="3188,-68.2338 3191.5,-78.2338 3195,-68.2338 3188,-68.2338"/>
</g>
<!-- Node19 -->
<g id="node19" class="node"><title>Node19</title>
<g id="a_node19"><a xlink:href="dca_8c.html" target="_top" xlink:title="src/backends/sequential\l/blrm/dca.c">
<polygon fill="white" stroke="black" points="3270.5,-6 3270.5,-36 3392.5,-36 3392.5,-6 3270.5,-6"/>
<text text-anchor="start" x="3278.5" y="-24" font-family="Helvetica,sans-Serif" font-size="10.00">src/backends/sequential</text>
<text text-anchor="middle" x="3331.5" y="-13" font-family="Helvetica,sans-Serif" font-size="10.00">/blrm/dca.c</text>
</a>
</g>
</g>
<!-- Node12&#45;&gt;Node19 -->
<g id="edge18" class="edge"><title>Node12&#45;&gt;Node19</title>
<path fill="none" stroke="midnightblue" d="M3219.24,-74.1206C3242.92,-63.1252 3276.92,-47.3413 3301.29,-36.0281"/>
<polygon fill="midnightblue" stroke="midnightblue" points="3217.69,-70.9828 3210.09,-78.3685 3220.63,-77.3319 3217.69,-70.9828"/>
</g>
<!-- Node20 -->
<g id="node20" class="node"><title>Node20</title>
<g id="a_node20"><a xlink:href="sequential_2blrm_2dfe_8c.html" target="_top" xlink:title="src/backends/sequential\l/blrm/dfe.c">
<polygon fill="white" stroke="black" points="3410.5,-6 3410.5,-36 3532.5,-36 3532.5,-6 3410.5,-6"/>
<text text-anchor="start" x="3418.5" y="-24" font-family="Helvetica,sans-Serif" font-size="10.00">src/backends/sequential</text>
<text text-anchor="middle" x="3471.5" y="-13" font-family="Helvetica,sans-Serif" font-size="10.00">/blrm/dfe.c</text>
</a>
</g>
</g>
<!-- Node12&#45;&gt;Node20 -->
<g id="edge19" class="edge"><title>Node12&#45;&gt;Node20</title>
<path fill="none" stroke="midnightblue" d="M3244.6,-76.6487C3287.19,-68.099 3348.42,-55.2547 3401.5,-42 3408.73,-40.1934 3416.35,-38.1573 3423.79,-36.0933"/>
<polygon fill="midnightblue" stroke="midnightblue" points="3243.85,-73.2293 3234.73,-78.6201 3245.22,-80.0937 3243.85,-73.2293"/>
</g>
<!-- Node21 -->
<g id="node21" class="node"><title>Node21</title>
<g id="a_node21"><a xlink:href="sequential_2blrm_2dmml_8c.html" target="_top" xlink:title="src/backends/sequential\l/blrm/dmml.c">
<polygon fill="white" stroke="black" points="3550.5,-6 3550.5,-36 3672.5,-36 3672.5,-6 3550.5,-6"/>
<text text-anchor="start" x="3558.5" y="-24" font-family="Helvetica,sans-Serif" font-size="10.00">src/backends/sequential</text>
<text text-anchor="middle" x="3611.5" y="-13" font-family="Helvetica,sans-Serif" font-size="10.00">/blrm/dmml.c</text>
</a>
</g>
</g>
<!-- Node12&#45;&gt;Node21 -->
<g id="edge20" class="edge"><title>Node12&#45;&gt;Node21</title>
<path fill="none" stroke="midnightblue" d="M3244.86,-82.6553C3313.85,-76.4649 3437.48,-63.42 3541.5,-42 3549.55,-40.343 3558.02,-38.2381 3566.18,-36.0196"/>
<polygon fill="midnightblue" stroke="midnightblue" points="3244.33,-79.1883 3234.68,-83.5547 3244.95,-86.1612 3244.33,-79.1883"/>
</g>
<!-- Node22 -->
<g id="node22" class="node"><title>Node22</title>
<g id="a_node22"><a xlink:href="sequential_2blrm_2dqp3_8c.html" target="_top" xlink:title="src/backends/sequential\l/blrm/dqp3.c">
<polygon fill="white" stroke="black" points="3690.5,-6 3690.5,-36 3812.5,-36 3812.5,-6 3690.5,-6"/>
<text text-anchor="start" x="3698.5" y="-24" font-family="Helvetica,sans-Serif" font-size="10.00">src/backends/sequential</text>
<text text-anchor="middle" x="3751.5" y="-13" font-family="Helvetica,sans-Serif" font-size="10.00">/blrm/dqp3.c</text>
</a>
</g>
</g>
<!-- Node12&#45;&gt;Node22 -->
<g id="edge21" class="edge"><title>Node12&#45;&gt;Node22</title>
<path fill="none" stroke="midnightblue" d="M3244.82,-85.3595C3335.31,-81.8514 3524.44,-71.3824 3681.5,-42 3689.82,-40.4428 3698.59,-38.3308 3706.99,-36.061"/>
<polygon fill="midnightblue" stroke="midnightblue" points="3244.67,-81.8627 3234.8,-85.7347 3244.93,-88.8578 3244.67,-81.8627"/>
</g>
<!-- Node23 -->
<g id="node23" class="node"><title>Node23</title>
<g id="a_node23"><a xlink:href="sequential_2blrm_2drsdd_8c.html" target="_top" xlink:title="src/backends/sequential\l/blrm/drsdd.c">
<polygon fill="white" stroke="black" points="3830.5,-6 3830.5,-36 3952.5,-36 3952.5,-6 3830.5,-6"/>
<text text-anchor="start" x="3838.5" y="-24" font-family="Helvetica,sans-Serif" font-size="10.00">src/backends/sequential</text>
<text text-anchor="middle" x="3891.5" y="-13" font-family="Helvetica,sans-Serif" font-size="10.00">/blrm/drsdd.c</text>
</a>
</g>
</g>
<!-- Node12&#45;&gt;Node23 -->
<g id="edge22" class="edge"><title>Node12&#45;&gt;Node23</title>
<path fill="none" stroke="midnightblue" d="M3244.74,-86.8978C3353.82,-85.8782 3610.19,-79.3184 3821.5,-42 3829.96,-40.5053 3838.87,-38.3935 3847.39,-36.0979"/>
<polygon fill="midnightblue" stroke="midnightblue" points="3244.62,-83.3985 3234.65,-86.98 3244.68,-90.3983 3244.62,-83.3985"/>
</g>
<!-- Node24 -->
<g id="node24" class="node"><title>Node24</title>
<g id="a_node24"><a xlink:href="sequential_2blrm_2dsdd_8c.html" target="_top" xlink:title="src/backends/sequential\l/blrm/dsdd.c">
<polygon fill="white" stroke="black" points="3970.5,-6 3970.5,-36 4092.5,-36 4092.5,-6 3970.5,-6"/>
<text text-anchor="start" x="3978.5" y="-24" font-family="Helvetica,sans-Serif" font-size="10.00">src/backends/sequential</text>
<text text-anchor="middle" x="4031.5" y="-13" font-family="Helvetica,sans-Serif" font-size="10.00">/blrm/dsdd.c</text>
</a>
</g>
</g>
<!-- Node12&#45;&gt;Node24 -->
<g id="edge23" class="edge"><title>Node12&#45;&gt;Node24</title>
<path fill="none" stroke="midnightblue" d="M3245.39,-85.3929C3396.69,-80.6353 3823.39,-65.4708 3961.5,-42 3970.1,-40.5389 3979.15,-38.4124 3987.78,-36.0855"/>
<polygon fill="midnightblue" stroke="midnightblue" points="3244.86,-81.9075 3234.98,-85.7175 3245.08,-88.9041 3244.86,-81.9075"/>
</g>
<!-- Node25 -->
<g id="node25" class="node"><title>Node25</title>
<g id="a_node25"><a xlink:href="starpu__kblas3__spatial_2blrm_2drsdd_8c.html" target="_top" xlink:title="src/backends/starpu\l_kblas3_spatial/blrm\l/drsdd.c">
<polygon fill="white" stroke="black" points="4110.5,-0.5 4110.5,-41.5 4216.5,-41.5 4216.5,-0.5 4110.5,-0.5"/>
<text text-anchor="start" x="4118.5" y="-29.5" font-family="Helvetica,sans-Serif" font-size="10.00">src/backends/starpu</text>
<text text-anchor="start" x="4118.5" y="-18.5" font-family="Helvetica,sans-Serif" font-size="10.00">_kblas3_spatial/blrm</text>
<text text-anchor="middle" x="4163.5" y="-7.5" font-family="Helvetica,sans-Serif" font-size="10.00">/drsdd.c</text>
</a>
</g>
</g>
<!-- Node12&#45;&gt;Node25 -->
<g id="edge33" class="edge"><title>Node12&#45;&gt;Node25</title>
<path fill="none" stroke="midnightblue" d="M3244.9,-86.1969C3413.87,-83.3667 3935.47,-72.3377 4101.5,-42 4104.39,-41.4714 4107.34,-40.8439 4110.29,-40.1431"/>
<polygon fill="midnightblue" stroke="midnightblue" points="3244.7,-82.6996 3234.76,-86.364 3244.81,-89.6987 3244.7,-82.6996"/>
</g>
<!-- Node26 -->
<g id="node26" class="node"><title>Node26</title>
<g id="a_node26"><a xlink:href="openmp_2blrm_2dqp3_8c.html" target="_top" xlink:title="src/backends/openmp\l/blrm/dqp3.c">
<polygon fill="white" stroke="black" points="4235,-6 4235,-36 4348,-36 4348,-6 4235,-6"/>
<text text-anchor="start" x="4243" y="-24" font-family="Helvetica,sans-Serif" font-size="10.00">src/backends/openmp</text>
<text text-anchor="middle" x="4291.5" y="-13" font-family="Helvetica,sans-Serif" font-size="10.00">/blrm/dqp3.c</text>
</a>
</g>
</g>
<!-- Node12&#45;&gt;Node26 -->
<g id="edge34" class="edge"><title>Node12&#45;&gt;Node26</title>
<path fill="none" stroke="midnightblue" d="M3244.88,-86.4416C3428.6,-84.2439 4034.04,-74.6409 4225.5,-42 4233.76,-40.5915 4242.44,-38.4579 4250.69,-36.101"/>
<polygon fill="midnightblue" stroke="midnightblue" points="3244.62,-82.9443 3234.66,-86.5613 3244.7,-89.9438 3244.62,-82.9443"/>
</g>
<!-- Node27 -->
<g id="node27" class="node"><title>Node27</title>
<g id="a_node27"><a xlink:href="openmp_2blrm_2drsdd_8c.html" target="_top" xlink:title="src/backends/openmp\l/blrm/drsdd.c">
<polygon fill="white" stroke="black" points="4366,-6 4366,-36 4479,-36 4479,-6 4366,-6"/>
<text text-anchor="start" x="4374" y="-24" font-family="Helvetica,sans-Serif" font-size="10.00">src/backends/openmp</text>
<text text-anchor="middle" x="4422.5" y="-13" font-family="Helvetica,sans-Serif" font-size="10.00">/blrm/drsdd.c</text>
</a>
</g>
</g>
<!-- Node12&#45;&gt;Node27 -->
<g id="edge35" class="edge"><title>Node12&#45;&gt;Node27</title>
<path fill="none" stroke="midnightblue" d="M3244.94,-86.7773C3443.6,-85.6635 4139.23,-79.1393 4357.5,-42 4365.76,-40.5939 4374.44,-38.4293 4382.67,-36.0352"/>
<polygon fill="midnightblue" stroke="midnightblue" points="3244.74,-83.2782 3234.76,-86.832 3244.78,-90.2781 3244.74,-83.2782"/>
</g>
<!-- Node28 -->
<g id="node28" class="node"><title>Node28</title>
<g id="a_node28"><a xlink:href="openmp_2blrm_2dsdd_8c.html" target="_top" xlink:title="src/backends/openmp\l/blrm/dsdd.c">
<polygon fill="white" stroke="black" points="4497,-6 4497,-36 4610,-36 4610,-6 4497,-6"/>
<text text-anchor="start" x="4505" y="-24" font-family="Helvetica,sans-Serif" font-size="10.00">src/backends/openmp</text>
<text text-anchor="middle" x="4553.5" y="-13" font-family="Helvetica,sans-Serif" font-size="10.00">/blrm/dsdd.c</text>
</a>
</g>
</g>
<!-- Node12&#45;&gt;Node28 -->
<g id="edge36" class="edge"><title>Node12&#45;&gt;Node28</title>
<path fill="none" stroke="midnightblue" d="M3244.84,-87.0207C3457.27,-86.8137 4243.37,-83.2184 4488.5,-42 4496.77,-40.6099 4505.45,-38.4526 4513.68,-36.0604"/>
<polygon fill="midnightblue" stroke="midnightblue" points="3244.58,-83.5208 3234.58,-87.0284 3244.58,-90.5208 3244.58,-83.5208"/>
</g>
<!-- Node29 -->
<g id="node29" class="node"><title>Node29</title>
<g id="a_node29"><a xlink:href="openmp_2blrm_2dmml_8c.html" target="_top" xlink:title="src/backends/openmp\l/blrm/dmml.c">
<polygon fill="white" stroke="black" points="4628,-6 4628,-36 4741,-36 4741,-6 4628,-6"/>
<text text-anchor="start" x="4636" y="-24" font-family="Helvetica,sans-Serif" font-size="10.00">src/backends/openmp</text>
<text text-anchor="middle" x="4684.5" y="-13" font-family="Helvetica,sans-Serif" font-size="10.00">/blrm/dmml.c</text>
</a>
</g>
</g>
<!-- Node12&#45;&gt;Node29 -->
<g id="edge37" class="edge"><title>Node12&#45;&gt;Node29</title>
<path fill="none" stroke="midnightblue" d="M3244.95,-87.2197C3470.76,-87.8548 4347.49,-87.2932 4619.5,-42 4627.77,-40.6231 4636.45,-38.4715 4644.68,-36.081"/>
<polygon fill="midnightblue" stroke="midnightblue" points="3244.7,-83.719 3234.69,-87.1887 3244.68,-90.719 3244.7,-83.719"/>
</g>
<!-- Node30 -->
<g id="node30" class="node"><title>Node30</title>
<g id="a_node30"><a xlink:href="openmp_2blrm_2dfe_8c.html" target="_top" xlink:title="src/backends/openmp\l/blrm/dfe.c">
<polygon fill="white" stroke="black" points="4759,-6 4759,-36 4872,-36 4872,-6 4759,-6"/>
<text text-anchor="start" x="4767" y="-24" font-family="Helvetica,sans-Serif" font-size="10.00">src/backends/openmp</text>
<text text-anchor="middle" x="4815.5" y="-13" font-family="Helvetica,sans-Serif" font-size="10.00">/blrm/dfe.c</text>
</a>
</g>
</g>
<!-- Node12&#45;&gt;Node30 -->
<g id="edge38" class="edge"><title>Node12&#45;&gt;Node30</title>
<path fill="none" stroke="midnightblue" d="M3244.71,-87.3843C3482.77,-88.8091 4451.39,-91.399 4750.5,-42 4758.77,-40.634 4767.45,-38.4874 4775.68,-36.0981"/>
<polygon fill="midnightblue" stroke="midnightblue" points="3244.61,-83.8837 3234.59,-87.3217 3244.56,-90.8835 3244.61,-83.8837"/>
</g>
<!-- Node31 -->
<g id="node31" class="node"><title>Node31</title>
<g id="a_node31"><a xlink:href="mpi_2blrm_2dqp3_8c.html" target="_top" xlink:title="src/backends/mpi/blrm\l/dqp3.c">
<polygon fill="white" stroke="black" points="4890.5,-6 4890.5,-36 5006.5,-36 5006.5,-6 4890.5,-6"/>
<text text-anchor="start" x="4898.5" y="-24" font-family="Helvetica,sans-Serif" font-size="10.00">src/backends/mpi/blrm</text>
<text text-anchor="middle" x="4948.5" y="-13" font-family="Helvetica,sans-Serif" font-size="10.00">/dqp3.c</text>
</a>
</g>
</g>
<!-- Node12&#45;&gt;Node31 -->
<g id="edge39" class="edge"><title>Node12&#45;&gt;Node31</title>
<path fill="none" stroke="midnightblue" d="M3244.99,-86.4133C3514.47,-83.3452 4716.95,-68.2767 4881.5,-42 4890.13,-40.6217 4899.21,-38.4367 4907.79,-36.0078"/>
<polygon fill="midnightblue" stroke="midnightblue" points="3244.65,-82.9168 3234.69,-86.5299 3244.73,-89.9164 3244.65,-82.9168"/>
</g>
<!-- Node32 -->
<g id="node32" class="node"><title>Node32</title>
<g id="a_node32"><a xlink:href="mpi_2blrm_2drsdd_8c.html" target="_top" xlink:title="src/backends/mpi/blrm\l/drsdd.c">
<polygon fill="white" stroke="black" points="5024.5,-6 5024.5,-36 5140.5,-36 5140.5,-6 5024.5,-6"/>
<text text-anchor="start" x="5032.5" y="-24" font-family="Helvetica,sans-Serif" font-size="10.00">src/backends/mpi/blrm</text>
<text text-anchor="middle" x="5082.5" y="-13" font-family="Helvetica,sans-Serif" font-size="10.00">/drsdd.c</text>
</a>
</g>
</g>
<!-- Node12&#45;&gt;Node32 -->
<g id="edge40" class="edge"><title>Node12&#45;&gt;Node32</title>
<path fill="none" stroke="midnightblue" d="M3245.08,-86.5249C3527.48,-83.9075 4837.03,-70.3216 5015.5,-42 5024.13,-40.6302 5033.21,-38.4488 5041.8,-36.0208"/>
<polygon fill="midnightblue" stroke="midnightblue" points="3244.66,-83.0285 3234.7,-86.6205 3244.73,-90.0282 3244.66,-83.0285"/>
</g>
<!-- Node33 -->
<g id="node33" class="node"><title>Node33</title>
<g id="a_node33"><a xlink:href="mpi_2blrm_2dfe_8c.html" target="_top" xlink:title="src/backends/mpi/blrm\l/dfe.c">
<polygon fill="white" stroke="black" points="5158.5,-6 5158.5,-36 5274.5,-36 5274.5,-6 5158.5,-6"/>
<text text-anchor="start" x="5166.5" y="-24" font-family="Helvetica,sans-Serif" font-size="10.00">src/backends/mpi/blrm</text>
<text text-anchor="middle" x="5216.5" y="-13" font-family="Helvetica,sans-Serif" font-size="10.00">/dfe.c</text>
</a>
</g>
</g>
<!-- Node12&#45;&gt;Node33 -->
<g id="edge41" class="edge"><title>Node12&#45;&gt;Node33</title>
<path fill="none" stroke="midnightblue" d="M3245.18,-86.6214C3540.1,-84.4273 4957.08,-72.3689 5149.5,-42 5158.13,-40.6375 5167.21,-38.4593 5175.8,-36.0321"/>
<polygon fill="midnightblue" stroke="midnightblue" points="3244.74,-83.1245 3234.76,-86.6983 3244.79,-90.1243 3244.74,-83.1245"/>
</g>
<!-- Node34 -->
<g id="node34" class="node"><title>Node34</title>
<g id="a_node34"><a xlink:href="mpi_2blrm_2dsdd_8c.html" target="_top" xlink:title="src/backends/mpi/blrm\l/dsdd.c">
<polygon fill="white" stroke="black" points="5292.5,-6 5292.5,-36 5408.5,-36 5408.5,-6 5292.5,-6"/>
<text text-anchor="start" x="5300.5" y="-24" font-family="Helvetica,sans-Serif" font-size="10.00">src/backends/mpi/blrm</text>
<text text-anchor="middle" x="5350.5" y="-13" font-family="Helvetica,sans-Serif" font-size="10.00">/dsdd.c</text>
</a>
</g>
</g>
<!-- Node12&#45;&gt;Node34 -->
<g id="edge42" class="edge"><title>Node12&#45;&gt;Node34</title>
<path fill="none" stroke="midnightblue" d="M3244.88,-86.7082C3551.01,-84.9206 5077.01,-74.4328 5283.5,-42 5292.13,-40.6438 5301.21,-38.4684 5309.8,-36.042"/>
<polygon fill="midnightblue" stroke="midnightblue" points="3244.49,-83.2103 3234.51,-86.7681 3244.53,-90.2102 3244.49,-83.2103"/>
</g>
<!-- Node35 -->
<g id="node35" class="node"><title>Node35</title>
<g id="a_node35"><a xlink:href="mpi_2blrm_2dmml_8c.html" target="_top" xlink:title="src/backends/mpi/blrm\l/dmml.c">
<polygon fill="white" stroke="black" points="5426.5,-6 5426.5,-36 5542.5,-36 5542.5,-6 5426.5,-6"/>
<text text-anchor="start" x="5434.5" y="-24" font-family="Helvetica,sans-Serif" font-size="10.00">src/backends/mpi/blrm</text>
<text text-anchor="middle" x="5484.5" y="-13" font-family="Helvetica,sans-Serif" font-size="10.00">/dmml.c</text>
</a>
</g>
</g>
<!-- Node12&#45;&gt;Node35 -->
<g id="edge43" class="edge"><title>Node12&#45;&gt;Node35</title>
<path fill="none" stroke="midnightblue" d="M3245.24,-86.781C3563.69,-85.3679 5197.07,-76.4763 5417.5,-42 5426.14,-40.6494 5435.21,-38.4765 5443.8,-36.0506"/>
<polygon fill="midnightblue" stroke="midnightblue" points="3244.88,-83.2824 3234.9,-86.8263 3244.91,-90.2824 3244.88,-83.2824"/>
</g>
<!-- Node36 -->
<g id="node36" class="node"><title>Node36</title>
<g id="a_node36"><a xlink:href="mpi_2blrm_2dna_8c.html" target="_top" xlink:title="src/backends/mpi/blrm\l/dna.c">
<polygon fill="white" stroke="black" points="5560.5,-6 5560.5,-36 5676.5,-36 5676.5,-6 5560.5,-6"/>
<text text-anchor="start" x="5568.5" y="-24" font-family="Helvetica,sans-Serif" font-size="10.00">src/backends/mpi/blrm</text>
<text text-anchor="middle" x="5618.5" y="-13" font-family="Helvetica,sans-Serif" font-size="10.00">/dna.c</text>
</a>
</g>
</g>
<!-- Node12&#45;&gt;Node36 -->
<g id="edge44" class="edge"><title>Node12&#45;&gt;Node36</title>
<path fill="none" stroke="midnightblue" d="M3244.77,-86.8489C3573.23,-85.8027 5316.92,-78.5518 5551.5,-42 5560.14,-40.6544 5569.21,-38.4836 5577.8,-36.0583"/>
<polygon fill="midnightblue" stroke="midnightblue" points="3244.57,-83.3495 3234.58,-86.8808 3244.59,-90.3494 3244.57,-83.3495"/>
</g>
<!-- Node37 -->
<g id="node37" class="node"><title>Node37</title>
<g id="a_node37"><a xlink:href="mpi__starpu_2blrm_2dqp3_8c.html" target="_top" xlink:title="src/backends/mpi_starpu\l/blrm/dqp3.c">
<polygon fill="white" stroke="black" points="5694.5,-6 5694.5,-36 5820.5,-36 5820.5,-6 5694.5,-6"/>
<text text-anchor="start" x="5702.5" y="-24" font-family="Helvetica,sans-Serif" font-size="10.00">src/backends/mpi_starpu</text>
<text text-anchor="middle" x="5757.5" y="-13" font-family="Helvetica,sans-Serif" font-size="10.00">/blrm/dqp3.c</text>
</a>
</g>
</g>
<!-- Node12&#45;&gt;Node37 -->
<g id="edge45" class="edge"><title>Node12&#45;&gt;Node37</title>
<path fill="none" stroke="midnightblue" d="M3244.54,-86.8478C3583.17,-85.7696 5436.44,-78.2396 5685.5,-42 5694.74,-40.655 5704.48,-38.4845 5713.71,-36.0593"/>
<polygon fill="midnightblue" stroke="midnightblue" points="3244.49,-83.3478 3234.51,-86.8793 3244.52,-90.3478 3244.49,-83.3478"/>
</g>
<!-- Node38 -->
<g id="node38" class="node"><title>Node38</title>
<g id="a_node38"><a xlink:href="mpi__starpu_2blrm_2drsdd_8c.html" target="_top" xlink:title="src/backends/mpi_starpu\l/blrm/drsdd.c">
<polygon fill="white" stroke="black" points="5838.5,-6 5838.5,-36 5964.5,-36 5964.5,-6 5838.5,-6"/>
<text text-anchor="start" x="5846.5" y="-24" font-family="Helvetica,sans-Serif" font-size="10.00">src/backends/mpi_starpu</text>
<text text-anchor="middle" x="5901.5" y="-13" font-family="Helvetica,sans-Serif" font-size="10.00">/blrm/drsdd.c</text>
</a>
</g>
</g>
<!-- Node12&#45;&gt;Node38 -->
<g id="edge46" class="edge"><title>Node12&#45;&gt;Node38</title>
<path fill="none" stroke="midnightblue" d="M3244.8,-86.9035C3595.41,-86.1615 5565.35,-80.3026 5829.5,-42 5838.74,-40.6596 5848.48,-38.4911 5857.71,-36.0664"/>
<polygon fill="midnightblue" stroke="midnightblue" points="3244.65,-83.4037 3234.66,-86.9245 3244.67,-90.4037 3244.65,-83.4037"/>
</g>
<!-- Node39 -->
<g id="node39" class="node"><title>Node39</title>
<g id="a_node39"><a xlink:href="mpi__starpu_2blrm_2dsdd_8c.html" target="_top" xlink:title="src/backends/mpi_starpu\l/blrm/dsdd.c">
<polygon fill="white" stroke="black" points="5982.5,-6 5982.5,-36 6108.5,-36 6108.5,-6 5982.5,-6"/>
<text text-anchor="start" x="5990.5" y="-24" font-family="Helvetica,sans-Serif" font-size="10.00">src/backends/mpi_starpu</text>
<text text-anchor="middle" x="6045.5" y="-13" font-family="Helvetica,sans-Serif" font-size="10.00">/blrm/dsdd.c</text>
</a>
</g>
</g>
<!-- Node12&#45;&gt;Node39 -->
<g id="edge47" class="edge"><title>Node12&#45;&gt;Node39</title>
<path fill="none" stroke="midnightblue" d="M3244.82,-86.9542C3606.49,-86.5359 5694.19,-82.376 5973.5,-42 5982.74,-40.6636 5992.48,-38.4969 6001.71,-36.0727"/>
<polygon fill="midnightblue" stroke="midnightblue" points="3244.62,-83.4543 3234.62,-86.9655 3244.63,-90.4543 3244.62,-83.4543"/>
</g>
<!-- Node40 -->
<g id="node40" class="node"><title>Node40</title>
<g id="a_node40"><a xlink:href="mpi__starpu__kblas_2blrm_2drsdd_8c.html" target="_top" xlink:title="src/backends/mpi_starpu\l_kblas/blrm/drsdd.c">
<polygon fill="white" stroke="black" points="6126.5,-6 6126.5,-36 6252.5,-36 6252.5,-6 6126.5,-6"/>
<text text-anchor="start" x="6134.5" y="-24" font-family="Helvetica,sans-Serif" font-size="10.00">src/backends/mpi_starpu</text>
<text text-anchor="middle" x="6189.5" y="-13" font-family="Helvetica,sans-Serif" font-size="10.00">_kblas/blrm/drsdd.c</text>
</a>
</g>
</g>
<!-- Node12&#45;&gt;Node40 -->
<g id="edge48" class="edge"><title>Node12&#45;&gt;Node40</title>
<path fill="none" stroke="midnightblue" d="M3244.91,-87C3617.57,-86.8913 5823.02,-84.4487 6117.5,-42 6126.75,-40.6673 6136.49,-38.5022 6145.71,-36.0784"/>
<polygon fill="midnightblue" stroke="midnightblue" points="3244.67,-83.4999 3234.67,-87.0025 3244.67,-90.4999 3244.67,-83.4999"/>
</g>
<!-- Node41 -->
<g id="node41" class="node"><title>Node41</title>
<g id="a_node41"><a xlink:href="cg_8c.html" target="_top" xlink:title="src/itersolvers/cg.c">
<polygon fill="white" stroke="black" points="6270.5,-11.5 6270.5,-30.5 6370.5,-30.5 6370.5,-11.5 6270.5,-11.5"/>
<text text-anchor="middle" x="6320.5" y="-18.5" font-family="Helvetica,sans-Serif" font-size="10.00">src/itersolvers/cg.c</text>
</a>
</g>
</g>
<!-- Node12&#45;&gt;Node41 -->
<g id="edge49" class="edge"><title>Node12&#45;&gt;Node41</title>
<path fill="none" stroke="midnightblue" d="M3244.56,-86.6927C3639.26,-84.3482 6106.88,-68.659 6261.5,-42 6274.82,-39.7029 6289.2,-34.8807 6300.43,-30.5469"/>
<polygon fill="midnightblue" stroke="midnightblue" points="3244.53,-83.1927 3234.55,-86.7519 3244.57,-90.1926 3244.53,-83.1927"/>
</g>
<!-- Node42 -->
<g id="node42" class="node"><title>Node42</title>
<g id="a_node42"><a xlink:href="common_8c.html" target="_top" xlink:title="src/applications/common.c">
<polygon fill="white" stroke="black" points="6388.5,-11.5 6388.5,-30.5 6522.5,-30.5 6522.5,-11.5 6388.5,-11.5"/>
<text text-anchor="middle" x="6455.5" y="-18.5" font-family="Helvetica,sans-Serif" font-size="10.00">src/applications/common.c</text>
</a>
</g>
</g>
<!-- Node12&#45;&gt;Node42 -->
<g id="edge50" class="edge"><title>Node12&#45;&gt;Node42</title>
<path fill="none" stroke="midnightblue" d="M3244.99,-87.0293C3636.74,-87.1404 6057.06,-86.0317 6379.5,-42 6396.4,-39.6925 6414.91,-34.87 6429.44,-30.5388"/>
<polygon fill="midnightblue" stroke="midnightblue" points="3244.78,-83.5293 3234.78,-87.0259 3244.78,-90.5293 3244.78,-83.5293"/>
</g>
<!-- Node43 -->
<g id="node43" class="node"><title>Node43</title>
<g id="a_node43"><a xlink:href="spatial_8c.html" target="_top" xlink:title="src/applications/spatial.c">
<polygon fill="white" stroke="black" points="1212,-11.5 1212,-30.5 1337,-30.5 1337,-11.5 1212,-11.5"/>
<text text-anchor="middle" x="1274.5" y="-18.5" font-family="Helvetica,sans-Serif" font-size="10.00">src/applications/spatial.c</text>
</a>
</g>
</g>
<!-- Node12&#45;&gt;Node43 -->
<g id="edge51" class="edge"><title>Node12&#45;&gt;Node43</title>
<path fill="none" stroke="midnightblue" d="M3138.2,-86.4833C2854.45,-83.6276 1527.48,-68.9211 1346.5,-42 1330.59,-39.6331 1313.2,-34.8668 1299.5,-30.5808"/>
<polygon fill="midnightblue" stroke="midnightblue" points="3138.2,-89.9834 3148.24,-86.5837 3138.27,-82.9837 3138.2,-89.9834"/>
</g>
<!-- Node44 -->
<g id="node44" class="node"><title>Node44</title>
<g id="a_node44"><a xlink:href="electrostatics_8c.html" target="_top" xlink:title="src/applications/electrostatics.c">
<polygon fill="white" stroke="black" points="1355,-11.5 1355,-30.5 1510,-30.5 1510,-11.5 1355,-11.5"/>
<text text-anchor="middle" x="1432.5" y="-18.5" font-family="Helvetica,sans-Serif" font-size="10.00">src/applications/electrostatics.c</text>
</a>
</g>
</g>
<!-- Node12&#45;&gt;Node44 -->
<g id="edge52" class="edge"><title>Node12&#45;&gt;Node44</title>
<path fill="none" stroke="midnightblue" d="M3138.2,-86.9924C2889.73,-86.7385 1843.6,-83.1967 1519.5,-42 1500.44,-39.5767 1479.43,-34.8086 1462.83,-30.5358"/>
<polygon fill="midnightblue" stroke="midnightblue" points="3138.41,-90.4925 3148.41,-87.0014 3138.41,-83.4925 3138.41,-90.4925"/>
</g>
<!-- Node45 -->
<g id="node45" class="node"><title>Node45</title>
<g id="a_node45"><a xlink:href="electrodynamics_8c.html" target="_top" xlink:title="src/applications/electrodynamics.c">
<polygon fill="white" stroke="black" points="1528,-11.5 1528,-30.5 1695,-30.5 1695,-11.5 1528,-11.5"/>
<text text-anchor="middle" x="1611.5" y="-18.5" font-family="Helvetica,sans-Serif" font-size="10.00">src/applications/electrodynamics.c</text>
</a>
</g>
</g>
<!-- Node12&#45;&gt;Node45 -->
<g id="edge53" class="edge"><title>Node12&#45;&gt;Node45</title>
<path fill="none" stroke="midnightblue" d="M3138.22,-86.6844C2907.13,-85.1162 1990.46,-76.7833 1704.5,-42 1684.34,-39.5473 1662.08,-34.8344 1644.4,-30.5996"/>
<polygon fill="midnightblue" stroke="midnightblue" points="3138.36,-90.1853 3148.38,-86.752 3138.4,-83.1855 3138.36,-90.1853"/>
</g>
<!-- Node46 -->
<g id="node46" class="node"><title>Node46</title>
<g id="a_node46"><a xlink:href="randtlr_8c.html" target="_top" xlink:title="src/applications/randtlr.c">
<polygon fill="white" stroke="black" points="1713,-11.5 1713,-30.5 1836,-30.5 1836,-11.5 1713,-11.5"/>
<text text-anchor="middle" x="1774.5" y="-18.5" font-family="Helvetica,sans-Serif" font-size="10.00">src/applications/randtlr.c</text>
</a>
</g>
</g>
<!-- Node12&#45;&gt;Node46 -->
<g id="edge54" class="edge"><title>Node12&#45;&gt;Node46</title>
<path fill="none" stroke="midnightblue" d="M3137.96,-86.9308C2920.28,-86.3835 2101.09,-81.6751 1845.5,-42 1829.81,-39.5642 1812.66,-34.7957 1799.15,-30.5258"/>
<polygon fill="midnightblue" stroke="midnightblue" points="3138.16,-90.4311 3148.17,-86.9544 3138.18,-83.4311 3138.16,-90.4311"/>
</g>
<!-- Node47 -->
<g id="node47" class="node"><title>Node47</title>
<g id="a_node47"><a xlink:href="minimal_8c.html" target="_top" xlink:title="src/applications/minimal.c">
<polygon fill="white" stroke="black" points="1854.5,-11.5 1854.5,-30.5 1984.5,-30.5 1984.5,-11.5 1854.5,-11.5"/>
<text text-anchor="middle" x="1919.5" y="-18.5" font-family="Helvetica,sans-Serif" font-size="10.00">src/applications/minimal.c</text>
</a>
</g>
</g>
<!-- Node12&#45;&gt;Node47 -->
<g id="edge55" class="edge"><title>Node12&#45;&gt;Node47</title>
<path fill="none" stroke="midnightblue" d="M3138.35,-86.5762C2936.83,-84.7249 2219.88,-75.8535 1994.5,-42 1978.11,-39.5379 1960.15,-34.8248 1945.92,-30.592"/>
<polygon fill="midnightblue" stroke="midnightblue" points="3138.36,-90.0763 3148.39,-86.6665 3138.42,-83.0766 3138.36,-90.0763"/>
</g>
<!-- Node48 -->
<g id="node48" class="node"><title>Node48</title>
<g id="a_node48"><a xlink:href="particles_8c.html" target="_top" xlink:title="src/applications/particles.c">
<polygon fill="white" stroke="black" points="2003,-11.5 2003,-30.5 2136,-30.5 2136,-11.5 2003,-11.5"/>
<text text-anchor="middle" x="2069.5" y="-18.5" font-family="Helvetica,sans-Serif" font-size="10.00">src/applications/particles.c</text>
</a>
</g>
</g>
<!-- Node12&#45;&gt;Node48 -->
<g id="edge56" class="edge"><title>Node12&#45;&gt;Node48</title>
<path fill="none" stroke="midnightblue" d="M3138.45,-86.2202C2953.83,-83.2714 2340.07,-71.4388 2145.5,-42 2128.91,-39.4895 2110.71,-34.7745 2096.29,-30.5528"/>
<polygon fill="midnightblue" stroke="midnightblue" points="3138.4,-89.7197 3148.46,-86.3779 3138.51,-82.7206 3138.4,-89.7197"/>
</g>
<!-- Node49 -->
<g id="node49" class="node"><title>Node49</title>
<g id="a_node49"><a xlink:href="cauchy_8c.html" target="_top" xlink:title="src/applications/cauchy.c">
<polygon fill="white" stroke="black" points="2154.5,-11.5 2154.5,-30.5 2282.5,-30.5 2282.5,-11.5 2154.5,-11.5"/>
<text text-anchor="middle" x="2218.5" y="-18.5" font-family="Helvetica,sans-Serif" font-size="10.00">src/applications/cauchy.c</text>
</a>
</g>
</g>
<!-- Node12&#45;&gt;Node49 -->
<g id="edge57" class="edge"><title>Node12&#45;&gt;Node49</title>
<path fill="none" stroke="midnightblue" d="M3138.45,-85.8615C2971.19,-82.0336 2456.24,-68.3634 2291.5,-42 2275.54,-39.4459 2258.06,-34.7292 2244.21,-30.5175"/>
<polygon fill="midnightblue" stroke="midnightblue" points="3138.42,-89.3615 3148.49,-86.089 3138.57,-82.3633 3138.42,-89.3615"/>
</g>
<!-- Node50 -->
<g id="node50" class="node"><title>Node50</title>
<g id="a_node50"><a xlink:href="cube_8c.html" target="_top" xlink:title="src/applications/mesh\l_deformation/cube.c">
<polygon fill="white" stroke="black" points="2300.5,-6 2300.5,-36 2412.5,-36 2412.5,-6 2300.5,-6"/>
<text text-anchor="start" x="2308.5" y="-24" font-family="Helvetica,sans-Serif" font-size="10.00">src/applications/mesh</text>
<text text-anchor="middle" x="2356.5" y="-13" font-family="Helvetica,sans-Serif" font-size="10.00">_deformation/cube.c</text>
</a>
</g>
</g>
<!-- Node12&#45;&gt;Node50 -->
<g id="edge58" class="edge"><title>Node12&#45;&gt;Node50</title>
<path fill="none" stroke="midnightblue" d="M3138.12,-85.5478C2987.21,-81.1778 2559.52,-66.8934 2421.5,-42 2413.37,-40.5331 2404.82,-38.373 2396.7,-36.0085"/>
<polygon fill="midnightblue" stroke="midnightblue" points="3138.4,-89.0573 3148.5,-85.8453 3138.6,-82.0601 3138.4,-89.0573"/>
</g>
</g>
</svg>
