<?xml version="1.0" encoding="UTF-8" standalone="no"?>
<!DOCTYPE svg PUBLIC "-//W3C//DTD SVG 1.1//EN"
 "http://www.w3.org/Graphics/SVG/1.1/DTD/svg11.dtd">
<!-- Generated by graphviz version 2.38.0 (20140413.2041)
 -->
<!-- Title: include/starsh&#45;mpi.h Pages: 1 -->
<svg width="6471pt" height="162pt"
 viewBox="0.00 0.00 6471.00 162.00" xmlns="http://www.w3.org/2000/svg" xmlns:xlink="http://www.w3.org/1999/xlink">
<g id="graph0" class="graph" transform="scale(1 1) rotate(0) translate(4 158)">
<title>include/starsh&#45;mpi.h</title>
<polygon fill="white" stroke="none" points="-4,4 -4,-158 6467,-158 6467,4 -4,4"/>
<!-- Node1 -->
<g id="node1" class="node"><title>Node1</title>
<polygon fill="#bfbfbf" stroke="black" points="676,-134.5 676,-153.5 780,-153.5 780,-134.5 676,-134.5"/>
<text text-anchor="middle" x="728" y="-141.5" font-family="Helvetica,sans-Serif" font-size="10.00">include/starsh&#45;mpi.h</text>
</g>
<!-- Node2 -->
<g id="node2" class="node"><title>Node2</title>
<g id="a_node2"><a xlink:href="mpi_2blrm_2dqp3_8c.html" target="_top" xlink:title="src/backends/mpi/blrm\l/dqp3.c">
<polygon fill="white" stroke="black" points="0,-6 0,-36 116,-36 116,-6 0,-6"/>
<text text-anchor="start" x="8" y="-24" font-family="Helvetica,sans-Serif" font-size="10.00">src/backends/mpi/blrm</text>
<text text-anchor="middle" x="58" y="-13" font-family="Helvetica,sans-Serif" font-size="10.00">/dqp3.c</text>
</a>
</g>
</g>
<!-- Node1&#45;&gt;Node2 -->
<g id="edge1" class="edge"><title>Node1&#45;&gt;Node2</title>
<path fill="none" stroke="midnightblue" d="M665.898,-135.782C555.852,-122.288 319.851,-90.1764 125,-42 117.812,-40.2227 110.245,-38.1568 102.888,-36.0408"/>
<polygon fill="midnightblue" stroke="midnightblue" points="665.481,-139.257 675.831,-136.991 666.327,-132.308 665.481,-139.257"/>
</g>
<!-- Node3 -->
<g id="node3" class="node"><title>Node3</title>
<g id="a_node3"><a xlink:href="mpi_2blrm_2drsdd_8c.html" target="_top" xlink:title="src/backends/mpi/blrm\l/drsdd.c">
<polygon fill="white" stroke="black" points="134,-6 134,-36 250,-36 250,-6 134,-6"/>
<text text-anchor="start" x="142" y="-24" font-family="Helvetica,sans-Serif" font-size="10.00">src/backends/mpi/blrm</text>
<text text-anchor="middle" x="192" y="-13" font-family="Helvetica,sans-Serif" font-size="10.00">/drsdd.c</text>
</a>
</g>
</g>
<!-- Node1&#45;&gt;Node3 -->
<g id="edge2" class="edge"><title>Node1&#45;&gt;Node3</title>
<path fill="none" stroke="midnightblue" d="M672.028,-132.536C583.725,-115.672 406.907,-80.4575 259,-42 252.068,-40.1977 244.773,-38.1638 237.65,-36.1009"/>
<polygon fill="midnightblue" stroke="midnightblue" points="671.616,-136.021 682.094,-134.452 672.925,-129.144 671.616,-136.021"/>
</g>
<!-- Node4 -->
<g id="node4" class="node"><title>Node4</title>
<g id="a_node4"><a xlink:href="mpi_2blrm_2dfe_8c.html" target="_top" xlink:title="src/backends/mpi/blrm\l/dfe.c">
<polygon fill="white" stroke="black" points="268,-6 268,-36 384,-36 384,-6 268,-6"/>
<text text-anchor="start" x="276" y="-24" font-family="Helvetica,sans-Serif" font-size="10.00">src/backends/mpi/blrm</text>
<text text-anchor="middle" x="326" y="-13" font-family="Helvetica,sans-Serif" font-size="10.00">/dfe.c</text>
</a>
</g>
</g>
<!-- Node1&#45;&gt;Node4 -->
<g id="edge3" class="edge"><title>Node1&#45;&gt;Node4</title>
<path fill="none" stroke="midnightblue" d="M689.893,-131.53C615.85,-109.244 452.791,-60.1634 372.513,-36.0001"/>
<polygon fill="midnightblue" stroke="midnightblue" points="689.148,-134.961 699.732,-134.492 691.165,-128.258 689.148,-134.961"/>
</g>
<!-- Node5 -->
<g id="node5" class="node"><title>Node5</title>
<g id="a_node5"><a xlink:href="mpi_2blrm_2dsdd_8c.html" target="_top" xlink:title="src/backends/mpi/blrm\l/dsdd.c">
<polygon fill="white" stroke="black" points="402,-6 402,-36 518,-36 518,-6 402,-6"/>
<text text-anchor="start" x="410" y="-24" font-family="Helvetica,sans-Serif" font-size="10.00">src/backends/mpi/blrm</text>
<text text-anchor="middle" x="460" y="-13" font-family="Helvetica,sans-Serif" font-size="10.00">/dsdd.c</text>
</a>
</g>
</g>
<!-- Node1&#45;&gt;Node5 -->
<g id="edge4" class="edge"><title>Node1&#45;&gt;Node5</title>
<path fill="none" stroke="midnightblue" d="M699.823,-130.279C649.34,-107.485 543.841,-59.8538 491.228,-36.0994"/>
<polygon fill="midnightblue" stroke="midnightblue" points="698.6,-133.566 709.155,-134.492 701.481,-127.187 698.6,-133.566"/>
</g>
<!-- Node6 -->
<g id="node6" class="node"><title>Node6</title>
<g id="a_node6"><a xlink:href="mpi_2blrm_2dmml_8c.html" target="_top" xlink:title="src/backends/mpi/blrm\l/dmml.c">
<polygon fill="white" stroke="black" points="536,-6 536,-36 652,-36 652,-6 536,-6"/>
<text text-anchor="start" x="544" y="-24" font-family="Helvetica,sans-Serif" font-size="10.00">src/backends/mpi/blrm</text>
<text text-anchor="middle" x="594" y="-13" font-family="Helvetica,sans-Serif" font-size="10.00">/dmml.c</text>
</a>
</g>
</g>
<!-- Node1&#45;&gt;Node6 -->
<g id="edge5" class="edge"><title>Node1&#45;&gt;Node6</title>
<path fill="none" stroke="midnightblue" d="M710.706,-127.384C684.408,-103.637 634.765,-58.8106 609.548,-36.0392"/>
<polygon fill="midnightblue" stroke="midnightblue" points="708.595,-130.194 718.363,-134.298 713.287,-124.998 708.595,-130.194"/>
</g>
<!-- Node7 -->
<g id="node7" class="node"><title>Node7</title>
<g id="a_node7"><a xlink:href="mpi_2blrm_2dna_8c.html" target="_top" xlink:title="src/backends/mpi/blrm\l/dna.c">
<polygon fill="white" stroke="black" points="670,-6 670,-36 786,-36 786,-6 670,-6"/>
<text text-anchor="start" x="678" y="-24" font-family="Helvetica,sans-Serif" font-size="10.00">src/backends/mpi/blrm</text>
<text text-anchor="middle" x="728" y="-13" font-family="Helvetica,sans-Serif" font-size="10.00">/dna.c</text>
</a>
</g>
</g>
<!-- Node1&#45;&gt;Node7 -->
<g id="edge6" class="edge"><title>Node1&#45;&gt;Node7</title>
<path fill="none" stroke="midnightblue" d="M728,-124.185C728,-99.7974 728,-57.8248 728,-36.0392"/>
<polygon fill="midnightblue" stroke="midnightblue" points="724.5,-124.298 728,-134.298 731.5,-124.298 724.5,-124.298"/>
</g>
<!-- Node8 -->
<g id="node8" class="node"><title>Node8</title>
<g id="a_node8"><a xlink:href="cg_8c.html" target="_top" xlink:title="src/itersolvers/cg.c">
<polygon fill="white" stroke="black" points="804,-11.5 804,-30.5 904,-30.5 904,-11.5 804,-11.5"/>
<text text-anchor="middle" x="854" y="-18.5" font-family="Helvetica,sans-Serif" font-size="10.00">src/itersolvers/cg.c</text>
</a>
</g>
</g>
<!-- Node1&#45;&gt;Node8 -->
<g id="edge7" class="edge"><title>Node1&#45;&gt;Node8</title>
<path fill="none" stroke="midnightblue" d="M744.547,-127.11C771.513,-101.213 824.034,-50.7768 845.02,-30.6232"/>
<polygon fill="midnightblue" stroke="midnightblue" points="741.85,-124.847 737.062,-134.298 746.699,-129.896 741.85,-124.847"/>
</g>
<!-- Node9 -->
<g id="node9" class="node"><title>Node9</title>
<g id="a_node9"><a xlink:href="blrf_8c.html" target="_top" xlink:title="src/control/blrf.c">
<polygon fill="white" stroke="black" points="922.5,-11.5 922.5,-30.5 1009.5,-30.5 1009.5,-11.5 922.5,-11.5"/>
<text text-anchor="middle" x="966" y="-18.5" font-family="Helvetica,sans-Serif" font-size="10.00">src/control/blrf.c</text>
</a>
</g>
</g>
<!-- Node1&#45;&gt;Node9 -->
<g id="edge8" class="edge"><title>Node1&#45;&gt;Node9</title>
<path fill="none" stroke="midnightblue" d="M753.731,-129.918C802.633,-105.056 907.783,-51.5977 948.964,-30.661"/>
<polygon fill="midnightblue" stroke="midnightblue" points="752.064,-126.84 744.736,-134.492 755.236,-133.079 752.064,-126.84"/>
</g>
<!-- Node10 -->
<g id="node10" class="node"><title>Node10</title>
<g id="a_node10"><a xlink:href="blrm_8c.html" target="_top" xlink:title="src/control/blrm.c">
<polygon fill="white" stroke="black" points="1028,-11.5 1028,-30.5 1120,-30.5 1120,-11.5 1028,-11.5"/>
<text text-anchor="middle" x="1074" y="-18.5" font-family="Helvetica,sans-Serif" font-size="10.00">src/control/blrm.c</text>
</a>
</g>
</g>
<!-- Node1&#45;&gt;Node10 -->
<g id="edge9" class="edge"><title>Node1&#45;&gt;Node10</title>
<path fill="none" stroke="midnightblue" d="M762.339,-131.139C816.654,-112.355 925.703,-74.5534 1018,-42 1028.61,-38.2571 1040.34,-34.0757 1050.31,-30.5078"/>
<polygon fill="midnightblue" stroke="midnightblue" points="761.158,-127.844 752.85,-134.419 763.445,-134.46 761.158,-127.844"/>
</g>
<!-- Node11 -->
<g id="node11" class="node"><title>Node11</title>
<g id="a_node11"><a xlink:href="init_8c.html" target="_top" xlink:title="src/control/init.c">
<polygon fill="white" stroke="black" points="1138,-11.5 1138,-30.5 1224,-30.5 1224,-11.5 1138,-11.5"/>
<text text-anchor="middle" x="1181" y="-18.5" font-family="Helvetica,sans-Serif" font-size="10.00">src/control/init.c</text>
</a>
</g>
</g>
<!-- Node1&#45;&gt;Node11 -->
<g id="edge10" class="edge"><title>Node1&#45;&gt;Node11</title>
<path fill="none" stroke="midnightblue" d="M778.435,-132.347C854.979,-115.721 1004.72,-81.3931 1129,-42 1139.51,-38.6682 1150.97,-34.3377 1160.45,-30.5587"/>
<polygon fill="midnightblue" stroke="midnightblue" points="777.611,-128.944 768.577,-134.479 779.09,-135.786 777.611,-128.944"/>
</g>
<!-- Node12 -->
<g id="node12" class="node"><title>Node12</title>
<g id="a_node12"><a xlink:href="starsh_8h.html" target="_top" xlink:title="include/starsh.h">
<polygon fill="white" stroke="red" points="3199,-78.5 3199,-97.5 3285,-97.5 3285,-78.5 3199,-78.5"/>
<text text-anchor="middle" x="3242" y="-85.5" font-family="Helvetica,sans-Serif" font-size="10.00">include/starsh.h</text>
</a>
</g>
</g>
<!-- Node1&#45;&gt;Node12 -->
<g id="edge11" class="edge"><title>Node1&#45;&gt;Node12</title>
<path fill="none" stroke="midnightblue" d="M790.29,-141.662C1144.58,-134.052 2900.41,-96.3373 3198.85,-89.9269"/>
<polygon fill="midnightblue" stroke="midnightblue" points="790.142,-138.164 780.22,-141.878 790.292,-145.163 790.142,-138.164"/>
</g>
<!-- Node12&#45;&gt;Node2 -->
<g id="edge39" class="edge"><title>Node12&#45;&gt;Node2</title>
<path fill="none" stroke="midnightblue" d="M3188.78,-87.115C2802.81,-87.8324 439.255,-90.2222 125,-42 116.361,-40.6743 107.282,-38.5123 98.6929,-36.0893"/>
<polygon fill="midnightblue" stroke="midnightblue" points="3188.84,-90.6149 3198.84,-87.0958 3188.83,-83.6149 3188.84,-90.6149"/>
</g>
<!-- Node12&#45;&gt;Node3 -->
<g id="edge40" class="edge"><title>Node12&#45;&gt;Node3</title>
<path fill="none" stroke="midnightblue" d="M3188.72,-87.0777C2812.24,-87.5109 559.104,-88.1503 259,-42 250.361,-40.6715 241.282,-38.5083 232.694,-36.085"/>
<polygon fill="midnightblue" stroke="midnightblue" points="3188.81,-90.5777 3198.8,-87.0657 3188.8,-83.5777 3188.81,-90.5777"/>
</g>
<!-- Node12&#45;&gt;Node4 -->
<g id="edge41" class="edge"><title>Node12&#45;&gt;Node4</title>
<path fill="none" stroke="midnightblue" d="M3188.83,-87.0369C2822.54,-87.1754 679.01,-86.0868 393,-42 384.362,-40.6685 375.283,-38.5039 366.694,-36.0802"/>
<polygon fill="midnightblue" stroke="midnightblue" points="3188.9,-90.537 3198.9,-87.0326 3188.9,-83.537 3188.9,-90.537"/>
</g>
<!-- Node12&#45;&gt;Node5 -->
<g id="edge42" class="edge"><title>Node12&#45;&gt;Node5</title>
<path fill="none" stroke="midnightblue" d="M3188.83,-86.9922C2832.62,-86.8243 798.901,-84.0205 527,-42 518.362,-40.6651 509.284,-38.4991 500.695,-36.075"/>
<polygon fill="midnightblue" stroke="midnightblue" points="3188.88,-90.4921 3198.88,-86.9964 3188.88,-83.4921 3188.88,-90.4921"/>
</g>
<!-- Node12&#45;&gt;Node6 -->
<g id="edge43" class="edge"><title>Node12&#45;&gt;Node6</title>
<path fill="none" stroke="midnightblue" d="M3188.75,-86.9427C2842.66,-86.455 918.788,-81.9529 661,-42 652.363,-40.6614 643.284,-38.4937 634.696,-36.0692"/>
<polygon fill="midnightblue" stroke="midnightblue" points="3188.75,-90.4426 3198.76,-86.9563 3188.76,-83.4426 3188.75,-90.4426"/>
</g>
<!-- Node12&#45;&gt;Node7 -->
<g id="edge44" class="edge"><title>Node12&#45;&gt;Node7</title>
<path fill="none" stroke="midnightblue" d="M3188.39,-86.887C2851.99,-86.0623 1038.63,-79.8769 795,-42 786.364,-40.6573 777.285,-38.4878 768.697,-36.0628"/>
<polygon fill="midnightblue" stroke="midnightblue" points="3188.81,-90.3879 3198.82,-86.912 3188.83,-83.388 3188.81,-90.3879"/>
</g>
<!-- Node12&#45;&gt;Node8 -->
<g id="edge49" class="edge"><title>Node12&#45;&gt;Node8</title>
<path fill="none" stroke="midnightblue" d="M3188.89,-86.9506C2863.31,-86.5178 1143.67,-82.3259 913,-42 899.683,-39.6718 885.304,-34.8489 874.075,-30.5225"/>
<polygon fill="midnightblue" stroke="midnightblue" points="3188.99,-90.4506 3199,-86.9634 3189,-83.4506 3188.99,-90.4506"/>
</g>
<!-- Node12&#45;&gt;Node9 -->
<g id="edge57" class="edge"><title>Node12&#45;&gt;Node9</title>
<path fill="none" stroke="midnightblue" d="M3188.3,-87.0041C2870.04,-86.8832 1237.77,-84.1968 1019,-42 1007.03,-39.6904 994.217,-34.9258 984.191,-30.6264"/>
<polygon fill="midnightblue" stroke="midnightblue" points="3188.63,-90.5041 3198.63,-87.0072 3188.63,-83.5041 3188.63,-90.5041"/>
</g>
<!-- Node12&#45;&gt;Node10 -->
<g id="edge58" class="edge"><title>Node12&#45;&gt;Node10</title>
<path fill="none" stroke="midnightblue" d="M3188.55,-86.9053C2880.33,-86.2206 1336.62,-80.8614 1129,-42 1116.52,-39.6634 1103.11,-34.8403 1092.66,-30.5159"/>
<polygon fill="midnightblue" stroke="midnightblue" points="3188.98,-90.4062 3198.98,-86.9278 3188.99,-83.4062 3188.98,-90.4062"/>
</g>
<!-- Node12&#45;&gt;Node11 -->
<g id="edge59" class="edge"><title>Node12&#45;&gt;Node11</title>
<path fill="none" stroke="midnightblue" d="M3188.78,-86.9001C2890.19,-86.194 1429.51,-80.7687 1233,-42 1221.23,-39.6785 1208.67,-34.9136 1198.83,-30.617"/>
<polygon fill="midnightblue" stroke="midnightblue" points="3188.9,-90.4003 3198.91,-86.9233 3188.92,-83.4003 3188.9,-90.4003"/>
</g>
<!-- Node13 -->
<g id="node13" class="node"><title>Node13</title>
<g id="a_node13"><a xlink:href="sequential_2dense_2dqp3_8c.html" target="_top" xlink:title="src/backends/sequential\l/dense/dqp3.c">
<polygon fill="white" stroke="black" points="2481,-6 2481,-36 2603,-36 2603,-6 2481,-6"/>
<text text-anchor="start" x="2489" y="-24" font-family="Helvetica,sans-Serif" font-size="10.00">src/backends/sequential</text>
<text text-anchor="middle" x="2542" y="-13" font-family="Helvetica,sans-Serif" font-size="10.00">/dense/dqp3.c</text>
</a>
</g>
</g>
<!-- Node12&#45;&gt;Node13 -->
<g id="edge12" class="edge"><title>Node12&#45;&gt;Node13</title>
<path fill="none" stroke="midnightblue" d="M3188.76,-86.8978C3079.68,-85.8782 2823.31,-79.3184 2612,-42 2603.54,-40.5053 2594.63,-38.3935 2586.11,-36.0979"/>
<polygon fill="midnightblue" stroke="midnightblue" points="3188.82,-90.3983 3198.85,-86.98 3188.88,-83.3985 3188.82,-90.3983"/>
</g>
<!-- Node14 -->
<g id="node14" class="node"><title>Node14</title>
<g id="a_node14"><a xlink:href="sequential_2dense_2drsdd_8c.html" target="_top" xlink:title="src/backends/sequential\l/dense/drsdd.c">
<polygon fill="white" stroke="black" points="2621,-6 2621,-36 2743,-36 2743,-6 2621,-6"/>
<text text-anchor="start" x="2629" y="-24" font-family="Helvetica,sans-Serif" font-size="10.00">src/backends/sequential</text>
<text text-anchor="middle" x="2682" y="-13" font-family="Helvetica,sans-Serif" font-size="10.00">/dense/drsdd.c</text>
</a>
</g>
</g>
<!-- Node12&#45;&gt;Node14 -->
<g id="edge13" class="edge"><title>Node12&#45;&gt;Node14</title>
<path fill="none" stroke="midnightblue" d="M3188.68,-85.3595C3098.19,-81.8514 2909.06,-71.3824 2752,-42 2743.68,-40.4428 2734.91,-38.3308 2726.51,-36.061"/>
<polygon fill="midnightblue" stroke="midnightblue" points="3188.57,-88.8578 3198.7,-85.7347 3188.83,-81.8627 3188.57,-88.8578"/>
</g>
<!-- Node15 -->
<g id="node15" class="node"><title>Node15</title>
<g id="a_node15"><a xlink:href="sequential_2dense_2dsdd_8c.html" target="_top" xlink:title="src/backends/sequential\l/dense/dsdd.c">
<polygon fill="white" stroke="black" points="2761,-6 2761,-36 2883,-36 2883,-6 2761,-6"/>
<text text-anchor="start" x="2769" y="-24" font-family="Helvetica,sans-Serif" font-size="10.00">src/backends/sequential</text>
<text text-anchor="middle" x="2822" y="-13" font-family="Helvetica,sans-Serif" font-size="10.00">/dense/dsdd.c</text>
</a>
</g>
</g>
<!-- Node12&#45;&gt;Node15 -->
<g id="edge14" class="edge"><title>Node12&#45;&gt;Node15</title>
<path fill="none" stroke="midnightblue" d="M3188.64,-82.6553C3119.65,-76.4649 2996.02,-63.42 2892,-42 2883.95,-40.343 2875.48,-38.2381 2867.32,-36.0196"/>
<polygon fill="midnightblue" stroke="midnightblue" points="3188.55,-86.1612 3198.82,-83.5547 3189.17,-79.1883 3188.55,-86.1612"/>
</g>
<!-- Node16 -->
<g id="node16" class="node"><title>Node16</title>
<g id="a_node16"><a xlink:href="dsvfr_8c.html" target="_top" xlink:title="src/backends/sequential\l/dense/dsvfr.c">
<polygon fill="white" stroke="black" points="2901,-6 2901,-36 3023,-36 3023,-6 2901,-6"/>
<text text-anchor="start" x="2909" y="-24" font-family="Helvetica,sans-Serif" font-size="10.00">src/backends/sequential</text>
<text text-anchor="middle" x="2962" y="-13" font-family="Helvetica,sans-Serif" font-size="10.00">/dense/dsvfr.c</text>
</a>
</g>
</g>
<!-- Node12&#45;&gt;Node16 -->
<g id="edge15" class="edge"><title>Node12&#45;&gt;Node16</title>
<path fill="none" stroke="midnightblue" d="M3188.9,-76.6487C3146.31,-68.099 3085.08,-55.2547 3032,-42 3024.77,-40.1934 3017.15,-38.1573 3009.71,-36.0933"/>
<polygon fill="midnightblue" stroke="midnightblue" points="3188.28,-80.0937 3198.77,-78.6201 3189.65,-73.2293 3188.28,-80.0937"/>
</g>
<!-- Node17 -->
<g id="node17" class="node"><title>Node17</title>
<g id="a_node17"><a xlink:href="sequential_2dense_2dna_8c.html" target="_top" xlink:title="src/backends/sequential\l/dense/dna.c">
<polygon fill="white" stroke="black" points="3041,-6 3041,-36 3163,-36 3163,-6 3041,-6"/>
<text text-anchor="start" x="3049" y="-24" font-family="Helvetica,sans-Serif" font-size="10.00">src/backends/sequential</text>
<text text-anchor="middle" x="3102" y="-13" font-family="Helvetica,sans-Serif" font-size="10.00">/dense/dna.c</text>
</a>
</g>
</g>
<!-- Node12&#45;&gt;Node17 -->
<g id="edge16" class="edge"><title>Node12&#45;&gt;Node17</title>
<path fill="none" stroke="midnightblue" d="M3214.26,-74.1206C3190.58,-63.1252 3156.58,-47.3413 3132.21,-36.0281"/>
<polygon fill="midnightblue" stroke="midnightblue" points="3212.87,-77.3319 3223.41,-78.3685 3215.81,-70.9828 3212.87,-77.3319"/>
</g>
<!-- Node18 -->
<g id="node18" class="node"><title>Node18</title>
<g id="a_node18"><a xlink:href="zrsdd_8c.html" target="_top" xlink:title="src/backends/sequential\l/dense/zrsdd.c">
<polygon fill="white" stroke="black" points="3181,-6 3181,-36 3303,-36 3303,-6 3181,-6"/>
<text text-anchor="start" x="3189" y="-24" font-family="Helvetica,sans-Serif" font-size="10.00">src/backends/sequential</text>
<text text-anchor="middle" x="3242" y="-13" font-family="Helvetica,sans-Serif" font-size="10.00">/dense/zrsdd.c</text>
</a>
</g>
</g>
<!-- Node12&#45;&gt;Node18 -->
<g id="edge17" class="edge"><title>Node12&#45;&gt;Node18</title>
<path fill="none" stroke="midnightblue" d="M3242,-67.9107C3242,-57.722 3242,-45.401 3242,-36.089"/>
<polygon fill="midnightblue" stroke="midnightblue" points="3238.5,-68.2338 3242,-78.2338 3245.5,-68.2338 3238.5,-68.2338"/>
</g>
<!-- Node19 -->
<g id="node19" class="node"><title>Node19</title>
<g id="a_node19"><a xlink:href="dca_8c.html" target="_top" xlink:title="src/backends/sequential\l/blrm/dca.c">
<polygon fill="white" stroke="black" points="3321,-6 3321,-36 3443,-36 3443,-6 3321,-6"/>
<text text-anchor="start" x="3329" y="-24" font-family="Helvetica,sans-Serif" font-size="10.00">src/backends/sequential</text>
<text text-anchor="middle" x="3382" y="-13" font-family="Helvetica,sans-Serif" font-size="10.00">/blrm/dca.c</text>
</a>
</g>
</g>
<!-- Node12&#45;&gt;Node19 -->
<g id="edge18" class="edge"><title>Node12&#45;&gt;Node19</title>
<path fill="none" stroke="midnightblue" d="M3269.74,-74.1206C3293.42,-63.1252 3327.42,-47.3413 3351.79,-36.0281"/>
<polygon fill="midnightblue" stroke="midnightblue" points="3268.19,-70.9828 3260.59,-78.3685 3271.13,-77.3319 3268.19,-70.9828"/>
</g>
<!-- Node20 -->
<g id="node20" class="node"><title>Node20</title>
<g id="a_node20"><a xlink:href="sequential_2blrm_2dfe_8c.html" target="_top" xlink:title="src/backends/sequential\l/blrm/dfe.c">
<polygon fill="white" stroke="black" points="3461,-6 3461,-36 3583,-36 3583,-6 3461,-6"/>
<text text-anchor="start" x="3469" y="-24" font-family="Helvetica,sans-Serif" font-size="10.00">src/backends/sequential</text>
<text text-anchor="middle" x="3522" y="-13" font-family="Helvetica,sans-Serif" font-size="10.00">/blrm/dfe.c</text>
</a>
</g>
</g>
<!-- Node12&#45;&gt;Node20 -->
<g id="edge19" class="edge"><title>Node12&#45;&gt;Node20</title>
<path fill="none" stroke="midnightblue" d="M3295.1,-76.6487C3337.69,-68.099 3398.92,-55.2547 3452,-42 3459.23,-40.1934 3466.85,-38.1573 3474.29,-36.0933"/>
<polygon fill="midnightblue" stroke="midnightblue" points="3294.35,-73.2293 3285.23,-78.6201 3295.72,-80.0937 3294.35,-73.2293"/>
</g>
<!-- Node21 -->
<g id="node21" class="node"><title>Node21</title>
<g id="a_node21"><a xlink:href="sequential_2blrm_2dmml_8c.html" target="_top" xlink:title="src/backends/sequential\l/blrm/dmml.c">
<polygon fill="white" stroke="black" points="3601,-6 3601,-36 3723,-36 3723,-6 3601,-6"/>
<text text-anchor="start" x="3609" y="-24" font-family="Helvetica,sans-Serif" font-size="10.00">src/backends/sequential</text>
<text text-anchor="middle" x="3662" y="-13" font-family="Helvetica,sans-Serif" font-size="10.00">/blrm/dmml.c</text>
</a>
</g>
</g>
<!-- Node12&#45;&gt;Node21 -->
<g id="edge20" class="edge"><title>Node12&#45;&gt;Node21</title>
<path fill="none" stroke="midnightblue" d="M3295.36,-82.6553C3364.35,-76.4649 3487.98,-63.42 3592,-42 3600.05,-40.343 3608.52,-38.2381 3616.68,-36.0196"/>
<polygon fill="midnightblue" stroke="midnightblue" points="3294.83,-79.1883 3285.18,-83.5547 3295.45,-86.1612 3294.83,-79.1883"/>
</g>
<!-- Node22 -->
<g id="node22" class="node"><title>Node22</title>
<g id="a_node22"><a xlink:href="sequential_2blrm_2dqp3_8c.html" target="_top" xlink:title="src/backends/sequential\l/blrm/dqp3.c">
<polygon fill="white" stroke="black" points="3741,-6 3741,-36 3863,-36 3863,-6 3741,-6"/>
<text text-anchor="start" x="3749" y="-24" font-family="Helvetica,sans-Serif" font-size="10.00">src/backends/sequential</text>
<text text-anchor="middle" x="3802" y="-13" font-family="Helvetica,sans-Serif" font-size="10.00">/blrm/dqp3.c</text>
</a>
</g>
</g>
<!-- Node12&#45;&gt;Node22 -->
<g id="edge21" class="edge"><title>Node12&#45;&gt;Node22</title>
<path fill="none" stroke="midnightblue" d="M3295.32,-85.3595C3385.81,-81.8514 3574.94,-71.3824 3732,-42 3740.32,-40.4428 3749.09,-38.3308 3757.49,-36.061"/>
<polygon fill="midnightblue" stroke="midnightblue" points="3295.17,-81.8627 3285.3,-85.7347 3295.43,-88.8578 3295.17,-81.8627"/>
</g>
<!-- Node23 -->
<g id="node23" class="node"><title>Node23</title>
<g id="a_node23"><a xlink:href="sequential_2blrm_2drsdd_8c.html" target="_top" xlink:title="src/backends/sequential\l/blrm/drsdd.c">
<polygon fill="white" stroke="black" points="3881,-6 3881,-36 4003,-36 4003,-6 3881,-6"/>
<text text-anchor="start" x="3889" y="-24" font-family="Helvetica,sans-Serif" font-size="10.00">src/backends/sequential</text>
<text text-anchor="middle" x="3942" y="-13" font-family="Helvetica,sans-Serif" font-size="10.00">/blrm/drsdd.c</text>
</a>
</g>
</g>
<!-- Node12&#45;&gt;Node23 -->
<g id="edge22" class="edge"><title>Node12&#45;&gt;Node23</title>
<path fill="none" stroke="midnightblue" d="M3295.24,-86.8978C3404.32,-85.8782 3660.69,-79.3184 3872,-42 3880.46,-40.5053 3889.37,-38.3935 3897.89,-36.0979"/>
<polygon fill="midnightblue" stroke="midnightblue" points="3295.12,-83.3985 3285.15,-86.98 3295.18,-90.3983 3295.12,-83.3985"/>
</g>
<!-- Node24 -->
<g id="node24" class="node"><title>Node24</title>
<g id="a_node24"><a xlink:href="sequential_2blrm_2dsdd_8c.html" target="_top" xlink:title="src/backends/sequential\l/blrm/dsdd.c">
<polygon fill="white" stroke="black" points="4021,-6 4021,-36 4143,-36 4143,-6 4021,-6"/>
<text text-anchor="start" x="4029" y="-24" font-family="Helvetica,sans-Serif" font-size="10.00">src/backends/sequential</text>
<text text-anchor="middle" x="4082" y="-13" font-family="Helvetica,sans-Serif" font-size="10.00">/blrm/dsdd.c</text>
</a>
</g>
</g>
<!-- Node12&#45;&gt;Node24 -->
<g id="edge23" class="edge"><title>Node12&#45;&gt;Node24</title>
<path fill="none" stroke="midnightblue" d="M3295.89,-85.3929C3447.19,-80.6353 3873.89,-65.4708 4012,-42 4020.6,-40.5389 4029.65,-38.4124 4038.28,-36.0855"/>
<polygon fill="midnightblue" stroke="midnightblue" points="3295.36,-81.9075 3285.48,-85.7175 3295.58,-88.9041 3295.36,-81.9075"/>
</g>
<!-- Node25 -->
<g id="node25" class="node"><title>Node25</title>
<g id="a_node25"><a xlink:href="starpu_2dense_2dqp3_8c.html" target="_top" xlink:title="src/backends/starpu\l/dense/dqp3.c">
<polygon fill="white" stroke="black" points="4161.5,-6 4161.5,-36 4266.5,-36 4266.5,-6 4161.5,-6"/>
<text text-anchor="start" x="4169.5" y="-24" font-family="Helvetica,sans-Serif" font-size="10.00">src/backends/starpu</text>
<text text-anchor="middle" x="4214" y="-13" font-family="Helvetica,sans-Serif" font-size="10.00">/dense/dqp3.c</text>
</a>
</g>
</g>
<!-- Node12&#45;&gt;Node25 -->
<g id="edge24" class="edge"><title>Node12&#45;&gt;Node25</title>
<path fill="none" stroke="midnightblue" d="M3295.4,-86.1969C3464.37,-83.3667 3985.97,-72.3377 4152,-42 4159.79,-40.577 4167.95,-38.4368 4175.71,-36.0781"/>
<polygon fill="midnightblue" stroke="midnightblue" points="3295.2,-82.6996 3285.26,-86.364 3295.31,-89.6987 3295.2,-82.6996"/>
</g>
<!-- Node26 -->
<g id="node26" class="node"><title>Node26</title>
<g id="a_node26"><a xlink:href="starpu_2dense_2drsdd_8c.html" target="_top" xlink:title="src/backends/starpu\l/dense/drsdd.c">
<polygon fill="white" stroke="black" points="4284.5,-6 4284.5,-36 4389.5,-36 4389.5,-6 4284.5,-6"/>
<text text-anchor="start" x="4292.5" y="-24" font-family="Helvetica,sans-Serif" font-size="10.00">src/backends/starpu</text>
<text text-anchor="middle" x="4337" y="-13" font-family="Helvetica,sans-Serif" font-size="10.00">/dense/drsdd.c</text>
</a>
</g>
</g>
<!-- Node12&#45;&gt;Node26 -->
<g id="edge25" class="edge"><title>Node12&#45;&gt;Node26</title>
<path fill="none" stroke="midnightblue" d="M3295.4,-86.5984C3479.22,-84.916 4084.92,-76.8012 4276,-42 4283.78,-40.5821 4291.94,-38.4123 4299.67,-36.0168"/>
<polygon fill="midnightblue" stroke="midnightblue" points="3295.15,-83.1004 3285.18,-86.6893 3295.21,-90.1002 3295.15,-83.1004"/>
</g>
<!-- Node27 -->
<g id="node27" class="node"><title>Node27</title>
<g id="a_node27"><a xlink:href="starpu_2dense_2dsdd_8c.html" target="_top" xlink:title="src/backends/starpu\l/dense/dsdd.c">
<polygon fill="white" stroke="black" points="4407.5,-6 4407.5,-36 4512.5,-36 4512.5,-6 4407.5,-6"/>
<text text-anchor="start" x="4415.5" y="-24" font-family="Helvetica,sans-Serif" font-size="10.00">src/backends/starpu</text>
<text text-anchor="middle" x="4460" y="-13" font-family="Helvetica,sans-Serif" font-size="10.00">/dense/dsdd.c</text>
</a>
</g>
</g>
<!-- Node12&#45;&gt;Node27 -->
<g id="edge26" class="edge"><title>Node12&#45;&gt;Node27</title>
<path fill="none" stroke="midnightblue" d="M3295.38,-86.8868C3493.03,-86.163 4182.88,-80.8466 4399,-42 4406.79,-40.6001 4414.95,-38.4383 4422.68,-36.0449"/>
<polygon fill="midnightblue" stroke="midnightblue" points="3295.24,-83.3872 3285.25,-86.9214 3295.27,-90.3872 3295.24,-83.3872"/>
</g>
<!-- Node28 -->
<g id="node28" class="node"><title>Node28</title>
<g id="a_node28"><a xlink:href="dense_2kernel_8c.html" target="_top" xlink:title="src/backends/starpu\l/dense/kernel.c">
<polygon fill="white" stroke="black" points="4530.5,-6 4530.5,-36 4635.5,-36 4635.5,-6 4530.5,-6"/>
<text text-anchor="start" x="4538.5" y="-24" font-family="Helvetica,sans-Serif" font-size="10.00">src/backends/starpu</text>
<text text-anchor="middle" x="4583" y="-13" font-family="Helvetica,sans-Serif" font-size="10.00">/dense/kernel.c</text>
</a>
</g>
</g>
<!-- Node12&#45;&gt;Node28 -->
<g id="edge27" class="edge"><title>Node12&#45;&gt;Node28</title>
<path fill="none" stroke="midnightblue" d="M3295.37,-87.1202C3506.12,-87.2864 4280.74,-84.9015 4522,-42 4529.79,-40.6146 4537.95,-38.4593 4545.68,-36.0677"/>
<polygon fill="midnightblue" stroke="midnightblue" points="3295.18,-83.6201 3285.18,-87.1098 3295.18,-90.6201 3295.18,-83.6201"/>
</g>
<!-- Node29 -->
<g id="node29" class="node"><title>Node29</title>
<g id="a_node29"><a xlink:href="dgemm_8c.html" target="_top" xlink:title="src/backends/starpu\l/dense/dgemm.c">
<polygon fill="white" stroke="black" points="4653.5,-6 4653.5,-36 4758.5,-36 4758.5,-6 4653.5,-6"/>
<text text-anchor="start" x="4661.5" y="-24" font-family="Helvetica,sans-Serif" font-size="10.00">src/backends/starpu</text>
<text text-anchor="middle" x="4706" y="-13" font-family="Helvetica,sans-Serif" font-size="10.00">/dense/dgemm.c</text>
</a>
</g>
</g>
<!-- Node12&#45;&gt;Node29 -->
<g id="edge28" class="edge"><title>Node12&#45;&gt;Node29</title>
<path fill="none" stroke="midnightblue" d="M3295.27,-87.3127C3518.39,-88.311 4378.48,-88.9707 4645,-42 4652.79,-40.6266 4660.96,-38.4767 4668.68,-36.0865"/>
<polygon fill="midnightblue" stroke="midnightblue" points="3295.15,-83.8122 3285.13,-87.2651 3295.12,-90.8121 3295.15,-83.8122"/>
</g>
<!-- Node30 -->
<g id="node30" class="node"><title>Node30</title>
<g id="a_node30"><a xlink:href="fake__init_8c.html" target="_top" xlink:title="src/backends/starpu\l/dense/fake_init.c">
<polygon fill="white" stroke="black" points="4776.5,-6 4776.5,-36 4881.5,-36 4881.5,-6 4776.5,-6"/>
<text text-anchor="start" x="4784.5" y="-24" font-family="Helvetica,sans-Serif" font-size="10.00">src/backends/starpu</text>
<text text-anchor="middle" x="4829" y="-13" font-family="Helvetica,sans-Serif" font-size="10.00">/dense/fake_init.c</text>
</a>
</g>
</g>
<!-- Node12&#45;&gt;Node30 -->
<g id="edge29" class="edge"><title>Node12&#45;&gt;Node30</title>
<path fill="none" stroke="midnightblue" d="M3295.14,-86.3375C3547.72,-83.0669 4620.73,-67.7573 4768,-42 4775.9,-40.6175 4784.19,-38.4306 4792.01,-36.0012"/>
<polygon fill="midnightblue" stroke="midnightblue" points="3295.07,-82.8381 3285.12,-86.4666 3295.16,-89.8375 3295.07,-82.8381"/>
</g>
<!-- Node31 -->
<g id="node31" class="node"><title>Node31</title>
<g id="a_node31"><a xlink:href="starpu_2blrm_2dqp3_8c.html" target="_top" xlink:title="src/backends/starpu\l/blrm/dqp3.c">
<polygon fill="white" stroke="black" points="4899.5,-6 4899.5,-36 5004.5,-36 5004.5,-6 4899.5,-6"/>
<text text-anchor="start" x="4907.5" y="-24" font-family="Helvetica,sans-Serif" font-size="10.00">src/backends/starpu</text>
<text text-anchor="middle" x="4952" y="-13" font-family="Helvetica,sans-Serif" font-size="10.00">/blrm/dqp3.c</text>
</a>
</g>
</g>
<!-- Node12&#45;&gt;Node31 -->
<g id="edge30" class="edge"><title>Node12&#45;&gt;Node31</title>
<path fill="none" stroke="midnightblue" d="M3295.5,-86.4593C3561.04,-83.6523 4731.07,-69.7914 4891,-42 4898.91,-40.6262 4907.19,-38.4431 4915.01,-36.0146"/>
<polygon fill="midnightblue" stroke="midnightblue" points="3295.31,-82.9611 3285.35,-86.5659 3295.38,-89.9607 3295.31,-82.9611"/>
</g>
<!-- Node32 -->
<g id="node32" class="node"><title>Node32</title>
<g id="a_node32"><a xlink:href="starpu_2blrm_2drsdd_8c.html" target="_top" xlink:title="src/backends/starpu\l/blrm/drsdd.c">
<polygon fill="white" stroke="black" points="5022.5,-6 5022.5,-36 5127.5,-36 5127.5,-6 5022.5,-6"/>
<text text-anchor="start" x="5030.5" y="-24" font-family="Helvetica,sans-Serif" font-size="10.00">src/backends/starpu</text>
<text text-anchor="middle" x="5075" y="-13" font-family="Helvetica,sans-Serif" font-size="10.00">/blrm/drsdd.c</text>
</a>
</g>
</g>
<!-- Node12&#45;&gt;Node32 -->
<g id="edge31" class="edge"><title>Node12&#45;&gt;Node32</title>
<path fill="none" stroke="midnightblue" d="M3295.41,-86.5691C3572.62,-84.2087 4841.29,-71.8443 5014,-42 5021.91,-40.6337 5030.19,-38.4539 5038.02,-36.0262"/>
<polygon fill="midnightblue" stroke="midnightblue" points="3295.18,-83.0708 3285.21,-86.6552 3295.24,-90.0706 3295.18,-83.0708"/>
</g>
<!-- Node33 -->
<g id="node33" class="node"><title>Node33</title>
<g id="a_node33"><a xlink:href="starpu_2blrm_2dsdd_8c.html" target="_top" xlink:title="src/backends/starpu\l/blrm/dsdd.c">
<polygon fill="white" stroke="black" points="5145.5,-6 5145.5,-36 5250.5,-36 5250.5,-6 5145.5,-6"/>
<text text-anchor="start" x="5153.5" y="-24" font-family="Helvetica,sans-Serif" font-size="10.00">src/backends/starpu</text>
<text text-anchor="middle" x="5198" y="-13" font-family="Helvetica,sans-Serif" font-size="10.00">/blrm/dsdd.c</text>
</a>
</g>
</g>
<!-- Node12&#45;&gt;Node33 -->
<g id="edge32" class="edge"><title>Node12&#45;&gt;Node33</title>
<path fill="none" stroke="midnightblue" d="M3295.36,-86.6642C3583.9,-84.7238 4951.49,-73.8986 5137,-42 5144.91,-40.6402 5153.19,-38.4632 5161.02,-36.0363"/>
<polygon fill="midnightblue" stroke="midnightblue" points="3295.14,-83.1655 3285.16,-86.7321 3295.18,-90.1653 3295.14,-83.1655"/>
</g>
<!-- Node34 -->
<g id="node34" class="node"><title>Node34</title>
<g id="a_node34"><a xlink:href="starpu__kblas3__spatial_2blrm_2drsdd_8c.html" target="_top" xlink:title="src/backends/starpu\l_kblas3_spatial/blrm\l/drsdd.c">
<polygon fill="white" stroke="black" points="5269,-0.5 5269,-41.5 5375,-41.5 5375,-0.5 5269,-0.5"/>
<text text-anchor="start" x="5277" y="-29.5" font-family="Helvetica,sans-Serif" font-size="10.00">src/backends/starpu</text>
<text text-anchor="start" x="5277" y="-18.5" font-family="Helvetica,sans-Serif" font-size="10.00">_kblas3_spatial/blrm</text>
<text text-anchor="middle" x="5322" y="-7.5" font-family="Helvetica,sans-Serif" font-size="10.00">/drsdd.c</text>
</a>
</g>
</g>
<!-- Node12&#45;&gt;Node34 -->
<g id="edge33" class="edge"><title>Node12&#45;&gt;Node34</title>
<path fill="none" stroke="midnightblue" d="M3295.43,-86.7319C3595.18,-85.1047 5061.61,-75.4771 5260,-42 5262.9,-41.5107 5265.85,-40.9145 5268.81,-40.2381"/>
<polygon fill="midnightblue" stroke="midnightblue" points="3295.24,-83.2328 3285.26,-86.7865 3295.28,-90.2327 3295.24,-83.2328"/>
</g>
<!-- Node35 -->
<g id="node35" class="node"><title>Node35</title>
<g id="a_node35"><a xlink:href="openmp_2blrm_2dqp3_8c.html" target="_top" xlink:title="src/backends/openmp\l/blrm/dqp3.c">
<polygon fill="white" stroke="black" points="5393.5,-6 5393.5,-36 5506.5,-36 5506.5,-6 5393.5,-6"/>
<text text-anchor="start" x="5401.5" y="-24" font-family="Helvetica,sans-Serif" font-size="10.00">src/backends/openmp</text>
<text text-anchor="middle" x="5450" y="-13" font-family="Helvetica,sans-Serif" font-size="10.00">/blrm/dqp3.c</text>
</a>
</g>
</g>
<!-- Node12&#45;&gt;Node35 -->
<g id="edge34" class="edge"><title>Node12&#45;&gt;Node35</title>
<path fill="none" stroke="midnightblue" d="M3295.2,-86.7511C3605.21,-85.1848 5172.31,-75.6456 5384,-42 5392.51,-40.6469 5401.46,-38.4728 5409.92,-36.0467"/>
<polygon fill="midnightblue" stroke="midnightblue" points="3295.11,-83.2514 3285.12,-86.8014 3295.14,-90.2513 3295.11,-83.2514"/>
</g>
<!-- Node36 -->
<g id="node36" class="node"><title>Node36</title>
<g id="a_node36"><a xlink:href="openmp_2blrm_2drsdd_8c.html" target="_top" xlink:title="src/backends/openmp\l/blrm/drsdd.c">
<polygon fill="white" stroke="black" points="5524.5,-6 5524.5,-36 5637.5,-36 5637.5,-6 5524.5,-6"/>
<text text-anchor="start" x="5532.5" y="-24" font-family="Helvetica,sans-Serif" font-size="10.00">src/backends/openmp</text>
<text text-anchor="middle" x="5581" y="-13" font-family="Helvetica,sans-Serif" font-size="10.00">/blrm/drsdd.c</text>
</a>
</g>
</g>
<!-- Node12&#45;&gt;Node36 -->
<g id="edge35" class="edge"><title>Node12&#45;&gt;Node36</title>
<path fill="none" stroke="midnightblue" d="M3295.86,-86.8321C3618.67,-85.7063 5290.72,-78.1569 5516,-42 5524.39,-40.6528 5533.21,-38.4814 5541.54,-36.056"/>
<polygon fill="midnightblue" stroke="midnightblue" points="3295.37,-83.3336 3285.38,-86.868 3295.4,-90.3336 3295.37,-83.3336"/>
</g>
<!-- Node37 -->
<g id="node37" class="node"><title>Node37</title>
<g id="a_node37"><a xlink:href="openmp_2blrm_2dsdd_8c.html" target="_top" xlink:title="src/backends/openmp\l/blrm/dsdd.c">
<polygon fill="white" stroke="black" points="5655.5,-6 5655.5,-36 5768.5,-36 5768.5,-6 5655.5,-6"/>
<text text-anchor="start" x="5663.5" y="-24" font-family="Helvetica,sans-Serif" font-size="10.00">src/backends/openmp</text>
<text text-anchor="middle" x="5712" y="-13" font-family="Helvetica,sans-Serif" font-size="10.00">/blrm/dsdd.c</text>
</a>
</g>
</g>
<!-- Node12&#45;&gt;Node37 -->
<g id="edge36" class="edge"><title>Node12&#45;&gt;Node37</title>
<path fill="none" stroke="midnightblue" d="M3295.76,-86.8949C3629.15,-86.1236 5407.97,-80.2315 5647,-42 5655.39,-40.6574 5664.21,-38.4879 5672.54,-36.063"/>
<polygon fill="midnightblue" stroke="midnightblue" points="3295.4,-83.3956 3285.41,-86.9182 3295.42,-90.3956 3295.4,-83.3956"/>
</g>
<!-- Node38 -->
<g id="node38" class="node"><title>Node38</title>
<g id="a_node38"><a xlink:href="openmp_2blrm_2dmml_8c.html" target="_top" xlink:title="src/backends/openmp\l/blrm/dmml.c">
<polygon fill="white" stroke="black" points="5786.5,-6 5786.5,-36 5899.5,-36 5899.5,-6 5786.5,-6"/>
<text text-anchor="start" x="5794.5" y="-24" font-family="Helvetica,sans-Serif" font-size="10.00">src/backends/openmp</text>
<text text-anchor="middle" x="5843" y="-13" font-family="Helvetica,sans-Serif" font-size="10.00">/blrm/dmml.c</text>
</a>
</g>
</g>
<!-- Node12&#45;&gt;Node38 -->
<g id="edge37" class="edge"><title>Node12&#45;&gt;Node38</title>
<path fill="none" stroke="midnightblue" d="M3295.4,-86.9514C3638.35,-86.5201 5525.14,-82.3185 5778,-42 5786.39,-40.6614 5795.21,-38.4938 5803.54,-36.0693"/>
<polygon fill="midnightblue" stroke="midnightblue" points="3295.23,-83.4515 3285.24,-86.9636 3295.24,-90.4515 3295.23,-83.4515"/>
</g>
<!-- Node39 -->
<g id="node39" class="node"><title>Node39</title>
<g id="a_node39"><a xlink:href="openmp_2blrm_2dfe_8c.html" target="_top" xlink:title="src/backends/openmp\l/blrm/dfe.c">
<polygon fill="white" stroke="black" points="5917.5,-6 5917.5,-36 6030.5,-36 6030.5,-6 5917.5,-6"/>
<text text-anchor="start" x="5925.5" y="-24" font-family="Helvetica,sans-Serif" font-size="10.00">src/backends/openmp</text>
<text text-anchor="middle" x="5974" y="-13" font-family="Helvetica,sans-Serif" font-size="10.00">/blrm/dfe.c</text>
</a>
</g>
</g>
<!-- Node12&#45;&gt;Node39 -->
<g id="edge38" class="edge"><title>Node12&#45;&gt;Node39</title>
<path fill="none" stroke="midnightblue" d="M3295.33,-87.0016C3648.33,-86.8931 5642.36,-84.3964 5909,-42 5917.4,-40.6651 5926.21,-38.499 5934.54,-36.0749"/>
<polygon fill="midnightblue" stroke="midnightblue" points="3295.13,-83.5016 3285.13,-87.0042 3295.13,-90.5016 3295.13,-83.5016"/>
</g>
<!-- Node40 -->
<g id="node40" class="node"><title>Node40</title>
<g id="a_node40"><a xlink:href="mpi__starpu_2blrm_2dqp3_8c.html" target="_top" xlink:title="src/backends/mpi_starpu\l/blrm/dqp3.c">
<polygon fill="white" stroke="black" points="6049,-6 6049,-36 6175,-36 6175,-6 6049,-6"/>
<text text-anchor="start" x="6057" y="-24" font-family="Helvetica,sans-Serif" font-size="10.00">src/backends/mpi_starpu</text>
<text text-anchor="middle" x="6112" y="-13" font-family="Helvetica,sans-Serif" font-size="10.00">/blrm/dqp3.c</text>
</a>
</g>
</g>
<!-- Node12&#45;&gt;Node40 -->
<g id="edge45" class="edge"><title>Node12&#45;&gt;Node40</title>
<path fill="none" stroke="midnightblue" d="M3295.33,-86.9595C3658.26,-86.5761 5759.01,-82.6059 6040,-42 6049.24,-40.6641 6058.98,-38.4976 6068.21,-36.0734"/>
<polygon fill="midnightblue" stroke="midnightblue" points="3295.1,-83.4597 3285.11,-86.9698 3295.11,-90.4596 3295.1,-83.4597"/>
</g>
<!-- Node41 -->
<g id="node41" class="node"><title>Node41</title>
<g id="a_node41"><a xlink:href="mpi__starpu_2blrm_2drsdd_8c.html" target="_top" xlink:title="src/backends/mpi_starpu\l/blrm/drsdd.c">
<polygon fill="white" stroke="black" points="6193,-6 6193,-36 6319,-36 6319,-6 6193,-6"/>
<text text-anchor="start" x="6201" y="-24" font-family="Helvetica,sans-Serif" font-size="10.00">src/backends/mpi_starpu</text>
<text text-anchor="middle" x="6256" y="-13" font-family="Helvetica,sans-Serif" font-size="10.00">/blrm/drsdd.c</text>
</a>
</g>
</g>
<!-- Node12&#45;&gt;Node41 -->
<g id="edge46" class="edge"><title>Node12&#45;&gt;Node41</title>
<path fill="none" stroke="midnightblue" d="M3295.4,-87.0048C3669.22,-86.9298 5887.83,-84.6796 6184,-42 6193.25,-40.6677 6202.99,-38.5028 6212.21,-36.079"/>
<polygon fill="midnightblue" stroke="midnightblue" points="3295.13,-83.5047 3285.14,-87.0064 3295.14,-90.5047 3295.13,-83.5047"/>
</g>
<!-- Node42 -->
<g id="node42" class="node"><title>Node42</title>
<g id="a_node42"><a xlink:href="mpi__starpu_2blrm_2dsdd_8c.html" target="_top" xlink:title="src/backends/mpi_starpu\l/blrm/dsdd.c">
<polygon fill="white" stroke="black" points="6337,-6 6337,-36 6463,-36 6463,-6 6337,-6"/>
<text text-anchor="start" x="6345" y="-24" font-family="Helvetica,sans-Serif" font-size="10.00">src/backends/mpi_starpu</text>
<text text-anchor="middle" x="6400" y="-13" font-family="Helvetica,sans-Serif" font-size="10.00">/blrm/dsdd.c</text>
</a>
</g>
</g>
<!-- Node12&#45;&gt;Node42 -->
<g id="edge47" class="edge"><title>Node12&#45;&gt;Node42</title>
<path fill="none" stroke="midnightblue" d="M3295.27,-87.0458C3679.13,-87.2676 6016.59,-86.7627 6328,-42 6337.25,-40.671 6346.99,-38.5075 6356.21,-36.0841"/>
<polygon fill="midnightblue" stroke="midnightblue" points="3295.01,-83.5457 3285,-87.0394 3295,-90.5457 3295.01,-83.5457"/>
</g>
<!-- Node43 -->
<g id="node43" class="node"><title>Node43</title>
<g id="a_node43"><a xlink:href="mpi__starpu__kblas_2blrm_2drsdd_8c.html" target="_top" xlink:title="src/backends/mpi_starpu\l_kblas/blrm/drsdd.c">
<polygon fill="white" stroke="black" points="1242,-6 1242,-36 1368,-36 1368,-6 1242,-6"/>
<text text-anchor="start" x="1250" y="-24" font-family="Helvetica,sans-Serif" font-size="10.00">src/backends/mpi_starpu</text>
<text text-anchor="middle" x="1305" y="-13" font-family="Helvetica,sans-Serif" font-size="10.00">_kblas/blrm/drsdd.c</text>
</a>
</g>
</g>
<!-- Node12&#45;&gt;Node43 -->
<g id="edge48" class="edge"><title>Node12&#45;&gt;Node43</title>
<path fill="none" stroke="midnightblue" d="M3188.59,-86.4971C2902.75,-83.7009 1560.05,-69.2035 1377,-42 1367.76,-40.6269 1358.02,-38.4441 1348.8,-36.0158"/>
<polygon fill="midnightblue" stroke="midnightblue" points="3188.66,-89.9979 3198.69,-86.5954 3188.73,-82.9983 3188.66,-89.9979"/>
</g>
<!-- Node44 -->
<g id="node44" class="node"><title>Node44</title>
<g id="a_node44"><a xlink:href="common_8c.html" target="_top" xlink:title="src/applications/common.c">
<polygon fill="white" stroke="black" points="1386,-11.5 1386,-30.5 1520,-30.5 1520,-11.5 1386,-11.5"/>
<text text-anchor="middle" x="1453" y="-18.5" font-family="Helvetica,sans-Serif" font-size="10.00">src/applications/common.c</text>
</a>
</g>
</g>
<!-- Node12&#45;&gt;Node44 -->
<g id="edge50" class="edge"><title>Node12&#45;&gt;Node44</title>
<path fill="none" stroke="midnightblue" d="M3188.61,-87.2322C2936.28,-88.0796 1861.76,-88.8208 1530,-42 1513.04,-39.6067 1494.45,-34.8395 1479.78,-30.5597"/>
<polygon fill="midnightblue" stroke="midnightblue" points="3188.63,-90.7323 3198.62,-87.1971 3188.61,-83.7323 3188.63,-90.7323"/>
</g>
<!-- Node45 -->
<g id="node45" class="node"><title>Node45</title>
<g id="a_node45"><a xlink:href="spatial_8c.html" target="_top" xlink:title="src/applications/spatial.c">
<polygon fill="white" stroke="black" points="1538.5,-11.5 1538.5,-30.5 1663.5,-30.5 1663.5,-11.5 1538.5,-11.5"/>
<text text-anchor="middle" x="1601" y="-18.5" font-family="Helvetica,sans-Serif" font-size="10.00">src/applications/spatial.c</text>
</a>
</g>
</g>
<!-- Node12&#45;&gt;Node45 -->
<g id="edge51" class="edge"><title>Node12&#45;&gt;Node45</title>
<path fill="none" stroke="midnightblue" d="M3188.48,-87.2024C2949.03,-87.841 1974.68,-87.5364 1673,-42 1657.09,-39.599 1639.7,-34.8316 1626,-30.5536"/>
<polygon fill="midnightblue" stroke="midnightblue" points="3188.67,-90.7019 3198.66,-87.1734 3188.65,-83.7019 3188.67,-90.7019"/>
</g>
<!-- Node46 -->
<g id="node46" class="node"><title>Node46</title>
<g id="a_node46"><a xlink:href="electrostatics_8c.html" target="_top" xlink:title="src/applications/electrostatics.c">
<polygon fill="white" stroke="black" points="1681.5,-11.5 1681.5,-30.5 1836.5,-30.5 1836.5,-11.5 1681.5,-11.5"/>
<text text-anchor="middle" x="1759" y="-18.5" font-family="Helvetica,sans-Serif" font-size="10.00">src/applications/electrostatics.c</text>
</a>
</g>
</g>
<!-- Node12&#45;&gt;Node46 -->
<g id="edge52" class="edge"><title>Node12&#45;&gt;Node46</title>
<path fill="none" stroke="midnightblue" d="M3188.72,-86.6626C2966.53,-85.0427 2112.89,-76.6463 1846,-42 1827.1,-39.546 1806.27,-34.8331 1789.74,-30.5985"/>
<polygon fill="midnightblue" stroke="midnightblue" points="3188.8,-90.1631 3198.82,-86.7347 3188.85,-83.1633 3188.8,-90.1631"/>
</g>
<!-- Node47 -->
<g id="node47" class="node"><title>Node47</title>
<g id="a_node47"><a xlink:href="electrodynamics_8c.html" target="_top" xlink:title="src/applications/electrodynamics.c">
<polygon fill="white" stroke="black" points="1854.5,-11.5 1854.5,-30.5 2021.5,-30.5 2021.5,-11.5 1854.5,-11.5"/>
<text text-anchor="middle" x="1938" y="-18.5" font-family="Helvetica,sans-Serif" font-size="10.00">src/applications/electrodynamics.c</text>
</a>
</g>
</g>
<!-- Node12&#45;&gt;Node47 -->
<g id="edge53" class="edge"><title>Node12&#45;&gt;Node47</title>
<path fill="none" stroke="midnightblue" d="M3188.62,-86.2572C2985.38,-83.2364 2259.92,-70.6449 2031,-42 2010.84,-39.4778 1988.59,-34.7623 1970.9,-30.5433"/>
<polygon fill="midnightblue" stroke="midnightblue" points="3188.69,-89.7585 3198.74,-86.4061 3188.79,-82.7593 3188.69,-89.7585"/>
</g>
<!-- Node48 -->
<g id="node48" class="node"><title>Node48</title>
<g id="a_node48"><a xlink:href="randtlr_8c.html" target="_top" xlink:title="src/applications/randtlr.c">
<polygon fill="white" stroke="black" points="2039.5,-11.5 2039.5,-30.5 2162.5,-30.5 2162.5,-11.5 2039.5,-11.5"/>
<text text-anchor="middle" x="2101" y="-18.5" font-family="Helvetica,sans-Serif" font-size="10.00">src/applications/randtlr.c</text>
</a>
</g>
</g>
<!-- Node12&#45;&gt;Node48 -->
<g id="edge54" class="edge"><title>Node12&#45;&gt;Node48</title>
<path fill="none" stroke="midnightblue" d="M3188.68,-86.396C3000.93,-84.0135 2371.12,-73.7869 2172,-42 2156.45,-39.5169 2139.45,-34.8029 2125.98,-30.575"/>
<polygon fill="midnightblue" stroke="midnightblue" points="3188.8,-89.8977 3198.84,-86.5228 3188.89,-82.8982 3188.8,-89.8977"/>
</g>
<!-- Node49 -->
<g id="node49" class="node"><title>Node49</title>
<g id="a_node49"><a xlink:href="minimal_8c.html" target="_top" xlink:title="src/applications/minimal.c">
<polygon fill="white" stroke="black" points="2181,-11.5 2181,-30.5 2311,-30.5 2311,-11.5 2181,-11.5"/>
<text text-anchor="middle" x="2246" y="-18.5" font-family="Helvetica,sans-Serif" font-size="10.00">src/applications/minimal.c</text>
</a>
</g>
</g>
<!-- Node12&#45;&gt;Node49 -->
<g id="edge55" class="edge"><title>Node12&#45;&gt;Node49</title>
<path fill="none" stroke="midnightblue" d="M3188.6,-85.8766C3018.4,-82.0619 2489.97,-68.3524 2321,-42 2304.62,-39.4458 2286.67,-34.729 2272.43,-30.5174"/>
<polygon fill="midnightblue" stroke="midnightblue" points="3188.74,-89.3804 3198.81,-86.1032 3188.89,-82.3821 3188.74,-89.3804"/>
</g>
<!-- Node50 -->
<g id="node50" class="node"><title>Node50</title>
<g id="a_node50"><a xlink:href="particles_8c.html" target="_top" xlink:title="src/applications/particles.c">
<polygon fill="white" stroke="black" points="2329.5,-11.5 2329.5,-30.5 2462.5,-30.5 2462.5,-11.5 2329.5,-11.5"/>
<text text-anchor="middle" x="2396" y="-18.5" font-family="Helvetica,sans-Serif" font-size="10.00">src/applications/particles.c</text>
</a>
</g>
</g>
<!-- Node12&#45;&gt;Node50 -->
<g id="edge56" class="edge"><title>Node12&#45;&gt;Node50</title>
<path fill="none" stroke="midnightblue" d="M3188.55,-87.5164C3062.77,-87.9419 2738.58,-84.4327 2472,-42 2455.56,-39.3835 2437.53,-34.7186 2423.16,-30.5519"/>
<polygon fill="midnightblue" stroke="midnightblue" points="3188.7,-91.0159 3198.68,-87.472 3188.67,-84.016 3188.7,-91.0159"/>
</g>
</g>
</svg>
