<?xml version="1.0" encoding="UTF-8" standalone="no"?>
<!DOCTYPE svg PUBLIC "-//W3C//DTD SVG 1.1//EN"
 "http://www.w3.org/Graphics/SVG/1.1/DTD/svg11.dtd">
<!-- Generated by graphviz version 2.38.0 (20140413.2041)
 -->
<!-- Title: include/starsh&#45;spatial&#45;gsl.h Pages: 1 -->
<svg width="3332pt" height="162pt"
 viewBox="0.00 0.00 3332.00 162.00" xmlns="http://www.w3.org/2000/svg" xmlns:xlink="http://www.w3.org/1999/xlink">
<g id="graph0" class="graph" transform="scale(1 1) rotate(0) translate(4 158)">
<title>include/starsh&#45;spatial&#45;gsl.h</title>
<polygon fill="white" stroke="none" points="-4,4 -4,-158 3328,-158 3328,4 -4,4"/>
<!-- Node1 -->
<g id="node1" class="node"><title>Node1</title>
<polygon fill="#bfbfbf" stroke="black" points="1548.5,-123.5 1548.5,-153.5 1657.5,-153.5 1657.5,-123.5 1548.5,-123.5"/>
<text text-anchor="start" x="1556.5" y="-141.5" font-family="Helvetica,sans-Serif" font-size="10.00">include/starsh&#45;spatial</text>
<text text-anchor="middle" x="1603" y="-130.5" font-family="Helvetica,sans-Serif" font-size="10.00">&#45;gsl.h</text>
</g>
<!-- Node2 -->
<g id="node2" class="node"><title>Node2</title>
<g id="a_node2"><a xlink:href="starsh-spatial_8h.html" target="_top" xlink:title="include/starsh&#45;spatial.h">
<polygon fill="white" stroke="black" points="1544.5,-67.5 1544.5,-86.5 1661.5,-86.5 1661.5,-67.5 1544.5,-67.5"/>
<text text-anchor="middle" x="1603" y="-74.5" font-family="Helvetica,sans-Serif" font-size="10.00">include/starsh&#45;spatial.h</text>
</a>
</g>
</g>
<!-- Node1&#45;&gt;Node2 -->
<g id="edge1" class="edge"><title>Node1&#45;&gt;Node2</title>
<path fill="none" stroke="midnightblue" d="M1603,-113.289C1603,-103.857 1603,-93.6548 1603,-86.6578"/>
<polygon fill="midnightblue" stroke="midnightblue" points="1599.5,-113.399 1603,-123.399 1606.5,-113.399 1599.5,-113.399"/>
</g>
<!-- Node3 -->
<g id="node3" class="node"><title>Node3</title>
<g id="a_node3"><a xlink:href="common_8c.html" target="_top" xlink:title="src/applications/common.c">
<polygon fill="white" stroke="black" points="0,-6 0,-25 134,-25 134,-6 0,-6"/>
<text text-anchor="middle" x="67" y="-13" font-family="Helvetica,sans-Serif" font-size="10.00">src/applications/common.c</text>
</a>
</g>
</g>
<!-- Node2&#45;&gt;Node3 -->
<g id="edge2" class="edge"><title>Node2&#45;&gt;Node3</title>
<path fill="none" stroke="midnightblue" d="M1534.13,-75.3188C1283.13,-72.6113 417.728,-61.2503 143,-31 130.716,-29.6475 117.446,-27.3944 105.485,-25.0627"/>
<polygon fill="midnightblue" stroke="midnightblue" points="1534.17,-78.8193 1544.21,-75.4264 1534.25,-71.8197 1534.17,-78.8193"/>
</g>
<!-- Node4 -->
<g id="node4" class="node"><title>Node4</title>
<g id="a_node4"><a xlink:href="spatial_8c.html" target="_top" xlink:title="src/applications/spatial.c">
<polygon fill="white" stroke="black" points="152.5,-6 152.5,-25 277.5,-25 277.5,-6 152.5,-6"/>
<text text-anchor="middle" x="215" y="-13" font-family="Helvetica,sans-Serif" font-size="10.00">src/applications/spatial.c</text>
</a>
</g>
</g>
<!-- Node2&#45;&gt;Node4 -->
<g id="edge3" class="edge"><title>Node2&#45;&gt;Node4</title>
<path fill="none" stroke="midnightblue" d="M1534.34,-75.1448C1299.91,-71.9913 532.126,-59.6761 287,-31 275.349,-29.637 262.773,-27.3809 251.442,-25.0498"/>
<polygon fill="midnightblue" stroke="midnightblue" points="1534.39,-78.6457 1544.44,-75.2794 1534.48,-71.6464 1534.39,-78.6457"/>
</g>
<!-- Node5 -->
<g id="node5" class="node"><title>Node5</title>
<g id="a_node5"><a xlink:href="kernel__exp__nd_8c.html" target="_top" xlink:title="build/src/applications\l/spatial/kernel_exp_nd.c">
<polygon fill="white" stroke="black" points="296,-0.5 296,-30.5 418,-30.5 418,-0.5 296,-0.5"/>
<text text-anchor="start" x="304" y="-18.5" font-family="Helvetica,sans-Serif" font-size="10.00">build/src/applications</text>
<text text-anchor="middle" x="357" y="-7.5" font-family="Helvetica,sans-Serif" font-size="10.00">/spatial/kernel_exp_nd.c</text>
</a>
</g>
</g>
<!-- Node2&#45;&gt;Node5 -->
<g id="edge4" class="edge"><title>Node2&#45;&gt;Node5</title>
<path fill="none" stroke="midnightblue" d="M1534.39,-74.8716C1316.74,-71.0564 643.492,-57.3792 427,-31 424.166,-30.6547 421.277,-30.2545 418.365,-29.8119"/>
<polygon fill="midnightblue" stroke="midnightblue" points="1534.34,-78.3712 1544.4,-75.0458 1534.46,-71.3723 1534.34,-78.3712"/>
</g>
<!-- Node6 -->
<g id="node6" class="node"><title>Node6</title>
<g id="a_node6"><a xlink:href="kernel__exp__1d_8c.html" target="_top" xlink:title="build/src/applications\l/spatial/kernel_exp_1d.c">
<polygon fill="white" stroke="black" points="436,-0.5 436,-30.5 558,-30.5 558,-0.5 436,-0.5"/>
<text text-anchor="start" x="444" y="-18.5" font-family="Helvetica,sans-Serif" font-size="10.00">build/src/applications</text>
<text text-anchor="middle" x="497" y="-7.5" font-family="Helvetica,sans-Serif" font-size="10.00">/spatial/kernel_exp_1d.c</text>
</a>
</g>
</g>
<!-- Node2&#45;&gt;Node6 -->
<g id="edge5" class="edge"><title>Node2&#45;&gt;Node6</title>
<path fill="none" stroke="midnightblue" d="M1534.17,-74.4564C1334.11,-69.7398 755.001,-54.4002 567,-31 564.167,-30.6474 561.279,-30.2412 558.367,-29.7937"/>
<polygon fill="midnightblue" stroke="midnightblue" points="1534.18,-77.9574 1544.26,-74.6927 1534.35,-70.9594 1534.18,-77.9574"/>
</g>
<!-- Node7 -->
<g id="node7" class="node"><title>Node7</title>
<g id="a_node7"><a xlink:href="kernel__exp__2d_8c.html" target="_top" xlink:title="build/src/applications\l/spatial/kernel_exp_2d.c">
<polygon fill="white" stroke="black" points="576,-0.5 576,-30.5 698,-30.5 698,-0.5 576,-0.5"/>
<text text-anchor="start" x="584" y="-18.5" font-family="Helvetica,sans-Serif" font-size="10.00">build/src/applications</text>
<text text-anchor="middle" x="637" y="-7.5" font-family="Helvetica,sans-Serif" font-size="10.00">/spatial/kernel_exp_2d.c</text>
</a>
</g>
</g>
<!-- Node2&#45;&gt;Node7 -->
<g id="edge6" class="edge"><title>Node2&#45;&gt;Node7</title>
<path fill="none" stroke="midnightblue" d="M1534.25,-76.1463C1383.7,-75.6796 1013.77,-70.2378 707,-31 704.169,-30.6378 701.281,-30.2237 698.37,-29.7699"/>
<polygon fill="midnightblue" stroke="midnightblue" points="1534.27,-79.6463 1544.28,-76.1709 1534.29,-72.6463 1534.27,-79.6463"/>
</g>
<!-- Node8 -->
<g id="node8" class="node"><title>Node8</title>
<g id="a_node8"><a xlink:href="kernel__exp__3d_8c.html" target="_top" xlink:title="build/src/applications\l/spatial/kernel_exp_3d.c">
<polygon fill="white" stroke="black" points="716,-0.5 716,-30.5 838,-30.5 838,-0.5 716,-0.5"/>
<text text-anchor="start" x="724" y="-18.5" font-family="Helvetica,sans-Serif" font-size="10.00">build/src/applications</text>
<text text-anchor="middle" x="777" y="-7.5" font-family="Helvetica,sans-Serif" font-size="10.00">/spatial/kernel_exp_3d.c</text>
</a>
</g>
</g>
<!-- Node2&#45;&gt;Node8 -->
<g id="edge7" class="edge"><title>Node2&#45;&gt;Node8</title>
<path fill="none" stroke="midnightblue" d="M1534.33,-75.2345C1401.18,-73.0168 1098.84,-64.3999 847,-31 844.17,-30.6247 841.284,-30.1998 838.374,-29.7373"/>
<polygon fill="midnightblue" stroke="midnightblue" points="1534.34,-78.7349 1544.39,-75.3951 1534.45,-71.7358 1534.34,-78.7349"/>
</g>
<!-- Node9 -->
<g id="node9" class="node"><title>Node9</title>
<g id="a_node9"><a xlink:href="kernel__exp__4d_8c.html" target="_top" xlink:title="build/src/applications\l/spatial/kernel_exp_4d.c">
<polygon fill="white" stroke="black" points="856,-0.5 856,-30.5 978,-30.5 978,-0.5 856,-0.5"/>
<text text-anchor="start" x="864" y="-18.5" font-family="Helvetica,sans-Serif" font-size="10.00">build/src/applications</text>
<text text-anchor="middle" x="917" y="-7.5" font-family="Helvetica,sans-Serif" font-size="10.00">/spatial/kernel_exp_4d.c</text>
</a>
</g>
</g>
<!-- Node2&#45;&gt;Node9 -->
<g id="edge8" class="edge"><title>Node2&#45;&gt;Node9</title>
<path fill="none" stroke="midnightblue" d="M1534.12,-73.9192C1419.93,-69.8096 1184.42,-58.5362 987,-31 984.05,-30.5885 981.038,-30.1268 978.001,-29.6277"/>
<polygon fill="midnightblue" stroke="midnightblue" points="1534.01,-77.4172 1544.12,-74.2719 1534.25,-70.4216 1534.01,-77.4172"/>
</g>
<!-- Node10 -->
<g id="node10" class="node"><title>Node10</title>
<g id="a_node10"><a xlink:href="kernel__sqrexp__nd_8c.html" target="_top" xlink:title="build/src/applications\l/spatial/kernel_sqrexp_nd.c">
<polygon fill="white" stroke="black" points="996,-0.5 996,-30.5 1132,-30.5 1132,-0.5 996,-0.5"/>
<text text-anchor="start" x="1004" y="-18.5" font-family="Helvetica,sans-Serif" font-size="10.00">build/src/applications</text>
<text text-anchor="middle" x="1064" y="-7.5" font-family="Helvetica,sans-Serif" font-size="10.00">/spatial/kernel_sqrexp_nd.c</text>
</a>
</g>
</g>
<!-- Node2&#45;&gt;Node10 -->
<g id="edge9" class="edge"><title>Node2&#45;&gt;Node10</title>
<path fill="none" stroke="midnightblue" d="M1534.33,-71.2313C1443.9,-64.5122 1280.05,-50.8235 1141,-31 1138.17,-30.5968 1135.29,-30.1622 1132.38,-29.704"/>
<polygon fill="midnightblue" stroke="midnightblue" points="1534.23,-74.7329 1544.46,-71.9771 1534.74,-67.7518 1534.23,-74.7329"/>
</g>
<!-- Node11 -->
<g id="node11" class="node"><title>Node11</title>
<g id="a_node11"><a xlink:href="kernel__sqrexp__1d_8c.html" target="_top" xlink:title="build/src/applications\l/spatial/kernel_sqrexp_1d.c">
<polygon fill="white" stroke="black" points="1150,-0.5 1150,-30.5 1286,-30.5 1286,-0.5 1150,-0.5"/>
<text text-anchor="start" x="1158" y="-18.5" font-family="Helvetica,sans-Serif" font-size="10.00">build/src/applications</text>
<text text-anchor="middle" x="1218" y="-7.5" font-family="Helvetica,sans-Serif" font-size="10.00">/spatial/kernel_sqrexp_1d.c</text>
</a>
</g>
</g>
<!-- Node2&#45;&gt;Node11 -->
<g id="edge10" class="edge"><title>Node2&#45;&gt;Node11</title>
<path fill="none" stroke="midnightblue" d="M1534.28,-66.7833C1471.78,-58.2046 1377.05,-44.7128 1295,-31 1292.18,-30.5291 1289.31,-30.0379 1286.41,-29.5328"/>
<polygon fill="midnightblue" stroke="midnightblue" points="1534.03,-70.2815 1544.42,-68.1696 1534.98,-63.3461 1534.03,-70.2815"/>
</g>
<!-- Node12 -->
<g id="node12" class="node"><title>Node12</title>
<g id="a_node12"><a xlink:href="kernel__sqrexp__2d_8c.html" target="_top" xlink:title="build/src/applications\l/spatial/kernel_sqrexp_2d.c">
<polygon fill="white" stroke="black" points="1304,-0.5 1304,-30.5 1440,-30.5 1440,-0.5 1304,-0.5"/>
<text text-anchor="start" x="1312" y="-18.5" font-family="Helvetica,sans-Serif" font-size="10.00">build/src/applications</text>
<text text-anchor="middle" x="1372" y="-7.5" font-family="Helvetica,sans-Serif" font-size="10.00">/spatial/kernel_sqrexp_2d.c</text>
</a>
</g>
</g>
<!-- Node2&#45;&gt;Node12 -->
<g id="edge11" class="edge"><title>Node2&#45;&gt;Node12</title>
<path fill="none" stroke="midnightblue" d="M1559.75,-64.859C1522.03,-55.1442 1467.14,-41.0055 1426.44,-30.523"/>
<polygon fill="midnightblue" stroke="midnightblue" points="1559.35,-68.3701 1569.9,-67.4751 1561.09,-61.5913 1559.35,-68.3701"/>
</g>
<!-- Node13 -->
<g id="node13" class="node"><title>Node13</title>
<g id="a_node13"><a xlink:href="kernel__sqrexp__3d_8c.html" target="_top" xlink:title="build/src/applications\l/spatial/kernel_sqrexp_3d.c">
<polygon fill="white" stroke="black" points="1458,-0.5 1458,-30.5 1594,-30.5 1594,-0.5 1458,-0.5"/>
<text text-anchor="start" x="1466" y="-18.5" font-family="Helvetica,sans-Serif" font-size="10.00">build/src/applications</text>
<text text-anchor="middle" x="1526" y="-7.5" font-family="Helvetica,sans-Serif" font-size="10.00">/spatial/kernel_sqrexp_3d.c</text>
</a>
</g>
</g>
<!-- Node2&#45;&gt;Node13 -->
<g id="edge12" class="edge"><title>Node2&#45;&gt;Node13</title>
<path fill="none" stroke="midnightblue" d="M1583.84,-61.1955C1571.7,-51.8129 1556.09,-39.7512 1544.15,-30.523"/>
<polygon fill="midnightblue" stroke="midnightblue" points="1581.91,-64.1301 1591.97,-67.4751 1586.19,-58.5911 1581.91,-64.1301"/>
</g>
<!-- Node14 -->
<g id="node14" class="node"><title>Node14</title>
<g id="a_node14"><a xlink:href="kernel__sqrexp__4d_8c.html" target="_top" xlink:title="build/src/applications\l/spatial/kernel_sqrexp_4d.c">
<polygon fill="white" stroke="black" points="1612,-0.5 1612,-30.5 1748,-30.5 1748,-0.5 1612,-0.5"/>
<text text-anchor="start" x="1620" y="-18.5" font-family="Helvetica,sans-Serif" font-size="10.00">build/src/applications</text>
<text text-anchor="middle" x="1680" y="-7.5" font-family="Helvetica,sans-Serif" font-size="10.00">/spatial/kernel_sqrexp_4d.c</text>
</a>
</g>
</g>
<!-- Node2&#45;&gt;Node14 -->
<g id="edge13" class="edge"><title>Node2&#45;&gt;Node14</title>
<path fill="none" stroke="midnightblue" d="M1622.16,-61.1955C1634.3,-51.8129 1649.91,-39.7512 1661.85,-30.523"/>
<polygon fill="midnightblue" stroke="midnightblue" points="1619.81,-58.5911 1614.03,-67.4751 1624.09,-64.1301 1619.81,-58.5911"/>
</g>
<!-- Node15 -->
<g id="node15" class="node"><title>Node15</title>
<g id="a_node15"><a xlink:href="kernel__matern__nd_8c.html" target="_top" xlink:title="build/src/applications\l/spatial/kernel_matern_nd.c">
<polygon fill="white" stroke="black" points="1766.5,-0.5 1766.5,-30.5 1903.5,-30.5 1903.5,-0.5 1766.5,-0.5"/>
<text text-anchor="start" x="1774.5" y="-18.5" font-family="Helvetica,sans-Serif" font-size="10.00">build/src/applications</text>
<text text-anchor="middle" x="1835" y="-7.5" font-family="Helvetica,sans-Serif" font-size="10.00">/spatial/kernel_matern_nd.c</text>
</a>
</g>
</g>
<!-- Node2&#45;&gt;Node15 -->
<g id="edge14" class="edge"><title>Node2&#45;&gt;Node15</title>
<path fill="none" stroke="midnightblue" d="M1645.96,-64.9834C1683.85,-55.2651 1739.27,-41.0503 1780.32,-30.523"/>
<polygon fill="midnightblue" stroke="midnightblue" points="1645.06,-61.6005 1636.24,-67.4751 1646.8,-68.381 1645.06,-61.6005"/>
</g>
<!-- Node16 -->
<g id="node16" class="node"><title>Node16</title>
<g id="a_node16"><a xlink:href="kernel__matern__1d_8c.html" target="_top" xlink:title="build/src/applications\l/spatial/kernel_matern_1d.c">
<polygon fill="white" stroke="black" points="1921.5,-0.5 1921.5,-30.5 2058.5,-30.5 2058.5,-0.5 1921.5,-0.5"/>
<text text-anchor="start" x="1929.5" y="-18.5" font-family="Helvetica,sans-Serif" font-size="10.00">build/src/applications</text>
<text text-anchor="middle" x="1990" y="-7.5" font-family="Helvetica,sans-Serif" font-size="10.00">/spatial/kernel_matern_1d.c</text>
</a>
</g>
</g>
<!-- Node2&#45;&gt;Node16 -->
<g id="edge15" class="edge"><title>Node2&#45;&gt;Node16</title>
<path fill="none" stroke="midnightblue" d="M1671.87,-66.8462C1734.78,-58.2852 1830.3,-44.783 1913,-31 1915.68,-30.5528 1918.42,-30.0869 1921.18,-29.608"/>
<polygon fill="midnightblue" stroke="midnightblue" points="1671.12,-63.4167 1661.68,-68.2293 1672.06,-70.3531 1671.12,-63.4167"/>
</g>
<!-- Node17 -->
<g id="node17" class="node"><title>Node17</title>
<g id="a_node17"><a xlink:href="kernel__matern__2d_8c.html" target="_top" xlink:title="build/src/applications\l/spatial/kernel_matern_2d.c">
<polygon fill="white" stroke="black" points="2076.5,-0.5 2076.5,-30.5 2213.5,-30.5 2213.5,-0.5 2076.5,-0.5"/>
<text text-anchor="start" x="2084.5" y="-18.5" font-family="Helvetica,sans-Serif" font-size="10.00">build/src/applications</text>
<text text-anchor="middle" x="2145" y="-7.5" font-family="Helvetica,sans-Serif" font-size="10.00">/spatial/kernel_matern_2d.c</text>
</a>
</g>
</g>
<!-- Node2&#45;&gt;Node17 -->
<g id="edge16" class="edge"><title>Node2&#45;&gt;Node17</title>
<path fill="none" stroke="midnightblue" d="M1671.74,-71.2847C1762.68,-64.6035 1927.86,-50.9349 2068,-31 2070.69,-30.6168 2073.44,-30.2051 2076.2,-29.7715"/>
<polygon fill="midnightblue" stroke="midnightblue" points="1671.28,-67.8088 1661.56,-72.026 1671.79,-74.7903 1671.28,-67.8088"/>
</g>
<!-- Node18 -->
<g id="node18" class="node"><title>Node18</title>
<g id="a_node18"><a xlink:href="kernel__matern__3d_8c.html" target="_top" xlink:title="build/src/applications\l/spatial/kernel_matern_3d.c">
<polygon fill="white" stroke="black" points="2231.5,-0.5 2231.5,-30.5 2368.5,-30.5 2368.5,-0.5 2231.5,-0.5"/>
<text text-anchor="start" x="2239.5" y="-18.5" font-family="Helvetica,sans-Serif" font-size="10.00">build/src/applications</text>
<text text-anchor="middle" x="2300" y="-7.5" font-family="Helvetica,sans-Serif" font-size="10.00">/spatial/kernel_matern_3d.c</text>
</a>
</g>
</g>
<!-- Node2&#45;&gt;Node18 -->
<g id="edge17" class="edge"><title>Node2&#45;&gt;Node18</title>
<path fill="none" stroke="midnightblue" d="M1671.82,-73.5615C1786.51,-68.9261 2023.8,-56.8997 2223,-31 2225.7,-30.6492 2228.44,-30.2648 2231.21,-29.854"/>
<polygon fill="midnightblue" stroke="midnightblue" points="1671.63,-70.0663 1661.78,-73.9612 1671.91,-77.0607 1671.63,-70.0663"/>
</g>
<!-- Node19 -->
<g id="node19" class="node"><title>Node19</title>
<g id="a_node19"><a xlink:href="kernel__matern__4d_8c.html" target="_top" xlink:title="build/src/applications\l/spatial/kernel_matern_4d.c">
<polygon fill="white" stroke="black" points="2386.5,-0.5 2386.5,-30.5 2523.5,-30.5 2523.5,-0.5 2386.5,-0.5"/>
<text text-anchor="start" x="2394.5" y="-18.5" font-family="Helvetica,sans-Serif" font-size="10.00">build/src/applications</text>
<text text-anchor="middle" x="2455" y="-7.5" font-family="Helvetica,sans-Serif" font-size="10.00">/spatial/kernel_matern_4d.c</text>
</a>
</g>
</g>
<!-- Node2&#45;&gt;Node19 -->
<g id="edge18" class="edge"><title>Node2&#45;&gt;Node19</title>
<path fill="none" stroke="midnightblue" d="M1671.8,-74.96C1807.4,-72.2583 2118.55,-62.8279 2378,-31 2380.7,-30.6687 2383.45,-30.3007 2386.22,-29.9037"/>
<polygon fill="midnightblue" stroke="midnightblue" points="1671.49,-71.4652 1661.56,-75.1577 1671.63,-78.4639 1671.49,-71.4652"/>
</g>
<!-- Node20 -->
<g id="node20" class="node"><title>Node20</title>
<g id="a_node20"><a xlink:href="kernel__matern2__nd_8c.html" target="_top" xlink:title="build/src/applications\l/spatial/kernel_matern2_nd.c">
<polygon fill="white" stroke="black" points="2542,-0.5 2542,-30.5 2684,-30.5 2684,-0.5 2542,-0.5"/>
<text text-anchor="start" x="2550" y="-18.5" font-family="Helvetica,sans-Serif" font-size="10.00">build/src/applications</text>
<text text-anchor="middle" x="2613" y="-7.5" font-family="Helvetica,sans-Serif" font-size="10.00">/spatial/kernel_matern2_nd.c</text>
</a>
</g>
</g>
<!-- Node2&#45;&gt;Node20 -->
<g id="edge19" class="edge"><title>Node2&#45;&gt;Node20</title>
<path fill="none" stroke="midnightblue" d="M1671.99,-75.7449C1826.63,-74.4994 2212.54,-67.6356 2533,-31 2535.95,-30.6633 2538.95,-30.2843 2541.97,-29.8722"/>
<polygon fill="midnightblue" stroke="midnightblue" points="1671.68,-72.2471 1661.7,-75.8222 1671.73,-79.2469 1671.68,-72.2471"/>
</g>
<!-- Node21 -->
<g id="node21" class="node"><title>Node21</title>
<g id="a_node21"><a xlink:href="kernel__matern2__1d_8c.html" target="_top" xlink:title="build/src/applications\l/spatial/kernel_matern2_1d.c">
<polygon fill="white" stroke="black" points="2702,-0.5 2702,-30.5 2844,-30.5 2844,-0.5 2702,-0.5"/>
<text text-anchor="start" x="2710" y="-18.5" font-family="Helvetica,sans-Serif" font-size="10.00">build/src/applications</text>
<text text-anchor="middle" x="2773" y="-7.5" font-family="Helvetica,sans-Serif" font-size="10.00">/spatial/kernel_matern2_1d.c</text>
</a>
</g>
</g>
<!-- Node2&#45;&gt;Node21 -->
<g id="edge20" class="edge"><title>Node2&#45;&gt;Node21</title>
<path fill="none" stroke="midnightblue" d="M1671.91,-76.4473C1844.46,-76.8532 2308.82,-73.5403 2693,-31 2695.95,-30.6738 2698.95,-30.3035 2701.97,-29.8986"/>
<polygon fill="midnightblue" stroke="midnightblue" points="1671.71,-72.9468 1661.7,-76.418 1671.69,-79.9467 1671.71,-72.9468"/>
</g>
<!-- Node22 -->
<g id="node22" class="node"><title>Node22</title>
<g id="a_node22"><a xlink:href="kernel__matern2__2d_8c.html" target="_top" xlink:title="build/src/applications\l/spatial/kernel_matern2_2d.c">
<polygon fill="white" stroke="black" points="2862,-0.5 2862,-30.5 3004,-30.5 3004,-0.5 2862,-0.5"/>
<text text-anchor="start" x="2870" y="-18.5" font-family="Helvetica,sans-Serif" font-size="10.00">build/src/applications</text>
<text text-anchor="middle" x="2933" y="-7.5" font-family="Helvetica,sans-Serif" font-size="10.00">/spatial/kernel_matern2_2d.c</text>
</a>
</g>
</g>
<!-- Node2&#45;&gt;Node22 -->
<g id="edge21" class="edge"><title>Node2&#45;&gt;Node22</title>
<path fill="none" stroke="midnightblue" d="M1671.62,-74.8268C1898.18,-70.7495 2621.1,-56.0594 2853,-31 2855.95,-30.6815 2858.95,-30.3178 2861.98,-29.9182"/>
<polygon fill="midnightblue" stroke="midnightblue" points="1671.46,-71.329 1661.53,-75.0073 1671.59,-78.3278 1671.46,-71.329"/>
</g>
<!-- Node23 -->
<g id="node23" class="node"><title>Node23</title>
<g id="a_node23"><a xlink:href="kernel__matern2__3d_8c.html" target="_top" xlink:title="build/src/applications\l/spatial/kernel_matern2_3d.c">
<polygon fill="white" stroke="black" points="3022,-0.5 3022,-30.5 3164,-30.5 3164,-0.5 3022,-0.5"/>
<text text-anchor="start" x="3030" y="-18.5" font-family="Helvetica,sans-Serif" font-size="10.00">build/src/applications</text>
<text text-anchor="middle" x="3093" y="-7.5" font-family="Helvetica,sans-Serif" font-size="10.00">/spatial/kernel_matern2_3d.c</text>
</a>
</g>
</g>
<!-- Node2&#45;&gt;Node23 -->
<g id="edge22" class="edge"><title>Node2&#45;&gt;Node23</title>
<path fill="none" stroke="midnightblue" d="M1671.94,-75.1468C1917.42,-71.898 2748.44,-59.0432 3013,-31 3015.95,-30.6876 3018.95,-30.3288 3021.98,-29.9334"/>
<polygon fill="midnightblue" stroke="midnightblue" points="1671.68,-71.6498 1661.73,-75.2808 1671.77,-78.6492 1671.68,-71.6498"/>
</g>
<!-- Node24 -->
<g id="node24" class="node"><title>Node24</title>
<g id="a_node24"><a xlink:href="kernel__matern2__4d_8c.html" target="_top" xlink:title="build/src/applications\l/spatial/kernel_matern2_4d.c">
<polygon fill="white" stroke="black" points="3182,-0.5 3182,-30.5 3324,-30.5 3324,-0.5 3182,-0.5"/>
<text text-anchor="start" x="3190" y="-18.5" font-family="Helvetica,sans-Serif" font-size="10.00">build/src/applications</text>
<text text-anchor="middle" x="3253" y="-7.5" font-family="Helvetica,sans-Serif" font-size="10.00">/spatial/kernel_matern2_4d.c</text>
</a>
</g>
</g>
<!-- Node2&#45;&gt;Node24 -->
<g id="edge23" class="edge"><title>Node2&#45;&gt;Node24</title>
<path fill="none" stroke="midnightblue" d="M1671.7,-75.4089C1934.39,-72.9345 2875.43,-62.0535 3173,-31 3175.95,-30.6923 3178.95,-30.3376 3181.98,-29.9455"/>
<polygon fill="midnightblue" stroke="midnightblue" points="1671.5,-71.9105 1661.54,-75.5036 1671.57,-78.9102 1671.5,-71.9105"/>
</g>
</g>
</svg>
