<?xml version="1.0" encoding="UTF-8" standalone="no"?>
<!DOCTYPE svg PUBLIC "-//W3C//DTD SVG 1.1//EN"
 "http://www.w3.org/Graphics/SVG/1.1/DTD/svg11.dtd">
<!-- Generated by graphviz version 2.38.0 (20140413.2041)
 -->
<!-- Title: include/starsh&#45;spatial&#45;gsl.h Pages: 1 -->
<svg width="3456pt" height="173pt"
 viewBox="0.00 0.00 3456.00 173.00" xmlns="http://www.w3.org/2000/svg" xmlns:xlink="http://www.w3.org/1999/xlink">
<g id="graph0" class="graph" transform="scale(1 1) rotate(0) translate(4 169)">
<title>include/starsh&#45;spatial&#45;gsl.h</title>
<polygon fill="white" stroke="none" points="-4,4 -4,-169 3452,-169 3452,4 -4,4"/>
<!-- Node1 -->
<g id="node1" class="node"><title>Node1</title>
<polygon fill="#bfbfbf" stroke="black" points="1595.5,-134.5 1595.5,-164.5 1704.5,-164.5 1704.5,-134.5 1595.5,-134.5"/>
<text text-anchor="start" x="1603.5" y="-152.5" font-family="Helvetica,sans-Serif" font-size="10.00">include/starsh&#45;spatial</text>
<text text-anchor="middle" x="1650" y="-141.5" font-family="Helvetica,sans-Serif" font-size="10.00">&#45;gsl.h</text>
</g>
<!-- Node2 -->
<g id="node2" class="node"><title>Node2</title>
<g id="a_node2"><a xlink:href="starsh-spatial_8h.html" target="_top" xlink:title="include/starsh&#45;spatial.h">
<polygon fill="white" stroke="black" points="1591.5,-78.5 1591.5,-97.5 1708.5,-97.5 1708.5,-78.5 1591.5,-78.5"/>
<text text-anchor="middle" x="1650" y="-85.5" font-family="Helvetica,sans-Serif" font-size="10.00">include/starsh&#45;spatial.h</text>
</a>
</g>
</g>
<!-- Node1&#45;&gt;Node2 -->
<g id="edge1" class="edge"><title>Node1&#45;&gt;Node2</title>
<path fill="none" stroke="midnightblue" d="M1650,-124.289C1650,-114.857 1650,-104.655 1650,-97.6578"/>
<polygon fill="midnightblue" stroke="midnightblue" points="1646.5,-124.399 1650,-134.399 1653.5,-124.399 1646.5,-124.399"/>
</g>
<!-- Node3 -->
<g id="node3" class="node"><title>Node3</title>
<g id="a_node3"><a xlink:href="starpu__kblas3__spatial_2blrm_2drsdd_8c.html" target="_top" xlink:title="src/backends/starpu\l_kblas3_spatial/blrm\l/drsdd.c">
<polygon fill="white" stroke="black" points="0,-0.5 0,-41.5 106,-41.5 106,-0.5 0,-0.5"/>
<text text-anchor="start" x="8" y="-29.5" font-family="Helvetica,sans-Serif" font-size="10.00">src/backends/starpu</text>
<text text-anchor="start" x="8" y="-18.5" font-family="Helvetica,sans-Serif" font-size="10.00">_kblas3_spatial/blrm</text>
<text text-anchor="middle" x="53" y="-7.5" font-family="Helvetica,sans-Serif" font-size="10.00">/drsdd.c</text>
</a>
</g>
</g>
<!-- Node2&#45;&gt;Node3 -->
<g id="edge2" class="edge"><title>Node2&#45;&gt;Node3</title>
<path fill="none" stroke="midnightblue" d="M1580.97,-86.1236C1301.29,-82.4163 260.344,-67.0503 115,-42 112.102,-41.5005 109.153,-40.8962 106.194,-40.2135"/>
<polygon fill="midnightblue" stroke="midnightblue" points="1581.34,-89.6286 1591.38,-86.2609 1581.43,-82.6292 1581.34,-89.6286"/>
</g>
<!-- Node4 -->
<g id="node4" class="node"><title>Node4</title>
<g id="a_node4"><a xlink:href="common_8c.html" target="_top" xlink:title="src/applications/common.c">
<polygon fill="white" stroke="black" points="124,-11.5 124,-30.5 258,-30.5 258,-11.5 124,-11.5"/>
<text text-anchor="middle" x="191" y="-18.5" font-family="Helvetica,sans-Serif" font-size="10.00">src/applications/common.c</text>
</a>
</g>
</g>
<!-- Node2&#45;&gt;Node4 -->
<g id="edge3" class="edge"><title>Node2&#45;&gt;Node4</title>
<path fill="none" stroke="midnightblue" d="M1581.06,-86.8044C1338.43,-85.7962 524.781,-79.6228 267,-42 250.259,-39.5567 231.905,-34.788 217.428,-30.5198"/>
<polygon fill="midnightblue" stroke="midnightblue" points="1581.14,-90.3046 1591.16,-86.8447 1581.17,-83.3047 1581.14,-90.3046"/>
</g>
<!-- Node5 -->
<g id="node5" class="node"><title>Node5</title>
<g id="a_node5"><a xlink:href="spatial_8c.html" target="_top" xlink:title="src/applications/spatial.c">
<polygon fill="white" stroke="black" points="276.5,-11.5 276.5,-30.5 401.5,-30.5 401.5,-11.5 276.5,-11.5"/>
<text text-anchor="middle" x="339" y="-18.5" font-family="Helvetica,sans-Serif" font-size="10.00">src/applications/spatial.c</text>
</a>
</g>
</g>
<!-- Node2&#45;&gt;Node5 -->
<g id="edge4" class="edge"><title>Node2&#45;&gt;Node5</title>
<path fill="none" stroke="midnightblue" d="M1581.11,-86.6224C1355.33,-85.0514 639.215,-77.338 411,-42 395.103,-39.5384 377.713,-34.769 364.007,-30.5052"/>
<polygon fill="midnightblue" stroke="midnightblue" points="1581.14,-90.1226 1591.16,-86.6905 1581.19,-83.1228 1581.14,-90.1226"/>
</g>
<!-- Node6 -->
<g id="node6" class="node"><title>Node6</title>
<g id="a_node6"><a xlink:href="kernel__exp__nd_8c.html" target="_top" xlink:title="build/src/applications\l/spatial/kernel_exp_nd.c">
<polygon fill="white" stroke="black" points="420,-6 420,-36 542,-36 542,-6 420,-6"/>
<text text-anchor="start" x="428" y="-24" font-family="Helvetica,sans-Serif" font-size="10.00">build/src/applications</text>
<text text-anchor="middle" x="481" y="-13" font-family="Helvetica,sans-Serif" font-size="10.00">/spatial/kernel_exp_nd.c</text>
</a>
</g>
</g>
<!-- Node2&#45;&gt;Node6 -->
<g id="edge5" class="edge"><title>Node2&#45;&gt;Node6</title>
<path fill="none" stroke="midnightblue" d="M1581.25,-86.3174C1372.92,-83.9122 750.77,-74.1591 551,-42 542.14,-40.5738 532.811,-38.4002 523.953,-36.0037"/>
<polygon fill="midnightblue" stroke="midnightblue" points="1581.4,-89.8192 1591.44,-86.433 1581.48,-82.8197 1581.4,-89.8192"/>
</g>
<!-- Node7 -->
<g id="node7" class="node"><title>Node7</title>
<g id="a_node7"><a xlink:href="kernel__exp__1d_8c.html" target="_top" xlink:title="build/src/applications\l/spatial/kernel_exp_1d.c">
<polygon fill="white" stroke="black" points="560,-6 560,-36 682,-36 682,-6 560,-6"/>
<text text-anchor="start" x="568" y="-24" font-family="Helvetica,sans-Serif" font-size="10.00">build/src/applications</text>
<text text-anchor="middle" x="621" y="-13" font-family="Helvetica,sans-Serif" font-size="10.00">/spatial/kernel_exp_1d.c</text>
</a>
</g>
</g>
<!-- Node2&#45;&gt;Node7 -->
<g id="edge6" class="edge"><title>Node2&#45;&gt;Node7</title>
<path fill="none" stroke="midnightblue" d="M1581.35,-85.8405C1391.58,-82.3069 862.601,-70.1498 691,-42 682.269,-40.5678 673.079,-38.4235 664.334,-36.0635"/>
<polygon fill="midnightblue" stroke="midnightblue" points="1581.42,-89.3422 1591.48,-86.0269 1581.54,-82.3434 1581.42,-89.3422"/>
</g>
<!-- Node8 -->
<g id="node8" class="node"><title>Node8</title>
<g id="a_node8"><a xlink:href="kernel__exp__2d_8c.html" target="_top" xlink:title="build/src/applications\l/spatial/kernel_exp_2d.c">
<polygon fill="white" stroke="black" points="700,-6 700,-36 822,-36 822,-6 700,-6"/>
<text text-anchor="start" x="708" y="-24" font-family="Helvetica,sans-Serif" font-size="10.00">build/src/applications</text>
<text text-anchor="middle" x="761" y="-13" font-family="Helvetica,sans-Serif" font-size="10.00">/spatial/kernel_exp_2d.c</text>
</a>
</g>
</g>
<!-- Node2&#45;&gt;Node8 -->
<g id="edge7" class="edge"><title>Node2&#45;&gt;Node8</title>
<path fill="none" stroke="midnightblue" d="M1581.21,-85.1971C1411.18,-80.4231 974.554,-66.1391 831,-42 822.275,-40.5329 813.088,-38.3727 804.344,-36.0083"/>
<polygon fill="midnightblue" stroke="midnightblue" points="1581.19,-88.6981 1591.29,-85.4778 1581.39,-81.7008 1581.19,-88.6981"/>
</g>
<!-- Node9 -->
<g id="node9" class="node"><title>Node9</title>
<g id="a_node9"><a xlink:href="kernel__exp__3d_8c.html" target="_top" xlink:title="build/src/applications\l/spatial/kernel_exp_3d.c">
<polygon fill="white" stroke="black" points="840,-6 840,-36 962,-36 962,-6 840,-6"/>
<text text-anchor="start" x="848" y="-24" font-family="Helvetica,sans-Serif" font-size="10.00">build/src/applications</text>
<text text-anchor="middle" x="901" y="-13" font-family="Helvetica,sans-Serif" font-size="10.00">/spatial/kernel_exp_3d.c</text>
</a>
</g>
</g>
<!-- Node2&#45;&gt;Node9 -->
<g id="edge8" class="edge"><title>Node2&#45;&gt;Node9</title>
<path fill="none" stroke="midnightblue" d="M1581.33,-87.2371C1458.12,-86.6029 1191.76,-80.4037 971,-42 962.408,-40.5053 953.362,-38.3634 944.732,-36.0318"/>
<polygon fill="midnightblue" stroke="midnightblue" points="1581.36,-90.7371 1591.38,-87.278 1581.39,-83.7372 1581.36,-90.7371"/>
</g>
<!-- Node10 -->
<g id="node10" class="node"><title>Node10</title>
<g id="a_node10"><a xlink:href="kernel__exp__4d_8c.html" target="_top" xlink:title="build/src/applications\l/spatial/kernel_exp_4d.c">
<polygon fill="white" stroke="black" points="980,-6 980,-36 1102,-36 1102,-6 980,-6"/>
<text text-anchor="start" x="988" y="-24" font-family="Helvetica,sans-Serif" font-size="10.00">build/src/applications</text>
<text text-anchor="middle" x="1041" y="-13" font-family="Helvetica,sans-Serif" font-size="10.00">/spatial/kernel_exp_4d.c</text>
</a>
</g>
</g>
<!-- Node2&#45;&gt;Node10 -->
<g id="edge9" class="edge"><title>Node2&#45;&gt;Node10</title>
<path fill="none" stroke="midnightblue" d="M1581.01,-85.5344C1477.94,-82.3796 1278,-72.5263 1111,-42 1102.55,-40.4546 1093.64,-38.319 1085.13,-36.0159"/>
<polygon fill="midnightblue" stroke="midnightblue" points="1581.19,-89.0409 1591.28,-85.8363 1581.39,-82.0439 1581.19,-89.0409"/>
</g>
<!-- Node11 -->
<g id="node11" class="node"><title>Node11</title>
<g id="a_node11"><a xlink:href="kernel__sqrexp__nd_8c.html" target="_top" xlink:title="build/src/applications\l/spatial/kernel_sqrexp_nd.c">
<polygon fill="white" stroke="black" points="1120,-6 1120,-36 1256,-36 1256,-6 1120,-6"/>
<text text-anchor="start" x="1128" y="-24" font-family="Helvetica,sans-Serif" font-size="10.00">build/src/applications</text>
<text text-anchor="middle" x="1188" y="-13" font-family="Helvetica,sans-Serif" font-size="10.00">/spatial/kernel_sqrexp_nd.c</text>
</a>
</g>
</g>
<!-- Node2&#45;&gt;Node11 -->
<g id="edge10" class="edge"><title>Node2&#45;&gt;Node11</title>
<path fill="none" stroke="midnightblue" d="M1581.14,-81.8314C1503.78,-75.358 1374.67,-62.551 1265,-42 1256.18,-40.3465 1246.87,-38.2433 1237.89,-36.0253"/>
<polygon fill="midnightblue" stroke="midnightblue" points="1580.99,-85.3306 1591.25,-82.6652 1581.57,-78.3543 1580.99,-85.3306"/>
</g>
<!-- Node12 -->
<g id="node12" class="node"><title>Node12</title>
<g id="a_node12"><a xlink:href="kernel__sqrexp__1d_8c.html" target="_top" xlink:title="build/src/applications\l/spatial/kernel_sqrexp_1d.c">
<polygon fill="white" stroke="black" points="1274,-6 1274,-36 1410,-36 1410,-6 1274,-6"/>
<text text-anchor="start" x="1282" y="-24" font-family="Helvetica,sans-Serif" font-size="10.00">build/src/applications</text>
<text text-anchor="middle" x="1342" y="-13" font-family="Helvetica,sans-Serif" font-size="10.00">/spatial/kernel_sqrexp_1d.c</text>
</a>
</g>
</g>
<!-- Node2&#45;&gt;Node12 -->
<g id="edge11" class="edge"><title>Node2&#45;&gt;Node12</title>
<path fill="none" stroke="midnightblue" d="M1591.63,-76.6589C1544.8,-68.1153 1477.46,-55.2741 1419,-42 1411.05,-40.1958 1402.68,-38.1608 1394.5,-36.0974"/>
<polygon fill="midnightblue" stroke="midnightblue" points="1591.13,-80.1255 1601.59,-78.4686 1592.38,-73.2381 1591.13,-80.1255"/>
</g>
<!-- Node13 -->
<g id="node13" class="node"><title>Node13</title>
<g id="a_node13"><a xlink:href="kernel__sqrexp__2d_8c.html" target="_top" xlink:title="build/src/applications\l/spatial/kernel_sqrexp_2d.c">
<polygon fill="white" stroke="black" points="1428,-6 1428,-36 1564,-36 1564,-6 1428,-6"/>
<text text-anchor="start" x="1436" y="-24" font-family="Helvetica,sans-Serif" font-size="10.00">build/src/applications</text>
<text text-anchor="middle" x="1496" y="-13" font-family="Helvetica,sans-Serif" font-size="10.00">/spatial/kernel_sqrexp_2d.c</text>
</a>
</g>
</g>
<!-- Node2&#45;&gt;Node13 -->
<g id="edge12" class="edge"><title>Node2&#45;&gt;Node13</title>
<path fill="none" stroke="midnightblue" d="M1620.18,-74.4127C1594.1,-63.4062 1556.28,-47.4418 1529.24,-36.0281"/>
<polygon fill="midnightblue" stroke="midnightblue" points="1618.98,-77.7044 1629.55,-78.3685 1621.7,-71.2553 1618.98,-77.7044"/>
</g>
<!-- Node14 -->
<g id="node14" class="node"><title>Node14</title>
<g id="a_node14"><a xlink:href="kernel__sqrexp__3d_8c.html" target="_top" xlink:title="build/src/applications\l/spatial/kernel_sqrexp_3d.c">
<polygon fill="white" stroke="black" points="1582,-6 1582,-36 1718,-36 1718,-6 1582,-6"/>
<text text-anchor="start" x="1590" y="-24" font-family="Helvetica,sans-Serif" font-size="10.00">build/src/applications</text>
<text text-anchor="middle" x="1650" y="-13" font-family="Helvetica,sans-Serif" font-size="10.00">/spatial/kernel_sqrexp_3d.c</text>
</a>
</g>
</g>
<!-- Node2&#45;&gt;Node14 -->
<g id="edge13" class="edge"><title>Node2&#45;&gt;Node14</title>
<path fill="none" stroke="midnightblue" d="M1650,-67.9107C1650,-57.722 1650,-45.401 1650,-36.089"/>
<polygon fill="midnightblue" stroke="midnightblue" points="1646.5,-68.2338 1650,-78.2338 1653.5,-68.2338 1646.5,-68.2338"/>
</g>
<!-- Node15 -->
<g id="node15" class="node"><title>Node15</title>
<g id="a_node15"><a xlink:href="kernel__sqrexp__4d_8c.html" target="_top" xlink:title="build/src/applications\l/spatial/kernel_sqrexp_4d.c">
<polygon fill="white" stroke="black" points="1736,-6 1736,-36 1872,-36 1872,-6 1736,-6"/>
<text text-anchor="start" x="1744" y="-24" font-family="Helvetica,sans-Serif" font-size="10.00">build/src/applications</text>
<text text-anchor="middle" x="1804" y="-13" font-family="Helvetica,sans-Serif" font-size="10.00">/spatial/kernel_sqrexp_4d.c</text>
</a>
</g>
</g>
<!-- Node2&#45;&gt;Node15 -->
<g id="edge14" class="edge"><title>Node2&#45;&gt;Node15</title>
<path fill="none" stroke="midnightblue" d="M1679.82,-74.4127C1705.9,-63.4062 1743.72,-47.4418 1770.76,-36.0281"/>
<polygon fill="midnightblue" stroke="midnightblue" points="1678.3,-71.2553 1670.45,-78.3685 1681.02,-77.7044 1678.3,-71.2553"/>
</g>
<!-- Node16 -->
<g id="node16" class="node"><title>Node16</title>
<g id="a_node16"><a xlink:href="kernel__matern__nd_8c.html" target="_top" xlink:title="build/src/applications\l/spatial/kernel_matern_nd.c">
<polygon fill="white" stroke="black" points="1890.5,-6 1890.5,-36 2027.5,-36 2027.5,-6 1890.5,-6"/>
<text text-anchor="start" x="1898.5" y="-24" font-family="Helvetica,sans-Serif" font-size="10.00">build/src/applications</text>
<text text-anchor="middle" x="1959" y="-13" font-family="Helvetica,sans-Serif" font-size="10.00">/spatial/kernel_matern_nd.c</text>
</a>
</g>
</g>
<!-- Node2&#45;&gt;Node16 -->
<g id="edge15" class="edge"><title>Node2&#45;&gt;Node16</title>
<path fill="none" stroke="midnightblue" d="M1708.36,-76.609C1755.18,-68.0374 1822.51,-55.1828 1881,-42 1889.05,-40.1864 1897.53,-38.1464 1905.81,-36.0807"/>
<polygon fill="midnightblue" stroke="midnightblue" points="1707.61,-73.1886 1698.4,-78.4251 1708.86,-80.0752 1707.61,-73.1886"/>
</g>
<!-- Node17 -->
<g id="node17" class="node"><title>Node17</title>
<g id="a_node17"><a xlink:href="kernel__matern__1d_8c.html" target="_top" xlink:title="build/src/applications\l/spatial/kernel_matern_1d.c">
<polygon fill="white" stroke="black" points="2045.5,-6 2045.5,-36 2182.5,-36 2182.5,-6 2045.5,-6"/>
<text text-anchor="start" x="2053.5" y="-24" font-family="Helvetica,sans-Serif" font-size="10.00">build/src/applications</text>
<text text-anchor="middle" x="2114" y="-13" font-family="Helvetica,sans-Serif" font-size="10.00">/spatial/kernel_matern_1d.c</text>
</a>
</g>
</g>
<!-- Node2&#45;&gt;Node17 -->
<g id="edge16" class="edge"><title>Node2&#45;&gt;Node17</title>
<path fill="none" stroke="midnightblue" d="M1718.88,-81.8863C1796.6,-75.446 1926.6,-62.6532 2037,-42 2045.82,-40.3491 2055.13,-38.2472 2064.11,-36.0297"/>
<polygon fill="midnightblue" stroke="midnightblue" points="1718.41,-78.4126 1708.73,-82.7155 1718.98,-85.3893 1718.41,-78.4126"/>
</g>
<!-- Node18 -->
<g id="node18" class="node"><title>Node18</title>
<g id="a_node18"><a xlink:href="kernel__matern__2d_8c.html" target="_top" xlink:title="build/src/applications\l/spatial/kernel_matern_2d.c">
<polygon fill="white" stroke="black" points="2200.5,-6 2200.5,-36 2337.5,-36 2337.5,-6 2200.5,-6"/>
<text text-anchor="start" x="2208.5" y="-24" font-family="Helvetica,sans-Serif" font-size="10.00">build/src/applications</text>
<text text-anchor="middle" x="2269" y="-13" font-family="Helvetica,sans-Serif" font-size="10.00">/spatial/kernel_matern_2d.c</text>
</a>
</g>
</g>
<!-- Node2&#45;&gt;Node18 -->
<g id="edge17" class="edge"><title>Node2&#45;&gt;Node18</title>
<path fill="none" stroke="midnightblue" d="M1718.86,-85.0571C1822.27,-81.2906 2023.49,-70.6628 2192,-42 2201.12,-40.4483 2210.74,-38.3389 2219.98,-36.0699"/>
<polygon fill="midnightblue" stroke="midnightblue" points="1718.43,-81.5701 1708.56,-85.4214 1718.68,-88.5657 1718.43,-81.5701"/>
</g>
<!-- Node19 -->
<g id="node19" class="node"><title>Node19</title>
<g id="a_node19"><a xlink:href="kernel__matern__3d_8c.html" target="_top" xlink:title="build/src/applications\l/spatial/kernel_matern_3d.c">
<polygon fill="white" stroke="black" points="2355.5,-6 2355.5,-36 2492.5,-36 2492.5,-6 2355.5,-6"/>
<text text-anchor="start" x="2363.5" y="-24" font-family="Helvetica,sans-Serif" font-size="10.00">build/src/applications</text>
<text text-anchor="middle" x="2424" y="-13" font-family="Helvetica,sans-Serif" font-size="10.00">/spatial/kernel_matern_3d.c</text>
</a>
</g>
</g>
<!-- Node2&#45;&gt;Node19 -->
<g id="edge18" class="edge"><title>Node2&#45;&gt;Node19</title>
<path fill="none" stroke="midnightblue" d="M1718.95,-86.8641C1844.63,-85.6615 2119.05,-78.6226 2347,-42 2356.41,-40.4883 2366.34,-38.3385 2375.83,-36.0045"/>
<polygon fill="midnightblue" stroke="midnightblue" points="1718.67,-83.3663 1708.71,-86.9523 1718.73,-90.366 1718.67,-83.3663"/>
</g>
<!-- Node20 -->
<g id="node20" class="node"><title>Node20</title>
<g id="a_node20"><a xlink:href="kernel__matern__4d_8c.html" target="_top" xlink:title="build/src/applications\l/spatial/kernel_matern_4d.c">
<polygon fill="white" stroke="black" points="2510.5,-6 2510.5,-36 2647.5,-36 2647.5,-6 2510.5,-6"/>
<text text-anchor="start" x="2518.5" y="-24" font-family="Helvetica,sans-Serif" font-size="10.00">build/src/applications</text>
<text text-anchor="middle" x="2579" y="-13" font-family="Helvetica,sans-Serif" font-size="10.00">/spatial/kernel_matern_4d.c</text>
</a>
</g>
</g>
<!-- Node2&#45;&gt;Node20 -->
<g id="edge19" class="edge"><title>Node2&#45;&gt;Node20</title>
<path fill="none" stroke="midnightblue" d="M1718.75,-85.1554C1893.51,-80.1794 2351.57,-65.2659 2502,-42 2511.42,-40.5434 2521.35,-38.419 2530.84,-36.0927"/>
<polygon fill="midnightblue" stroke="midnightblue" points="1718.54,-81.6597 1708.64,-85.441 1718.74,-88.6569 1718.54,-81.6597"/>
</g>
<!-- Node21 -->
<g id="node21" class="node"><title>Node21</title>
<g id="a_node21"><a xlink:href="kernel__matern2__nd_8c.html" target="_top" xlink:title="build/src/applications\l/spatial/kernel_matern2_nd.c">
<polygon fill="white" stroke="black" points="2666,-6 2666,-36 2808,-36 2808,-6 2666,-6"/>
<text text-anchor="start" x="2674" y="-24" font-family="Helvetica,sans-Serif" font-size="10.00">build/src/applications</text>
<text text-anchor="middle" x="2737" y="-13" font-family="Helvetica,sans-Serif" font-size="10.00">/spatial/kernel_matern2_nd.c</text>
</a>
</g>
</g>
<!-- Node2&#45;&gt;Node21 -->
<g id="edge20" class="edge"><title>Node2&#45;&gt;Node21</title>
<path fill="none" stroke="midnightblue" d="M1718.95,-85.7177C1915.38,-81.7788 2475.39,-68.4856 2657,-42 2666.92,-40.5538 2677.39,-38.4031 2687.38,-36.0413"/>
<polygon fill="midnightblue" stroke="midnightblue" points="1718.69,-82.2221 1708.76,-85.9201 1718.83,-89.2207 1718.69,-82.2221"/>
</g>
<!-- Node22 -->
<g id="node22" class="node"><title>Node22</title>
<g id="a_node22"><a xlink:href="kernel__matern2__1d_8c.html" target="_top" xlink:title="build/src/applications\l/spatial/kernel_matern2_1d.c">
<polygon fill="white" stroke="black" points="2826,-6 2826,-36 2968,-36 2968,-6 2826,-6"/>
<text text-anchor="start" x="2834" y="-24" font-family="Helvetica,sans-Serif" font-size="10.00">build/src/applications</text>
<text text-anchor="middle" x="2897" y="-13" font-family="Helvetica,sans-Serif" font-size="10.00">/spatial/kernel_matern2_1d.c</text>
</a>
</g>
</g>
<!-- Node2&#45;&gt;Node22 -->
<g id="edge21" class="edge"><title>Node2&#45;&gt;Node22</title>
<path fill="none" stroke="midnightblue" d="M1718.83,-86.21C1935.69,-83.4276 2602.97,-72.5452 2817,-42 2826.92,-40.5841 2837.4,-38.4472 2847.38,-36.0894"/>
<polygon fill="midnightblue" stroke="midnightblue" points="1718.5,-82.7139 1708.55,-86.3403 1718.59,-89.7133 1718.5,-82.7139"/>
</g>
<!-- Node23 -->
<g id="node23" class="node"><title>Node23</title>
<g id="a_node23"><a xlink:href="kernel__matern2__2d_8c.html" target="_top" xlink:title="build/src/applications\l/spatial/kernel_matern2_2d.c">
<polygon fill="white" stroke="black" points="2986,-6 2986,-36 3128,-36 3128,-6 2986,-6"/>
<text text-anchor="start" x="2994" y="-24" font-family="Helvetica,sans-Serif" font-size="10.00">build/src/applications</text>
<text text-anchor="middle" x="3057" y="-13" font-family="Helvetica,sans-Serif" font-size="10.00">/spatial/kernel_matern2_2d.c</text>
</a>
</g>
</g>
<!-- Node2&#45;&gt;Node23 -->
<g id="edge22" class="edge"><title>Node2&#45;&gt;Node23</title>
<path fill="none" stroke="midnightblue" d="M1718.89,-86.5826C1954.97,-84.8521 2730.42,-76.6077 2977,-42 2987.07,-40.5873 2997.7,-38.4197 3007.82,-36.0248"/>
<polygon fill="midnightblue" stroke="midnightblue" points="1718.69,-83.0838 1708.72,-86.6556 1718.74,-90.0837 1718.69,-83.0838"/>
</g>
<!-- Node24 -->
<g id="node24" class="node"><title>Node24</title>
<g id="a_node24"><a xlink:href="kernel__matern2__3d_8c.html" target="_top" xlink:title="build/src/applications\l/spatial/kernel_matern2_3d.c">
<polygon fill="white" stroke="black" points="3146,-6 3146,-36 3288,-36 3288,-6 3146,-6"/>
<text text-anchor="start" x="3154" y="-24" font-family="Helvetica,sans-Serif" font-size="10.00">build/src/applications</text>
<text text-anchor="middle" x="3217" y="-13" font-family="Helvetica,sans-Serif" font-size="10.00">/spatial/kernel_matern2_3d.c</text>
</a>
</g>
</g>
<!-- Node2&#45;&gt;Node24 -->
<g id="edge23" class="edge"><title>Node2&#45;&gt;Node24</title>
<path fill="none" stroke="midnightblue" d="M1718.91,-86.8763C1973.08,-86.1148 2857.69,-80.6816 3137,-42 3147.07,-40.6056 3157.71,-38.4463 3167.82,-36.0536"/>
<polygon fill="midnightblue" stroke="midnightblue" points="1718.7,-83.3768 1708.71,-86.9054 1718.72,-90.3768 1718.7,-83.3768"/>
</g>
<!-- Node25 -->
<g id="node25" class="node"><title>Node25</title>
<g id="a_node25"><a xlink:href="kernel__matern2__4d_8c.html" target="_top" xlink:title="build/src/applications\l/spatial/kernel_matern2_4d.c">
<polygon fill="white" stroke="black" points="3306,-6 3306,-36 3448,-36 3448,-6 3306,-6"/>
<text text-anchor="start" x="3314" y="-24" font-family="Helvetica,sans-Serif" font-size="10.00">build/src/applications</text>
<text text-anchor="middle" x="3377" y="-13" font-family="Helvetica,sans-Serif" font-size="10.00">/spatial/kernel_matern2_4d.c</text>
</a>
</g>
</g>
<!-- Node2&#45;&gt;Node25 -->
<g id="edge24" class="edge"><title>Node2&#45;&gt;Node25</title>
<path fill="none" stroke="midnightblue" d="M1718.97,-87.1137C1990.33,-87.2515 2984.85,-84.763 3297,-42 3307.07,-40.6204 3317.71,-38.4676 3327.82,-36.0767"/>
<polygon fill="midnightblue" stroke="midnightblue" points="1718.87,-83.6137 1708.87,-87.1071 1718.86,-90.6137 1718.87,-83.6137"/>
</g>
</g>
</svg>
