<?xml version="1.0" encoding="UTF-8" standalone="no"?>
<!DOCTYPE svg PUBLIC "-//W3C//DTD SVG 1.1//EN"
 "http://www.w3.org/Graphics/SVG/1.1/DTD/svg11.dtd">
<!-- Generated by graphviz version 2.38.0 (20140413.2041)
 -->
<!-- Title: include/starsh&#45;rbf.h Pages: 1 -->
<svg width="394pt" height="95pt"
 viewBox="0.00 0.00 394.00 95.00" xmlns="http://www.w3.org/2000/svg" xmlns:xlink="http://www.w3.org/1999/xlink">
<g id="graph0" class="graph" transform="scale(1 1) rotate(0) translate(4 91)">
<title>include/starsh&#45;rbf.h</title>
<polygon fill="white" stroke="none" points="-4,4 -4,-91 390,-91 390,4 -4,4"/>
<!-- Node11 -->
<g id="node1" class="node"><title>Node11</title>
<polygon fill="#bfbfbf" stroke="black" points="143,-67.5 143,-86.5 243,-86.5 243,-67.5 143,-67.5"/>
<text text-anchor="middle" x="193" y="-74.5" font-family="Helvetica,sans-Serif" font-size="10.00">include/starsh&#45;rbf.h</text>
</g>
<!-- Node12 -->
<g id="node2" class="node"><title>Node12</title>
<g id="a_node2"><a xlink:href="cube_8c.html" target="_top" xlink:title="src/applications/mesh\l_deformation/cube.c">
<polygon fill="white" stroke="black" points="0,-0.5 0,-30.5 112,-30.5 112,-0.5 0,-0.5"/>
<text text-anchor="start" x="8" y="-18.5" font-family="Helvetica,sans-Serif" font-size="10.00">src/applications/mesh</text>
<text text-anchor="middle" x="56" y="-7.5" font-family="Helvetica,sans-Serif" font-size="10.00">_deformation/cube.c</text>
</a>
</g>
</g>
<!-- Node11&#45;&gt;Node12 -->
<g id="edge1" class="edge"><title>Node11&#45;&gt;Node12</title>
<path fill="none" stroke="midnightblue" d="M164.128,-63.4605C141.937,-53.823 111.29,-40.5127 88.2882,-30.523"/>
<polygon fill="midnightblue" stroke="midnightblue" points="162.805,-66.7018 173.371,-67.4751 165.593,-60.2811 162.805,-66.7018"/>
</g>
<!-- Node13 -->
<g id="node3" class="node"><title>Node13</title>
<g id="a_node3"><a xlink:href="mesh__rbf_8c.html" target="_top" xlink:title="src/applications/mesh\l_deformation/mesh_rbf.c">
<polygon fill="white" stroke="black" points="130.5,-0.5 130.5,-30.5 255.5,-30.5 255.5,-0.5 130.5,-0.5"/>
<text text-anchor="start" x="138.5" y="-18.5" font-family="Helvetica,sans-Serif" font-size="10.00">src/applications/mesh</text>
<text text-anchor="middle" x="193" y="-7.5" font-family="Helvetica,sans-Serif" font-size="10.00">_deformation/mesh_rbf.c</text>
</a>
</g>
</g>
<!-- Node11&#45;&gt;Node13 -->
<g id="edge2" class="edge"><title>Node11&#45;&gt;Node13</title>
<path fill="none" stroke="midnightblue" d="M193,-57.2349C193,-48.5864 193,-38.4969 193,-30.523"/>
<polygon fill="midnightblue" stroke="midnightblue" points="189.5,-57.4751 193,-67.4751 196.5,-57.4751 189.5,-57.4751"/>
</g>
<!-- Node14 -->
<g id="node4" class="node"><title>Node14</title>
<g id="a_node4"><a xlink:href="virus_8c.html" target="_top" xlink:title="src/applications/mesh\l_deformation/virus.c">
<polygon fill="white" stroke="black" points="274,-0.5 274,-30.5 386,-30.5 386,-0.5 274,-0.5"/>
<text text-anchor="start" x="282" y="-18.5" font-family="Helvetica,sans-Serif" font-size="10.00">src/applications/mesh</text>
<text text-anchor="middle" x="330" y="-7.5" font-family="Helvetica,sans-Serif" font-size="10.00">_deformation/virus.c</text>
</a>
</g>
</g>
<!-- Node11&#45;&gt;Node14 -->
<g id="edge3" class="edge"><title>Node11&#45;&gt;Node14</title>
<path fill="none" stroke="midnightblue" d="M221.872,-63.4605C244.063,-53.823 274.71,-40.5127 297.712,-30.523"/>
<polygon fill="midnightblue" stroke="midnightblue" points="220.407,-60.2811 212.629,-67.4751 223.195,-66.7018 220.407,-60.2811"/>
</g>
</g>
</svg>
