<?xml version="1.0" encoding="UTF-8" standalone="no"?>
<!DOCTYPE svg PUBLIC "-//W3C//DTD SVG 1.1//EN"
 "http://www.w3.org/Graphics/SVG/1.1/DTD/svg11.dtd">
<!-- Generated by graphviz version 2.38.0 (20140413.2041)
 -->
<!-- Title: starsh_blrf Pages: 1 -->
<svg width="188pt" height="106pt"
 viewBox="0.00 0.00 187.50 106.00" xmlns="http://www.w3.org/2000/svg" xmlns:xlink="http://www.w3.org/1999/xlink">
<g id="graph0" class="graph" transform="scale(1 1) rotate(0) translate(4 102)">
<title>starsh_blrf</title>
<polygon fill="white" stroke="none" points="-4,4 -4,-102 183.5,-102 183.5,4 -4,4"/>
<!-- Node1 -->
<g id="node1" class="node"><title>Node1</title>
<polygon fill="#bfbfbf" stroke="black" points="59.5,-0.5 59.5,-19.5 121.5,-19.5 121.5,-0.5 59.5,-0.5"/>
<text text-anchor="middle" x="90.5" y="-7.5" font-family="Helvetica,sans-Serif" font-size="10.00">starsh_blrf</text>
</g>
<!-- Node2 -->
<g id="node2" class="node"><title>Node2</title>
<g id="a_node2"><a xlink:href="structstarsh__problem.html" target="_top" xlink:title="Matrix/tensor in matrix/tensor&#45;free form. ">
<polygon fill="white" stroke="black" points="0,-78.5 0,-97.5 83,-97.5 83,-78.5 0,-78.5"/>
<text text-anchor="middle" x="41.5" y="-85.5" font-family="Helvetica,sans-Serif" font-size="10.00">starsh_problem</text>
</a>
</g>
</g>
<!-- Node2&#45;&gt;Node1 -->
<g id="edge1" class="edge"><title>Node2&#45;&gt;Node1</title>
<path fill="none" stroke="#9a32cd" stroke-dasharray="5,2" d="M52.7407,-69.5654C62.8094,-53.9486 77.1538,-31.7002 84.9446,-19.6165"/>
<polygon fill="#9a32cd" stroke="#9a32cd" points="49.5981,-67.9806 47.1209,-78.2818 55.4813,-71.7738 49.5981,-67.9806"/>
<text text-anchor="middle" x="91.5" y="-46.5" font-family="Helvetica,sans-Serif" font-size="10.00"> problem</text>
</g>
<!-- Node3 -->
<g id="node3" class="node"><title>Node3</title>
<g id="a_node3"><a xlink:href="structstarsh__cluster.html" target="_top" xlink:title="Info about clusterization of physical data. ">
<polygon fill="white" stroke="black" points="101.5,-78.5 101.5,-97.5 179.5,-97.5 179.5,-78.5 101.5,-78.5"/>
<text text-anchor="middle" x="140.5" y="-85.5" font-family="Helvetica,sans-Serif" font-size="10.00">starsh_cluster</text>
</a>
</g>
</g>
<!-- Node3&#45;&gt;Node1 -->
<g id="edge2" class="edge"><title>Node3&#45;&gt;Node1</title>
<path fill="none" stroke="#9a32cd" stroke-dasharray="5,2" d="M132.254,-69.0291C127.563,-59.4906 121.28,-47.7573 114.5,-38 109.919,-31.4074 103.919,-24.6574 99.0645,-19.5556"/>
<polygon fill="#9a32cd" stroke="#9a32cd" points="129.216,-70.7895 136.668,-78.3205 135.539,-67.786 129.216,-70.7895"/>
<text text-anchor="middle" x="153" y="-52" font-family="Helvetica,sans-Serif" font-size="10.00"> col_cluster</text>
<text text-anchor="middle" x="153" y="-41" font-family="Helvetica,sans-Serif" font-size="10.00">row_cluster</text>
</g>
</g>
</svg>
