<?xml version="1.0" encoding="UTF-8" standalone="no"?>
<!DOCTYPE svg PUBLIC "-//W3C//DTD SVG 1.1//EN"
 "http://www.w3.org/Graphics/SVG/1.1/DTD/svg11.dtd">
<!-- Generated by graphviz version 2.38.0 (20140413.2041)
 -->
<!-- Title: starsh_blrm Pages: 1 -->
<svg width="188pt" height="195pt"
 viewBox="0.00 0.00 187.50 195.00" xmlns="http://www.w3.org/2000/svg" xmlns:xlink="http://www.w3.org/1999/xlink">
<g id="graph0" class="graph" transform="scale(1 1) rotate(0) translate(4 191)">
<title>starsh_blrm</title>
<polygon fill="white" stroke="none" points="-4,4 -4,-191 183.5,-191 183.5,4 -4,4"/>
<!-- Node1 -->
<g id="node1" class="node"><title>Node1</title>
<polygon fill="#bfbfbf" stroke="black" points="19.5,-0.5 19.5,-19.5 87.5,-19.5 87.5,-0.5 19.5,-0.5"/>
<text text-anchor="middle" x="53.5" y="-7.5" font-family="Helvetica,sans-Serif" font-size="10.00">starsh_blrm</text>
</g>
<!-- Node2 -->
<g id="node2" class="node"><title>Node2</title>
<g id="a_node2"><a xlink:href="structarray.html" target="_top" xlink:title="N&#45;dimensional array. ">
<polygon fill="white" stroke="black" points="4.5,-89.5 4.5,-108.5 42.5,-108.5 42.5,-89.5 4.5,-89.5"/>
<text text-anchor="middle" x="23.5" y="-96.5" font-family="Helvetica,sans-Serif" font-size="10.00">array</text>
</a>
</g>
</g>
<!-- Node2&#45;&gt;Node1 -->
<g id="edge1" class="edge"><title>Node2&#45;&gt;Node1</title>
<path fill="none" stroke="#9a32cd" stroke-dasharray="5,2" d="M22.9241,-79.1279C23.2107,-66.9294 24.85,-50.9691 30.5,-38 33.5496,-30.9999 39.0411,-24.4464 43.8935,-19.5493"/>
<polygon fill="#9a32cd" stroke="#9a32cd" points="19.4257,-79.4685 22.9771,-89.4503 26.4256,-79.4325 19.4257,-79.4685"/>
<text text-anchor="middle" x="46.5" y="-63" font-family="Helvetica,sans-Serif" font-size="10.00"> far_U</text>
<text text-anchor="middle" x="46.5" y="-52" font-family="Helvetica,sans-Serif" font-size="10.00">far_V</text>
<text text-anchor="middle" x="46.5" y="-41" font-family="Helvetica,sans-Serif" font-size="10.00">near_D</text>
</g>
<!-- Node3 -->
<g id="node3" class="node"><title>Node3</title>
<g id="a_node3"><a xlink:href="structstarsh__blrf.html" target="_top" xlink:title="Non&#45;nested block&#45;wise low&#45;rank format. ">
<polygon fill="white" stroke="black" points="60.5,-89.5 60.5,-108.5 122.5,-108.5 122.5,-89.5 60.5,-89.5"/>
<text text-anchor="middle" x="91.5" y="-96.5" font-family="Helvetica,sans-Serif" font-size="10.00">starsh_blrf</text>
</a>
</g>
</g>
<!-- Node3&#45;&gt;Node1 -->
<g id="edge2" class="edge"><title>Node3&#45;&gt;Node1</title>
<path fill="none" stroke="#9a32cd" stroke-dasharray="5,2" d="M83.626,-79.9727C75.5636,-61.514 63.3744,-33.6071 57.2672,-19.6249"/>
<polygon fill="#9a32cd" stroke="#9a32cd" points="80.5074,-81.577 87.7175,-89.34 86.9222,-78.7751 80.5074,-81.577"/>
<text text-anchor="middle" x="95" y="-52" font-family="Helvetica,sans-Serif" font-size="10.00"> format</text>
</g>
<!-- Node4 -->
<g id="node4" class="node"><title>Node4</title>
<g id="a_node4"><a xlink:href="structstarsh__problem.html" target="_top" xlink:title="Matrix/tensor in matrix/tensor&#45;free form. ">
<polygon fill="white" stroke="black" points="0,-167.5 0,-186.5 83,-186.5 83,-167.5 0,-167.5"/>
<text text-anchor="middle" x="41.5" y="-174.5" font-family="Helvetica,sans-Serif" font-size="10.00">starsh_problem</text>
</a>
</g>
</g>
<!-- Node4&#45;&gt;Node3 -->
<g id="edge3" class="edge"><title>Node4&#45;&gt;Node3</title>
<path fill="none" stroke="#9a32cd" stroke-dasharray="5,2" d="M50.0901,-158.414C55.0325,-148.846 61.6159,-136.964 68.5,-127 72.9803,-120.515 78.7303,-113.765 83.3602,-108.637"/>
<polygon fill="#9a32cd" stroke="#9a32cd" points="46.9526,-156.863 45.5898,-167.37 53.2073,-160.006 46.9526,-156.863"/>
<text text-anchor="middle" x="87.5" y="-135.5" font-family="Helvetica,sans-Serif" font-size="10.00"> problem</text>
</g>
<!-- Node5 -->
<g id="node5" class="node"><title>Node5</title>
<g id="a_node5"><a xlink:href="structstarsh__cluster.html" target="_top" xlink:title="Info about clusterization of physical data. ">
<polygon fill="white" stroke="black" points="101.5,-167.5 101.5,-186.5 179.5,-186.5 179.5,-167.5 101.5,-167.5"/>
<text text-anchor="middle" x="140.5" y="-174.5" font-family="Helvetica,sans-Serif" font-size="10.00">starsh_cluster</text>
</a>
</g>
</g>
<!-- Node5&#45;&gt;Node3 -->
<g id="edge4" class="edge"><title>Node5&#45;&gt;Node3</title>
<path fill="none" stroke="#9a32cd" stroke-dasharray="5,2" d="M129.259,-158.565C119.191,-142.949 104.846,-120.7 97.0554,-108.616"/>
<polygon fill="#9a32cd" stroke="#9a32cd" points="126.519,-160.774 134.879,-167.282 132.402,-156.981 126.519,-160.774"/>
<text text-anchor="middle" x="148" y="-141" font-family="Helvetica,sans-Serif" font-size="10.00"> col_cluster</text>
<text text-anchor="middle" x="148" y="-130" font-family="Helvetica,sans-Serif" font-size="10.00">row_cluster</text>
</g>
</g>
</svg>
